%TF.GenerationSoftware,KiCad,Pcbnew,(6.0.9)*%
%TF.CreationDate,2023-01-22T15:50:23+02:00*%
%TF.ProjectId,Power for cam,506f7765-7220-4666-9f72-2063616d2e6b,rev?*%
%TF.SameCoordinates,Original*%
%TF.FileFunction,Legend,Top*%
%TF.FilePolarity,Positive*%
%FSLAX46Y46*%
G04 Gerber Fmt 4.6, Leading zero omitted, Abs format (unit mm)*
G04 Created by KiCad (PCBNEW (6.0.9)) date 2023-01-22 15:50:23*
%MOMM*%
%LPD*%
G01*
G04 APERTURE LIST*
%ADD10C,0.150000*%
%ADD11C,0.120000*%
%ADD12C,0.127000*%
G04 APERTURE END LIST*
D10*
%TO.C,J9*%
X173666666Y-75852380D02*
X173666666Y-76566666D01*
X173619047Y-76709523D01*
X173523809Y-76804761D01*
X173380952Y-76852380D01*
X173285714Y-76852380D01*
X174190476Y-76852380D02*
X174380952Y-76852380D01*
X174476190Y-76804761D01*
X174523809Y-76757142D01*
X174619047Y-76614285D01*
X174666666Y-76423809D01*
X174666666Y-76042857D01*
X174619047Y-75947619D01*
X174571428Y-75900000D01*
X174476190Y-75852380D01*
X174285714Y-75852380D01*
X174190476Y-75900000D01*
X174142857Y-75947619D01*
X174095238Y-76042857D01*
X174095238Y-76280952D01*
X174142857Y-76376190D01*
X174190476Y-76423809D01*
X174285714Y-76471428D01*
X174476190Y-76471428D01*
X174571428Y-76423809D01*
X174619047Y-76376190D01*
X174666666Y-76280952D01*
%TO.C,J5*%
X195052380Y-81133333D02*
X195766666Y-81133333D01*
X195909523Y-81180952D01*
X196004761Y-81276190D01*
X196052380Y-81419047D01*
X196052380Y-81514285D01*
X195052380Y-80180952D02*
X195052380Y-80657142D01*
X195528571Y-80704761D01*
X195480952Y-80657142D01*
X195433333Y-80561904D01*
X195433333Y-80323809D01*
X195480952Y-80228571D01*
X195528571Y-80180952D01*
X195623809Y-80133333D01*
X195861904Y-80133333D01*
X195957142Y-80180952D01*
X196004761Y-80228571D01*
X196052380Y-80323809D01*
X196052380Y-80561904D01*
X196004761Y-80657142D01*
X195957142Y-80704761D01*
%TO.C,J1*%
X176441666Y-106317380D02*
X176441666Y-107031666D01*
X176394047Y-107174523D01*
X176298809Y-107269761D01*
X176155952Y-107317380D01*
X176060714Y-107317380D01*
X177441666Y-107317380D02*
X176870238Y-107317380D01*
X177155952Y-107317380D02*
X177155952Y-106317380D01*
X177060714Y-106460238D01*
X176965476Y-106555476D01*
X176870238Y-106603095D01*
%TO.C,J8*%
X167052380Y-76333333D02*
X167766666Y-76333333D01*
X167909523Y-76380952D01*
X168004761Y-76476190D01*
X168052380Y-76619047D01*
X168052380Y-76714285D01*
X167480952Y-75714285D02*
X167433333Y-75809523D01*
X167385714Y-75857142D01*
X167290476Y-75904761D01*
X167242857Y-75904761D01*
X167147619Y-75857142D01*
X167100000Y-75809523D01*
X167052380Y-75714285D01*
X167052380Y-75523809D01*
X167100000Y-75428571D01*
X167147619Y-75380952D01*
X167242857Y-75333333D01*
X167290476Y-75333333D01*
X167385714Y-75380952D01*
X167433333Y-75428571D01*
X167480952Y-75523809D01*
X167480952Y-75714285D01*
X167528571Y-75809523D01*
X167576190Y-75857142D01*
X167671428Y-75904761D01*
X167861904Y-75904761D01*
X167957142Y-75857142D01*
X168004761Y-75809523D01*
X168052380Y-75714285D01*
X168052380Y-75523809D01*
X168004761Y-75428571D01*
X167957142Y-75380952D01*
X167861904Y-75333333D01*
X167671428Y-75333333D01*
X167576190Y-75380952D01*
X167528571Y-75428571D01*
X167480952Y-75523809D01*
%TO.C,J6*%
X167152380Y-103533333D02*
X167866666Y-103533333D01*
X168009523Y-103580952D01*
X168104761Y-103676190D01*
X168152380Y-103819047D01*
X168152380Y-103914285D01*
X167152380Y-102628571D02*
X167152380Y-102819047D01*
X167200000Y-102914285D01*
X167247619Y-102961904D01*
X167390476Y-103057142D01*
X167580952Y-103104761D01*
X167961904Y-103104761D01*
X168057142Y-103057142D01*
X168104761Y-103009523D01*
X168152380Y-102914285D01*
X168152380Y-102723809D01*
X168104761Y-102628571D01*
X168057142Y-102580952D01*
X167961904Y-102533333D01*
X167723809Y-102533333D01*
X167628571Y-102580952D01*
X167580952Y-102628571D01*
X167533333Y-102723809D01*
X167533333Y-102914285D01*
X167580952Y-103009523D01*
X167628571Y-103057142D01*
X167723809Y-103104761D01*
%TO.C,J2*%
X186716666Y-75852380D02*
X186716666Y-76566666D01*
X186669047Y-76709523D01*
X186573809Y-76804761D01*
X186430952Y-76852380D01*
X186335714Y-76852380D01*
X187145238Y-75947619D02*
X187192857Y-75900000D01*
X187288095Y-75852380D01*
X187526190Y-75852380D01*
X187621428Y-75900000D01*
X187669047Y-75947619D01*
X187716666Y-76042857D01*
X187716666Y-76138095D01*
X187669047Y-76280952D01*
X187097619Y-76852380D01*
X187716666Y-76852380D01*
%TO.C,J7*%
X192652380Y-103433333D02*
X193366666Y-103433333D01*
X193509523Y-103480952D01*
X193604761Y-103576190D01*
X193652380Y-103719047D01*
X193652380Y-103814285D01*
X192652380Y-103052380D02*
X192652380Y-102385714D01*
X193652380Y-102814285D01*
%TO.C,J4*%
X167152380Y-90533333D02*
X167866666Y-90533333D01*
X168009523Y-90580952D01*
X168104761Y-90676190D01*
X168152380Y-90819047D01*
X168152380Y-90914285D01*
X167485714Y-89628571D02*
X168152380Y-89628571D01*
X167104761Y-89866666D02*
X167819047Y-90104761D01*
X167819047Y-89485714D01*
%TO.C,J3*%
X192652380Y-76433333D02*
X193366666Y-76433333D01*
X193509523Y-76480952D01*
X193604761Y-76576190D01*
X193652380Y-76719047D01*
X193652380Y-76814285D01*
X192652380Y-76052380D02*
X192652380Y-75433333D01*
X193033333Y-75766666D01*
X193033333Y-75623809D01*
X193080952Y-75528571D01*
X193128571Y-75480952D01*
X193223809Y-75433333D01*
X193461904Y-75433333D01*
X193557142Y-75480952D01*
X193604761Y-75528571D01*
X193652380Y-75623809D01*
X193652380Y-75909523D01*
X193604761Y-76004761D01*
X193557142Y-76052380D01*
D11*
%TO.C,J9*%
X179110000Y-69150000D02*
X179110000Y-75210000D01*
X168890000Y-61990000D02*
X179110000Y-61990000D01*
X175000000Y-75400000D02*
X173000000Y-75400000D01*
X168890000Y-65050000D02*
X168890000Y-61990000D01*
X179110000Y-75210000D02*
X176300000Y-75210000D01*
X179110000Y-61990000D02*
X179110000Y-65050000D01*
X171700000Y-75210000D02*
X168890000Y-75210000D01*
X168890000Y-75210000D02*
X168890000Y-69150000D01*
%TO.C,J5*%
X200450000Y-95210000D02*
X194390000Y-95210000D01*
X207610000Y-84990000D02*
X207610000Y-95210000D01*
X194200000Y-91100000D02*
X194200000Y-89100000D01*
X194390000Y-87800000D02*
X194390000Y-84990000D01*
X204550000Y-84990000D02*
X207610000Y-84990000D01*
X207610000Y-95210000D02*
X204550000Y-95210000D01*
X194390000Y-95210000D02*
X194390000Y-92400000D01*
X194390000Y-84990000D02*
X200450000Y-84990000D01*
D12*
%TO.C,J1*%
X172600000Y-112300000D02*
X172600000Y-113300000D01*
X190100000Y-112800000D02*
X191100000Y-112800000D01*
X189350000Y-111200000D02*
X189350000Y-114400000D01*
X173850000Y-116850000D02*
X173850000Y-108750000D01*
X173850000Y-108750000D02*
X186550000Y-108750000D01*
X186550000Y-116850000D02*
X173850000Y-116850000D01*
X186550000Y-108750000D02*
X189350000Y-111200000D01*
X189350000Y-114400000D02*
X186550000Y-116850000D01*
X172100000Y-112800000D02*
X173100000Y-112800000D01*
D11*
%TO.C,J8*%
X153190000Y-70890000D02*
X156250000Y-70890000D01*
X156250000Y-81110000D02*
X153190000Y-81110000D01*
X166410000Y-78300000D02*
X166410000Y-81110000D01*
X166600000Y-75000000D02*
X166600000Y-77000000D01*
X153190000Y-81110000D02*
X153190000Y-70890000D01*
X166410000Y-70890000D02*
X166410000Y-73700000D01*
X166410000Y-81110000D02*
X160350000Y-81110000D01*
X160350000Y-70890000D02*
X166410000Y-70890000D01*
%TO.C,J6*%
X153290000Y-98090000D02*
X156350000Y-98090000D01*
X160450000Y-98090000D02*
X166510000Y-98090000D01*
X156350000Y-108310000D02*
X153290000Y-108310000D01*
X166510000Y-105500000D02*
X166510000Y-108310000D01*
X166510000Y-108310000D02*
X160450000Y-108310000D01*
X166700000Y-102200000D02*
X166700000Y-104200000D01*
X166510000Y-98090000D02*
X166510000Y-100900000D01*
X153290000Y-108310000D02*
X153290000Y-98090000D01*
%TO.C,J2*%
X192160000Y-69150000D02*
X192160000Y-75210000D01*
X181940000Y-75210000D02*
X181940000Y-69150000D01*
X181940000Y-61990000D02*
X192160000Y-61990000D01*
X184750000Y-75210000D02*
X181940000Y-75210000D01*
X181940000Y-65050000D02*
X181940000Y-61990000D01*
X192160000Y-61990000D02*
X192160000Y-65050000D01*
X188050000Y-75400000D02*
X186050000Y-75400000D01*
X192160000Y-75210000D02*
X189350000Y-75210000D01*
%TO.C,J7*%
X194200000Y-104100000D02*
X194200000Y-102100000D01*
X194390000Y-97990000D02*
X200450000Y-97990000D01*
X204550000Y-97990000D02*
X207610000Y-97990000D01*
X194390000Y-100800000D02*
X194390000Y-97990000D01*
X200450000Y-108210000D02*
X194390000Y-108210000D01*
X194390000Y-108210000D02*
X194390000Y-105400000D01*
X207610000Y-97990000D02*
X207610000Y-108210000D01*
X207610000Y-108210000D02*
X204550000Y-108210000D01*
%TO.C,J4*%
X153290000Y-85090000D02*
X156350000Y-85090000D01*
X160450000Y-85090000D02*
X166510000Y-85090000D01*
X166700000Y-89200000D02*
X166700000Y-91200000D01*
X153290000Y-95310000D02*
X153290000Y-85090000D01*
X156350000Y-95310000D02*
X153290000Y-95310000D01*
X166510000Y-95310000D02*
X160450000Y-95310000D01*
X166510000Y-92500000D02*
X166510000Y-95310000D01*
X166510000Y-85090000D02*
X166510000Y-87900000D01*
%TO.C,J3*%
X194390000Y-81210000D02*
X194390000Y-78400000D01*
X207610000Y-70990000D02*
X207610000Y-81210000D01*
X194390000Y-73800000D02*
X194390000Y-70990000D01*
X194390000Y-70990000D02*
X200450000Y-70990000D01*
X200450000Y-81210000D02*
X194390000Y-81210000D01*
X207610000Y-81210000D02*
X204550000Y-81210000D01*
X204550000Y-70990000D02*
X207610000Y-70990000D01*
X194200000Y-77100000D02*
X194200000Y-75100000D01*
%TD*%
M02*
