%TF.GenerationSoftware,KiCad,Pcbnew,(6.0.9)*%
%TF.CreationDate,2023-01-22T15:50:23+02:00*%
%TF.ProjectId,Power for cam,506f7765-7220-4666-9f72-2063616d2e6b,rev?*%
%TF.SameCoordinates,Original*%
%TF.FileFunction,Soldermask,Bot*%
%TF.FilePolarity,Negative*%
%FSLAX46Y46*%
G04 Gerber Fmt 4.6, Leading zero omitted, Abs format (unit mm)*
G04 Created by KiCad (PCBNEW (6.0.9)) date 2023-01-22 15:50:23*
%MOMM*%
%LPD*%
G01*
G04 APERTURE LIST*
%ADD10C,1.600000*%
%ADD11R,4.000000X2.000000*%
%ADD12O,3.300000X2.000000*%
%ADD13O,2.000000X3.500000*%
%ADD14R,2.000000X4.000000*%
%ADD15O,2.000000X3.300000*%
%ADD16O,3.500000X2.000000*%
%ADD17C,6.000000*%
%ADD18R,6.000000X6.000000*%
G04 APERTURE END LIST*
D10*
%TO.C,J9*%
X174000000Y-65100000D03*
D11*
X174000000Y-74100000D03*
D12*
X174000000Y-68100000D03*
D13*
X169500000Y-67100000D03*
X178500000Y-67100000D03*
%TD*%
D10*
%TO.C,J5*%
X204500000Y-90100000D03*
D14*
X195500000Y-90100000D03*
D15*
X201500000Y-90100000D03*
D16*
X202500000Y-85600000D03*
X202500000Y-94600000D03*
%TD*%
D17*
%TO.C,J1*%
X185200000Y-112800000D03*
D18*
X178000000Y-112800000D03*
%TD*%
D10*
%TO.C,J8*%
X156300000Y-76000000D03*
D14*
X165300000Y-76000000D03*
D15*
X159300000Y-76000000D03*
D16*
X158300000Y-71500000D03*
X158300000Y-80500000D03*
%TD*%
D10*
%TO.C,J6*%
X156400000Y-103200000D03*
D14*
X165400000Y-103200000D03*
D15*
X159400000Y-103200000D03*
D16*
X158400000Y-98700000D03*
X158400000Y-107700000D03*
%TD*%
D10*
%TO.C,J2*%
X187050000Y-65100000D03*
D11*
X187050000Y-74100000D03*
D12*
X187050000Y-68100000D03*
D13*
X182550000Y-67100000D03*
X191550000Y-67100000D03*
%TD*%
D10*
%TO.C,J7*%
X204500000Y-103100000D03*
D14*
X195500000Y-103100000D03*
D15*
X201500000Y-103100000D03*
D16*
X202500000Y-98600000D03*
X202500000Y-107600000D03*
%TD*%
D10*
%TO.C,J4*%
X156400000Y-90200000D03*
D14*
X165400000Y-90200000D03*
D15*
X159400000Y-90200000D03*
D16*
X158400000Y-94700000D03*
X158400000Y-85700000D03*
%TD*%
D10*
%TO.C,J3*%
X204500000Y-76100000D03*
D14*
X195500000Y-76100000D03*
D15*
X201500000Y-76100000D03*
D16*
X202500000Y-71600000D03*
X202500000Y-80600000D03*
%TD*%
M02*
