%TF.GenerationSoftware,KiCad,Pcbnew,(6.0.9)*%
%TF.CreationDate,2023-01-22T15:50:23+02:00*%
%TF.ProjectId,Power for cam,506f7765-7220-4666-9f72-2063616d2e6b,rev?*%
%TF.SameCoordinates,Original*%
%TF.FileFunction,Copper,L1,Top*%
%TF.FilePolarity,Positive*%
%FSLAX46Y46*%
G04 Gerber Fmt 4.6, Leading zero omitted, Abs format (unit mm)*
G04 Created by KiCad (PCBNEW (6.0.9)) date 2023-01-22 15:50:23*
%MOMM*%
%LPD*%
G01*
G04 APERTURE LIST*
%TA.AperFunction,NonConductor*%
%ADD10C,0.200000*%
%TD*%
%TA.AperFunction,ComponentPad*%
%ADD11R,4.000000X2.000000*%
%TD*%
%TA.AperFunction,ComponentPad*%
%ADD12O,3.300000X2.000000*%
%TD*%
%TA.AperFunction,ComponentPad*%
%ADD13O,2.000000X3.500000*%
%TD*%
%TA.AperFunction,ComponentPad*%
%ADD14R,2.000000X4.000000*%
%TD*%
%TA.AperFunction,ComponentPad*%
%ADD15O,2.000000X3.300000*%
%TD*%
%TA.AperFunction,ComponentPad*%
%ADD16O,3.500000X2.000000*%
%TD*%
%TA.AperFunction,ComponentPad*%
%ADD17C,6.000000*%
%TD*%
%TA.AperFunction,ComponentPad*%
%ADD18R,6.000000X6.000000*%
%TD*%
G04 APERTURE END LIST*
D10*
X210000000Y-120000000D02*
X150000000Y-120000000D01*
X210000000Y-60000000D02*
X210000000Y-120000000D01*
X150000000Y-120000000D02*
X150000000Y-60000000D01*
X150000000Y-60000000D02*
X210000000Y-60000000D01*
D11*
%TO.P,J9,1*%
%TO.N,/+*%
X174000000Y-74100000D03*
D12*
%TO.P,J9,2*%
%TO.N,/-*%
X174000000Y-68100000D03*
D13*
%TO.P,J9,MP*%
%TO.N,N/C*%
X169500000Y-67100000D03*
X178500000Y-67100000D03*
%TD*%
D14*
%TO.P,J5,1*%
%TO.N,/+*%
X195500000Y-90100000D03*
D15*
%TO.P,J5,2*%
%TO.N,/-*%
X201500000Y-90100000D03*
D16*
%TO.P,J5,MP*%
%TO.N,N/C*%
X202500000Y-85600000D03*
X202500000Y-94600000D03*
%TD*%
D17*
%TO.P,J1,N,NEG*%
%TO.N,/-*%
X185200000Y-112800000D03*
D18*
%TO.P,J1,P,POS*%
%TO.N,/+*%
X178000000Y-112800000D03*
%TD*%
D14*
%TO.P,J8,1*%
%TO.N,/+*%
X165300000Y-76000000D03*
D15*
%TO.P,J8,2*%
%TO.N,/-*%
X159300000Y-76000000D03*
D16*
%TO.P,J8,MP*%
%TO.N,N/C*%
X158300000Y-71500000D03*
X158300000Y-80500000D03*
%TD*%
D14*
%TO.P,J6,1*%
%TO.N,/+*%
X165400000Y-103200000D03*
D15*
%TO.P,J6,2*%
%TO.N,/-*%
X159400000Y-103200000D03*
D16*
%TO.P,J6,MP*%
%TO.N,N/C*%
X158400000Y-98700000D03*
X158400000Y-107700000D03*
%TD*%
D11*
%TO.P,J2,1*%
%TO.N,/+*%
X187050000Y-74100000D03*
D12*
%TO.P,J2,2*%
%TO.N,/-*%
X187050000Y-68100000D03*
D13*
%TO.P,J2,MP*%
%TO.N,N/C*%
X182550000Y-67100000D03*
X191550000Y-67100000D03*
%TD*%
D14*
%TO.P,J7,1*%
%TO.N,/+*%
X195500000Y-103100000D03*
D15*
%TO.P,J7,2*%
%TO.N,/-*%
X201500000Y-103100000D03*
D16*
%TO.P,J7,MP*%
%TO.N,N/C*%
X202500000Y-98600000D03*
X202500000Y-107600000D03*
%TD*%
D14*
%TO.P,J4,1*%
%TO.N,/+*%
X165400000Y-90200000D03*
D15*
%TO.P,J4,2*%
%TO.N,/-*%
X159400000Y-90200000D03*
D16*
%TO.P,J4,MP*%
%TO.N,N/C*%
X158400000Y-94700000D03*
X158400000Y-85700000D03*
%TD*%
D14*
%TO.P,J3,1*%
%TO.N,/+*%
X195500000Y-76100000D03*
D15*
%TO.P,J3,2*%
%TO.N,/-*%
X201500000Y-76100000D03*
D16*
%TO.P,J3,MP*%
%TO.N,N/C*%
X202500000Y-71600000D03*
X202500000Y-80600000D03*
%TD*%
%TA.AperFunction,Conductor*%
%TO.N,/+*%
G36*
X209333621Y-60628502D02*
G01*
X209380114Y-60682158D01*
X209391500Y-60734500D01*
X209391500Y-119265500D01*
X209371498Y-119333621D01*
X209317842Y-119380114D01*
X209265500Y-119391500D01*
X150734500Y-119391500D01*
X150666379Y-119371498D01*
X150619886Y-119317842D01*
X150608500Y-119265500D01*
X150608500Y-112800000D01*
X181686685Y-112800000D01*
X181705931Y-113167241D01*
X181763459Y-113530459D01*
X181858639Y-113885674D01*
X181990427Y-114228994D01*
X182157380Y-114556657D01*
X182357668Y-114865075D01*
X182589098Y-115150867D01*
X182849133Y-115410902D01*
X183134925Y-115642332D01*
X183443342Y-115842620D01*
X183446276Y-115844115D01*
X183446283Y-115844119D01*
X183768066Y-116008075D01*
X183771006Y-116009573D01*
X184114326Y-116141361D01*
X184469541Y-116236541D01*
X184662558Y-116267112D01*
X184829511Y-116293555D01*
X184829519Y-116293556D01*
X184832759Y-116294069D01*
X185200000Y-116313315D01*
X185567241Y-116294069D01*
X185570481Y-116293556D01*
X185570489Y-116293555D01*
X185737442Y-116267112D01*
X185930459Y-116236541D01*
X186285674Y-116141361D01*
X186628994Y-116009573D01*
X186631934Y-116008075D01*
X186953717Y-115844119D01*
X186953724Y-115844115D01*
X186956658Y-115842620D01*
X187265075Y-115642332D01*
X187550867Y-115410902D01*
X187810902Y-115150867D01*
X188042332Y-114865075D01*
X188242620Y-114556657D01*
X188409573Y-114228994D01*
X188541361Y-113885674D01*
X188636541Y-113530459D01*
X188694069Y-113167241D01*
X188713315Y-112800000D01*
X188694069Y-112432759D01*
X188636541Y-112069541D01*
X188541361Y-111714326D01*
X188409573Y-111371006D01*
X188242620Y-111043343D01*
X188042332Y-110734925D01*
X187810902Y-110449133D01*
X187550867Y-110189098D01*
X187265075Y-109957668D01*
X186956658Y-109757380D01*
X186953724Y-109755885D01*
X186953717Y-109755881D01*
X186631934Y-109591925D01*
X186628994Y-109590427D01*
X186285674Y-109458639D01*
X185930459Y-109363459D01*
X185737442Y-109332888D01*
X185570489Y-109306445D01*
X185570481Y-109306444D01*
X185567241Y-109305931D01*
X185200000Y-109286685D01*
X184832759Y-109305931D01*
X184829519Y-109306444D01*
X184829511Y-109306445D01*
X184662558Y-109332888D01*
X184469541Y-109363459D01*
X184114326Y-109458639D01*
X183771006Y-109590427D01*
X183768066Y-109591925D01*
X183446284Y-109755881D01*
X183446277Y-109755885D01*
X183443343Y-109757380D01*
X183134925Y-109957668D01*
X182849133Y-110189098D01*
X182589098Y-110449133D01*
X182357668Y-110734925D01*
X182157380Y-111043343D01*
X181990427Y-111371006D01*
X181858639Y-111714326D01*
X181763459Y-112069541D01*
X181705931Y-112432759D01*
X181686685Y-112800000D01*
X150608500Y-112800000D01*
X150608500Y-107752817D01*
X156137514Y-107752817D01*
X156138095Y-107757837D01*
X156138095Y-107757841D01*
X156154408Y-107898823D01*
X156165415Y-107993956D01*
X156166791Y-107998820D01*
X156166792Y-107998823D01*
X156204510Y-108132114D01*
X156231510Y-108227532D01*
X156233644Y-108232108D01*
X156233646Y-108232114D01*
X156290446Y-108353922D01*
X156334099Y-108447536D01*
X156336940Y-108451717D01*
X156336941Y-108451718D01*
X156345099Y-108463722D01*
X156470544Y-108648307D01*
X156637332Y-108824681D01*
X156641358Y-108827759D01*
X156641359Y-108827760D01*
X156826154Y-108969047D01*
X156826158Y-108969050D01*
X156830174Y-108972120D01*
X156834632Y-108974510D01*
X156834633Y-108974511D01*
X156945693Y-109034061D01*
X157044109Y-109086831D01*
X157273631Y-109165862D01*
X157372978Y-109183022D01*
X157508926Y-109206504D01*
X157508932Y-109206505D01*
X157512836Y-109207179D01*
X157516797Y-109207359D01*
X157516798Y-109207359D01*
X157540506Y-109208436D01*
X157540525Y-109208436D01*
X157541925Y-109208500D01*
X159211001Y-109208500D01*
X159213509Y-109208298D01*
X159213514Y-109208298D01*
X159386924Y-109194346D01*
X159386929Y-109194345D01*
X159391965Y-109193940D01*
X159396873Y-109192734D01*
X159396876Y-109192734D01*
X159622792Y-109137244D01*
X159627706Y-109136037D01*
X159632358Y-109134062D01*
X159632362Y-109134061D01*
X159793028Y-109065862D01*
X159851156Y-109041188D01*
X159957037Y-108974511D01*
X160052288Y-108914528D01*
X160052291Y-108914526D01*
X160056567Y-108911833D01*
X160155422Y-108824681D01*
X160234858Y-108754650D01*
X160234861Y-108754647D01*
X160238655Y-108751302D01*
X160241866Y-108747393D01*
X160389526Y-108567628D01*
X160389528Y-108567625D01*
X160392734Y-108563722D01*
X160514841Y-108353922D01*
X160519051Y-108342954D01*
X160600020Y-108132022D01*
X160600021Y-108132018D01*
X160601833Y-108127298D01*
X160651474Y-107889680D01*
X160662230Y-107652817D01*
X200237514Y-107652817D01*
X200238095Y-107657837D01*
X200238095Y-107657841D01*
X200264336Y-107884627D01*
X200265415Y-107893956D01*
X200266791Y-107898820D01*
X200266792Y-107898823D01*
X200312476Y-108060266D01*
X200331510Y-108127532D01*
X200333644Y-108132108D01*
X200333646Y-108132114D01*
X200390446Y-108253922D01*
X200434099Y-108347536D01*
X200570544Y-108548307D01*
X200737332Y-108724681D01*
X200741358Y-108727759D01*
X200741359Y-108727760D01*
X200926154Y-108869047D01*
X200926158Y-108869050D01*
X200930174Y-108872120D01*
X200934632Y-108874510D01*
X200934633Y-108874511D01*
X201053953Y-108938490D01*
X201144109Y-108986831D01*
X201373631Y-109065862D01*
X201472978Y-109083022D01*
X201608926Y-109106504D01*
X201608932Y-109106505D01*
X201612836Y-109107179D01*
X201616797Y-109107359D01*
X201616798Y-109107359D01*
X201640506Y-109108436D01*
X201640525Y-109108436D01*
X201641925Y-109108500D01*
X203311001Y-109108500D01*
X203313509Y-109108298D01*
X203313514Y-109108298D01*
X203486924Y-109094346D01*
X203486929Y-109094345D01*
X203491965Y-109093940D01*
X203496873Y-109092734D01*
X203496876Y-109092734D01*
X203722792Y-109037244D01*
X203727706Y-109036037D01*
X203732358Y-109034062D01*
X203732362Y-109034061D01*
X203946498Y-108943165D01*
X203951156Y-108941188D01*
X204057037Y-108874511D01*
X204152288Y-108814528D01*
X204152291Y-108814526D01*
X204156567Y-108811833D01*
X204221429Y-108754650D01*
X204334858Y-108654650D01*
X204334861Y-108654647D01*
X204338655Y-108651302D01*
X204410594Y-108563722D01*
X204489526Y-108467628D01*
X204489528Y-108467625D01*
X204492734Y-108463722D01*
X204614841Y-108253922D01*
X204701833Y-108027298D01*
X204751474Y-107789680D01*
X204762486Y-107547183D01*
X204761905Y-107542159D01*
X204735167Y-107311071D01*
X204735166Y-107311067D01*
X204734585Y-107306044D01*
X204723814Y-107267978D01*
X204669866Y-107077331D01*
X204668490Y-107072468D01*
X204666356Y-107067892D01*
X204666354Y-107067886D01*
X204568038Y-106857046D01*
X204568036Y-106857042D01*
X204565901Y-106852464D01*
X204557870Y-106840646D01*
X204500263Y-106755881D01*
X204429456Y-106651693D01*
X204262668Y-106475319D01*
X204204640Y-106430953D01*
X204073846Y-106330953D01*
X204073842Y-106330950D01*
X204069826Y-106327880D01*
X204039319Y-106311522D01*
X203860352Y-106215561D01*
X203855891Y-106213169D01*
X203626369Y-106134138D01*
X203527022Y-106116978D01*
X203391074Y-106093496D01*
X203391068Y-106093495D01*
X203387164Y-106092821D01*
X203383203Y-106092641D01*
X203383202Y-106092641D01*
X203359494Y-106091564D01*
X203359475Y-106091564D01*
X203358075Y-106091500D01*
X201688999Y-106091500D01*
X201686491Y-106091702D01*
X201686486Y-106091702D01*
X201513076Y-106105654D01*
X201513071Y-106105655D01*
X201508035Y-106106060D01*
X201503127Y-106107266D01*
X201503124Y-106107266D01*
X201387007Y-106135787D01*
X201272294Y-106163963D01*
X201267642Y-106165938D01*
X201267638Y-106165939D01*
X201160252Y-106211522D01*
X201048844Y-106258812D01*
X201037527Y-106265939D01*
X200847712Y-106385472D01*
X200847709Y-106385474D01*
X200843433Y-106388167D01*
X200839639Y-106391512D01*
X200665142Y-106545350D01*
X200665139Y-106545353D01*
X200661345Y-106548698D01*
X200658135Y-106552606D01*
X200658134Y-106552607D01*
X200575994Y-106652607D01*
X200507266Y-106736278D01*
X200385159Y-106946078D01*
X200383346Y-106950801D01*
X200300016Y-107167886D01*
X200298167Y-107172702D01*
X200248526Y-107410320D01*
X200237514Y-107652817D01*
X160662230Y-107652817D01*
X160662486Y-107647183D01*
X160661905Y-107642159D01*
X160635167Y-107411071D01*
X160635166Y-107411067D01*
X160634585Y-107406044D01*
X160607711Y-107311071D01*
X160569866Y-107177331D01*
X160568490Y-107172468D01*
X160566356Y-107167892D01*
X160566354Y-107167886D01*
X160468038Y-106957046D01*
X160468036Y-106957042D01*
X160465901Y-106952464D01*
X160329456Y-106751693D01*
X160162668Y-106575319D01*
X160123470Y-106545350D01*
X159973846Y-106430953D01*
X159973842Y-106430950D01*
X159969826Y-106427880D01*
X159890736Y-106385472D01*
X159760352Y-106315561D01*
X159755891Y-106313169D01*
X159526369Y-106234138D01*
X159395434Y-106211522D01*
X159291074Y-106193496D01*
X159291068Y-106193495D01*
X159287164Y-106192821D01*
X159283203Y-106192641D01*
X159283202Y-106192641D01*
X159259494Y-106191564D01*
X159259475Y-106191564D01*
X159258075Y-106191500D01*
X157588999Y-106191500D01*
X157586491Y-106191702D01*
X157586486Y-106191702D01*
X157413076Y-106205654D01*
X157413071Y-106205655D01*
X157408035Y-106206060D01*
X157403127Y-106207266D01*
X157403124Y-106207266D01*
X157287007Y-106235787D01*
X157172294Y-106263963D01*
X157167642Y-106265938D01*
X157167638Y-106265939D01*
X157060252Y-106311522D01*
X156948844Y-106358812D01*
X156944560Y-106361510D01*
X156747712Y-106485472D01*
X156747709Y-106485474D01*
X156743433Y-106488167D01*
X156739639Y-106491512D01*
X156565142Y-106645350D01*
X156565139Y-106645353D01*
X156561345Y-106648698D01*
X156558135Y-106652606D01*
X156558134Y-106652607D01*
X156485819Y-106740646D01*
X156407266Y-106836278D01*
X156285159Y-107046078D01*
X156198167Y-107272702D01*
X156148526Y-107510320D01*
X156137514Y-107752817D01*
X150608500Y-107752817D01*
X150608500Y-103200000D01*
X155086502Y-103200000D01*
X155106457Y-103428087D01*
X155107881Y-103433400D01*
X155107881Y-103433402D01*
X155112635Y-103451142D01*
X155165716Y-103649243D01*
X155168039Y-103654224D01*
X155168039Y-103654225D01*
X155260151Y-103851762D01*
X155260154Y-103851767D01*
X155262477Y-103856749D01*
X155320622Y-103939789D01*
X155357157Y-103991965D01*
X155393802Y-104044300D01*
X155555700Y-104206198D01*
X155560208Y-104209355D01*
X155560211Y-104209357D01*
X155603758Y-104239849D01*
X155743251Y-104337523D01*
X155748233Y-104339846D01*
X155748238Y-104339849D01*
X155945775Y-104431961D01*
X155950757Y-104434284D01*
X155956065Y-104435706D01*
X155956067Y-104435707D01*
X156166598Y-104492119D01*
X156166600Y-104492119D01*
X156171913Y-104493543D01*
X156271480Y-104502254D01*
X156340149Y-104508262D01*
X156340156Y-104508262D01*
X156342873Y-104508500D01*
X156457127Y-104508500D01*
X156459844Y-104508262D01*
X156459851Y-104508262D01*
X156528520Y-104502254D01*
X156628087Y-104493543D01*
X156633400Y-104492119D01*
X156633402Y-104492119D01*
X156843933Y-104435707D01*
X156843935Y-104435706D01*
X156849243Y-104434284D01*
X156854225Y-104431961D01*
X157051762Y-104339849D01*
X157051767Y-104339846D01*
X157056749Y-104337523D01*
X157196242Y-104239849D01*
X157239789Y-104209357D01*
X157239792Y-104209355D01*
X157244300Y-104206198D01*
X157406198Y-104044300D01*
X157442844Y-103991965D01*
X157479378Y-103939789D01*
X157537523Y-103856749D01*
X157539846Y-103851767D01*
X157539849Y-103851762D01*
X157631961Y-103654225D01*
X157631961Y-103654224D01*
X157634284Y-103649243D01*
X157643793Y-103613755D01*
X157680745Y-103553132D01*
X157744605Y-103522111D01*
X157815100Y-103530539D01*
X157869847Y-103575742D01*
X157891500Y-103646366D01*
X157891500Y-103911001D01*
X157891702Y-103913509D01*
X157891702Y-103913514D01*
X157902539Y-104048197D01*
X157906060Y-104091965D01*
X157907266Y-104096873D01*
X157907266Y-104096876D01*
X157933161Y-104202301D01*
X157963963Y-104327706D01*
X157965938Y-104332358D01*
X157965939Y-104332362D01*
X157998157Y-104408262D01*
X158058812Y-104551156D01*
X158188167Y-104756567D01*
X158191512Y-104760361D01*
X158345350Y-104934858D01*
X158345353Y-104934861D01*
X158348698Y-104938655D01*
X158352606Y-104941865D01*
X158352607Y-104941866D01*
X158503611Y-105065901D01*
X158536278Y-105092734D01*
X158577377Y-105116654D01*
X158668804Y-105169866D01*
X158746078Y-105214841D01*
X158750801Y-105216654D01*
X158967978Y-105300020D01*
X158967982Y-105300021D01*
X158972702Y-105301833D01*
X158977652Y-105302867D01*
X158977655Y-105302868D01*
X159205369Y-105350440D01*
X159205373Y-105350440D01*
X159210320Y-105351474D01*
X159452817Y-105362486D01*
X159457837Y-105361905D01*
X159457841Y-105361905D01*
X159688929Y-105335167D01*
X159688933Y-105335166D01*
X159693956Y-105334585D01*
X159698820Y-105333209D01*
X159698823Y-105333208D01*
X159922669Y-105269866D01*
X159922668Y-105269866D01*
X159927532Y-105268490D01*
X159932108Y-105266356D01*
X159932114Y-105266354D01*
X160142954Y-105168038D01*
X160142958Y-105168036D01*
X160147536Y-105165901D01*
X160348307Y-105029456D01*
X160524681Y-104862668D01*
X160527760Y-104858641D01*
X160669047Y-104673846D01*
X160669050Y-104673842D01*
X160672120Y-104669826D01*
X160679230Y-104656567D01*
X160784439Y-104460352D01*
X160786831Y-104455891D01*
X160865862Y-104226369D01*
X160897310Y-104044300D01*
X160906504Y-103991074D01*
X160906505Y-103991068D01*
X160907179Y-103987164D01*
X160908500Y-103958075D01*
X160908500Y-103811001D01*
X199991500Y-103811001D01*
X199991702Y-103813509D01*
X199991702Y-103813514D01*
X200003220Y-103956661D01*
X200006060Y-103991965D01*
X200007266Y-103996873D01*
X200007266Y-103996876D01*
X200019872Y-104048197D01*
X200063963Y-104227706D01*
X200065938Y-104232358D01*
X200065939Y-104232362D01*
X200109807Y-104335707D01*
X200158812Y-104451156D01*
X200161510Y-104455440D01*
X200224484Y-104555440D01*
X200288167Y-104656567D01*
X200291512Y-104660361D01*
X200445350Y-104834858D01*
X200445353Y-104834861D01*
X200448698Y-104838655D01*
X200452606Y-104841865D01*
X200452607Y-104841866D01*
X200570441Y-104938655D01*
X200636278Y-104992734D01*
X200741178Y-105053787D01*
X200808095Y-105092734D01*
X200846078Y-105114841D01*
X200850801Y-105116654D01*
X201067978Y-105200020D01*
X201067982Y-105200021D01*
X201072702Y-105201833D01*
X201077652Y-105202867D01*
X201077655Y-105202868D01*
X201305369Y-105250440D01*
X201305373Y-105250440D01*
X201310320Y-105251474D01*
X201552817Y-105262486D01*
X201557837Y-105261905D01*
X201557841Y-105261905D01*
X201788929Y-105235167D01*
X201788933Y-105235166D01*
X201793956Y-105234585D01*
X201798820Y-105233209D01*
X201798823Y-105233208D01*
X202022669Y-105169866D01*
X202022668Y-105169866D01*
X202027532Y-105168490D01*
X202032108Y-105166356D01*
X202032114Y-105166354D01*
X202242954Y-105068038D01*
X202242958Y-105068036D01*
X202247536Y-105065901D01*
X202448307Y-104929456D01*
X202624681Y-104762668D01*
X202695664Y-104669826D01*
X202769047Y-104573846D01*
X202769050Y-104573842D01*
X202772120Y-104569826D01*
X202830820Y-104460352D01*
X202884439Y-104360352D01*
X202886831Y-104355891D01*
X202965862Y-104126369D01*
X202997310Y-103944300D01*
X203006504Y-103891074D01*
X203006505Y-103891068D01*
X203007179Y-103887164D01*
X203007359Y-103883202D01*
X203008436Y-103859494D01*
X203008436Y-103859475D01*
X203008500Y-103858075D01*
X203008500Y-103546366D01*
X203028502Y-103478245D01*
X203082158Y-103431752D01*
X203152432Y-103421648D01*
X203217012Y-103451142D01*
X203256207Y-103513755D01*
X203265716Y-103549243D01*
X203268039Y-103554224D01*
X203268039Y-103554225D01*
X203360151Y-103751762D01*
X203360154Y-103751767D01*
X203362477Y-103756749D01*
X203435902Y-103861611D01*
X203470486Y-103911001D01*
X203493802Y-103944300D01*
X203655700Y-104106198D01*
X203660208Y-104109355D01*
X203660211Y-104109357D01*
X203684507Y-104126369D01*
X203843251Y-104237523D01*
X203848233Y-104239846D01*
X203848238Y-104239849D01*
X204026112Y-104322792D01*
X204050757Y-104334284D01*
X204056065Y-104335706D01*
X204056067Y-104335707D01*
X204266598Y-104392119D01*
X204266600Y-104392119D01*
X204271913Y-104393543D01*
X204371480Y-104402254D01*
X204440149Y-104408262D01*
X204440156Y-104408262D01*
X204442873Y-104408500D01*
X204557127Y-104408500D01*
X204559844Y-104408262D01*
X204559851Y-104408262D01*
X204628520Y-104402254D01*
X204728087Y-104393543D01*
X204733400Y-104392119D01*
X204733402Y-104392119D01*
X204943933Y-104335707D01*
X204943935Y-104335706D01*
X204949243Y-104334284D01*
X204973888Y-104322792D01*
X205151762Y-104239849D01*
X205151767Y-104239846D01*
X205156749Y-104237523D01*
X205315493Y-104126369D01*
X205339789Y-104109357D01*
X205339792Y-104109355D01*
X205344300Y-104106198D01*
X205506198Y-103944300D01*
X205529515Y-103911001D01*
X205564098Y-103861611D01*
X205637523Y-103756749D01*
X205639846Y-103751767D01*
X205639849Y-103751762D01*
X205731961Y-103554225D01*
X205731961Y-103554224D01*
X205734284Y-103549243D01*
X205793543Y-103328087D01*
X205813498Y-103100000D01*
X205793543Y-102871913D01*
X205792119Y-102866598D01*
X205735707Y-102656067D01*
X205735706Y-102656065D01*
X205734284Y-102650757D01*
X205686479Y-102548238D01*
X205639849Y-102448238D01*
X205639846Y-102448233D01*
X205637523Y-102443251D01*
X205564098Y-102338389D01*
X205509357Y-102260211D01*
X205509355Y-102260208D01*
X205506198Y-102255700D01*
X205344300Y-102093802D01*
X205339792Y-102090645D01*
X205339789Y-102090643D01*
X205261611Y-102035902D01*
X205156749Y-101962477D01*
X205151767Y-101960154D01*
X205151762Y-101960151D01*
X204954225Y-101868039D01*
X204954224Y-101868039D01*
X204949243Y-101865716D01*
X204943935Y-101864294D01*
X204943933Y-101864293D01*
X204733402Y-101807881D01*
X204733400Y-101807881D01*
X204728087Y-101806457D01*
X204628520Y-101797746D01*
X204559851Y-101791738D01*
X204559844Y-101791738D01*
X204557127Y-101791500D01*
X204442873Y-101791500D01*
X204440156Y-101791738D01*
X204440149Y-101791738D01*
X204371480Y-101797746D01*
X204271913Y-101806457D01*
X204266600Y-101807881D01*
X204266598Y-101807881D01*
X204056067Y-101864293D01*
X204056065Y-101864294D01*
X204050757Y-101865716D01*
X204045776Y-101868039D01*
X204045775Y-101868039D01*
X203848238Y-101960151D01*
X203848233Y-101960154D01*
X203843251Y-101962477D01*
X203738389Y-102035902D01*
X203660211Y-102090643D01*
X203660208Y-102090645D01*
X203655700Y-102093802D01*
X203493802Y-102255700D01*
X203490645Y-102260208D01*
X203490643Y-102260211D01*
X203435902Y-102338389D01*
X203362477Y-102443251D01*
X203360154Y-102448233D01*
X203360151Y-102448238D01*
X203313521Y-102548238D01*
X203265716Y-102650757D01*
X203264294Y-102656065D01*
X203264293Y-102656067D01*
X203256207Y-102686245D01*
X203219255Y-102746868D01*
X203155395Y-102777889D01*
X203084900Y-102769461D01*
X203030153Y-102724258D01*
X203008500Y-102653634D01*
X203008500Y-102388999D01*
X203005821Y-102355700D01*
X202994346Y-102213076D01*
X202994345Y-102213071D01*
X202993940Y-102208035D01*
X202984314Y-102168842D01*
X202937244Y-101977208D01*
X202936037Y-101972294D01*
X202926105Y-101948894D01*
X202843165Y-101753502D01*
X202841188Y-101748844D01*
X202711833Y-101543433D01*
X202639463Y-101461345D01*
X202554650Y-101365142D01*
X202554647Y-101365139D01*
X202551302Y-101361345D01*
X202547393Y-101358134D01*
X202367628Y-101210474D01*
X202367625Y-101210472D01*
X202363722Y-101207266D01*
X202233561Y-101131510D01*
X202158290Y-101087701D01*
X202158288Y-101087700D01*
X202153922Y-101085159D01*
X202102487Y-101065415D01*
X201932022Y-100999980D01*
X201932018Y-100999979D01*
X201927298Y-100998167D01*
X201922348Y-100997133D01*
X201922345Y-100997132D01*
X201694631Y-100949560D01*
X201694627Y-100949560D01*
X201689680Y-100948526D01*
X201447183Y-100937514D01*
X201442163Y-100938095D01*
X201442159Y-100938095D01*
X201211071Y-100964833D01*
X201211067Y-100964834D01*
X201206044Y-100965415D01*
X201201180Y-100966791D01*
X201201177Y-100966792D01*
X201093958Y-100997132D01*
X200972468Y-101031510D01*
X200967892Y-101033644D01*
X200967886Y-101033646D01*
X200757046Y-101131962D01*
X200757042Y-101131964D01*
X200752464Y-101134099D01*
X200551693Y-101270544D01*
X200375319Y-101437332D01*
X200372241Y-101441358D01*
X200372240Y-101441359D01*
X200230953Y-101626154D01*
X200230950Y-101626158D01*
X200227880Y-101630174D01*
X200225490Y-101634632D01*
X200225489Y-101634633D01*
X200218476Y-101647712D01*
X200113169Y-101844109D01*
X200034138Y-102073631D01*
X200033276Y-102078623D01*
X199994499Y-102303124D01*
X199992821Y-102312836D01*
X199991500Y-102341925D01*
X199991500Y-103811001D01*
X160908500Y-103811001D01*
X160908500Y-102488999D01*
X160908298Y-102486486D01*
X160894346Y-102313076D01*
X160894345Y-102313071D01*
X160893940Y-102308035D01*
X160882194Y-102260211D01*
X160837244Y-102077208D01*
X160836037Y-102072294D01*
X160793590Y-101972294D01*
X160743165Y-101853502D01*
X160741188Y-101848844D01*
X160678214Y-101748844D01*
X160614528Y-101647712D01*
X160614526Y-101647709D01*
X160611833Y-101643433D01*
X160523672Y-101543433D01*
X160454650Y-101465142D01*
X160454647Y-101465139D01*
X160451302Y-101461345D01*
X160447393Y-101458134D01*
X160267628Y-101310474D01*
X160267625Y-101310472D01*
X160263722Y-101307266D01*
X160134337Y-101231962D01*
X160058290Y-101187701D01*
X160058288Y-101187700D01*
X160053922Y-101185159D01*
X159928309Y-101136941D01*
X159832022Y-101099980D01*
X159832018Y-101099979D01*
X159827298Y-101098167D01*
X159822348Y-101097133D01*
X159822345Y-101097132D01*
X159594631Y-101049560D01*
X159594627Y-101049560D01*
X159589680Y-101048526D01*
X159347183Y-101037514D01*
X159342163Y-101038095D01*
X159342159Y-101038095D01*
X159111071Y-101064833D01*
X159111067Y-101064834D01*
X159106044Y-101065415D01*
X159101180Y-101066791D01*
X159101177Y-101066792D01*
X158993958Y-101097132D01*
X158872468Y-101131510D01*
X158867892Y-101133644D01*
X158867886Y-101133646D01*
X158657046Y-101231962D01*
X158657042Y-101231964D01*
X158652464Y-101234099D01*
X158451693Y-101370544D01*
X158275319Y-101537332D01*
X158272241Y-101541358D01*
X158272240Y-101541359D01*
X158130953Y-101726154D01*
X158130950Y-101726158D01*
X158127880Y-101730174D01*
X158125490Y-101734632D01*
X158125489Y-101734633D01*
X158066789Y-101844109D01*
X158013169Y-101944109D01*
X157934138Y-102173631D01*
X157933276Y-102178623D01*
X157901911Y-102360211D01*
X157892821Y-102412836D01*
X157892641Y-102416797D01*
X157892641Y-102416798D01*
X157891645Y-102438743D01*
X157891500Y-102441925D01*
X157891500Y-102753634D01*
X157871498Y-102821755D01*
X157817842Y-102868248D01*
X157747568Y-102878352D01*
X157682988Y-102848858D01*
X157643793Y-102786245D01*
X157635707Y-102756067D01*
X157635706Y-102756065D01*
X157634284Y-102750757D01*
X157631961Y-102745775D01*
X157539849Y-102548238D01*
X157539846Y-102548233D01*
X157537523Y-102543251D01*
X157464098Y-102438389D01*
X157409357Y-102360211D01*
X157409355Y-102360208D01*
X157406198Y-102355700D01*
X157244300Y-102193802D01*
X157239792Y-102190645D01*
X157239789Y-102190643D01*
X157107051Y-102097699D01*
X157056749Y-102062477D01*
X157051767Y-102060154D01*
X157051762Y-102060151D01*
X156854225Y-101968039D01*
X156854224Y-101968039D01*
X156849243Y-101965716D01*
X156843935Y-101964294D01*
X156843933Y-101964293D01*
X156633402Y-101907881D01*
X156633400Y-101907881D01*
X156628087Y-101906457D01*
X156528520Y-101897746D01*
X156459851Y-101891738D01*
X156459844Y-101891738D01*
X156457127Y-101891500D01*
X156342873Y-101891500D01*
X156340156Y-101891738D01*
X156340149Y-101891738D01*
X156271480Y-101897746D01*
X156171913Y-101906457D01*
X156166600Y-101907881D01*
X156166598Y-101907881D01*
X155956067Y-101964293D01*
X155956065Y-101964294D01*
X155950757Y-101965716D01*
X155945776Y-101968039D01*
X155945775Y-101968039D01*
X155748238Y-102060151D01*
X155748233Y-102060154D01*
X155743251Y-102062477D01*
X155692949Y-102097699D01*
X155560211Y-102190643D01*
X155560208Y-102190645D01*
X155555700Y-102193802D01*
X155393802Y-102355700D01*
X155390645Y-102360208D01*
X155390643Y-102360211D01*
X155335902Y-102438389D01*
X155262477Y-102543251D01*
X155260154Y-102548233D01*
X155260151Y-102548238D01*
X155168039Y-102745775D01*
X155165716Y-102750757D01*
X155106457Y-102971913D01*
X155086502Y-103200000D01*
X150608500Y-103200000D01*
X150608500Y-98752817D01*
X156137514Y-98752817D01*
X156138095Y-98757837D01*
X156138095Y-98757841D01*
X156154408Y-98898823D01*
X156165415Y-98993956D01*
X156166791Y-98998820D01*
X156166792Y-98998823D01*
X156204510Y-99132114D01*
X156231510Y-99227532D01*
X156233644Y-99232108D01*
X156233646Y-99232114D01*
X156290446Y-99353922D01*
X156334099Y-99447536D01*
X156336940Y-99451717D01*
X156336941Y-99451718D01*
X156345099Y-99463722D01*
X156470544Y-99648307D01*
X156637332Y-99824681D01*
X156641358Y-99827759D01*
X156641359Y-99827760D01*
X156826154Y-99969047D01*
X156826158Y-99969050D01*
X156830174Y-99972120D01*
X156834632Y-99974510D01*
X156834633Y-99974511D01*
X156945693Y-100034061D01*
X157044109Y-100086831D01*
X157273631Y-100165862D01*
X157372978Y-100183022D01*
X157508926Y-100206504D01*
X157508932Y-100206505D01*
X157512836Y-100207179D01*
X157516797Y-100207359D01*
X157516798Y-100207359D01*
X157540506Y-100208436D01*
X157540525Y-100208436D01*
X157541925Y-100208500D01*
X159211001Y-100208500D01*
X159213509Y-100208298D01*
X159213514Y-100208298D01*
X159386924Y-100194346D01*
X159386929Y-100194345D01*
X159391965Y-100193940D01*
X159396873Y-100192734D01*
X159396876Y-100192734D01*
X159622792Y-100137244D01*
X159627706Y-100136037D01*
X159632358Y-100134062D01*
X159632362Y-100134061D01*
X159793028Y-100065862D01*
X159851156Y-100041188D01*
X159957037Y-99974511D01*
X160052288Y-99914528D01*
X160052291Y-99914526D01*
X160056567Y-99911833D01*
X160155422Y-99824681D01*
X160234858Y-99754650D01*
X160234861Y-99754647D01*
X160238655Y-99751302D01*
X160241866Y-99747393D01*
X160389526Y-99567628D01*
X160389528Y-99567625D01*
X160392734Y-99563722D01*
X160514841Y-99353922D01*
X160519051Y-99342954D01*
X160600020Y-99132022D01*
X160600021Y-99132018D01*
X160601833Y-99127298D01*
X160651474Y-98889680D01*
X160662230Y-98652817D01*
X200237514Y-98652817D01*
X200238095Y-98657837D01*
X200238095Y-98657841D01*
X200264336Y-98884627D01*
X200265415Y-98893956D01*
X200266791Y-98898820D01*
X200266792Y-98898823D01*
X200312476Y-99060266D01*
X200331510Y-99127532D01*
X200333644Y-99132108D01*
X200333646Y-99132114D01*
X200390446Y-99253922D01*
X200434099Y-99347536D01*
X200570544Y-99548307D01*
X200737332Y-99724681D01*
X200741358Y-99727759D01*
X200741359Y-99727760D01*
X200926154Y-99869047D01*
X200926158Y-99869050D01*
X200930174Y-99872120D01*
X200934632Y-99874510D01*
X200934633Y-99874511D01*
X201053953Y-99938490D01*
X201144109Y-99986831D01*
X201373631Y-100065862D01*
X201472978Y-100083022D01*
X201608926Y-100106504D01*
X201608932Y-100106505D01*
X201612836Y-100107179D01*
X201616797Y-100107359D01*
X201616798Y-100107359D01*
X201640506Y-100108436D01*
X201640525Y-100108436D01*
X201641925Y-100108500D01*
X203311001Y-100108500D01*
X203313509Y-100108298D01*
X203313514Y-100108298D01*
X203486924Y-100094346D01*
X203486929Y-100094345D01*
X203491965Y-100093940D01*
X203496873Y-100092734D01*
X203496876Y-100092734D01*
X203722792Y-100037244D01*
X203727706Y-100036037D01*
X203732358Y-100034062D01*
X203732362Y-100034061D01*
X203946498Y-99943165D01*
X203951156Y-99941188D01*
X204057037Y-99874511D01*
X204152288Y-99814528D01*
X204152291Y-99814526D01*
X204156567Y-99811833D01*
X204221429Y-99754650D01*
X204334858Y-99654650D01*
X204334861Y-99654647D01*
X204338655Y-99651302D01*
X204410594Y-99563722D01*
X204489526Y-99467628D01*
X204489528Y-99467625D01*
X204492734Y-99463722D01*
X204614841Y-99253922D01*
X204701833Y-99027298D01*
X204751474Y-98789680D01*
X204762486Y-98547183D01*
X204761905Y-98542159D01*
X204735167Y-98311071D01*
X204735166Y-98311067D01*
X204734585Y-98306044D01*
X204723814Y-98267978D01*
X204669866Y-98077331D01*
X204668490Y-98072468D01*
X204666356Y-98067892D01*
X204666354Y-98067886D01*
X204568038Y-97857046D01*
X204568036Y-97857042D01*
X204565901Y-97852464D01*
X204557870Y-97840646D01*
X204500263Y-97755881D01*
X204429456Y-97651693D01*
X204262668Y-97475319D01*
X204204640Y-97430953D01*
X204073846Y-97330953D01*
X204073842Y-97330950D01*
X204069826Y-97327880D01*
X204039319Y-97311522D01*
X203860352Y-97215561D01*
X203855891Y-97213169D01*
X203626369Y-97134138D01*
X203527022Y-97116978D01*
X203391074Y-97093496D01*
X203391068Y-97093495D01*
X203387164Y-97092821D01*
X203383203Y-97092641D01*
X203383202Y-97092641D01*
X203359494Y-97091564D01*
X203359475Y-97091564D01*
X203358075Y-97091500D01*
X201688999Y-97091500D01*
X201686491Y-97091702D01*
X201686486Y-97091702D01*
X201513076Y-97105654D01*
X201513071Y-97105655D01*
X201508035Y-97106060D01*
X201503127Y-97107266D01*
X201503124Y-97107266D01*
X201387007Y-97135787D01*
X201272294Y-97163963D01*
X201267642Y-97165938D01*
X201267638Y-97165939D01*
X201160252Y-97211522D01*
X201048844Y-97258812D01*
X201037527Y-97265939D01*
X200847712Y-97385472D01*
X200847709Y-97385474D01*
X200843433Y-97388167D01*
X200839639Y-97391512D01*
X200665142Y-97545350D01*
X200665139Y-97545353D01*
X200661345Y-97548698D01*
X200658135Y-97552606D01*
X200658134Y-97552607D01*
X200575994Y-97652607D01*
X200507266Y-97736278D01*
X200385159Y-97946078D01*
X200383346Y-97950801D01*
X200300016Y-98167886D01*
X200298167Y-98172702D01*
X200248526Y-98410320D01*
X200237514Y-98652817D01*
X160662230Y-98652817D01*
X160662486Y-98647183D01*
X160661905Y-98642159D01*
X160635167Y-98411071D01*
X160635166Y-98411067D01*
X160634585Y-98406044D01*
X160607711Y-98311071D01*
X160569866Y-98177331D01*
X160568490Y-98172468D01*
X160566356Y-98167892D01*
X160566354Y-98167886D01*
X160468038Y-97957046D01*
X160468036Y-97957042D01*
X160465901Y-97952464D01*
X160329456Y-97751693D01*
X160162668Y-97575319D01*
X160123470Y-97545350D01*
X159973846Y-97430953D01*
X159973842Y-97430950D01*
X159969826Y-97427880D01*
X159890736Y-97385472D01*
X159760352Y-97315561D01*
X159755891Y-97313169D01*
X159526369Y-97234138D01*
X159395434Y-97211522D01*
X159291074Y-97193496D01*
X159291068Y-97193495D01*
X159287164Y-97192821D01*
X159283203Y-97192641D01*
X159283202Y-97192641D01*
X159259494Y-97191564D01*
X159259475Y-97191564D01*
X159258075Y-97191500D01*
X157588999Y-97191500D01*
X157586491Y-97191702D01*
X157586486Y-97191702D01*
X157413076Y-97205654D01*
X157413071Y-97205655D01*
X157408035Y-97206060D01*
X157403127Y-97207266D01*
X157403124Y-97207266D01*
X157287007Y-97235787D01*
X157172294Y-97263963D01*
X157167642Y-97265938D01*
X157167638Y-97265939D01*
X157060252Y-97311522D01*
X156948844Y-97358812D01*
X156944560Y-97361510D01*
X156747712Y-97485472D01*
X156747709Y-97485474D01*
X156743433Y-97488167D01*
X156739639Y-97491512D01*
X156565142Y-97645350D01*
X156565139Y-97645353D01*
X156561345Y-97648698D01*
X156558135Y-97652606D01*
X156558134Y-97652607D01*
X156485819Y-97740646D01*
X156407266Y-97836278D01*
X156285159Y-98046078D01*
X156198167Y-98272702D01*
X156148526Y-98510320D01*
X156137514Y-98752817D01*
X150608500Y-98752817D01*
X150608500Y-94752817D01*
X156137514Y-94752817D01*
X156138095Y-94757837D01*
X156138095Y-94757841D01*
X156154408Y-94898823D01*
X156165415Y-94993956D01*
X156166791Y-94998820D01*
X156166792Y-94998823D01*
X156204510Y-95132114D01*
X156231510Y-95227532D01*
X156233644Y-95232108D01*
X156233646Y-95232114D01*
X156290446Y-95353922D01*
X156334099Y-95447536D01*
X156336940Y-95451717D01*
X156336941Y-95451718D01*
X156345099Y-95463722D01*
X156470544Y-95648307D01*
X156637332Y-95824681D01*
X156641358Y-95827759D01*
X156641359Y-95827760D01*
X156826154Y-95969047D01*
X156826158Y-95969050D01*
X156830174Y-95972120D01*
X156834632Y-95974510D01*
X156834633Y-95974511D01*
X156945693Y-96034061D01*
X157044109Y-96086831D01*
X157273631Y-96165862D01*
X157372978Y-96183022D01*
X157508926Y-96206504D01*
X157508932Y-96206505D01*
X157512836Y-96207179D01*
X157516797Y-96207359D01*
X157516798Y-96207359D01*
X157540506Y-96208436D01*
X157540525Y-96208436D01*
X157541925Y-96208500D01*
X159211001Y-96208500D01*
X159213509Y-96208298D01*
X159213514Y-96208298D01*
X159386924Y-96194346D01*
X159386929Y-96194345D01*
X159391965Y-96193940D01*
X159396873Y-96192734D01*
X159396876Y-96192734D01*
X159622792Y-96137244D01*
X159627706Y-96136037D01*
X159632358Y-96134062D01*
X159632362Y-96134061D01*
X159793028Y-96065862D01*
X159851156Y-96041188D01*
X159957037Y-95974511D01*
X160052288Y-95914528D01*
X160052291Y-95914526D01*
X160056567Y-95911833D01*
X160155422Y-95824681D01*
X160234858Y-95754650D01*
X160234861Y-95754647D01*
X160238655Y-95751302D01*
X160241866Y-95747393D01*
X160389526Y-95567628D01*
X160389528Y-95567625D01*
X160392734Y-95563722D01*
X160514841Y-95353922D01*
X160519051Y-95342954D01*
X160600020Y-95132022D01*
X160600021Y-95132018D01*
X160601833Y-95127298D01*
X160651474Y-94889680D01*
X160662230Y-94652817D01*
X200237514Y-94652817D01*
X200238095Y-94657837D01*
X200238095Y-94657841D01*
X200264336Y-94884627D01*
X200265415Y-94893956D01*
X200266791Y-94898820D01*
X200266792Y-94898823D01*
X200312476Y-95060266D01*
X200331510Y-95127532D01*
X200333644Y-95132108D01*
X200333646Y-95132114D01*
X200390446Y-95253922D01*
X200434099Y-95347536D01*
X200570544Y-95548307D01*
X200737332Y-95724681D01*
X200741358Y-95727759D01*
X200741359Y-95727760D01*
X200926154Y-95869047D01*
X200926158Y-95869050D01*
X200930174Y-95872120D01*
X200934632Y-95874510D01*
X200934633Y-95874511D01*
X201053953Y-95938490D01*
X201144109Y-95986831D01*
X201373631Y-96065862D01*
X201472978Y-96083022D01*
X201608926Y-96106504D01*
X201608932Y-96106505D01*
X201612836Y-96107179D01*
X201616797Y-96107359D01*
X201616798Y-96107359D01*
X201640506Y-96108436D01*
X201640525Y-96108436D01*
X201641925Y-96108500D01*
X203311001Y-96108500D01*
X203313509Y-96108298D01*
X203313514Y-96108298D01*
X203486924Y-96094346D01*
X203486929Y-96094345D01*
X203491965Y-96093940D01*
X203496873Y-96092734D01*
X203496876Y-96092734D01*
X203722792Y-96037244D01*
X203727706Y-96036037D01*
X203732358Y-96034062D01*
X203732362Y-96034061D01*
X203946498Y-95943165D01*
X203951156Y-95941188D01*
X204057037Y-95874511D01*
X204152288Y-95814528D01*
X204152291Y-95814526D01*
X204156567Y-95811833D01*
X204221429Y-95754650D01*
X204334858Y-95654650D01*
X204334861Y-95654647D01*
X204338655Y-95651302D01*
X204410594Y-95563722D01*
X204489526Y-95467628D01*
X204489528Y-95467625D01*
X204492734Y-95463722D01*
X204614841Y-95253922D01*
X204701833Y-95027298D01*
X204751474Y-94789680D01*
X204762486Y-94547183D01*
X204761905Y-94542159D01*
X204735167Y-94311071D01*
X204735166Y-94311067D01*
X204734585Y-94306044D01*
X204723814Y-94267978D01*
X204669866Y-94077331D01*
X204668490Y-94072468D01*
X204666356Y-94067892D01*
X204666354Y-94067886D01*
X204568038Y-93857046D01*
X204568036Y-93857042D01*
X204565901Y-93852464D01*
X204557870Y-93840646D01*
X204500263Y-93755881D01*
X204429456Y-93651693D01*
X204262668Y-93475319D01*
X204204640Y-93430953D01*
X204073846Y-93330953D01*
X204073842Y-93330950D01*
X204069826Y-93327880D01*
X204039319Y-93311522D01*
X203860352Y-93215561D01*
X203855891Y-93213169D01*
X203626369Y-93134138D01*
X203527022Y-93116978D01*
X203391074Y-93093496D01*
X203391068Y-93093495D01*
X203387164Y-93092821D01*
X203383203Y-93092641D01*
X203383202Y-93092641D01*
X203359494Y-93091564D01*
X203359475Y-93091564D01*
X203358075Y-93091500D01*
X201688999Y-93091500D01*
X201686491Y-93091702D01*
X201686486Y-93091702D01*
X201513076Y-93105654D01*
X201513071Y-93105655D01*
X201508035Y-93106060D01*
X201503127Y-93107266D01*
X201503124Y-93107266D01*
X201387007Y-93135787D01*
X201272294Y-93163963D01*
X201267642Y-93165938D01*
X201267638Y-93165939D01*
X201160252Y-93211522D01*
X201048844Y-93258812D01*
X201037527Y-93265939D01*
X200847712Y-93385472D01*
X200847709Y-93385474D01*
X200843433Y-93388167D01*
X200839639Y-93391512D01*
X200665142Y-93545350D01*
X200665139Y-93545353D01*
X200661345Y-93548698D01*
X200658135Y-93552606D01*
X200658134Y-93552607D01*
X200575994Y-93652607D01*
X200507266Y-93736278D01*
X200385159Y-93946078D01*
X200383346Y-93950801D01*
X200300016Y-94167886D01*
X200298167Y-94172702D01*
X200248526Y-94410320D01*
X200237514Y-94652817D01*
X160662230Y-94652817D01*
X160662486Y-94647183D01*
X160661905Y-94642159D01*
X160635167Y-94411071D01*
X160635166Y-94411067D01*
X160634585Y-94406044D01*
X160607711Y-94311071D01*
X160569866Y-94177331D01*
X160568490Y-94172468D01*
X160566356Y-94167892D01*
X160566354Y-94167886D01*
X160468038Y-93957046D01*
X160468036Y-93957042D01*
X160465901Y-93952464D01*
X160329456Y-93751693D01*
X160162668Y-93575319D01*
X160123470Y-93545350D01*
X159973846Y-93430953D01*
X159973842Y-93430950D01*
X159969826Y-93427880D01*
X159890736Y-93385472D01*
X159760352Y-93315561D01*
X159755891Y-93313169D01*
X159526369Y-93234138D01*
X159395434Y-93211522D01*
X159291074Y-93193496D01*
X159291068Y-93193495D01*
X159287164Y-93192821D01*
X159283203Y-93192641D01*
X159283202Y-93192641D01*
X159259494Y-93191564D01*
X159259475Y-93191564D01*
X159258075Y-93191500D01*
X157588999Y-93191500D01*
X157586491Y-93191702D01*
X157586486Y-93191702D01*
X157413076Y-93205654D01*
X157413071Y-93205655D01*
X157408035Y-93206060D01*
X157403127Y-93207266D01*
X157403124Y-93207266D01*
X157287007Y-93235787D01*
X157172294Y-93263963D01*
X157167642Y-93265938D01*
X157167638Y-93265939D01*
X157060252Y-93311522D01*
X156948844Y-93358812D01*
X156944560Y-93361510D01*
X156747712Y-93485472D01*
X156747709Y-93485474D01*
X156743433Y-93488167D01*
X156739639Y-93491512D01*
X156565142Y-93645350D01*
X156565139Y-93645353D01*
X156561345Y-93648698D01*
X156558135Y-93652606D01*
X156558134Y-93652607D01*
X156485819Y-93740646D01*
X156407266Y-93836278D01*
X156285159Y-94046078D01*
X156198167Y-94272702D01*
X156148526Y-94510320D01*
X156137514Y-94752817D01*
X150608500Y-94752817D01*
X150608500Y-90200000D01*
X155086502Y-90200000D01*
X155106457Y-90428087D01*
X155107881Y-90433400D01*
X155107881Y-90433402D01*
X155112635Y-90451142D01*
X155165716Y-90649243D01*
X155168039Y-90654224D01*
X155168039Y-90654225D01*
X155260151Y-90851762D01*
X155260154Y-90851767D01*
X155262477Y-90856749D01*
X155320622Y-90939789D01*
X155357157Y-90991965D01*
X155393802Y-91044300D01*
X155555700Y-91206198D01*
X155560208Y-91209355D01*
X155560211Y-91209357D01*
X155603758Y-91239849D01*
X155743251Y-91337523D01*
X155748233Y-91339846D01*
X155748238Y-91339849D01*
X155945775Y-91431961D01*
X155950757Y-91434284D01*
X155956065Y-91435706D01*
X155956067Y-91435707D01*
X156166598Y-91492119D01*
X156166600Y-91492119D01*
X156171913Y-91493543D01*
X156271480Y-91502254D01*
X156340149Y-91508262D01*
X156340156Y-91508262D01*
X156342873Y-91508500D01*
X156457127Y-91508500D01*
X156459844Y-91508262D01*
X156459851Y-91508262D01*
X156528520Y-91502254D01*
X156628087Y-91493543D01*
X156633400Y-91492119D01*
X156633402Y-91492119D01*
X156843933Y-91435707D01*
X156843935Y-91435706D01*
X156849243Y-91434284D01*
X156854225Y-91431961D01*
X157051762Y-91339849D01*
X157051767Y-91339846D01*
X157056749Y-91337523D01*
X157196242Y-91239849D01*
X157239789Y-91209357D01*
X157239792Y-91209355D01*
X157244300Y-91206198D01*
X157406198Y-91044300D01*
X157442844Y-90991965D01*
X157479378Y-90939789D01*
X157537523Y-90856749D01*
X157539846Y-90851767D01*
X157539849Y-90851762D01*
X157631961Y-90654225D01*
X157631961Y-90654224D01*
X157634284Y-90649243D01*
X157643793Y-90613755D01*
X157680745Y-90553132D01*
X157744605Y-90522111D01*
X157815100Y-90530539D01*
X157869847Y-90575742D01*
X157891500Y-90646366D01*
X157891500Y-90911001D01*
X157891702Y-90913509D01*
X157891702Y-90913514D01*
X157902539Y-91048197D01*
X157906060Y-91091965D01*
X157907266Y-91096873D01*
X157907266Y-91096876D01*
X157933161Y-91202301D01*
X157963963Y-91327706D01*
X157965938Y-91332358D01*
X157965939Y-91332362D01*
X157998157Y-91408262D01*
X158058812Y-91551156D01*
X158188167Y-91756567D01*
X158191512Y-91760361D01*
X158345350Y-91934858D01*
X158345353Y-91934861D01*
X158348698Y-91938655D01*
X158352606Y-91941865D01*
X158352607Y-91941866D01*
X158503611Y-92065901D01*
X158536278Y-92092734D01*
X158577377Y-92116654D01*
X158668804Y-92169866D01*
X158746078Y-92214841D01*
X158750801Y-92216654D01*
X158967978Y-92300020D01*
X158967982Y-92300021D01*
X158972702Y-92301833D01*
X158977652Y-92302867D01*
X158977655Y-92302868D01*
X159205369Y-92350440D01*
X159205373Y-92350440D01*
X159210320Y-92351474D01*
X159452817Y-92362486D01*
X159457837Y-92361905D01*
X159457841Y-92361905D01*
X159688929Y-92335167D01*
X159688933Y-92335166D01*
X159693956Y-92334585D01*
X159698820Y-92333209D01*
X159698823Y-92333208D01*
X159922669Y-92269866D01*
X159922668Y-92269866D01*
X159927532Y-92268490D01*
X159932108Y-92266356D01*
X159932114Y-92266354D01*
X160142954Y-92168038D01*
X160142958Y-92168036D01*
X160147536Y-92165901D01*
X160348307Y-92029456D01*
X160524681Y-91862668D01*
X160527760Y-91858641D01*
X160669047Y-91673846D01*
X160669050Y-91673842D01*
X160672120Y-91669826D01*
X160679230Y-91656567D01*
X160784439Y-91460352D01*
X160786831Y-91455891D01*
X160865862Y-91226369D01*
X160897310Y-91044300D01*
X160906504Y-90991074D01*
X160906505Y-90991068D01*
X160907179Y-90987164D01*
X160908500Y-90958075D01*
X160908500Y-90811001D01*
X199991500Y-90811001D01*
X199991702Y-90813509D01*
X199991702Y-90813514D01*
X200003220Y-90956661D01*
X200006060Y-90991965D01*
X200007266Y-90996873D01*
X200007266Y-90996876D01*
X200019872Y-91048197D01*
X200063963Y-91227706D01*
X200065938Y-91232358D01*
X200065939Y-91232362D01*
X200109807Y-91335707D01*
X200158812Y-91451156D01*
X200161510Y-91455440D01*
X200224484Y-91555440D01*
X200288167Y-91656567D01*
X200291512Y-91660361D01*
X200445350Y-91834858D01*
X200445353Y-91834861D01*
X200448698Y-91838655D01*
X200452606Y-91841865D01*
X200452607Y-91841866D01*
X200570441Y-91938655D01*
X200636278Y-91992734D01*
X200741178Y-92053787D01*
X200808095Y-92092734D01*
X200846078Y-92114841D01*
X200850801Y-92116654D01*
X201067978Y-92200020D01*
X201067982Y-92200021D01*
X201072702Y-92201833D01*
X201077652Y-92202867D01*
X201077655Y-92202868D01*
X201305369Y-92250440D01*
X201305373Y-92250440D01*
X201310320Y-92251474D01*
X201552817Y-92262486D01*
X201557837Y-92261905D01*
X201557841Y-92261905D01*
X201788929Y-92235167D01*
X201788933Y-92235166D01*
X201793956Y-92234585D01*
X201798820Y-92233209D01*
X201798823Y-92233208D01*
X202022669Y-92169866D01*
X202022668Y-92169866D01*
X202027532Y-92168490D01*
X202032108Y-92166356D01*
X202032114Y-92166354D01*
X202242954Y-92068038D01*
X202242958Y-92068036D01*
X202247536Y-92065901D01*
X202448307Y-91929456D01*
X202624681Y-91762668D01*
X202695664Y-91669826D01*
X202769047Y-91573846D01*
X202769050Y-91573842D01*
X202772120Y-91569826D01*
X202830820Y-91460352D01*
X202884439Y-91360352D01*
X202886831Y-91355891D01*
X202965862Y-91126369D01*
X202997310Y-90944300D01*
X203006504Y-90891074D01*
X203006505Y-90891068D01*
X203007179Y-90887164D01*
X203007359Y-90883202D01*
X203008436Y-90859494D01*
X203008436Y-90859475D01*
X203008500Y-90858075D01*
X203008500Y-90546366D01*
X203028502Y-90478245D01*
X203082158Y-90431752D01*
X203152432Y-90421648D01*
X203217012Y-90451142D01*
X203256207Y-90513755D01*
X203265716Y-90549243D01*
X203268039Y-90554224D01*
X203268039Y-90554225D01*
X203360151Y-90751762D01*
X203360154Y-90751767D01*
X203362477Y-90756749D01*
X203435902Y-90861611D01*
X203470486Y-90911001D01*
X203493802Y-90944300D01*
X203655700Y-91106198D01*
X203660208Y-91109355D01*
X203660211Y-91109357D01*
X203684507Y-91126369D01*
X203843251Y-91237523D01*
X203848233Y-91239846D01*
X203848238Y-91239849D01*
X204026112Y-91322792D01*
X204050757Y-91334284D01*
X204056065Y-91335706D01*
X204056067Y-91335707D01*
X204266598Y-91392119D01*
X204266600Y-91392119D01*
X204271913Y-91393543D01*
X204371480Y-91402254D01*
X204440149Y-91408262D01*
X204440156Y-91408262D01*
X204442873Y-91408500D01*
X204557127Y-91408500D01*
X204559844Y-91408262D01*
X204559851Y-91408262D01*
X204628520Y-91402254D01*
X204728087Y-91393543D01*
X204733400Y-91392119D01*
X204733402Y-91392119D01*
X204943933Y-91335707D01*
X204943935Y-91335706D01*
X204949243Y-91334284D01*
X204973888Y-91322792D01*
X205151762Y-91239849D01*
X205151767Y-91239846D01*
X205156749Y-91237523D01*
X205315493Y-91126369D01*
X205339789Y-91109357D01*
X205339792Y-91109355D01*
X205344300Y-91106198D01*
X205506198Y-90944300D01*
X205529515Y-90911001D01*
X205564098Y-90861611D01*
X205637523Y-90756749D01*
X205639846Y-90751767D01*
X205639849Y-90751762D01*
X205731961Y-90554225D01*
X205731961Y-90554224D01*
X205734284Y-90549243D01*
X205793543Y-90328087D01*
X205813498Y-90100000D01*
X205793543Y-89871913D01*
X205792119Y-89866598D01*
X205735707Y-89656067D01*
X205735706Y-89656065D01*
X205734284Y-89650757D01*
X205686479Y-89548238D01*
X205639849Y-89448238D01*
X205639846Y-89448233D01*
X205637523Y-89443251D01*
X205564098Y-89338389D01*
X205509357Y-89260211D01*
X205509355Y-89260208D01*
X205506198Y-89255700D01*
X205344300Y-89093802D01*
X205339792Y-89090645D01*
X205339789Y-89090643D01*
X205261611Y-89035902D01*
X205156749Y-88962477D01*
X205151767Y-88960154D01*
X205151762Y-88960151D01*
X204954225Y-88868039D01*
X204954224Y-88868039D01*
X204949243Y-88865716D01*
X204943935Y-88864294D01*
X204943933Y-88864293D01*
X204733402Y-88807881D01*
X204733400Y-88807881D01*
X204728087Y-88806457D01*
X204628520Y-88797746D01*
X204559851Y-88791738D01*
X204559844Y-88791738D01*
X204557127Y-88791500D01*
X204442873Y-88791500D01*
X204440156Y-88791738D01*
X204440149Y-88791738D01*
X204371480Y-88797746D01*
X204271913Y-88806457D01*
X204266600Y-88807881D01*
X204266598Y-88807881D01*
X204056067Y-88864293D01*
X204056065Y-88864294D01*
X204050757Y-88865716D01*
X204045776Y-88868039D01*
X204045775Y-88868039D01*
X203848238Y-88960151D01*
X203848233Y-88960154D01*
X203843251Y-88962477D01*
X203738389Y-89035902D01*
X203660211Y-89090643D01*
X203660208Y-89090645D01*
X203655700Y-89093802D01*
X203493802Y-89255700D01*
X203490645Y-89260208D01*
X203490643Y-89260211D01*
X203435902Y-89338389D01*
X203362477Y-89443251D01*
X203360154Y-89448233D01*
X203360151Y-89448238D01*
X203313521Y-89548238D01*
X203265716Y-89650757D01*
X203264294Y-89656065D01*
X203264293Y-89656067D01*
X203256207Y-89686245D01*
X203219255Y-89746868D01*
X203155395Y-89777889D01*
X203084900Y-89769461D01*
X203030153Y-89724258D01*
X203008500Y-89653634D01*
X203008500Y-89388999D01*
X203005821Y-89355700D01*
X202994346Y-89213076D01*
X202994345Y-89213071D01*
X202993940Y-89208035D01*
X202984314Y-89168842D01*
X202937244Y-88977208D01*
X202936037Y-88972294D01*
X202926105Y-88948894D01*
X202843165Y-88753502D01*
X202841188Y-88748844D01*
X202711833Y-88543433D01*
X202639463Y-88461345D01*
X202554650Y-88365142D01*
X202554647Y-88365139D01*
X202551302Y-88361345D01*
X202547393Y-88358134D01*
X202367628Y-88210474D01*
X202367625Y-88210472D01*
X202363722Y-88207266D01*
X202233561Y-88131510D01*
X202158290Y-88087701D01*
X202158288Y-88087700D01*
X202153922Y-88085159D01*
X202102487Y-88065415D01*
X201932022Y-87999980D01*
X201932018Y-87999979D01*
X201927298Y-87998167D01*
X201922348Y-87997133D01*
X201922345Y-87997132D01*
X201694631Y-87949560D01*
X201694627Y-87949560D01*
X201689680Y-87948526D01*
X201447183Y-87937514D01*
X201442163Y-87938095D01*
X201442159Y-87938095D01*
X201211071Y-87964833D01*
X201211067Y-87964834D01*
X201206044Y-87965415D01*
X201201180Y-87966791D01*
X201201177Y-87966792D01*
X201093958Y-87997132D01*
X200972468Y-88031510D01*
X200967892Y-88033644D01*
X200967886Y-88033646D01*
X200757046Y-88131962D01*
X200757042Y-88131964D01*
X200752464Y-88134099D01*
X200551693Y-88270544D01*
X200375319Y-88437332D01*
X200372241Y-88441358D01*
X200372240Y-88441359D01*
X200230953Y-88626154D01*
X200230950Y-88626158D01*
X200227880Y-88630174D01*
X200225490Y-88634632D01*
X200225489Y-88634633D01*
X200218476Y-88647712D01*
X200113169Y-88844109D01*
X200034138Y-89073631D01*
X200033276Y-89078623D01*
X199994499Y-89303124D01*
X199992821Y-89312836D01*
X199991500Y-89341925D01*
X199991500Y-90811001D01*
X160908500Y-90811001D01*
X160908500Y-89488999D01*
X160908298Y-89486486D01*
X160894346Y-89313076D01*
X160894345Y-89313071D01*
X160893940Y-89308035D01*
X160882194Y-89260211D01*
X160837244Y-89077208D01*
X160836037Y-89072294D01*
X160793590Y-88972294D01*
X160743165Y-88853502D01*
X160741188Y-88848844D01*
X160678214Y-88748844D01*
X160614528Y-88647712D01*
X160614526Y-88647709D01*
X160611833Y-88643433D01*
X160523672Y-88543433D01*
X160454650Y-88465142D01*
X160454647Y-88465139D01*
X160451302Y-88461345D01*
X160447393Y-88458134D01*
X160267628Y-88310474D01*
X160267625Y-88310472D01*
X160263722Y-88307266D01*
X160134337Y-88231962D01*
X160058290Y-88187701D01*
X160058288Y-88187700D01*
X160053922Y-88185159D01*
X159928309Y-88136941D01*
X159832022Y-88099980D01*
X159832018Y-88099979D01*
X159827298Y-88098167D01*
X159822348Y-88097133D01*
X159822345Y-88097132D01*
X159594631Y-88049560D01*
X159594627Y-88049560D01*
X159589680Y-88048526D01*
X159347183Y-88037514D01*
X159342163Y-88038095D01*
X159342159Y-88038095D01*
X159111071Y-88064833D01*
X159111067Y-88064834D01*
X159106044Y-88065415D01*
X159101180Y-88066791D01*
X159101177Y-88066792D01*
X158993958Y-88097132D01*
X158872468Y-88131510D01*
X158867892Y-88133644D01*
X158867886Y-88133646D01*
X158657046Y-88231962D01*
X158657042Y-88231964D01*
X158652464Y-88234099D01*
X158451693Y-88370544D01*
X158275319Y-88537332D01*
X158272241Y-88541358D01*
X158272240Y-88541359D01*
X158130953Y-88726154D01*
X158130950Y-88726158D01*
X158127880Y-88730174D01*
X158125490Y-88734632D01*
X158125489Y-88734633D01*
X158066789Y-88844109D01*
X158013169Y-88944109D01*
X157934138Y-89173631D01*
X157933276Y-89178623D01*
X157901911Y-89360211D01*
X157892821Y-89412836D01*
X157892641Y-89416797D01*
X157892641Y-89416798D01*
X157891645Y-89438743D01*
X157891500Y-89441925D01*
X157891500Y-89753634D01*
X157871498Y-89821755D01*
X157817842Y-89868248D01*
X157747568Y-89878352D01*
X157682988Y-89848858D01*
X157643793Y-89786245D01*
X157635707Y-89756067D01*
X157635706Y-89756065D01*
X157634284Y-89750757D01*
X157631961Y-89745775D01*
X157539849Y-89548238D01*
X157539846Y-89548233D01*
X157537523Y-89543251D01*
X157464098Y-89438389D01*
X157409357Y-89360211D01*
X157409355Y-89360208D01*
X157406198Y-89355700D01*
X157244300Y-89193802D01*
X157239792Y-89190645D01*
X157239789Y-89190643D01*
X157107051Y-89097699D01*
X157056749Y-89062477D01*
X157051767Y-89060154D01*
X157051762Y-89060151D01*
X156854225Y-88968039D01*
X156854224Y-88968039D01*
X156849243Y-88965716D01*
X156843935Y-88964294D01*
X156843933Y-88964293D01*
X156633402Y-88907881D01*
X156633400Y-88907881D01*
X156628087Y-88906457D01*
X156528520Y-88897746D01*
X156459851Y-88891738D01*
X156459844Y-88891738D01*
X156457127Y-88891500D01*
X156342873Y-88891500D01*
X156340156Y-88891738D01*
X156340149Y-88891738D01*
X156271480Y-88897746D01*
X156171913Y-88906457D01*
X156166600Y-88907881D01*
X156166598Y-88907881D01*
X155956067Y-88964293D01*
X155956065Y-88964294D01*
X155950757Y-88965716D01*
X155945776Y-88968039D01*
X155945775Y-88968039D01*
X155748238Y-89060151D01*
X155748233Y-89060154D01*
X155743251Y-89062477D01*
X155692949Y-89097699D01*
X155560211Y-89190643D01*
X155560208Y-89190645D01*
X155555700Y-89193802D01*
X155393802Y-89355700D01*
X155390645Y-89360208D01*
X155390643Y-89360211D01*
X155335902Y-89438389D01*
X155262477Y-89543251D01*
X155260154Y-89548233D01*
X155260151Y-89548238D01*
X155168039Y-89745775D01*
X155165716Y-89750757D01*
X155106457Y-89971913D01*
X155086502Y-90200000D01*
X150608500Y-90200000D01*
X150608500Y-85752817D01*
X156137514Y-85752817D01*
X156138095Y-85757837D01*
X156138095Y-85757841D01*
X156154408Y-85898823D01*
X156165415Y-85993956D01*
X156166791Y-85998820D01*
X156166792Y-85998823D01*
X156204510Y-86132114D01*
X156231510Y-86227532D01*
X156233644Y-86232108D01*
X156233646Y-86232114D01*
X156290446Y-86353922D01*
X156334099Y-86447536D01*
X156336940Y-86451717D01*
X156336941Y-86451718D01*
X156345099Y-86463722D01*
X156470544Y-86648307D01*
X156637332Y-86824681D01*
X156641358Y-86827759D01*
X156641359Y-86827760D01*
X156826154Y-86969047D01*
X156826158Y-86969050D01*
X156830174Y-86972120D01*
X156834632Y-86974510D01*
X156834633Y-86974511D01*
X156945693Y-87034061D01*
X157044109Y-87086831D01*
X157273631Y-87165862D01*
X157372978Y-87183022D01*
X157508926Y-87206504D01*
X157508932Y-87206505D01*
X157512836Y-87207179D01*
X157516797Y-87207359D01*
X157516798Y-87207359D01*
X157540506Y-87208436D01*
X157540525Y-87208436D01*
X157541925Y-87208500D01*
X159211001Y-87208500D01*
X159213509Y-87208298D01*
X159213514Y-87208298D01*
X159386924Y-87194346D01*
X159386929Y-87194345D01*
X159391965Y-87193940D01*
X159396873Y-87192734D01*
X159396876Y-87192734D01*
X159622792Y-87137244D01*
X159627706Y-87136037D01*
X159632358Y-87134062D01*
X159632362Y-87134061D01*
X159793028Y-87065862D01*
X159851156Y-87041188D01*
X159957037Y-86974511D01*
X160052288Y-86914528D01*
X160052291Y-86914526D01*
X160056567Y-86911833D01*
X160155422Y-86824681D01*
X160234858Y-86754650D01*
X160234861Y-86754647D01*
X160238655Y-86751302D01*
X160241866Y-86747393D01*
X160389526Y-86567628D01*
X160389528Y-86567625D01*
X160392734Y-86563722D01*
X160514841Y-86353922D01*
X160519051Y-86342954D01*
X160600020Y-86132022D01*
X160600021Y-86132018D01*
X160601833Y-86127298D01*
X160651474Y-85889680D01*
X160662230Y-85652817D01*
X200237514Y-85652817D01*
X200238095Y-85657837D01*
X200238095Y-85657841D01*
X200264336Y-85884627D01*
X200265415Y-85893956D01*
X200266791Y-85898820D01*
X200266792Y-85898823D01*
X200312476Y-86060266D01*
X200331510Y-86127532D01*
X200333644Y-86132108D01*
X200333646Y-86132114D01*
X200390446Y-86253922D01*
X200434099Y-86347536D01*
X200570544Y-86548307D01*
X200737332Y-86724681D01*
X200741358Y-86727759D01*
X200741359Y-86727760D01*
X200926154Y-86869047D01*
X200926158Y-86869050D01*
X200930174Y-86872120D01*
X200934632Y-86874510D01*
X200934633Y-86874511D01*
X201053953Y-86938490D01*
X201144109Y-86986831D01*
X201373631Y-87065862D01*
X201472978Y-87083022D01*
X201608926Y-87106504D01*
X201608932Y-87106505D01*
X201612836Y-87107179D01*
X201616797Y-87107359D01*
X201616798Y-87107359D01*
X201640506Y-87108436D01*
X201640525Y-87108436D01*
X201641925Y-87108500D01*
X203311001Y-87108500D01*
X203313509Y-87108298D01*
X203313514Y-87108298D01*
X203486924Y-87094346D01*
X203486929Y-87094345D01*
X203491965Y-87093940D01*
X203496873Y-87092734D01*
X203496876Y-87092734D01*
X203722792Y-87037244D01*
X203727706Y-87036037D01*
X203732358Y-87034062D01*
X203732362Y-87034061D01*
X203946498Y-86943165D01*
X203951156Y-86941188D01*
X204057037Y-86874511D01*
X204152288Y-86814528D01*
X204152291Y-86814526D01*
X204156567Y-86811833D01*
X204221429Y-86754650D01*
X204334858Y-86654650D01*
X204334861Y-86654647D01*
X204338655Y-86651302D01*
X204410594Y-86563722D01*
X204489526Y-86467628D01*
X204489528Y-86467625D01*
X204492734Y-86463722D01*
X204614841Y-86253922D01*
X204701833Y-86027298D01*
X204751474Y-85789680D01*
X204762486Y-85547183D01*
X204761905Y-85542159D01*
X204735167Y-85311071D01*
X204735166Y-85311067D01*
X204734585Y-85306044D01*
X204723814Y-85267978D01*
X204669866Y-85077331D01*
X204668490Y-85072468D01*
X204666356Y-85067892D01*
X204666354Y-85067886D01*
X204568038Y-84857046D01*
X204568036Y-84857042D01*
X204565901Y-84852464D01*
X204557870Y-84840646D01*
X204500263Y-84755881D01*
X204429456Y-84651693D01*
X204262668Y-84475319D01*
X204204640Y-84430953D01*
X204073846Y-84330953D01*
X204073842Y-84330950D01*
X204069826Y-84327880D01*
X204039319Y-84311522D01*
X203860352Y-84215561D01*
X203855891Y-84213169D01*
X203626369Y-84134138D01*
X203527022Y-84116978D01*
X203391074Y-84093496D01*
X203391068Y-84093495D01*
X203387164Y-84092821D01*
X203383203Y-84092641D01*
X203383202Y-84092641D01*
X203359494Y-84091564D01*
X203359475Y-84091564D01*
X203358075Y-84091500D01*
X201688999Y-84091500D01*
X201686491Y-84091702D01*
X201686486Y-84091702D01*
X201513076Y-84105654D01*
X201513071Y-84105655D01*
X201508035Y-84106060D01*
X201503127Y-84107266D01*
X201503124Y-84107266D01*
X201387007Y-84135787D01*
X201272294Y-84163963D01*
X201267642Y-84165938D01*
X201267638Y-84165939D01*
X201160252Y-84211522D01*
X201048844Y-84258812D01*
X201037527Y-84265939D01*
X200847712Y-84385472D01*
X200847709Y-84385474D01*
X200843433Y-84388167D01*
X200839639Y-84391512D01*
X200665142Y-84545350D01*
X200665139Y-84545353D01*
X200661345Y-84548698D01*
X200658135Y-84552606D01*
X200658134Y-84552607D01*
X200575994Y-84652607D01*
X200507266Y-84736278D01*
X200385159Y-84946078D01*
X200383346Y-84950801D01*
X200300016Y-85167886D01*
X200298167Y-85172702D01*
X200248526Y-85410320D01*
X200237514Y-85652817D01*
X160662230Y-85652817D01*
X160662486Y-85647183D01*
X160661905Y-85642159D01*
X160635167Y-85411071D01*
X160635166Y-85411067D01*
X160634585Y-85406044D01*
X160607711Y-85311071D01*
X160569866Y-85177331D01*
X160568490Y-85172468D01*
X160566356Y-85167892D01*
X160566354Y-85167886D01*
X160468038Y-84957046D01*
X160468036Y-84957042D01*
X160465901Y-84952464D01*
X160329456Y-84751693D01*
X160162668Y-84575319D01*
X160123470Y-84545350D01*
X159973846Y-84430953D01*
X159973842Y-84430950D01*
X159969826Y-84427880D01*
X159890736Y-84385472D01*
X159760352Y-84315561D01*
X159755891Y-84313169D01*
X159526369Y-84234138D01*
X159395434Y-84211522D01*
X159291074Y-84193496D01*
X159291068Y-84193495D01*
X159287164Y-84192821D01*
X159283203Y-84192641D01*
X159283202Y-84192641D01*
X159259494Y-84191564D01*
X159259475Y-84191564D01*
X159258075Y-84191500D01*
X157588999Y-84191500D01*
X157586491Y-84191702D01*
X157586486Y-84191702D01*
X157413076Y-84205654D01*
X157413071Y-84205655D01*
X157408035Y-84206060D01*
X157403127Y-84207266D01*
X157403124Y-84207266D01*
X157287007Y-84235787D01*
X157172294Y-84263963D01*
X157167642Y-84265938D01*
X157167638Y-84265939D01*
X157060252Y-84311522D01*
X156948844Y-84358812D01*
X156944560Y-84361510D01*
X156747712Y-84485472D01*
X156747709Y-84485474D01*
X156743433Y-84488167D01*
X156739639Y-84491512D01*
X156565142Y-84645350D01*
X156565139Y-84645353D01*
X156561345Y-84648698D01*
X156558135Y-84652606D01*
X156558134Y-84652607D01*
X156485819Y-84740646D01*
X156407266Y-84836278D01*
X156285159Y-85046078D01*
X156198167Y-85272702D01*
X156148526Y-85510320D01*
X156137514Y-85752817D01*
X150608500Y-85752817D01*
X150608500Y-80552817D01*
X156037514Y-80552817D01*
X156038095Y-80557837D01*
X156038095Y-80557841D01*
X156064336Y-80784627D01*
X156065415Y-80793956D01*
X156066791Y-80798820D01*
X156066792Y-80798823D01*
X156112476Y-80960266D01*
X156131510Y-81027532D01*
X156133644Y-81032108D01*
X156133646Y-81032114D01*
X156190446Y-81153922D01*
X156234099Y-81247536D01*
X156370544Y-81448307D01*
X156537332Y-81624681D01*
X156541358Y-81627759D01*
X156541359Y-81627760D01*
X156726154Y-81769047D01*
X156726158Y-81769050D01*
X156730174Y-81772120D01*
X156734632Y-81774510D01*
X156734633Y-81774511D01*
X156853953Y-81838490D01*
X156944109Y-81886831D01*
X157173631Y-81965862D01*
X157272978Y-81983022D01*
X157408926Y-82006504D01*
X157408932Y-82006505D01*
X157412836Y-82007179D01*
X157416797Y-82007359D01*
X157416798Y-82007359D01*
X157440506Y-82008436D01*
X157440525Y-82008436D01*
X157441925Y-82008500D01*
X159111001Y-82008500D01*
X159113509Y-82008298D01*
X159113514Y-82008298D01*
X159286924Y-81994346D01*
X159286929Y-81994345D01*
X159291965Y-81993940D01*
X159296873Y-81992734D01*
X159296876Y-81992734D01*
X159522792Y-81937244D01*
X159527706Y-81936037D01*
X159532358Y-81934062D01*
X159532362Y-81934061D01*
X159746498Y-81843165D01*
X159751156Y-81841188D01*
X159857037Y-81774511D01*
X159952288Y-81714528D01*
X159952291Y-81714526D01*
X159956567Y-81711833D01*
X160021429Y-81654650D01*
X160134858Y-81554650D01*
X160134861Y-81554647D01*
X160138655Y-81551302D01*
X160210594Y-81463722D01*
X160289526Y-81367628D01*
X160289528Y-81367625D01*
X160292734Y-81363722D01*
X160414841Y-81153922D01*
X160501833Y-80927298D01*
X160551474Y-80689680D01*
X160553148Y-80652817D01*
X200237514Y-80652817D01*
X200238095Y-80657837D01*
X200238095Y-80657841D01*
X200254408Y-80798823D01*
X200265415Y-80893956D01*
X200266791Y-80898820D01*
X200266792Y-80898823D01*
X200304510Y-81032114D01*
X200331510Y-81127532D01*
X200333644Y-81132108D01*
X200333646Y-81132114D01*
X200390446Y-81253922D01*
X200434099Y-81347536D01*
X200436940Y-81351717D01*
X200436941Y-81351718D01*
X200445099Y-81363722D01*
X200570544Y-81548307D01*
X200737332Y-81724681D01*
X200741358Y-81727759D01*
X200741359Y-81727760D01*
X200926154Y-81869047D01*
X200926158Y-81869050D01*
X200930174Y-81872120D01*
X200934632Y-81874510D01*
X200934633Y-81874511D01*
X201045693Y-81934061D01*
X201144109Y-81986831D01*
X201373631Y-82065862D01*
X201472978Y-82083022D01*
X201608926Y-82106504D01*
X201608932Y-82106505D01*
X201612836Y-82107179D01*
X201616797Y-82107359D01*
X201616798Y-82107359D01*
X201640506Y-82108436D01*
X201640525Y-82108436D01*
X201641925Y-82108500D01*
X203311001Y-82108500D01*
X203313509Y-82108298D01*
X203313514Y-82108298D01*
X203486924Y-82094346D01*
X203486929Y-82094345D01*
X203491965Y-82093940D01*
X203496873Y-82092734D01*
X203496876Y-82092734D01*
X203722792Y-82037244D01*
X203727706Y-82036037D01*
X203732358Y-82034062D01*
X203732362Y-82034061D01*
X203893028Y-81965862D01*
X203951156Y-81941188D01*
X204057037Y-81874511D01*
X204152288Y-81814528D01*
X204152291Y-81814526D01*
X204156567Y-81811833D01*
X204255422Y-81724681D01*
X204334858Y-81654650D01*
X204334861Y-81654647D01*
X204338655Y-81651302D01*
X204341866Y-81647393D01*
X204489526Y-81467628D01*
X204489528Y-81467625D01*
X204492734Y-81463722D01*
X204614841Y-81253922D01*
X204619051Y-81242954D01*
X204700020Y-81032022D01*
X204700021Y-81032018D01*
X204701833Y-81027298D01*
X204751474Y-80789680D01*
X204762486Y-80547183D01*
X204761905Y-80542159D01*
X204735167Y-80311071D01*
X204735166Y-80311067D01*
X204734585Y-80306044D01*
X204707711Y-80211071D01*
X204669866Y-80077331D01*
X204668490Y-80072468D01*
X204666356Y-80067892D01*
X204666354Y-80067886D01*
X204568038Y-79857046D01*
X204568036Y-79857042D01*
X204565901Y-79852464D01*
X204429456Y-79651693D01*
X204262668Y-79475319D01*
X204223470Y-79445350D01*
X204073846Y-79330953D01*
X204073842Y-79330950D01*
X204069826Y-79327880D01*
X203990736Y-79285472D01*
X203860352Y-79215561D01*
X203855891Y-79213169D01*
X203626369Y-79134138D01*
X203495434Y-79111522D01*
X203391074Y-79093496D01*
X203391068Y-79093495D01*
X203387164Y-79092821D01*
X203383203Y-79092641D01*
X203383202Y-79092641D01*
X203359494Y-79091564D01*
X203359475Y-79091564D01*
X203358075Y-79091500D01*
X201688999Y-79091500D01*
X201686491Y-79091702D01*
X201686486Y-79091702D01*
X201513076Y-79105654D01*
X201513071Y-79105655D01*
X201508035Y-79106060D01*
X201503127Y-79107266D01*
X201503124Y-79107266D01*
X201387007Y-79135787D01*
X201272294Y-79163963D01*
X201267642Y-79165938D01*
X201267638Y-79165939D01*
X201160252Y-79211522D01*
X201048844Y-79258812D01*
X201044560Y-79261510D01*
X200847712Y-79385472D01*
X200847709Y-79385474D01*
X200843433Y-79388167D01*
X200839639Y-79391512D01*
X200665142Y-79545350D01*
X200665139Y-79545353D01*
X200661345Y-79548698D01*
X200658135Y-79552606D01*
X200658134Y-79552607D01*
X200585819Y-79640646D01*
X200507266Y-79736278D01*
X200385159Y-79946078D01*
X200298167Y-80172702D01*
X200248526Y-80410320D01*
X200237514Y-80652817D01*
X160553148Y-80652817D01*
X160562486Y-80447183D01*
X160561905Y-80442159D01*
X160535167Y-80211071D01*
X160535166Y-80211067D01*
X160534585Y-80206044D01*
X160523814Y-80167978D01*
X160469866Y-79977331D01*
X160468490Y-79972468D01*
X160466356Y-79967892D01*
X160466354Y-79967886D01*
X160368038Y-79757046D01*
X160368036Y-79757042D01*
X160365901Y-79752464D01*
X160357870Y-79740646D01*
X160300263Y-79655881D01*
X160229456Y-79551693D01*
X160062668Y-79375319D01*
X160004640Y-79330953D01*
X159873846Y-79230953D01*
X159873842Y-79230950D01*
X159869826Y-79227880D01*
X159839319Y-79211522D01*
X159660352Y-79115561D01*
X159655891Y-79113169D01*
X159426369Y-79034138D01*
X159327022Y-79016978D01*
X159191074Y-78993496D01*
X159191068Y-78993495D01*
X159187164Y-78992821D01*
X159183203Y-78992641D01*
X159183202Y-78992641D01*
X159159494Y-78991564D01*
X159159475Y-78991564D01*
X159158075Y-78991500D01*
X157488999Y-78991500D01*
X157486491Y-78991702D01*
X157486486Y-78991702D01*
X157313076Y-79005654D01*
X157313071Y-79005655D01*
X157308035Y-79006060D01*
X157303127Y-79007266D01*
X157303124Y-79007266D01*
X157187007Y-79035787D01*
X157072294Y-79063963D01*
X157067642Y-79065938D01*
X157067638Y-79065939D01*
X156960252Y-79111522D01*
X156848844Y-79158812D01*
X156837527Y-79165939D01*
X156647712Y-79285472D01*
X156647709Y-79285474D01*
X156643433Y-79288167D01*
X156639639Y-79291512D01*
X156465142Y-79445350D01*
X156465139Y-79445353D01*
X156461345Y-79448698D01*
X156458135Y-79452606D01*
X156458134Y-79452607D01*
X156375994Y-79552607D01*
X156307266Y-79636278D01*
X156185159Y-79846078D01*
X156183346Y-79850801D01*
X156100016Y-80067886D01*
X156098167Y-80072702D01*
X156048526Y-80310320D01*
X156037514Y-80552817D01*
X150608500Y-80552817D01*
X150608500Y-76000000D01*
X154986502Y-76000000D01*
X155006457Y-76228087D01*
X155065716Y-76449243D01*
X155068039Y-76454224D01*
X155068039Y-76454225D01*
X155160151Y-76651762D01*
X155160154Y-76651767D01*
X155162477Y-76656749D01*
X155235902Y-76761611D01*
X155270486Y-76811001D01*
X155293802Y-76844300D01*
X155455700Y-77006198D01*
X155460208Y-77009355D01*
X155460211Y-77009357D01*
X155484507Y-77026369D01*
X155643251Y-77137523D01*
X155648233Y-77139846D01*
X155648238Y-77139849D01*
X155826112Y-77222792D01*
X155850757Y-77234284D01*
X155856065Y-77235706D01*
X155856067Y-77235707D01*
X156066598Y-77292119D01*
X156066600Y-77292119D01*
X156071913Y-77293543D01*
X156171480Y-77302254D01*
X156240149Y-77308262D01*
X156240156Y-77308262D01*
X156242873Y-77308500D01*
X156357127Y-77308500D01*
X156359844Y-77308262D01*
X156359851Y-77308262D01*
X156428520Y-77302254D01*
X156528087Y-77293543D01*
X156533400Y-77292119D01*
X156533402Y-77292119D01*
X156743933Y-77235707D01*
X156743935Y-77235706D01*
X156749243Y-77234284D01*
X156773888Y-77222792D01*
X156951762Y-77139849D01*
X156951767Y-77139846D01*
X156956749Y-77137523D01*
X157115493Y-77026369D01*
X157139789Y-77009357D01*
X157139792Y-77009355D01*
X157144300Y-77006198D01*
X157306198Y-76844300D01*
X157329515Y-76811001D01*
X157364098Y-76761611D01*
X157437523Y-76656749D01*
X157439846Y-76651767D01*
X157439849Y-76651762D01*
X157531961Y-76454225D01*
X157531961Y-76454224D01*
X157534284Y-76449243D01*
X157543793Y-76413755D01*
X157580745Y-76353132D01*
X157644605Y-76322111D01*
X157715100Y-76330539D01*
X157769847Y-76375742D01*
X157791500Y-76446366D01*
X157791500Y-76711001D01*
X157791702Y-76713509D01*
X157791702Y-76713514D01*
X157803220Y-76856661D01*
X157806060Y-76891965D01*
X157807266Y-76896873D01*
X157807266Y-76896876D01*
X157819872Y-76948197D01*
X157863963Y-77127706D01*
X157865938Y-77132358D01*
X157865939Y-77132362D01*
X157909807Y-77235707D01*
X157958812Y-77351156D01*
X157961510Y-77355440D01*
X158024484Y-77455440D01*
X158088167Y-77556567D01*
X158091512Y-77560361D01*
X158245350Y-77734858D01*
X158245353Y-77734861D01*
X158248698Y-77738655D01*
X158252606Y-77741865D01*
X158252607Y-77741866D01*
X158370441Y-77838655D01*
X158436278Y-77892734D01*
X158541178Y-77953788D01*
X158608095Y-77992734D01*
X158646078Y-78014841D01*
X158650801Y-78016654D01*
X158867978Y-78100020D01*
X158867982Y-78100021D01*
X158872702Y-78101833D01*
X158877652Y-78102867D01*
X158877655Y-78102868D01*
X159105369Y-78150440D01*
X159105373Y-78150440D01*
X159110320Y-78151474D01*
X159352817Y-78162486D01*
X159357837Y-78161905D01*
X159357841Y-78161905D01*
X159588929Y-78135167D01*
X159588933Y-78135166D01*
X159593956Y-78134585D01*
X159598820Y-78133209D01*
X159598823Y-78133208D01*
X159822669Y-78069866D01*
X159822668Y-78069866D01*
X159827532Y-78068490D01*
X159832108Y-78066356D01*
X159832114Y-78066354D01*
X160042954Y-77968038D01*
X160042958Y-77968036D01*
X160047536Y-77965901D01*
X160248307Y-77829456D01*
X160424681Y-77662668D01*
X160495664Y-77569826D01*
X160569047Y-77473846D01*
X160569050Y-77473842D01*
X160572120Y-77469826D01*
X160630820Y-77360352D01*
X160684439Y-77260352D01*
X160686831Y-77255891D01*
X160765862Y-77026369D01*
X160797310Y-76844300D01*
X160803062Y-76811001D01*
X199991500Y-76811001D01*
X199991702Y-76813509D01*
X199991702Y-76813514D01*
X200002539Y-76948197D01*
X200006060Y-76991965D01*
X200007266Y-76996873D01*
X200007266Y-76996876D01*
X200033161Y-77102301D01*
X200063963Y-77227706D01*
X200065938Y-77232358D01*
X200065939Y-77232362D01*
X200098157Y-77308262D01*
X200158812Y-77451156D01*
X200288167Y-77656567D01*
X200291512Y-77660361D01*
X200445350Y-77834858D01*
X200445353Y-77834861D01*
X200448698Y-77838655D01*
X200452606Y-77841865D01*
X200452607Y-77841866D01*
X200603611Y-77965901D01*
X200636278Y-77992734D01*
X200677377Y-78016654D01*
X200768804Y-78069866D01*
X200846078Y-78114841D01*
X200850801Y-78116654D01*
X201067978Y-78200020D01*
X201067982Y-78200021D01*
X201072702Y-78201833D01*
X201077652Y-78202867D01*
X201077655Y-78202868D01*
X201305369Y-78250440D01*
X201305373Y-78250440D01*
X201310320Y-78251474D01*
X201552817Y-78262486D01*
X201557837Y-78261905D01*
X201557841Y-78261905D01*
X201788929Y-78235167D01*
X201788933Y-78235166D01*
X201793956Y-78234585D01*
X201798820Y-78233209D01*
X201798823Y-78233208D01*
X202022669Y-78169866D01*
X202022668Y-78169866D01*
X202027532Y-78168490D01*
X202032108Y-78166356D01*
X202032114Y-78166354D01*
X202242954Y-78068038D01*
X202242958Y-78068036D01*
X202247536Y-78065901D01*
X202448307Y-77929456D01*
X202624681Y-77762668D01*
X202627760Y-77758641D01*
X202769047Y-77573846D01*
X202769050Y-77573842D01*
X202772120Y-77569826D01*
X202779230Y-77556567D01*
X202884439Y-77360352D01*
X202886831Y-77355891D01*
X202965862Y-77126369D01*
X202997310Y-76944300D01*
X203006504Y-76891074D01*
X203006505Y-76891068D01*
X203007179Y-76887164D01*
X203008500Y-76858075D01*
X203008500Y-76546366D01*
X203028502Y-76478245D01*
X203082158Y-76431752D01*
X203152432Y-76421648D01*
X203217012Y-76451142D01*
X203256207Y-76513755D01*
X203265716Y-76549243D01*
X203268039Y-76554224D01*
X203268039Y-76554225D01*
X203360151Y-76751762D01*
X203360154Y-76751767D01*
X203362477Y-76756749D01*
X203420622Y-76839789D01*
X203457157Y-76891965D01*
X203493802Y-76944300D01*
X203655700Y-77106198D01*
X203660208Y-77109355D01*
X203660211Y-77109357D01*
X203703758Y-77139849D01*
X203843251Y-77237523D01*
X203848233Y-77239846D01*
X203848238Y-77239849D01*
X204045775Y-77331961D01*
X204050757Y-77334284D01*
X204056065Y-77335706D01*
X204056067Y-77335707D01*
X204266598Y-77392119D01*
X204266600Y-77392119D01*
X204271913Y-77393543D01*
X204371480Y-77402254D01*
X204440149Y-77408262D01*
X204440156Y-77408262D01*
X204442873Y-77408500D01*
X204557127Y-77408500D01*
X204559844Y-77408262D01*
X204559851Y-77408262D01*
X204628520Y-77402254D01*
X204728087Y-77393543D01*
X204733400Y-77392119D01*
X204733402Y-77392119D01*
X204943933Y-77335707D01*
X204943935Y-77335706D01*
X204949243Y-77334284D01*
X204954225Y-77331961D01*
X205151762Y-77239849D01*
X205151767Y-77239846D01*
X205156749Y-77237523D01*
X205296242Y-77139849D01*
X205339789Y-77109357D01*
X205339792Y-77109355D01*
X205344300Y-77106198D01*
X205506198Y-76944300D01*
X205542844Y-76891965D01*
X205579378Y-76839789D01*
X205637523Y-76756749D01*
X205639846Y-76751767D01*
X205639849Y-76751762D01*
X205731961Y-76554225D01*
X205731961Y-76554224D01*
X205734284Y-76549243D01*
X205793543Y-76328087D01*
X205813498Y-76100000D01*
X205793543Y-75871913D01*
X205734284Y-75650757D01*
X205687654Y-75550757D01*
X205639849Y-75448238D01*
X205639846Y-75448233D01*
X205637523Y-75443251D01*
X205564098Y-75338389D01*
X205509357Y-75260211D01*
X205509355Y-75260208D01*
X205506198Y-75255700D01*
X205344300Y-75093802D01*
X205339792Y-75090645D01*
X205339789Y-75090643D01*
X205207051Y-74997699D01*
X205156749Y-74962477D01*
X205151767Y-74960154D01*
X205151762Y-74960151D01*
X204954225Y-74868039D01*
X204954224Y-74868039D01*
X204949243Y-74865716D01*
X204943935Y-74864294D01*
X204943933Y-74864293D01*
X204733402Y-74807881D01*
X204733400Y-74807881D01*
X204728087Y-74806457D01*
X204628520Y-74797746D01*
X204559851Y-74791738D01*
X204559844Y-74791738D01*
X204557127Y-74791500D01*
X204442873Y-74791500D01*
X204440156Y-74791738D01*
X204440149Y-74791738D01*
X204371480Y-74797746D01*
X204271913Y-74806457D01*
X204266600Y-74807881D01*
X204266598Y-74807881D01*
X204056067Y-74864293D01*
X204056065Y-74864294D01*
X204050757Y-74865716D01*
X204045776Y-74868039D01*
X204045775Y-74868039D01*
X203848238Y-74960151D01*
X203848233Y-74960154D01*
X203843251Y-74962477D01*
X203792949Y-74997699D01*
X203660211Y-75090643D01*
X203660208Y-75090645D01*
X203655700Y-75093802D01*
X203493802Y-75255700D01*
X203490645Y-75260208D01*
X203490643Y-75260211D01*
X203435902Y-75338389D01*
X203362477Y-75443251D01*
X203360154Y-75448233D01*
X203360151Y-75448238D01*
X203312346Y-75550757D01*
X203265716Y-75650757D01*
X203264294Y-75656065D01*
X203264293Y-75656067D01*
X203256207Y-75686245D01*
X203219255Y-75746868D01*
X203155395Y-75777889D01*
X203084900Y-75769461D01*
X203030153Y-75724258D01*
X203008500Y-75653634D01*
X203008500Y-75388999D01*
X203008298Y-75386486D01*
X202994346Y-75213076D01*
X202994345Y-75213071D01*
X202993940Y-75208035D01*
X202982194Y-75160211D01*
X202937244Y-74977208D01*
X202936037Y-74972294D01*
X202893590Y-74872294D01*
X202843165Y-74753502D01*
X202841188Y-74748844D01*
X202778214Y-74648844D01*
X202714528Y-74547712D01*
X202714526Y-74547709D01*
X202711833Y-74543433D01*
X202623672Y-74443433D01*
X202554650Y-74365142D01*
X202554647Y-74365139D01*
X202551302Y-74361345D01*
X202547393Y-74358134D01*
X202367628Y-74210474D01*
X202367625Y-74210472D01*
X202363722Y-74207266D01*
X202234337Y-74131962D01*
X202158290Y-74087701D01*
X202158288Y-74087700D01*
X202153922Y-74085159D01*
X202028309Y-74036941D01*
X201932022Y-73999980D01*
X201932018Y-73999979D01*
X201927298Y-73998167D01*
X201922348Y-73997133D01*
X201922345Y-73997132D01*
X201694631Y-73949560D01*
X201694627Y-73949560D01*
X201689680Y-73948526D01*
X201447183Y-73937514D01*
X201442163Y-73938095D01*
X201442159Y-73938095D01*
X201211071Y-73964833D01*
X201211067Y-73964834D01*
X201206044Y-73965415D01*
X201201180Y-73966791D01*
X201201177Y-73966792D01*
X201093958Y-73997132D01*
X200972468Y-74031510D01*
X200967892Y-74033644D01*
X200967886Y-74033646D01*
X200757046Y-74131962D01*
X200757042Y-74131964D01*
X200752464Y-74134099D01*
X200551693Y-74270544D01*
X200375319Y-74437332D01*
X200372241Y-74441358D01*
X200372240Y-74441359D01*
X200230953Y-74626154D01*
X200230950Y-74626158D01*
X200227880Y-74630174D01*
X200225490Y-74634632D01*
X200225489Y-74634633D01*
X200166789Y-74744109D01*
X200113169Y-74844109D01*
X200034138Y-75073631D01*
X200033276Y-75078623D01*
X200001911Y-75260211D01*
X199992821Y-75312836D01*
X199992641Y-75316797D01*
X199992641Y-75316798D01*
X199991645Y-75338743D01*
X199991500Y-75341925D01*
X199991500Y-76811001D01*
X160803062Y-76811001D01*
X160806504Y-76791074D01*
X160806505Y-76791068D01*
X160807179Y-76787164D01*
X160807359Y-76783202D01*
X160808436Y-76759494D01*
X160808436Y-76759475D01*
X160808500Y-76758075D01*
X160808500Y-75288999D01*
X160805821Y-75255700D01*
X160794346Y-75113076D01*
X160794345Y-75113071D01*
X160793940Y-75108035D01*
X160784314Y-75068842D01*
X160737244Y-74877208D01*
X160736037Y-74872294D01*
X160726105Y-74848894D01*
X160643165Y-74653502D01*
X160641188Y-74648844D01*
X160511833Y-74443433D01*
X160439463Y-74361345D01*
X160354650Y-74265142D01*
X160354647Y-74265139D01*
X160351302Y-74261345D01*
X160347393Y-74258134D01*
X160167628Y-74110474D01*
X160167625Y-74110472D01*
X160163722Y-74107266D01*
X160033561Y-74031510D01*
X159958290Y-73987701D01*
X159958288Y-73987700D01*
X159953922Y-73985159D01*
X159902487Y-73965415D01*
X159732022Y-73899980D01*
X159732018Y-73899979D01*
X159727298Y-73898167D01*
X159722348Y-73897133D01*
X159722345Y-73897132D01*
X159494631Y-73849560D01*
X159494627Y-73849560D01*
X159489680Y-73848526D01*
X159247183Y-73837514D01*
X159242163Y-73838095D01*
X159242159Y-73838095D01*
X159011071Y-73864833D01*
X159011067Y-73864834D01*
X159006044Y-73865415D01*
X159001180Y-73866791D01*
X159001177Y-73866792D01*
X158893958Y-73897132D01*
X158772468Y-73931510D01*
X158767892Y-73933644D01*
X158767886Y-73933646D01*
X158557046Y-74031962D01*
X158557042Y-74031964D01*
X158552464Y-74034099D01*
X158351693Y-74170544D01*
X158175319Y-74337332D01*
X158172241Y-74341358D01*
X158172240Y-74341359D01*
X158030953Y-74526154D01*
X158030950Y-74526158D01*
X158027880Y-74530174D01*
X158025490Y-74534632D01*
X158025489Y-74534633D01*
X158018476Y-74547712D01*
X157913169Y-74744109D01*
X157834138Y-74973631D01*
X157833276Y-74978623D01*
X157794499Y-75203124D01*
X157792821Y-75212836D01*
X157791500Y-75241925D01*
X157791500Y-75553634D01*
X157771498Y-75621755D01*
X157717842Y-75668248D01*
X157647568Y-75678352D01*
X157582988Y-75648858D01*
X157543793Y-75586245D01*
X157535707Y-75556067D01*
X157535706Y-75556065D01*
X157534284Y-75550757D01*
X157486479Y-75448238D01*
X157439849Y-75348238D01*
X157439846Y-75348233D01*
X157437523Y-75343251D01*
X157364098Y-75238389D01*
X157309357Y-75160211D01*
X157309355Y-75160208D01*
X157306198Y-75155700D01*
X157144300Y-74993802D01*
X157139792Y-74990645D01*
X157139789Y-74990643D01*
X157061611Y-74935902D01*
X156956749Y-74862477D01*
X156951767Y-74860154D01*
X156951762Y-74860151D01*
X156754225Y-74768039D01*
X156754224Y-74768039D01*
X156749243Y-74765716D01*
X156743935Y-74764294D01*
X156743933Y-74764293D01*
X156533402Y-74707881D01*
X156533400Y-74707881D01*
X156528087Y-74706457D01*
X156428520Y-74697746D01*
X156359851Y-74691738D01*
X156359844Y-74691738D01*
X156357127Y-74691500D01*
X156242873Y-74691500D01*
X156240156Y-74691738D01*
X156240149Y-74691738D01*
X156171480Y-74697746D01*
X156071913Y-74706457D01*
X156066600Y-74707881D01*
X156066598Y-74707881D01*
X155856067Y-74764293D01*
X155856065Y-74764294D01*
X155850757Y-74765716D01*
X155845776Y-74768039D01*
X155845775Y-74768039D01*
X155648238Y-74860151D01*
X155648233Y-74860154D01*
X155643251Y-74862477D01*
X155538389Y-74935902D01*
X155460211Y-74990643D01*
X155460208Y-74990645D01*
X155455700Y-74993802D01*
X155293802Y-75155700D01*
X155290645Y-75160208D01*
X155290643Y-75160211D01*
X155235902Y-75238389D01*
X155162477Y-75343251D01*
X155160154Y-75348233D01*
X155160151Y-75348238D01*
X155113521Y-75448238D01*
X155065716Y-75550757D01*
X155006457Y-75771913D01*
X154986502Y-76000000D01*
X150608500Y-76000000D01*
X150608500Y-71552817D01*
X156037514Y-71552817D01*
X156038095Y-71557837D01*
X156038095Y-71557841D01*
X156064336Y-71784627D01*
X156065415Y-71793956D01*
X156066791Y-71798820D01*
X156066792Y-71798823D01*
X156112476Y-71960266D01*
X156131510Y-72027532D01*
X156133644Y-72032108D01*
X156133646Y-72032114D01*
X156190446Y-72153922D01*
X156234099Y-72247536D01*
X156370544Y-72448307D01*
X156537332Y-72624681D01*
X156541358Y-72627759D01*
X156541359Y-72627760D01*
X156726154Y-72769047D01*
X156726158Y-72769050D01*
X156730174Y-72772120D01*
X156734632Y-72774510D01*
X156734633Y-72774511D01*
X156853953Y-72838490D01*
X156944109Y-72886831D01*
X157173631Y-72965862D01*
X157272978Y-72983022D01*
X157408926Y-73006504D01*
X157408932Y-73006505D01*
X157412836Y-73007179D01*
X157416797Y-73007359D01*
X157416798Y-73007359D01*
X157440506Y-73008436D01*
X157440525Y-73008436D01*
X157441925Y-73008500D01*
X159111001Y-73008500D01*
X159113509Y-73008298D01*
X159113514Y-73008298D01*
X159286924Y-72994346D01*
X159286929Y-72994345D01*
X159291965Y-72993940D01*
X159296873Y-72992734D01*
X159296876Y-72992734D01*
X159522792Y-72937244D01*
X159527706Y-72936037D01*
X159532358Y-72934062D01*
X159532362Y-72934061D01*
X159746498Y-72843165D01*
X159751156Y-72841188D01*
X159857037Y-72774511D01*
X159952288Y-72714528D01*
X159952291Y-72714526D01*
X159956567Y-72711833D01*
X160021429Y-72654650D01*
X160134858Y-72554650D01*
X160134861Y-72554647D01*
X160138655Y-72551302D01*
X160210594Y-72463722D01*
X160289526Y-72367628D01*
X160289528Y-72367625D01*
X160292734Y-72363722D01*
X160414841Y-72153922D01*
X160501833Y-71927298D01*
X160551474Y-71689680D01*
X160553148Y-71652817D01*
X200237514Y-71652817D01*
X200238095Y-71657837D01*
X200238095Y-71657841D01*
X200254408Y-71798823D01*
X200265415Y-71893956D01*
X200266791Y-71898820D01*
X200266792Y-71898823D01*
X200304510Y-72032114D01*
X200331510Y-72127532D01*
X200333644Y-72132108D01*
X200333646Y-72132114D01*
X200390446Y-72253922D01*
X200434099Y-72347536D01*
X200436940Y-72351717D01*
X200436941Y-72351718D01*
X200445099Y-72363722D01*
X200570544Y-72548307D01*
X200737332Y-72724681D01*
X200741358Y-72727759D01*
X200741359Y-72727760D01*
X200926154Y-72869047D01*
X200926158Y-72869050D01*
X200930174Y-72872120D01*
X200934632Y-72874510D01*
X200934633Y-72874511D01*
X201045693Y-72934061D01*
X201144109Y-72986831D01*
X201373631Y-73065862D01*
X201472978Y-73083022D01*
X201608926Y-73106504D01*
X201608932Y-73106505D01*
X201612836Y-73107179D01*
X201616797Y-73107359D01*
X201616798Y-73107359D01*
X201640506Y-73108436D01*
X201640525Y-73108436D01*
X201641925Y-73108500D01*
X203311001Y-73108500D01*
X203313509Y-73108298D01*
X203313514Y-73108298D01*
X203486924Y-73094346D01*
X203486929Y-73094345D01*
X203491965Y-73093940D01*
X203496873Y-73092734D01*
X203496876Y-73092734D01*
X203722792Y-73037244D01*
X203727706Y-73036037D01*
X203732358Y-73034062D01*
X203732362Y-73034061D01*
X203893028Y-72965862D01*
X203951156Y-72941188D01*
X204057037Y-72874511D01*
X204152288Y-72814528D01*
X204152291Y-72814526D01*
X204156567Y-72811833D01*
X204255422Y-72724681D01*
X204334858Y-72654650D01*
X204334861Y-72654647D01*
X204338655Y-72651302D01*
X204341866Y-72647393D01*
X204489526Y-72467628D01*
X204489528Y-72467625D01*
X204492734Y-72463722D01*
X204614841Y-72253922D01*
X204619051Y-72242954D01*
X204700020Y-72032022D01*
X204700021Y-72032018D01*
X204701833Y-72027298D01*
X204751474Y-71789680D01*
X204762486Y-71547183D01*
X204761905Y-71542159D01*
X204735167Y-71311071D01*
X204735166Y-71311067D01*
X204734585Y-71306044D01*
X204707711Y-71211071D01*
X204669866Y-71077331D01*
X204668490Y-71072468D01*
X204666356Y-71067892D01*
X204666354Y-71067886D01*
X204568038Y-70857046D01*
X204568036Y-70857042D01*
X204565901Y-70852464D01*
X204429456Y-70651693D01*
X204262668Y-70475319D01*
X204223470Y-70445350D01*
X204073846Y-70330953D01*
X204073842Y-70330950D01*
X204069826Y-70327880D01*
X203990736Y-70285472D01*
X203860352Y-70215561D01*
X203855891Y-70213169D01*
X203626369Y-70134138D01*
X203495434Y-70111522D01*
X203391074Y-70093496D01*
X203391068Y-70093495D01*
X203387164Y-70092821D01*
X203383203Y-70092641D01*
X203383202Y-70092641D01*
X203359494Y-70091564D01*
X203359475Y-70091564D01*
X203358075Y-70091500D01*
X201688999Y-70091500D01*
X201686491Y-70091702D01*
X201686486Y-70091702D01*
X201513076Y-70105654D01*
X201513071Y-70105655D01*
X201508035Y-70106060D01*
X201503127Y-70107266D01*
X201503124Y-70107266D01*
X201387007Y-70135787D01*
X201272294Y-70163963D01*
X201267642Y-70165938D01*
X201267638Y-70165939D01*
X201160252Y-70211522D01*
X201048844Y-70258812D01*
X201044560Y-70261510D01*
X200847712Y-70385472D01*
X200847709Y-70385474D01*
X200843433Y-70388167D01*
X200839639Y-70391512D01*
X200665142Y-70545350D01*
X200665139Y-70545353D01*
X200661345Y-70548698D01*
X200658135Y-70552606D01*
X200658134Y-70552607D01*
X200585819Y-70640646D01*
X200507266Y-70736278D01*
X200385159Y-70946078D01*
X200298167Y-71172702D01*
X200248526Y-71410320D01*
X200237514Y-71652817D01*
X160553148Y-71652817D01*
X160562486Y-71447183D01*
X160561905Y-71442159D01*
X160535167Y-71211071D01*
X160535166Y-71211067D01*
X160534585Y-71206044D01*
X160523814Y-71167978D01*
X160469866Y-70977331D01*
X160468490Y-70972468D01*
X160466356Y-70967892D01*
X160466354Y-70967886D01*
X160368038Y-70757046D01*
X160368036Y-70757042D01*
X160365901Y-70752464D01*
X160357870Y-70740646D01*
X160300263Y-70655881D01*
X160229456Y-70551693D01*
X160062668Y-70375319D01*
X160004640Y-70330953D01*
X159873846Y-70230953D01*
X159873842Y-70230950D01*
X159869826Y-70227880D01*
X159839319Y-70211522D01*
X159660352Y-70115561D01*
X159655891Y-70113169D01*
X159426369Y-70034138D01*
X159327022Y-70016978D01*
X159191074Y-69993496D01*
X159191068Y-69993495D01*
X159187164Y-69992821D01*
X159183203Y-69992641D01*
X159183202Y-69992641D01*
X159159494Y-69991564D01*
X159159475Y-69991564D01*
X159158075Y-69991500D01*
X157488999Y-69991500D01*
X157486491Y-69991702D01*
X157486486Y-69991702D01*
X157313076Y-70005654D01*
X157313071Y-70005655D01*
X157308035Y-70006060D01*
X157303127Y-70007266D01*
X157303124Y-70007266D01*
X157187007Y-70035787D01*
X157072294Y-70063963D01*
X157067642Y-70065938D01*
X157067638Y-70065939D01*
X156960252Y-70111522D01*
X156848844Y-70158812D01*
X156837527Y-70165939D01*
X156647712Y-70285472D01*
X156647709Y-70285474D01*
X156643433Y-70288167D01*
X156639639Y-70291512D01*
X156465142Y-70445350D01*
X156465139Y-70445353D01*
X156461345Y-70448698D01*
X156458135Y-70452606D01*
X156458134Y-70452607D01*
X156375994Y-70552607D01*
X156307266Y-70636278D01*
X156185159Y-70846078D01*
X156183346Y-70850801D01*
X156100016Y-71067886D01*
X156098167Y-71072702D01*
X156048526Y-71310320D01*
X156037514Y-71552817D01*
X150608500Y-71552817D01*
X150608500Y-67911001D01*
X167991500Y-67911001D01*
X167991702Y-67913509D01*
X167991702Y-67913514D01*
X168002864Y-68052237D01*
X168006060Y-68091965D01*
X168007266Y-68096873D01*
X168007266Y-68096876D01*
X168037846Y-68221377D01*
X168063963Y-68327706D01*
X168065938Y-68332358D01*
X168065939Y-68332362D01*
X168092084Y-68393956D01*
X168158812Y-68551156D01*
X168288167Y-68756567D01*
X168291512Y-68760361D01*
X168445350Y-68934858D01*
X168445353Y-68934861D01*
X168448698Y-68938655D01*
X168452606Y-68941865D01*
X168452607Y-68941866D01*
X168586668Y-69051984D01*
X168636278Y-69092734D01*
X168846078Y-69214841D01*
X168850801Y-69216654D01*
X169067978Y-69300020D01*
X169067982Y-69300021D01*
X169072702Y-69301833D01*
X169077652Y-69302867D01*
X169077655Y-69302868D01*
X169305369Y-69350440D01*
X169305373Y-69350440D01*
X169310320Y-69351474D01*
X169552817Y-69362486D01*
X169557837Y-69361905D01*
X169557841Y-69361905D01*
X169788929Y-69335167D01*
X169788933Y-69335166D01*
X169793956Y-69334585D01*
X169798820Y-69333209D01*
X169798823Y-69333208D01*
X170022669Y-69269866D01*
X170022668Y-69269866D01*
X170027532Y-69268490D01*
X170032108Y-69266356D01*
X170032114Y-69266354D01*
X170242954Y-69168038D01*
X170242958Y-69168036D01*
X170247536Y-69165901D01*
X170274770Y-69147393D01*
X170444119Y-69032302D01*
X170448307Y-69029456D01*
X170624681Y-68862668D01*
X170704484Y-68758290D01*
X170769047Y-68673846D01*
X170769050Y-68673842D01*
X170772120Y-68669826D01*
X170886831Y-68455891D01*
X170965862Y-68226369D01*
X170978566Y-68152817D01*
X171837514Y-68152817D01*
X171838095Y-68157837D01*
X171838095Y-68157841D01*
X171857750Y-68327706D01*
X171865415Y-68393956D01*
X171866791Y-68398820D01*
X171866792Y-68398823D01*
X171908580Y-68546498D01*
X171931510Y-68627532D01*
X171933644Y-68632108D01*
X171933646Y-68632114D01*
X172031962Y-68842954D01*
X172034099Y-68847536D01*
X172170544Y-69048307D01*
X172337332Y-69224681D01*
X172341358Y-69227759D01*
X172341359Y-69227760D01*
X172526154Y-69369047D01*
X172526158Y-69369050D01*
X172530174Y-69372120D01*
X172744109Y-69486831D01*
X172973631Y-69565862D01*
X173072978Y-69583022D01*
X173208926Y-69606504D01*
X173208932Y-69606505D01*
X173212836Y-69607179D01*
X173216797Y-69607359D01*
X173216798Y-69607359D01*
X173240506Y-69608436D01*
X173240525Y-69608436D01*
X173241925Y-69608500D01*
X174711001Y-69608500D01*
X174713509Y-69608298D01*
X174713514Y-69608298D01*
X174886924Y-69594346D01*
X174886929Y-69594345D01*
X174891965Y-69593940D01*
X174896873Y-69592734D01*
X174896876Y-69592734D01*
X175122792Y-69537244D01*
X175127706Y-69536037D01*
X175132358Y-69534062D01*
X175132362Y-69534061D01*
X175346498Y-69443165D01*
X175351156Y-69441188D01*
X175457037Y-69374511D01*
X175552288Y-69314528D01*
X175552291Y-69314526D01*
X175556567Y-69311833D01*
X175655422Y-69224681D01*
X175734858Y-69154650D01*
X175734861Y-69154647D01*
X175738655Y-69151302D01*
X175892734Y-68963722D01*
X175963023Y-68842954D01*
X176012299Y-68758290D01*
X176012300Y-68758288D01*
X176014841Y-68753922D01*
X176065224Y-68622669D01*
X176100020Y-68532022D01*
X176100021Y-68532018D01*
X176101833Y-68527298D01*
X176116751Y-68455891D01*
X176150440Y-68294631D01*
X176150440Y-68294627D01*
X176151474Y-68289680D01*
X176162486Y-68047183D01*
X176155994Y-67991074D01*
X176146729Y-67911001D01*
X176991500Y-67911001D01*
X176991702Y-67913509D01*
X176991702Y-67913514D01*
X177002864Y-68052237D01*
X177006060Y-68091965D01*
X177007266Y-68096873D01*
X177007266Y-68096876D01*
X177037846Y-68221377D01*
X177063963Y-68327706D01*
X177065938Y-68332358D01*
X177065939Y-68332362D01*
X177092084Y-68393956D01*
X177158812Y-68551156D01*
X177288167Y-68756567D01*
X177291512Y-68760361D01*
X177445350Y-68934858D01*
X177445353Y-68934861D01*
X177448698Y-68938655D01*
X177452606Y-68941865D01*
X177452607Y-68941866D01*
X177586668Y-69051984D01*
X177636278Y-69092734D01*
X177846078Y-69214841D01*
X177850801Y-69216654D01*
X178067978Y-69300020D01*
X178067982Y-69300021D01*
X178072702Y-69301833D01*
X178077652Y-69302867D01*
X178077655Y-69302868D01*
X178305369Y-69350440D01*
X178305373Y-69350440D01*
X178310320Y-69351474D01*
X178552817Y-69362486D01*
X178557837Y-69361905D01*
X178557841Y-69361905D01*
X178788929Y-69335167D01*
X178788933Y-69335166D01*
X178793956Y-69334585D01*
X178798820Y-69333209D01*
X178798823Y-69333208D01*
X179022669Y-69269866D01*
X179022668Y-69269866D01*
X179027532Y-69268490D01*
X179032108Y-69266356D01*
X179032114Y-69266354D01*
X179242954Y-69168038D01*
X179242958Y-69168036D01*
X179247536Y-69165901D01*
X179274770Y-69147393D01*
X179444119Y-69032302D01*
X179448307Y-69029456D01*
X179624681Y-68862668D01*
X179704484Y-68758290D01*
X179769047Y-68673846D01*
X179769050Y-68673842D01*
X179772120Y-68669826D01*
X179886831Y-68455891D01*
X179965862Y-68226369D01*
X180007179Y-67987164D01*
X180008500Y-67958075D01*
X180008500Y-67911001D01*
X181041500Y-67911001D01*
X181041702Y-67913509D01*
X181041702Y-67913514D01*
X181052864Y-68052237D01*
X181056060Y-68091965D01*
X181057266Y-68096873D01*
X181057266Y-68096876D01*
X181087846Y-68221377D01*
X181113963Y-68327706D01*
X181115938Y-68332358D01*
X181115939Y-68332362D01*
X181142084Y-68393956D01*
X181208812Y-68551156D01*
X181338167Y-68756567D01*
X181341512Y-68760361D01*
X181495350Y-68934858D01*
X181495353Y-68934861D01*
X181498698Y-68938655D01*
X181502606Y-68941865D01*
X181502607Y-68941866D01*
X181636668Y-69051984D01*
X181686278Y-69092734D01*
X181896078Y-69214841D01*
X181900801Y-69216654D01*
X182117978Y-69300020D01*
X182117982Y-69300021D01*
X182122702Y-69301833D01*
X182127652Y-69302867D01*
X182127655Y-69302868D01*
X182355369Y-69350440D01*
X182355373Y-69350440D01*
X182360320Y-69351474D01*
X182602817Y-69362486D01*
X182607837Y-69361905D01*
X182607841Y-69361905D01*
X182838929Y-69335167D01*
X182838933Y-69335166D01*
X182843956Y-69334585D01*
X182848820Y-69333209D01*
X182848823Y-69333208D01*
X183072669Y-69269866D01*
X183072668Y-69269866D01*
X183077532Y-69268490D01*
X183082108Y-69266356D01*
X183082114Y-69266354D01*
X183292954Y-69168038D01*
X183292958Y-69168036D01*
X183297536Y-69165901D01*
X183324770Y-69147393D01*
X183494119Y-69032302D01*
X183498307Y-69029456D01*
X183674681Y-68862668D01*
X183754484Y-68758290D01*
X183819047Y-68673846D01*
X183819050Y-68673842D01*
X183822120Y-68669826D01*
X183936831Y-68455891D01*
X184015862Y-68226369D01*
X184028566Y-68152817D01*
X184887514Y-68152817D01*
X184888095Y-68157837D01*
X184888095Y-68157841D01*
X184907750Y-68327706D01*
X184915415Y-68393956D01*
X184916791Y-68398820D01*
X184916792Y-68398823D01*
X184958580Y-68546498D01*
X184981510Y-68627532D01*
X184983644Y-68632108D01*
X184983646Y-68632114D01*
X185081962Y-68842954D01*
X185084099Y-68847536D01*
X185220544Y-69048307D01*
X185387332Y-69224681D01*
X185391358Y-69227759D01*
X185391359Y-69227760D01*
X185576154Y-69369047D01*
X185576158Y-69369050D01*
X185580174Y-69372120D01*
X185794109Y-69486831D01*
X186023631Y-69565862D01*
X186122978Y-69583022D01*
X186258926Y-69606504D01*
X186258932Y-69606505D01*
X186262836Y-69607179D01*
X186266797Y-69607359D01*
X186266798Y-69607359D01*
X186290506Y-69608436D01*
X186290525Y-69608436D01*
X186291925Y-69608500D01*
X187761001Y-69608500D01*
X187763509Y-69608298D01*
X187763514Y-69608298D01*
X187936924Y-69594346D01*
X187936929Y-69594345D01*
X187941965Y-69593940D01*
X187946873Y-69592734D01*
X187946876Y-69592734D01*
X188172792Y-69537244D01*
X188177706Y-69536037D01*
X188182358Y-69534062D01*
X188182362Y-69534061D01*
X188396498Y-69443165D01*
X188401156Y-69441188D01*
X188507037Y-69374511D01*
X188602288Y-69314528D01*
X188602291Y-69314526D01*
X188606567Y-69311833D01*
X188705422Y-69224681D01*
X188784858Y-69154650D01*
X188784861Y-69154647D01*
X188788655Y-69151302D01*
X188942734Y-68963722D01*
X189013023Y-68842954D01*
X189062299Y-68758290D01*
X189062300Y-68758288D01*
X189064841Y-68753922D01*
X189115224Y-68622669D01*
X189150020Y-68532022D01*
X189150021Y-68532018D01*
X189151833Y-68527298D01*
X189166751Y-68455891D01*
X189200440Y-68294631D01*
X189200440Y-68294627D01*
X189201474Y-68289680D01*
X189212486Y-68047183D01*
X189205994Y-67991074D01*
X189196729Y-67911001D01*
X190041500Y-67911001D01*
X190041702Y-67913509D01*
X190041702Y-67913514D01*
X190052864Y-68052237D01*
X190056060Y-68091965D01*
X190057266Y-68096873D01*
X190057266Y-68096876D01*
X190087846Y-68221377D01*
X190113963Y-68327706D01*
X190115938Y-68332358D01*
X190115939Y-68332362D01*
X190142084Y-68393956D01*
X190208812Y-68551156D01*
X190338167Y-68756567D01*
X190341512Y-68760361D01*
X190495350Y-68934858D01*
X190495353Y-68934861D01*
X190498698Y-68938655D01*
X190502606Y-68941865D01*
X190502607Y-68941866D01*
X190636668Y-69051984D01*
X190686278Y-69092734D01*
X190896078Y-69214841D01*
X190900801Y-69216654D01*
X191117978Y-69300020D01*
X191117982Y-69300021D01*
X191122702Y-69301833D01*
X191127652Y-69302867D01*
X191127655Y-69302868D01*
X191355369Y-69350440D01*
X191355373Y-69350440D01*
X191360320Y-69351474D01*
X191602817Y-69362486D01*
X191607837Y-69361905D01*
X191607841Y-69361905D01*
X191838929Y-69335167D01*
X191838933Y-69335166D01*
X191843956Y-69334585D01*
X191848820Y-69333209D01*
X191848823Y-69333208D01*
X192072669Y-69269866D01*
X192072668Y-69269866D01*
X192077532Y-69268490D01*
X192082108Y-69266356D01*
X192082114Y-69266354D01*
X192292954Y-69168038D01*
X192292958Y-69168036D01*
X192297536Y-69165901D01*
X192324770Y-69147393D01*
X192494119Y-69032302D01*
X192498307Y-69029456D01*
X192674681Y-68862668D01*
X192754484Y-68758290D01*
X192819047Y-68673846D01*
X192819050Y-68673842D01*
X192822120Y-68669826D01*
X192936831Y-68455891D01*
X193015862Y-68226369D01*
X193057179Y-67987164D01*
X193058500Y-67958075D01*
X193058500Y-66288999D01*
X193058298Y-66286486D01*
X193044346Y-66113076D01*
X193044345Y-66113071D01*
X193043940Y-66108035D01*
X192986037Y-65872294D01*
X192891188Y-65648844D01*
X192761833Y-65443433D01*
X192721633Y-65397834D01*
X192604650Y-65265142D01*
X192604647Y-65265139D01*
X192601302Y-65261345D01*
X192494993Y-65174022D01*
X192417628Y-65110474D01*
X192417625Y-65110472D01*
X192413722Y-65107266D01*
X192203922Y-64985159D01*
X192069725Y-64933646D01*
X191982022Y-64899980D01*
X191982018Y-64899979D01*
X191977298Y-64898167D01*
X191972348Y-64897133D01*
X191972345Y-64897132D01*
X191744631Y-64849560D01*
X191744627Y-64849560D01*
X191739680Y-64848526D01*
X191497183Y-64837514D01*
X191492163Y-64838095D01*
X191492159Y-64838095D01*
X191261071Y-64864833D01*
X191261067Y-64864834D01*
X191256044Y-64865415D01*
X191251180Y-64866791D01*
X191251177Y-64866792D01*
X191233080Y-64871913D01*
X191022468Y-64931510D01*
X191017892Y-64933644D01*
X191017886Y-64933646D01*
X190807046Y-65031962D01*
X190807042Y-65031964D01*
X190802464Y-65034099D01*
X190601693Y-65170544D01*
X190425319Y-65337332D01*
X190422241Y-65341358D01*
X190422240Y-65341359D01*
X190280953Y-65526154D01*
X190280950Y-65526158D01*
X190277880Y-65530174D01*
X190163169Y-65744109D01*
X190084138Y-65973631D01*
X190083276Y-65978623D01*
X190060695Y-66109357D01*
X190042821Y-66212836D01*
X190041500Y-66241925D01*
X190041500Y-67911001D01*
X189196729Y-67911001D01*
X189185167Y-67811071D01*
X189185166Y-67811067D01*
X189184585Y-67806044D01*
X189145517Y-67667978D01*
X189119866Y-67577331D01*
X189118490Y-67572468D01*
X189116356Y-67567892D01*
X189116354Y-67567886D01*
X189018038Y-67357046D01*
X189018036Y-67357042D01*
X189015901Y-67352464D01*
X188879456Y-67151693D01*
X188712668Y-66975319D01*
X188708641Y-66972240D01*
X188523846Y-66830953D01*
X188523842Y-66830950D01*
X188519826Y-66827880D01*
X188305891Y-66713169D01*
X188076369Y-66634138D01*
X187977022Y-66616978D01*
X187841074Y-66593496D01*
X187841068Y-66593495D01*
X187837164Y-66592821D01*
X187833203Y-66592641D01*
X187833202Y-66592641D01*
X187809494Y-66591564D01*
X187809475Y-66591564D01*
X187808075Y-66591500D01*
X187496366Y-66591500D01*
X187428245Y-66571498D01*
X187381752Y-66517842D01*
X187371648Y-66447568D01*
X187401142Y-66382988D01*
X187463755Y-66343793D01*
X187493933Y-66335707D01*
X187493935Y-66335706D01*
X187499243Y-66334284D01*
X187596358Y-66288999D01*
X187701762Y-66239849D01*
X187701767Y-66239846D01*
X187706749Y-66237523D01*
X187811611Y-66164098D01*
X187889789Y-66109357D01*
X187889792Y-66109355D01*
X187894300Y-66106198D01*
X188056198Y-65944300D01*
X188103177Y-65877208D01*
X188184366Y-65761257D01*
X188187523Y-65756749D01*
X188189846Y-65751767D01*
X188189849Y-65751762D01*
X188281961Y-65554225D01*
X188281961Y-65554224D01*
X188284284Y-65549243D01*
X188311490Y-65447712D01*
X188342119Y-65333402D01*
X188342119Y-65333400D01*
X188343543Y-65328087D01*
X188363498Y-65100000D01*
X188343543Y-64871913D01*
X188341646Y-64864833D01*
X188285707Y-64656067D01*
X188285706Y-64656065D01*
X188284284Y-64650757D01*
X188281961Y-64645775D01*
X188189849Y-64448238D01*
X188189846Y-64448233D01*
X188187523Y-64443251D01*
X188056198Y-64255700D01*
X187894300Y-64093802D01*
X187889792Y-64090645D01*
X187889789Y-64090643D01*
X187811611Y-64035902D01*
X187706749Y-63962477D01*
X187701767Y-63960154D01*
X187701762Y-63960151D01*
X187504225Y-63868039D01*
X187504224Y-63868039D01*
X187499243Y-63865716D01*
X187493935Y-63864294D01*
X187493933Y-63864293D01*
X187283402Y-63807881D01*
X187283400Y-63807881D01*
X187278087Y-63806457D01*
X187178520Y-63797746D01*
X187109851Y-63791738D01*
X187109844Y-63791738D01*
X187107127Y-63791500D01*
X186992873Y-63791500D01*
X186990156Y-63791738D01*
X186990149Y-63791738D01*
X186921480Y-63797746D01*
X186821913Y-63806457D01*
X186816600Y-63807881D01*
X186816598Y-63807881D01*
X186606067Y-63864293D01*
X186606065Y-63864294D01*
X186600757Y-63865716D01*
X186595776Y-63868039D01*
X186595775Y-63868039D01*
X186398238Y-63960151D01*
X186398233Y-63960154D01*
X186393251Y-63962477D01*
X186288389Y-64035902D01*
X186210211Y-64090643D01*
X186210208Y-64090645D01*
X186205700Y-64093802D01*
X186043802Y-64255700D01*
X185912477Y-64443251D01*
X185910154Y-64448233D01*
X185910151Y-64448238D01*
X185818039Y-64645775D01*
X185815716Y-64650757D01*
X185814294Y-64656065D01*
X185814293Y-64656067D01*
X185758354Y-64864833D01*
X185756457Y-64871913D01*
X185736502Y-65100000D01*
X185756457Y-65328087D01*
X185757881Y-65333400D01*
X185757881Y-65333402D01*
X185788511Y-65447712D01*
X185815716Y-65549243D01*
X185818039Y-65554224D01*
X185818039Y-65554225D01*
X185910151Y-65751762D01*
X185910154Y-65751767D01*
X185912477Y-65756749D01*
X185915634Y-65761257D01*
X185996824Y-65877208D01*
X186043802Y-65944300D01*
X186205700Y-66106198D01*
X186210208Y-66109355D01*
X186210211Y-66109357D01*
X186288389Y-66164098D01*
X186393251Y-66237523D01*
X186398233Y-66239846D01*
X186398238Y-66239849D01*
X186503642Y-66288999D01*
X186600757Y-66334284D01*
X186606065Y-66335706D01*
X186606067Y-66335707D01*
X186636245Y-66343793D01*
X186696868Y-66380745D01*
X186727889Y-66444605D01*
X186719461Y-66515100D01*
X186674258Y-66569847D01*
X186603634Y-66591500D01*
X186338999Y-66591500D01*
X186336491Y-66591702D01*
X186336486Y-66591702D01*
X186163076Y-66605654D01*
X186163071Y-66605655D01*
X186158035Y-66606060D01*
X186153127Y-66607266D01*
X186153124Y-66607266D01*
X186037007Y-66635787D01*
X185922294Y-66663963D01*
X185917642Y-66665938D01*
X185917638Y-66665939D01*
X185810252Y-66711522D01*
X185698844Y-66758812D01*
X185694560Y-66761510D01*
X185497712Y-66885472D01*
X185497709Y-66885474D01*
X185493433Y-66888167D01*
X185489639Y-66891512D01*
X185315142Y-67045350D01*
X185315139Y-67045353D01*
X185311345Y-67048698D01*
X185157266Y-67236278D01*
X185035159Y-67446078D01*
X184948167Y-67672702D01*
X184898526Y-67910320D01*
X184887514Y-68152817D01*
X184028566Y-68152817D01*
X184057179Y-67987164D01*
X184058500Y-67958075D01*
X184058500Y-66288999D01*
X184058298Y-66286486D01*
X184044346Y-66113076D01*
X184044345Y-66113071D01*
X184043940Y-66108035D01*
X183986037Y-65872294D01*
X183891188Y-65648844D01*
X183761833Y-65443433D01*
X183721633Y-65397834D01*
X183604650Y-65265142D01*
X183604647Y-65265139D01*
X183601302Y-65261345D01*
X183494993Y-65174022D01*
X183417628Y-65110474D01*
X183417625Y-65110472D01*
X183413722Y-65107266D01*
X183203922Y-64985159D01*
X183069725Y-64933646D01*
X182982022Y-64899980D01*
X182982018Y-64899979D01*
X182977298Y-64898167D01*
X182972348Y-64897133D01*
X182972345Y-64897132D01*
X182744631Y-64849560D01*
X182744627Y-64849560D01*
X182739680Y-64848526D01*
X182497183Y-64837514D01*
X182492163Y-64838095D01*
X182492159Y-64838095D01*
X182261071Y-64864833D01*
X182261067Y-64864834D01*
X182256044Y-64865415D01*
X182251180Y-64866791D01*
X182251177Y-64866792D01*
X182233080Y-64871913D01*
X182022468Y-64931510D01*
X182017892Y-64933644D01*
X182017886Y-64933646D01*
X181807046Y-65031962D01*
X181807042Y-65031964D01*
X181802464Y-65034099D01*
X181601693Y-65170544D01*
X181425319Y-65337332D01*
X181422241Y-65341358D01*
X181422240Y-65341359D01*
X181280953Y-65526154D01*
X181280950Y-65526158D01*
X181277880Y-65530174D01*
X181163169Y-65744109D01*
X181084138Y-65973631D01*
X181083276Y-65978623D01*
X181060695Y-66109357D01*
X181042821Y-66212836D01*
X181041500Y-66241925D01*
X181041500Y-67911001D01*
X180008500Y-67911001D01*
X180008500Y-66288999D01*
X180008298Y-66286486D01*
X179994346Y-66113076D01*
X179994345Y-66113071D01*
X179993940Y-66108035D01*
X179936037Y-65872294D01*
X179841188Y-65648844D01*
X179711833Y-65443433D01*
X179671633Y-65397834D01*
X179554650Y-65265142D01*
X179554647Y-65265139D01*
X179551302Y-65261345D01*
X179444993Y-65174022D01*
X179367628Y-65110474D01*
X179367625Y-65110472D01*
X179363722Y-65107266D01*
X179153922Y-64985159D01*
X179019725Y-64933646D01*
X178932022Y-64899980D01*
X178932018Y-64899979D01*
X178927298Y-64898167D01*
X178922348Y-64897133D01*
X178922345Y-64897132D01*
X178694631Y-64849560D01*
X178694627Y-64849560D01*
X178689680Y-64848526D01*
X178447183Y-64837514D01*
X178442163Y-64838095D01*
X178442159Y-64838095D01*
X178211071Y-64864833D01*
X178211067Y-64864834D01*
X178206044Y-64865415D01*
X178201180Y-64866791D01*
X178201177Y-64866792D01*
X178183080Y-64871913D01*
X177972468Y-64931510D01*
X177967892Y-64933644D01*
X177967886Y-64933646D01*
X177757046Y-65031962D01*
X177757042Y-65031964D01*
X177752464Y-65034099D01*
X177551693Y-65170544D01*
X177375319Y-65337332D01*
X177372241Y-65341358D01*
X177372240Y-65341359D01*
X177230953Y-65526154D01*
X177230950Y-65526158D01*
X177227880Y-65530174D01*
X177113169Y-65744109D01*
X177034138Y-65973631D01*
X177033276Y-65978623D01*
X177010695Y-66109357D01*
X176992821Y-66212836D01*
X176991500Y-66241925D01*
X176991500Y-67911001D01*
X176146729Y-67911001D01*
X176135167Y-67811071D01*
X176135166Y-67811067D01*
X176134585Y-67806044D01*
X176095517Y-67667978D01*
X176069866Y-67577331D01*
X176068490Y-67572468D01*
X176066356Y-67567892D01*
X176066354Y-67567886D01*
X175968038Y-67357046D01*
X175968036Y-67357042D01*
X175965901Y-67352464D01*
X175829456Y-67151693D01*
X175662668Y-66975319D01*
X175658641Y-66972240D01*
X175473846Y-66830953D01*
X175473842Y-66830950D01*
X175469826Y-66827880D01*
X175255891Y-66713169D01*
X175026369Y-66634138D01*
X174927022Y-66616978D01*
X174791074Y-66593496D01*
X174791068Y-66593495D01*
X174787164Y-66592821D01*
X174783203Y-66592641D01*
X174783202Y-66592641D01*
X174759494Y-66591564D01*
X174759475Y-66591564D01*
X174758075Y-66591500D01*
X174446366Y-66591500D01*
X174378245Y-66571498D01*
X174331752Y-66517842D01*
X174321648Y-66447568D01*
X174351142Y-66382988D01*
X174413755Y-66343793D01*
X174443933Y-66335707D01*
X174443935Y-66335706D01*
X174449243Y-66334284D01*
X174546358Y-66288999D01*
X174651762Y-66239849D01*
X174651767Y-66239846D01*
X174656749Y-66237523D01*
X174761611Y-66164098D01*
X174839789Y-66109357D01*
X174839792Y-66109355D01*
X174844300Y-66106198D01*
X175006198Y-65944300D01*
X175053177Y-65877208D01*
X175134366Y-65761257D01*
X175137523Y-65756749D01*
X175139846Y-65751767D01*
X175139849Y-65751762D01*
X175231961Y-65554225D01*
X175231961Y-65554224D01*
X175234284Y-65549243D01*
X175261490Y-65447712D01*
X175292119Y-65333402D01*
X175292119Y-65333400D01*
X175293543Y-65328087D01*
X175313498Y-65100000D01*
X175293543Y-64871913D01*
X175291646Y-64864833D01*
X175235707Y-64656067D01*
X175235706Y-64656065D01*
X175234284Y-64650757D01*
X175231961Y-64645775D01*
X175139849Y-64448238D01*
X175139846Y-64448233D01*
X175137523Y-64443251D01*
X175006198Y-64255700D01*
X174844300Y-64093802D01*
X174839792Y-64090645D01*
X174839789Y-64090643D01*
X174761611Y-64035902D01*
X174656749Y-63962477D01*
X174651767Y-63960154D01*
X174651762Y-63960151D01*
X174454225Y-63868039D01*
X174454224Y-63868039D01*
X174449243Y-63865716D01*
X174443935Y-63864294D01*
X174443933Y-63864293D01*
X174233402Y-63807881D01*
X174233400Y-63807881D01*
X174228087Y-63806457D01*
X174128520Y-63797746D01*
X174059851Y-63791738D01*
X174059844Y-63791738D01*
X174057127Y-63791500D01*
X173942873Y-63791500D01*
X173940156Y-63791738D01*
X173940149Y-63791738D01*
X173871480Y-63797746D01*
X173771913Y-63806457D01*
X173766600Y-63807881D01*
X173766598Y-63807881D01*
X173556067Y-63864293D01*
X173556065Y-63864294D01*
X173550757Y-63865716D01*
X173545776Y-63868039D01*
X173545775Y-63868039D01*
X173348238Y-63960151D01*
X173348233Y-63960154D01*
X173343251Y-63962477D01*
X173238389Y-64035902D01*
X173160211Y-64090643D01*
X173160208Y-64090645D01*
X173155700Y-64093802D01*
X172993802Y-64255700D01*
X172862477Y-64443251D01*
X172860154Y-64448233D01*
X172860151Y-64448238D01*
X172768039Y-64645775D01*
X172765716Y-64650757D01*
X172764294Y-64656065D01*
X172764293Y-64656067D01*
X172708354Y-64864833D01*
X172706457Y-64871913D01*
X172686502Y-65100000D01*
X172706457Y-65328087D01*
X172707881Y-65333400D01*
X172707881Y-65333402D01*
X172738511Y-65447712D01*
X172765716Y-65549243D01*
X172768039Y-65554224D01*
X172768039Y-65554225D01*
X172860151Y-65751762D01*
X172860154Y-65751767D01*
X172862477Y-65756749D01*
X172865634Y-65761257D01*
X172946824Y-65877208D01*
X172993802Y-65944300D01*
X173155700Y-66106198D01*
X173160208Y-66109355D01*
X173160211Y-66109357D01*
X173238389Y-66164098D01*
X173343251Y-66237523D01*
X173348233Y-66239846D01*
X173348238Y-66239849D01*
X173453642Y-66288999D01*
X173550757Y-66334284D01*
X173556065Y-66335706D01*
X173556067Y-66335707D01*
X173586245Y-66343793D01*
X173646868Y-66380745D01*
X173677889Y-66444605D01*
X173669461Y-66515100D01*
X173624258Y-66569847D01*
X173553634Y-66591500D01*
X173288999Y-66591500D01*
X173286491Y-66591702D01*
X173286486Y-66591702D01*
X173113076Y-66605654D01*
X173113071Y-66605655D01*
X173108035Y-66606060D01*
X173103127Y-66607266D01*
X173103124Y-66607266D01*
X172987007Y-66635787D01*
X172872294Y-66663963D01*
X172867642Y-66665938D01*
X172867638Y-66665939D01*
X172760252Y-66711522D01*
X172648844Y-66758812D01*
X172644560Y-66761510D01*
X172447712Y-66885472D01*
X172447709Y-66885474D01*
X172443433Y-66888167D01*
X172439639Y-66891512D01*
X172265142Y-67045350D01*
X172265139Y-67045353D01*
X172261345Y-67048698D01*
X172107266Y-67236278D01*
X171985159Y-67446078D01*
X171898167Y-67672702D01*
X171848526Y-67910320D01*
X171837514Y-68152817D01*
X170978566Y-68152817D01*
X171007179Y-67987164D01*
X171008500Y-67958075D01*
X171008500Y-66288999D01*
X171008298Y-66286486D01*
X170994346Y-66113076D01*
X170994345Y-66113071D01*
X170993940Y-66108035D01*
X170936037Y-65872294D01*
X170841188Y-65648844D01*
X170711833Y-65443433D01*
X170671633Y-65397834D01*
X170554650Y-65265142D01*
X170554647Y-65265139D01*
X170551302Y-65261345D01*
X170444993Y-65174022D01*
X170367628Y-65110474D01*
X170367625Y-65110472D01*
X170363722Y-65107266D01*
X170153922Y-64985159D01*
X170019725Y-64933646D01*
X169932022Y-64899980D01*
X169932018Y-64899979D01*
X169927298Y-64898167D01*
X169922348Y-64897133D01*
X169922345Y-64897132D01*
X169694631Y-64849560D01*
X169694627Y-64849560D01*
X169689680Y-64848526D01*
X169447183Y-64837514D01*
X169442163Y-64838095D01*
X169442159Y-64838095D01*
X169211071Y-64864833D01*
X169211067Y-64864834D01*
X169206044Y-64865415D01*
X169201180Y-64866791D01*
X169201177Y-64866792D01*
X169183080Y-64871913D01*
X168972468Y-64931510D01*
X168967892Y-64933644D01*
X168967886Y-64933646D01*
X168757046Y-65031962D01*
X168757042Y-65031964D01*
X168752464Y-65034099D01*
X168551693Y-65170544D01*
X168375319Y-65337332D01*
X168372241Y-65341358D01*
X168372240Y-65341359D01*
X168230953Y-65526154D01*
X168230950Y-65526158D01*
X168227880Y-65530174D01*
X168113169Y-65744109D01*
X168034138Y-65973631D01*
X168033276Y-65978623D01*
X168010695Y-66109357D01*
X167992821Y-66212836D01*
X167991500Y-66241925D01*
X167991500Y-67911001D01*
X150608500Y-67911001D01*
X150608500Y-60734500D01*
X150628502Y-60666379D01*
X150682158Y-60619886D01*
X150734500Y-60608500D01*
X209265500Y-60608500D01*
X209333621Y-60628502D01*
G37*
%TD.AperFunction*%
%TD*%
M02*
