%TF.GenerationSoftware,KiCad,Pcbnew,(6.0.9)*%
%TF.CreationDate,2023-02-05T00:50:20+02:00*%
%TF.ProjectId,power dis,706f7765-7220-4646-9973-2e6b69636164,rev?*%
%TF.SameCoordinates,Original*%
%TF.FileFunction,Drillmap*%
%TF.FilePolarity,Positive*%
%FSLAX45Y45*%
G04 Gerber Fmt 4.5, Leading zero omitted, Abs format (unit mm)*
G04 Created by KiCad (PCBNEW (6.0.9)) date 2023-02-05 00:50:20*
%MOMM*%
%LPD*%
G01*
G04 APERTURE LIST*
%ADD10C,0.100000*%
%ADD11C,0.200000*%
%ADD12C,0.320000*%
G04 APERTURE END LIST*
D10*
X24000000Y-6000000D02*
G75*
G03*
X24000000Y-6000000I-4000000J0D01*
G01*
D11*
D12*
X16929120Y-7965460D02*
X17249120Y-8285460D01*
X17249120Y-7965460D02*
X16929120Y-8285460D01*
X17426960Y-3139460D02*
X17746960Y-3459460D01*
X17746960Y-3139460D02*
X17426960Y-3459460D01*
X22212320Y-3139460D02*
X22532320Y-3459460D01*
X22532320Y-3139460D02*
X22212320Y-3459460D01*
X22595860Y-7970540D02*
X22915860Y-8290540D01*
X22915860Y-7970540D02*
X22595860Y-8290540D01*
D11*
X16252619Y-10315476D02*
X16252619Y-10115476D01*
X16300238Y-10115476D01*
X16328809Y-10125000D01*
X16347857Y-10144048D01*
X16357381Y-10163095D01*
X16366905Y-10201190D01*
X16366905Y-10229762D01*
X16357381Y-10267857D01*
X16347857Y-10286905D01*
X16328809Y-10305952D01*
X16300238Y-10315476D01*
X16252619Y-10315476D01*
X16452619Y-10315476D02*
X16452619Y-10182143D01*
X16452619Y-10220238D02*
X16462143Y-10201190D01*
X16471667Y-10191667D01*
X16490714Y-10182143D01*
X16509762Y-10182143D01*
X16576428Y-10315476D02*
X16576428Y-10182143D01*
X16576428Y-10115476D02*
X16566905Y-10125000D01*
X16576428Y-10134524D01*
X16585952Y-10125000D01*
X16576428Y-10115476D01*
X16576428Y-10134524D01*
X16700238Y-10315476D02*
X16681190Y-10305952D01*
X16671667Y-10286905D01*
X16671667Y-10115476D01*
X16805000Y-10315476D02*
X16785952Y-10305952D01*
X16776428Y-10286905D01*
X16776428Y-10115476D01*
X17033571Y-10315476D02*
X17033571Y-10115476D01*
X17100238Y-10258333D01*
X17166905Y-10115476D01*
X17166905Y-10315476D01*
X17347857Y-10315476D02*
X17347857Y-10210714D01*
X17338333Y-10191667D01*
X17319286Y-10182143D01*
X17281190Y-10182143D01*
X17262143Y-10191667D01*
X17347857Y-10305952D02*
X17328810Y-10315476D01*
X17281190Y-10315476D01*
X17262143Y-10305952D01*
X17252619Y-10286905D01*
X17252619Y-10267857D01*
X17262143Y-10248810D01*
X17281190Y-10239286D01*
X17328810Y-10239286D01*
X17347857Y-10229762D01*
X17443095Y-10182143D02*
X17443095Y-10382143D01*
X17443095Y-10191667D02*
X17462143Y-10182143D01*
X17500238Y-10182143D01*
X17519286Y-10191667D01*
X17528810Y-10201190D01*
X17538333Y-10220238D01*
X17538333Y-10277381D01*
X17528810Y-10296429D01*
X17519286Y-10305952D01*
X17500238Y-10315476D01*
X17462143Y-10315476D01*
X17443095Y-10305952D01*
X17624048Y-10296429D02*
X17633571Y-10305952D01*
X17624048Y-10315476D01*
X17614524Y-10305952D01*
X17624048Y-10296429D01*
X17624048Y-10315476D01*
X17624048Y-10191667D02*
X17633571Y-10201190D01*
X17624048Y-10210714D01*
X17614524Y-10201190D01*
X17624048Y-10191667D01*
X17624048Y-10210714D01*
X15795000Y-10545000D02*
X15995000Y-10745000D01*
X15995000Y-10545000D02*
X15795000Y-10745000D01*
X16233571Y-10535476D02*
X16357381Y-10535476D01*
X16290714Y-10611667D01*
X16319286Y-10611667D01*
X16338333Y-10621190D01*
X16347857Y-10630714D01*
X16357381Y-10649762D01*
X16357381Y-10697381D01*
X16347857Y-10716429D01*
X16338333Y-10725952D01*
X16319286Y-10735476D01*
X16262143Y-10735476D01*
X16243095Y-10725952D01*
X16233571Y-10716429D01*
X16443095Y-10716429D02*
X16452619Y-10725952D01*
X16443095Y-10735476D01*
X16433571Y-10725952D01*
X16443095Y-10716429D01*
X16443095Y-10735476D01*
X16528809Y-10554524D02*
X16538333Y-10545000D01*
X16557381Y-10535476D01*
X16605000Y-10535476D01*
X16624048Y-10545000D01*
X16633571Y-10554524D01*
X16643095Y-10573571D01*
X16643095Y-10592619D01*
X16633571Y-10621190D01*
X16519286Y-10735476D01*
X16643095Y-10735476D01*
X16766905Y-10535476D02*
X16785952Y-10535476D01*
X16805000Y-10545000D01*
X16814524Y-10554524D01*
X16824048Y-10573571D01*
X16833571Y-10611667D01*
X16833571Y-10659286D01*
X16824048Y-10697381D01*
X16814524Y-10716429D01*
X16805000Y-10725952D01*
X16785952Y-10735476D01*
X16766905Y-10735476D01*
X16747857Y-10725952D01*
X16738333Y-10716429D01*
X16728809Y-10697381D01*
X16719286Y-10659286D01*
X16719286Y-10611667D01*
X16728809Y-10573571D01*
X16738333Y-10554524D01*
X16747857Y-10545000D01*
X16766905Y-10535476D01*
X16957381Y-10535476D02*
X16976429Y-10535476D01*
X16995476Y-10545000D01*
X17005000Y-10554524D01*
X17014524Y-10573571D01*
X17024048Y-10611667D01*
X17024048Y-10659286D01*
X17014524Y-10697381D01*
X17005000Y-10716429D01*
X16995476Y-10725952D01*
X16976429Y-10735476D01*
X16957381Y-10735476D01*
X16938333Y-10725952D01*
X16928810Y-10716429D01*
X16919286Y-10697381D01*
X16909762Y-10659286D01*
X16909762Y-10611667D01*
X16919286Y-10573571D01*
X16928810Y-10554524D01*
X16938333Y-10545000D01*
X16957381Y-10535476D01*
X17109762Y-10735476D02*
X17109762Y-10602143D01*
X17109762Y-10621190D02*
X17119286Y-10611667D01*
X17138333Y-10602143D01*
X17166905Y-10602143D01*
X17185952Y-10611667D01*
X17195476Y-10630714D01*
X17195476Y-10735476D01*
X17195476Y-10630714D02*
X17205000Y-10611667D01*
X17224048Y-10602143D01*
X17252619Y-10602143D01*
X17271667Y-10611667D01*
X17281190Y-10630714D01*
X17281190Y-10735476D01*
X17376429Y-10735476D02*
X17376429Y-10602143D01*
X17376429Y-10621190D02*
X17385952Y-10611667D01*
X17405000Y-10602143D01*
X17433571Y-10602143D01*
X17452619Y-10611667D01*
X17462143Y-10630714D01*
X17462143Y-10735476D01*
X17462143Y-10630714D02*
X17471667Y-10611667D01*
X17490714Y-10602143D01*
X17519286Y-10602143D01*
X17538333Y-10611667D01*
X17547857Y-10630714D01*
X17547857Y-10735476D01*
X17938333Y-10525952D02*
X17766905Y-10783095D01*
X18195476Y-10535476D02*
X18214524Y-10535476D01*
X18233571Y-10545000D01*
X18243095Y-10554524D01*
X18252619Y-10573571D01*
X18262143Y-10611667D01*
X18262143Y-10659286D01*
X18252619Y-10697381D01*
X18243095Y-10716429D01*
X18233571Y-10725952D01*
X18214524Y-10735476D01*
X18195476Y-10735476D01*
X18176429Y-10725952D01*
X18166905Y-10716429D01*
X18157381Y-10697381D01*
X18147857Y-10659286D01*
X18147857Y-10611667D01*
X18157381Y-10573571D01*
X18166905Y-10554524D01*
X18176429Y-10545000D01*
X18195476Y-10535476D01*
X18347857Y-10716429D02*
X18357381Y-10725952D01*
X18347857Y-10735476D01*
X18338333Y-10725952D01*
X18347857Y-10716429D01*
X18347857Y-10735476D01*
X18547857Y-10735476D02*
X18433571Y-10735476D01*
X18490714Y-10735476D02*
X18490714Y-10535476D01*
X18471667Y-10564048D01*
X18452619Y-10583095D01*
X18433571Y-10592619D01*
X18624048Y-10554524D02*
X18633571Y-10545000D01*
X18652619Y-10535476D01*
X18700238Y-10535476D01*
X18719286Y-10545000D01*
X18728810Y-10554524D01*
X18738333Y-10573571D01*
X18738333Y-10592619D01*
X18728810Y-10621190D01*
X18614524Y-10735476D01*
X18738333Y-10735476D01*
X18909762Y-10535476D02*
X18871667Y-10535476D01*
X18852619Y-10545000D01*
X18843095Y-10554524D01*
X18824048Y-10583095D01*
X18814524Y-10621190D01*
X18814524Y-10697381D01*
X18824048Y-10716429D01*
X18833571Y-10725952D01*
X18852619Y-10735476D01*
X18890714Y-10735476D01*
X18909762Y-10725952D01*
X18919286Y-10716429D01*
X18928810Y-10697381D01*
X18928810Y-10649762D01*
X18919286Y-10630714D01*
X18909762Y-10621190D01*
X18890714Y-10611667D01*
X18852619Y-10611667D01*
X18833571Y-10621190D01*
X18824048Y-10630714D01*
X18814524Y-10649762D01*
X19052619Y-10535476D02*
X19071667Y-10535476D01*
X19090714Y-10545000D01*
X19100238Y-10554524D01*
X19109762Y-10573571D01*
X19119286Y-10611667D01*
X19119286Y-10659286D01*
X19109762Y-10697381D01*
X19100238Y-10716429D01*
X19090714Y-10725952D01*
X19071667Y-10735476D01*
X19052619Y-10735476D01*
X19033571Y-10725952D01*
X19024048Y-10716429D01*
X19014524Y-10697381D01*
X19005000Y-10659286D01*
X19005000Y-10611667D01*
X19014524Y-10573571D01*
X19024048Y-10554524D01*
X19033571Y-10545000D01*
X19052619Y-10535476D01*
X19195476Y-10535476D02*
X19195476Y-10573571D01*
X19271667Y-10535476D02*
X19271667Y-10573571D01*
X19566905Y-10811667D02*
X19557381Y-10802143D01*
X19538333Y-10773571D01*
X19528810Y-10754524D01*
X19519286Y-10725952D01*
X19509762Y-10678333D01*
X19509762Y-10640238D01*
X19519286Y-10592619D01*
X19528810Y-10564048D01*
X19538333Y-10545000D01*
X19557381Y-10516429D01*
X19566905Y-10506905D01*
X19728810Y-10602143D02*
X19728810Y-10735476D01*
X19681190Y-10525952D02*
X19633571Y-10668810D01*
X19757381Y-10668810D01*
X19985952Y-10735476D02*
X19985952Y-10535476D01*
X20071667Y-10735476D02*
X20071667Y-10630714D01*
X20062143Y-10611667D01*
X20043095Y-10602143D01*
X20014524Y-10602143D01*
X19995476Y-10611667D01*
X19985952Y-10621190D01*
X20195476Y-10735476D02*
X20176429Y-10725952D01*
X20166905Y-10716429D01*
X20157381Y-10697381D01*
X20157381Y-10640238D01*
X20166905Y-10621190D01*
X20176429Y-10611667D01*
X20195476Y-10602143D01*
X20224048Y-10602143D01*
X20243095Y-10611667D01*
X20252619Y-10621190D01*
X20262143Y-10640238D01*
X20262143Y-10697381D01*
X20252619Y-10716429D01*
X20243095Y-10725952D01*
X20224048Y-10735476D01*
X20195476Y-10735476D01*
X20376429Y-10735476D02*
X20357381Y-10725952D01*
X20347857Y-10706905D01*
X20347857Y-10535476D01*
X20528810Y-10725952D02*
X20509762Y-10735476D01*
X20471667Y-10735476D01*
X20452619Y-10725952D01*
X20443095Y-10706905D01*
X20443095Y-10630714D01*
X20452619Y-10611667D01*
X20471667Y-10602143D01*
X20509762Y-10602143D01*
X20528810Y-10611667D01*
X20538333Y-10630714D01*
X20538333Y-10649762D01*
X20443095Y-10668810D01*
X20614524Y-10725952D02*
X20633571Y-10735476D01*
X20671667Y-10735476D01*
X20690714Y-10725952D01*
X20700238Y-10706905D01*
X20700238Y-10697381D01*
X20690714Y-10678333D01*
X20671667Y-10668810D01*
X20643095Y-10668810D01*
X20624048Y-10659286D01*
X20614524Y-10640238D01*
X20614524Y-10630714D01*
X20624048Y-10611667D01*
X20643095Y-10602143D01*
X20671667Y-10602143D01*
X20690714Y-10611667D01*
X20766905Y-10811667D02*
X20776429Y-10802143D01*
X20795476Y-10773571D01*
X20805000Y-10754524D01*
X20814524Y-10725952D01*
X20824048Y-10678333D01*
X20824048Y-10640238D01*
X20814524Y-10592619D01*
X20805000Y-10564048D01*
X20795476Y-10545000D01*
X20776429Y-10516429D01*
X20766905Y-10506905D01*
X21128810Y-10811667D02*
X21119286Y-10802143D01*
X21100238Y-10773571D01*
X21090714Y-10754524D01*
X21081190Y-10725952D01*
X21071667Y-10678333D01*
X21071667Y-10640238D01*
X21081190Y-10592619D01*
X21090714Y-10564048D01*
X21100238Y-10545000D01*
X21119286Y-10516429D01*
X21128810Y-10506905D01*
X21205000Y-10602143D02*
X21205000Y-10735476D01*
X21205000Y-10621190D02*
X21214524Y-10611667D01*
X21233571Y-10602143D01*
X21262143Y-10602143D01*
X21281190Y-10611667D01*
X21290714Y-10630714D01*
X21290714Y-10735476D01*
X21414524Y-10735476D02*
X21395476Y-10725952D01*
X21385952Y-10716429D01*
X21376429Y-10697381D01*
X21376429Y-10640238D01*
X21385952Y-10621190D01*
X21395476Y-10611667D01*
X21414524Y-10602143D01*
X21443095Y-10602143D01*
X21462143Y-10611667D01*
X21471667Y-10621190D01*
X21481190Y-10640238D01*
X21481190Y-10697381D01*
X21471667Y-10716429D01*
X21462143Y-10725952D01*
X21443095Y-10735476D01*
X21414524Y-10735476D01*
X21538333Y-10602143D02*
X21614524Y-10602143D01*
X21566905Y-10535476D02*
X21566905Y-10706905D01*
X21576429Y-10725952D01*
X21595476Y-10735476D01*
X21614524Y-10735476D01*
X21833571Y-10602143D02*
X21833571Y-10802143D01*
X21833571Y-10611667D02*
X21852619Y-10602143D01*
X21890714Y-10602143D01*
X21909762Y-10611667D01*
X21919286Y-10621190D01*
X21928810Y-10640238D01*
X21928810Y-10697381D01*
X21919286Y-10716429D01*
X21909762Y-10725952D01*
X21890714Y-10735476D01*
X21852619Y-10735476D01*
X21833571Y-10725952D01*
X22043095Y-10735476D02*
X22024048Y-10725952D01*
X22014524Y-10706905D01*
X22014524Y-10535476D01*
X22205000Y-10735476D02*
X22205000Y-10630714D01*
X22195476Y-10611667D01*
X22176429Y-10602143D01*
X22138333Y-10602143D01*
X22119286Y-10611667D01*
X22205000Y-10725952D02*
X22185952Y-10735476D01*
X22138333Y-10735476D01*
X22119286Y-10725952D01*
X22109762Y-10706905D01*
X22109762Y-10687857D01*
X22119286Y-10668810D01*
X22138333Y-10659286D01*
X22185952Y-10659286D01*
X22205000Y-10649762D01*
X22271667Y-10602143D02*
X22347857Y-10602143D01*
X22300238Y-10535476D02*
X22300238Y-10706905D01*
X22309762Y-10725952D01*
X22328810Y-10735476D01*
X22347857Y-10735476D01*
X22490714Y-10725952D02*
X22471667Y-10735476D01*
X22433571Y-10735476D01*
X22414524Y-10725952D01*
X22405000Y-10706905D01*
X22405000Y-10630714D01*
X22414524Y-10611667D01*
X22433571Y-10602143D01*
X22471667Y-10602143D01*
X22490714Y-10611667D01*
X22500238Y-10630714D01*
X22500238Y-10649762D01*
X22405000Y-10668810D01*
X22671667Y-10735476D02*
X22671667Y-10535476D01*
X22671667Y-10725952D02*
X22652619Y-10735476D01*
X22614524Y-10735476D01*
X22595476Y-10725952D01*
X22585952Y-10716429D01*
X22576428Y-10697381D01*
X22576428Y-10640238D01*
X22585952Y-10621190D01*
X22595476Y-10611667D01*
X22614524Y-10602143D01*
X22652619Y-10602143D01*
X22671667Y-10611667D01*
X22747857Y-10811667D02*
X22757381Y-10802143D01*
X22776428Y-10773571D01*
X22785952Y-10754524D01*
X22795476Y-10725952D01*
X22805000Y-10678333D01*
X22805000Y-10640238D01*
X22795476Y-10592619D01*
X22785952Y-10564048D01*
X22776428Y-10545000D01*
X22757381Y-10516429D01*
X22747857Y-10506905D01*
M02*
