%TF.GenerationSoftware,KiCad,Pcbnew,(6.0.9)*%
%TF.CreationDate,2023-02-05T00:50:23+02:00*%
%TF.ProjectId,power dis,706f7765-7220-4646-9973-2e6b69636164,rev?*%
%TF.SameCoordinates,Original*%
%TF.FileFunction,Copper,L1,Top*%
%TF.FilePolarity,Positive*%
%FSLAX46Y46*%
G04 Gerber Fmt 4.6, Leading zero omitted, Abs format (unit mm)*
G04 Created by KiCad (PCBNEW (6.0.9)) date 2023-02-05 00:50:23*
%MOMM*%
%LPD*%
G01*
G04 APERTURE LIST*
%TA.AperFunction,ComponentPad*%
%ADD10C,6.000000*%
%TD*%
%TA.AperFunction,ComponentPad*%
%ADD11R,6.000000X6.000000*%
%TD*%
G04 APERTURE END LIST*
D10*
%TO.P,J2,N,NEG*%
%TO.N,/+*%
X176174400Y-62318000D03*
D11*
%TO.P,J2,P,POS*%
%TO.N,/-*%
X176174400Y-55118000D03*
%TD*%
D10*
%TO.P,J2,N,NEG*%
%TO.N,/+*%
X225475800Y-55118000D03*
D11*
%TO.P,J2,P,POS*%
%TO.N,/-*%
X225475800Y-62318000D03*
%TD*%
D10*
%TO.P,J2,N,NEG*%
%TO.N,/+*%
X203828200Y-82981800D03*
D11*
%TO.P,J2,P,POS*%
%TO.N,/-*%
X196628200Y-82981800D03*
%TD*%
D10*
%TO.P,J2,N,NEG*%
%TO.N,/+*%
X203828200Y-33680400D03*
D11*
%TO.P,J2,P,POS*%
%TO.N,/-*%
X196628200Y-33680400D03*
%TD*%
D10*
%TO.P,J2,N,NEG*%
%TO.N,/+*%
X196800000Y-58718000D03*
D11*
%TO.P,J2,P,POS*%
%TO.N,/-*%
X204000000Y-58718000D03*
%TD*%
%TA.AperFunction,Conductor*%
%TO.N,/+*%
G36*
X208552501Y-22880002D02*
G01*
X208570294Y-22893834D01*
X223418535Y-36735414D01*
X237680754Y-50030703D01*
X237716372Y-50089620D01*
X237773732Y-50299292D01*
X237774717Y-50303126D01*
X238059807Y-51490613D01*
X238060670Y-51494476D01*
X238308309Y-52690274D01*
X238309051Y-52694162D01*
X238504124Y-53811887D01*
X238506000Y-53833550D01*
X238506000Y-65988118D01*
X238485998Y-66056239D01*
X238469467Y-66076840D01*
X208316967Y-96482722D01*
X208254798Y-96517007D01*
X208227500Y-96520000D01*
X190555427Y-96520000D01*
X190487306Y-96499998D01*
X190462546Y-96479141D01*
X180892981Y-86039616D01*
X192627700Y-86039616D01*
X192638434Y-86159887D01*
X192694459Y-86355270D01*
X192788627Y-86535396D01*
X192917091Y-86692909D01*
X193074604Y-86821373D01*
X193254730Y-86915541D01*
X193450113Y-86971566D01*
X193481745Y-86974389D01*
X193567591Y-86982051D01*
X193567597Y-86982051D01*
X193570384Y-86982300D01*
X199686016Y-86982300D01*
X199688803Y-86982051D01*
X199688809Y-86982051D01*
X199774655Y-86974389D01*
X199806287Y-86971566D01*
X200001670Y-86915541D01*
X200181796Y-86821373D01*
X200339309Y-86692909D01*
X200467773Y-86535396D01*
X200561941Y-86355270D01*
X200617966Y-86159887D01*
X200628700Y-86039616D01*
X200628700Y-79923984D01*
X200617966Y-79803713D01*
X200561941Y-79608330D01*
X200467773Y-79428204D01*
X200339309Y-79270691D01*
X200181796Y-79142227D01*
X200001670Y-79048059D01*
X199806287Y-78992034D01*
X199774655Y-78989211D01*
X199688809Y-78981549D01*
X199688803Y-78981549D01*
X199686016Y-78981300D01*
X193570384Y-78981300D01*
X193567597Y-78981549D01*
X193567591Y-78981549D01*
X193481745Y-78989211D01*
X193450113Y-78992034D01*
X193254730Y-79048059D01*
X193074604Y-79142227D01*
X192917091Y-79270691D01*
X192788627Y-79428204D01*
X192694459Y-79608330D01*
X192638434Y-79803713D01*
X192627700Y-79923984D01*
X192627700Y-86039616D01*
X180892981Y-86039616D01*
X162593119Y-66076130D01*
X162561832Y-66012399D01*
X162560000Y-65990989D01*
X162560000Y-65375816D01*
X221475300Y-65375816D01*
X221486034Y-65496087D01*
X221542059Y-65691470D01*
X221636227Y-65871596D01*
X221764691Y-66029109D01*
X221922204Y-66157573D01*
X222102330Y-66251741D01*
X222297713Y-66307766D01*
X222329345Y-66310589D01*
X222415191Y-66318251D01*
X222415197Y-66318251D01*
X222417984Y-66318500D01*
X228533616Y-66318500D01*
X228536403Y-66318251D01*
X228536409Y-66318251D01*
X228622255Y-66310589D01*
X228653887Y-66307766D01*
X228849270Y-66251741D01*
X229029396Y-66157573D01*
X229186909Y-66029109D01*
X229315373Y-65871596D01*
X229409541Y-65691470D01*
X229465566Y-65496087D01*
X229476300Y-65375816D01*
X229476300Y-59260184D01*
X229465566Y-59139913D01*
X229409541Y-58944530D01*
X229325368Y-58783522D01*
X229318329Y-58770058D01*
X229318328Y-58770057D01*
X229315373Y-58764404D01*
X229186909Y-58606891D01*
X229052325Y-58497127D01*
X229034340Y-58482459D01*
X229034339Y-58482458D01*
X229029396Y-58478427D01*
X228849270Y-58384259D01*
X228653887Y-58328234D01*
X228622255Y-58325411D01*
X228536409Y-58317749D01*
X228536403Y-58317749D01*
X228533616Y-58317500D01*
X222417984Y-58317500D01*
X222415197Y-58317749D01*
X222415191Y-58317749D01*
X222329345Y-58325411D01*
X222297713Y-58328234D01*
X222102330Y-58384259D01*
X221922204Y-58478427D01*
X221917261Y-58482458D01*
X221917260Y-58482459D01*
X221899275Y-58497127D01*
X221764691Y-58606891D01*
X221636227Y-58764404D01*
X221633272Y-58770057D01*
X221633271Y-58770058D01*
X221626232Y-58783522D01*
X221542059Y-58944530D01*
X221486034Y-59139913D01*
X221475300Y-59260184D01*
X221475300Y-65375816D01*
X162560000Y-65375816D01*
X162560000Y-61775816D01*
X199999500Y-61775816D01*
X200010234Y-61896087D01*
X200066259Y-62091470D01*
X200160427Y-62271596D01*
X200288891Y-62429109D01*
X200446404Y-62557573D01*
X200626530Y-62651741D01*
X200821913Y-62707766D01*
X200853545Y-62710589D01*
X200939391Y-62718251D01*
X200939397Y-62718251D01*
X200942184Y-62718500D01*
X207057816Y-62718500D01*
X207060603Y-62718251D01*
X207060609Y-62718251D01*
X207146455Y-62710589D01*
X207178087Y-62707766D01*
X207373470Y-62651741D01*
X207553596Y-62557573D01*
X207711109Y-62429109D01*
X207839573Y-62271596D01*
X207933741Y-62091470D01*
X207989766Y-61896087D01*
X208000500Y-61775816D01*
X208000500Y-55660184D01*
X207989766Y-55539913D01*
X207933741Y-55344530D01*
X207839573Y-55164404D01*
X207711109Y-55006891D01*
X207553596Y-54878427D01*
X207373470Y-54784259D01*
X207178087Y-54728234D01*
X207146455Y-54725411D01*
X207060609Y-54717749D01*
X207060603Y-54717749D01*
X207057816Y-54717500D01*
X200942184Y-54717500D01*
X200939397Y-54717749D01*
X200939391Y-54717749D01*
X200853545Y-54725411D01*
X200821913Y-54728234D01*
X200626530Y-54784259D01*
X200446404Y-54878427D01*
X200288891Y-55006891D01*
X200160427Y-55164404D01*
X200066259Y-55344530D01*
X200010234Y-55539913D01*
X199999500Y-55660184D01*
X199999500Y-61775816D01*
X162560000Y-61775816D01*
X162560000Y-58175816D01*
X172173900Y-58175816D01*
X172184634Y-58296087D01*
X172240659Y-58491470D01*
X172334827Y-58671596D01*
X172463291Y-58829109D01*
X172468231Y-58833138D01*
X172612338Y-58950668D01*
X172620804Y-58957573D01*
X172800930Y-59051741D01*
X172996313Y-59107766D01*
X173027945Y-59110589D01*
X173113791Y-59118251D01*
X173113797Y-59118251D01*
X173116584Y-59118500D01*
X179232216Y-59118500D01*
X179235003Y-59118251D01*
X179235009Y-59118251D01*
X179320855Y-59110589D01*
X179352487Y-59107766D01*
X179547870Y-59051741D01*
X179727996Y-58957573D01*
X179736463Y-58950668D01*
X179880569Y-58833138D01*
X179885509Y-58829109D01*
X180013973Y-58671596D01*
X180108141Y-58491470D01*
X180164166Y-58296087D01*
X180174900Y-58175816D01*
X180174900Y-52060184D01*
X180164166Y-51939913D01*
X180108141Y-51744530D01*
X180013973Y-51564404D01*
X179885509Y-51406891D01*
X179727996Y-51278427D01*
X179547870Y-51184259D01*
X179352487Y-51128234D01*
X179320855Y-51125411D01*
X179235009Y-51117749D01*
X179235003Y-51117749D01*
X179232216Y-51117500D01*
X173116584Y-51117500D01*
X173113797Y-51117749D01*
X173113791Y-51117749D01*
X173027945Y-51125411D01*
X172996313Y-51128234D01*
X172800930Y-51184259D01*
X172620804Y-51278427D01*
X172463291Y-51406891D01*
X172334827Y-51564404D01*
X172240659Y-51744530D01*
X172184634Y-51939913D01*
X172173900Y-52060184D01*
X172173900Y-58175816D01*
X162560000Y-58175816D01*
X162560000Y-50852190D01*
X162580002Y-50784069D01*
X162596905Y-50763095D01*
X176621784Y-36738216D01*
X192627700Y-36738216D01*
X192638434Y-36858487D01*
X192694459Y-37053870D01*
X192788627Y-37233996D01*
X192917091Y-37391509D01*
X193074604Y-37519973D01*
X193254730Y-37614141D01*
X193450113Y-37670166D01*
X193481745Y-37672989D01*
X193567591Y-37680651D01*
X193567597Y-37680651D01*
X193570384Y-37680900D01*
X199686016Y-37680900D01*
X199688803Y-37680651D01*
X199688809Y-37680651D01*
X199774655Y-37672989D01*
X199806287Y-37670166D01*
X200001670Y-37614141D01*
X200181796Y-37519973D01*
X200339309Y-37391509D01*
X200467773Y-37233996D01*
X200561941Y-37053870D01*
X200617966Y-36858487D01*
X200628700Y-36738216D01*
X200628700Y-30622584D01*
X200617966Y-30502313D01*
X200561941Y-30306930D01*
X200467773Y-30126804D01*
X200339309Y-29969291D01*
X200181796Y-29840827D01*
X200001670Y-29746659D01*
X199806287Y-29690634D01*
X199774655Y-29687811D01*
X199688809Y-29680149D01*
X199688803Y-29680149D01*
X199686016Y-29679900D01*
X193570384Y-29679900D01*
X193567597Y-29680149D01*
X193567591Y-29680149D01*
X193481745Y-29687811D01*
X193450113Y-29690634D01*
X193254730Y-29746659D01*
X193074604Y-29840827D01*
X192917091Y-29969291D01*
X192788627Y-30126804D01*
X192694459Y-30306930D01*
X192638434Y-30502313D01*
X192627700Y-30622584D01*
X192627700Y-36738216D01*
X176621784Y-36738216D01*
X190463095Y-22896905D01*
X190525407Y-22862879D01*
X190552190Y-22860000D01*
X208484380Y-22860000D01*
X208552501Y-22880002D01*
G37*
%TD.AperFunction*%
%TD*%
%TA.AperFunction,Conductor*%
%TO.N,/+*%
G36*
X211000000Y-65300000D02*
G01*
X188800000Y-65300000D01*
X188800000Y-61775816D01*
X199999500Y-61775816D01*
X200010234Y-61896087D01*
X200066259Y-62091470D01*
X200160427Y-62271596D01*
X200288891Y-62429109D01*
X200446404Y-62557573D01*
X200626530Y-62651741D01*
X200821913Y-62707766D01*
X200853545Y-62710589D01*
X200939391Y-62718251D01*
X200939397Y-62718251D01*
X200942184Y-62718500D01*
X207057816Y-62718500D01*
X207060603Y-62718251D01*
X207060609Y-62718251D01*
X207146455Y-62710589D01*
X207178087Y-62707766D01*
X207373470Y-62651741D01*
X207553596Y-62557573D01*
X207711109Y-62429109D01*
X207839573Y-62271596D01*
X207933741Y-62091470D01*
X207989766Y-61896087D01*
X208000500Y-61775816D01*
X208000500Y-55660184D01*
X207989766Y-55539913D01*
X207933741Y-55344530D01*
X207839573Y-55164404D01*
X207711109Y-55006891D01*
X207553596Y-54878427D01*
X207373470Y-54784259D01*
X207178087Y-54728234D01*
X207146455Y-54725411D01*
X207060609Y-54717749D01*
X207060603Y-54717749D01*
X207057816Y-54717500D01*
X200942184Y-54717500D01*
X200939397Y-54717749D01*
X200939391Y-54717749D01*
X200853545Y-54725411D01*
X200821913Y-54728234D01*
X200626530Y-54784259D01*
X200446404Y-54878427D01*
X200288891Y-55006891D01*
X200160427Y-55164404D01*
X200066259Y-55344530D01*
X200010234Y-55539913D01*
X199999500Y-55660184D01*
X199999500Y-61775816D01*
X188800000Y-61775816D01*
X188800000Y-52100000D01*
X211000000Y-52100000D01*
X211000000Y-65300000D01*
G37*
%TD.AperFunction*%
%TD*%
M02*
