%TF.GenerationSoftware,KiCad,Pcbnew,(6.0.9)*%
%TF.CreationDate,2023-02-05T22:41:23+02:00*%
%TF.ProjectId,signal,7369676e-616c-42e6-9b69-6361645f7063,rev?*%
%TF.SameCoordinates,Original*%
%TF.FileFunction,Drillmap*%
%TF.FilePolarity,Positive*%
%FSLAX45Y45*%
G04 Gerber Fmt 4.5, Leading zero omitted, Abs format (unit mm)*
G04 Created by KiCad (PCBNEW (6.0.9)) date 2023-02-05 22:41:23*
%MOMM*%
%LPD*%
G01*
G04 APERTURE LIST*
%ADD10C,0.100000*%
%ADD11C,0.200000*%
%ADD12C,0.110000*%
G04 APERTURE END LIST*
D10*
X16400000Y-6800000D02*
X16400000Y-4800000D01*
X18400000Y-6800000D02*
X16400000Y-6800000D01*
X18400000Y-4800000D02*
X18400000Y-6800000D01*
X16400000Y-4800000D02*
X18400000Y-4800000D01*
D11*
D12*
X17218000Y-5245000D02*
X17328000Y-5355000D01*
X17328000Y-5245000D02*
X17218000Y-5355000D01*
X17218000Y-6145000D02*
X17328000Y-6255000D01*
X17328000Y-6145000D02*
X17218000Y-6255000D01*
X17472000Y-5245000D02*
X17582000Y-5355000D01*
X17582000Y-5245000D02*
X17472000Y-5355000D01*
X17472000Y-6145000D02*
X17582000Y-6255000D01*
X17582000Y-6145000D02*
X17472000Y-6255000D01*
D11*
X16652619Y-7115476D02*
X16652619Y-6915476D01*
X16700238Y-6915476D01*
X16728809Y-6925000D01*
X16747857Y-6944048D01*
X16757381Y-6963095D01*
X16766905Y-7001190D01*
X16766905Y-7029762D01*
X16757381Y-7067857D01*
X16747857Y-7086905D01*
X16728809Y-7105952D01*
X16700238Y-7115476D01*
X16652619Y-7115476D01*
X16852619Y-7115476D02*
X16852619Y-6982143D01*
X16852619Y-7020238D02*
X16862143Y-7001190D01*
X16871667Y-6991667D01*
X16890714Y-6982143D01*
X16909762Y-6982143D01*
X16976429Y-7115476D02*
X16976429Y-6982143D01*
X16976429Y-6915476D02*
X16966905Y-6925000D01*
X16976429Y-6934524D01*
X16985952Y-6925000D01*
X16976429Y-6915476D01*
X16976429Y-6934524D01*
X17100238Y-7115476D02*
X17081190Y-7105952D01*
X17071667Y-7086905D01*
X17071667Y-6915476D01*
X17205000Y-7115476D02*
X17185952Y-7105952D01*
X17176429Y-7086905D01*
X17176429Y-6915476D01*
X17433571Y-7115476D02*
X17433571Y-6915476D01*
X17500238Y-7058333D01*
X17566905Y-6915476D01*
X17566905Y-7115476D01*
X17747857Y-7115476D02*
X17747857Y-7010714D01*
X17738333Y-6991667D01*
X17719286Y-6982143D01*
X17681190Y-6982143D01*
X17662143Y-6991667D01*
X17747857Y-7105952D02*
X17728810Y-7115476D01*
X17681190Y-7115476D01*
X17662143Y-7105952D01*
X17652619Y-7086905D01*
X17652619Y-7067857D01*
X17662143Y-7048809D01*
X17681190Y-7039286D01*
X17728810Y-7039286D01*
X17747857Y-7029762D01*
X17843095Y-6982143D02*
X17843095Y-7182143D01*
X17843095Y-6991667D02*
X17862143Y-6982143D01*
X17900238Y-6982143D01*
X17919286Y-6991667D01*
X17928810Y-7001190D01*
X17938333Y-7020238D01*
X17938333Y-7077381D01*
X17928810Y-7096428D01*
X17919286Y-7105952D01*
X17900238Y-7115476D01*
X17862143Y-7115476D01*
X17843095Y-7105952D01*
X18024048Y-7096428D02*
X18033571Y-7105952D01*
X18024048Y-7115476D01*
X18014524Y-7105952D01*
X18024048Y-7096428D01*
X18024048Y-7115476D01*
X18024048Y-6991667D02*
X18033571Y-7001190D01*
X18024048Y-7010714D01*
X18014524Y-7001190D01*
X18024048Y-6991667D01*
X18024048Y-7010714D01*
D12*
X16285000Y-7390000D02*
X16395000Y-7500000D01*
X16395000Y-7390000D02*
X16285000Y-7500000D01*
D11*
X16757381Y-7535476D02*
X16643095Y-7535476D01*
X16700238Y-7535476D02*
X16700238Y-7335476D01*
X16681190Y-7364048D01*
X16662143Y-7383095D01*
X16643095Y-7392619D01*
X16843095Y-7516428D02*
X16852619Y-7525952D01*
X16843095Y-7535476D01*
X16833571Y-7525952D01*
X16843095Y-7516428D01*
X16843095Y-7535476D01*
X17043095Y-7535476D02*
X16928810Y-7535476D01*
X16985952Y-7535476D02*
X16985952Y-7335476D01*
X16966905Y-7364048D01*
X16947857Y-7383095D01*
X16928810Y-7392619D01*
X17166905Y-7335476D02*
X17185952Y-7335476D01*
X17205000Y-7345000D01*
X17214524Y-7354524D01*
X17224048Y-7373571D01*
X17233571Y-7411667D01*
X17233571Y-7459286D01*
X17224048Y-7497381D01*
X17214524Y-7516428D01*
X17205000Y-7525952D01*
X17185952Y-7535476D01*
X17166905Y-7535476D01*
X17147857Y-7525952D01*
X17138333Y-7516428D01*
X17128810Y-7497381D01*
X17119286Y-7459286D01*
X17119286Y-7411667D01*
X17128810Y-7373571D01*
X17138333Y-7354524D01*
X17147857Y-7345000D01*
X17166905Y-7335476D01*
X17357381Y-7335476D02*
X17376429Y-7335476D01*
X17395476Y-7345000D01*
X17405000Y-7354524D01*
X17414524Y-7373571D01*
X17424048Y-7411667D01*
X17424048Y-7459286D01*
X17414524Y-7497381D01*
X17405000Y-7516428D01*
X17395476Y-7525952D01*
X17376429Y-7535476D01*
X17357381Y-7535476D01*
X17338333Y-7525952D01*
X17328810Y-7516428D01*
X17319286Y-7497381D01*
X17309762Y-7459286D01*
X17309762Y-7411667D01*
X17319286Y-7373571D01*
X17328810Y-7354524D01*
X17338333Y-7345000D01*
X17357381Y-7335476D01*
X17509762Y-7535476D02*
X17509762Y-7402143D01*
X17509762Y-7421190D02*
X17519286Y-7411667D01*
X17538333Y-7402143D01*
X17566905Y-7402143D01*
X17585952Y-7411667D01*
X17595476Y-7430714D01*
X17595476Y-7535476D01*
X17595476Y-7430714D02*
X17605000Y-7411667D01*
X17624048Y-7402143D01*
X17652619Y-7402143D01*
X17671667Y-7411667D01*
X17681190Y-7430714D01*
X17681190Y-7535476D01*
X17776429Y-7535476D02*
X17776429Y-7402143D01*
X17776429Y-7421190D02*
X17785952Y-7411667D01*
X17805000Y-7402143D01*
X17833571Y-7402143D01*
X17852619Y-7411667D01*
X17862143Y-7430714D01*
X17862143Y-7535476D01*
X17862143Y-7430714D02*
X17871667Y-7411667D01*
X17890714Y-7402143D01*
X17919286Y-7402143D01*
X17938333Y-7411667D01*
X17947857Y-7430714D01*
X17947857Y-7535476D01*
X18338333Y-7325952D02*
X18166905Y-7583095D01*
X18595476Y-7335476D02*
X18614524Y-7335476D01*
X18633571Y-7345000D01*
X18643095Y-7354524D01*
X18652619Y-7373571D01*
X18662143Y-7411667D01*
X18662143Y-7459286D01*
X18652619Y-7497381D01*
X18643095Y-7516428D01*
X18633571Y-7525952D01*
X18614524Y-7535476D01*
X18595476Y-7535476D01*
X18576429Y-7525952D01*
X18566905Y-7516428D01*
X18557381Y-7497381D01*
X18547857Y-7459286D01*
X18547857Y-7411667D01*
X18557381Y-7373571D01*
X18566905Y-7354524D01*
X18576429Y-7345000D01*
X18595476Y-7335476D01*
X18747857Y-7516428D02*
X18757381Y-7525952D01*
X18747857Y-7535476D01*
X18738333Y-7525952D01*
X18747857Y-7516428D01*
X18747857Y-7535476D01*
X18881190Y-7335476D02*
X18900238Y-7335476D01*
X18919286Y-7345000D01*
X18928810Y-7354524D01*
X18938333Y-7373571D01*
X18947857Y-7411667D01*
X18947857Y-7459286D01*
X18938333Y-7497381D01*
X18928810Y-7516428D01*
X18919286Y-7525952D01*
X18900238Y-7535476D01*
X18881190Y-7535476D01*
X18862143Y-7525952D01*
X18852619Y-7516428D01*
X18843095Y-7497381D01*
X18833571Y-7459286D01*
X18833571Y-7411667D01*
X18843095Y-7373571D01*
X18852619Y-7354524D01*
X18862143Y-7345000D01*
X18881190Y-7335476D01*
X19119286Y-7402143D02*
X19119286Y-7535476D01*
X19071667Y-7325952D02*
X19024048Y-7468809D01*
X19147857Y-7468809D01*
X19205000Y-7335476D02*
X19328810Y-7335476D01*
X19262143Y-7411667D01*
X19290714Y-7411667D01*
X19309762Y-7421190D01*
X19319286Y-7430714D01*
X19328810Y-7449762D01*
X19328810Y-7497381D01*
X19319286Y-7516428D01*
X19309762Y-7525952D01*
X19290714Y-7535476D01*
X19233571Y-7535476D01*
X19214524Y-7525952D01*
X19205000Y-7516428D01*
X19395476Y-7335476D02*
X19519286Y-7335476D01*
X19452619Y-7411667D01*
X19481190Y-7411667D01*
X19500238Y-7421190D01*
X19509762Y-7430714D01*
X19519286Y-7449762D01*
X19519286Y-7497381D01*
X19509762Y-7516428D01*
X19500238Y-7525952D01*
X19481190Y-7535476D01*
X19424048Y-7535476D01*
X19405000Y-7525952D01*
X19395476Y-7516428D01*
X19595476Y-7335476D02*
X19595476Y-7373571D01*
X19671667Y-7335476D02*
X19671667Y-7373571D01*
X19966905Y-7611667D02*
X19957381Y-7602143D01*
X19938333Y-7573571D01*
X19928810Y-7554524D01*
X19919286Y-7525952D01*
X19909762Y-7478333D01*
X19909762Y-7440238D01*
X19919286Y-7392619D01*
X19928810Y-7364048D01*
X19938333Y-7345000D01*
X19957381Y-7316428D01*
X19966905Y-7306905D01*
X20128810Y-7402143D02*
X20128810Y-7535476D01*
X20081190Y-7325952D02*
X20033571Y-7468809D01*
X20157381Y-7468809D01*
X20385952Y-7535476D02*
X20385952Y-7335476D01*
X20471667Y-7535476D02*
X20471667Y-7430714D01*
X20462143Y-7411667D01*
X20443095Y-7402143D01*
X20414524Y-7402143D01*
X20395476Y-7411667D01*
X20385952Y-7421190D01*
X20595476Y-7535476D02*
X20576429Y-7525952D01*
X20566905Y-7516428D01*
X20557381Y-7497381D01*
X20557381Y-7440238D01*
X20566905Y-7421190D01*
X20576429Y-7411667D01*
X20595476Y-7402143D01*
X20624048Y-7402143D01*
X20643095Y-7411667D01*
X20652619Y-7421190D01*
X20662143Y-7440238D01*
X20662143Y-7497381D01*
X20652619Y-7516428D01*
X20643095Y-7525952D01*
X20624048Y-7535476D01*
X20595476Y-7535476D01*
X20776429Y-7535476D02*
X20757381Y-7525952D01*
X20747857Y-7506905D01*
X20747857Y-7335476D01*
X20928810Y-7525952D02*
X20909762Y-7535476D01*
X20871667Y-7535476D01*
X20852619Y-7525952D01*
X20843095Y-7506905D01*
X20843095Y-7430714D01*
X20852619Y-7411667D01*
X20871667Y-7402143D01*
X20909762Y-7402143D01*
X20928810Y-7411667D01*
X20938333Y-7430714D01*
X20938333Y-7449762D01*
X20843095Y-7468809D01*
X21014524Y-7525952D02*
X21033571Y-7535476D01*
X21071667Y-7535476D01*
X21090714Y-7525952D01*
X21100238Y-7506905D01*
X21100238Y-7497381D01*
X21090714Y-7478333D01*
X21071667Y-7468809D01*
X21043095Y-7468809D01*
X21024048Y-7459286D01*
X21014524Y-7440238D01*
X21014524Y-7430714D01*
X21024048Y-7411667D01*
X21043095Y-7402143D01*
X21071667Y-7402143D01*
X21090714Y-7411667D01*
X21166905Y-7611667D02*
X21176429Y-7602143D01*
X21195476Y-7573571D01*
X21205000Y-7554524D01*
X21214524Y-7525952D01*
X21224048Y-7478333D01*
X21224048Y-7440238D01*
X21214524Y-7392619D01*
X21205000Y-7364048D01*
X21195476Y-7345000D01*
X21176429Y-7316428D01*
X21166905Y-7306905D01*
M02*
