M48
; DRILL file {KiCad (6.0.9)} date Sun Feb  5 01:27:44 2023
; FORMAT={-:-/ absolute / inch / decimal}
; #@! TF.CreationDate,2023-02-05T01:27:44+02:00
; #@! TF.GenerationSoftware,Kicad,Pcbnew,(6.0.9)
; #@! TF.FileFunction,Plated,1,2,PTH
FMAT,2
INCH
; #@! TA.AperFunction,Plated,PTH,ComponentDrill
T1C0.0394
; #@! TA.AperFunction,Plated,PTH,ComponentDrill
T2C0.0433
; #@! TA.AperFunction,Plated,PTH,ComponentDrill
T3C0.0504
; #@! TA.AperFunction,Plated,PTH,ComponentDrill
T4C0.0535
%
G90
G05
T1
X3.5458Y-3.7244
X3.5458Y-3.8244
X3.5458Y-3.9244
X3.546Y-4.256
X3.546Y-4.356
X3.546Y-4.456
X3.546Y-4.556
X3.546Y-4.656
X3.546Y-4.756
X3.546Y-4.856
X3.546Y-4.956
X3.546Y-5.305
X3.546Y-5.405
X3.546Y-5.505
X3.546Y-5.605
X3.546Y-5.705
X3.546Y-5.805
X5.113Y-3.757
X5.113Y-3.857
X5.113Y-3.957
X5.113Y-4.057
X5.113Y-4.157
X5.113Y-4.257
X5.113Y-4.357
X5.113Y-4.457
X5.113Y-4.557
X5.113Y-4.657
X5.113Y-4.757
X5.113Y-4.857
X5.113Y-4.957
X5.113Y-5.057
X5.113Y-5.157
X5.113Y-5.257
X5.213Y-3.757
X5.213Y-3.857
X5.213Y-3.957
X5.213Y-4.057
X5.213Y-4.157
X5.213Y-4.257
X5.213Y-4.357
X5.213Y-4.457
X5.213Y-4.557
X5.213Y-4.657
X5.213Y-4.757
X5.213Y-4.857
X5.213Y-4.957
X5.213Y-5.057
X5.213Y-5.157
X5.213Y-5.257
X5.313Y-3.755
X5.313Y-3.855
X5.413Y-3.755
X5.413Y-3.855
X5.513Y-3.755
X5.513Y-3.855
X5.815Y-3.752
X5.815Y-3.852
X5.915Y-3.752
X5.915Y-3.852
X6.015Y-3.752
X6.015Y-3.852
X6.4157Y-3.7559
X6.4157Y-3.8559
X6.4157Y-3.9559
X6.4157Y-4.0559
X6.4157Y-4.1559
X6.4157Y-4.2559
X6.4157Y-4.3559
X6.4157Y-4.4559
X6.4157Y-4.5559
X6.4157Y-4.6559
X6.4157Y-4.7559
X6.4157Y-4.8559
X6.4157Y-4.9559
X6.4157Y-5.0559
X6.4157Y-5.1559
X6.4157Y-5.2559
X6.4157Y-5.3559
X6.4157Y-5.4559
X6.4157Y-5.5559
X6.4157Y-5.6559
X6.4157Y-5.7559
X6.5157Y-3.7559
X6.5157Y-3.8559
X6.5157Y-3.9559
X6.5157Y-4.0559
X6.5157Y-4.1559
X6.5157Y-4.2559
X6.5157Y-4.3559
X6.5157Y-4.4559
X6.5157Y-4.5559
X6.5157Y-4.6559
X6.5157Y-4.7559
X6.5157Y-4.8559
X6.5157Y-4.9559
X6.5157Y-5.0559
X6.5157Y-5.1559
X6.5157Y-5.2559
X6.5157Y-5.3559
X6.5157Y-5.4559
X6.5157Y-5.5559
X6.5157Y-5.6559
X6.5157Y-5.7559
T2
X3.842Y-4.155
X3.842Y-4.255
X3.842Y-4.355
X3.842Y-4.455
X3.842Y-4.555
X3.842Y-4.655
X3.842Y-4.755
X3.842Y-4.855
X3.842Y-4.955
X4.223Y-6.1589
X4.323Y-6.1589
X4.423Y-6.1589
X4.472Y-3.3739
X4.472Y-3.4739
X4.472Y-3.5739
X4.472Y-3.6739
X4.472Y-3.7739
X4.472Y-3.8739
X4.472Y-3.9739
X4.472Y-4.0739
X4.472Y-4.1739
X4.472Y-4.3149
X4.472Y-4.4149
X4.472Y-4.5149
X4.472Y-4.6149
X4.472Y-4.7149
X4.472Y-4.8149
X4.472Y-4.9149
X4.472Y-5.0149
X4.472Y-5.1149
X4.523Y-6.1589
X4.623Y-6.1589
X4.723Y-6.1589
X4.823Y-6.1589
X4.923Y-6.1589
X5.023Y-6.1589
X6.114Y-6.1582
X6.214Y-6.1582
X6.314Y-6.1582
X6.323Y-3.406
X6.414Y-6.1582
X6.423Y-3.406
X6.514Y-6.1582
X6.523Y-3.406
X6.614Y-6.1582
X6.623Y-3.406
X6.714Y-6.1582
X6.723Y-3.406
X6.814Y-6.1582
X6.823Y-3.406
X6.847Y-4.0169
X6.847Y-4.1169
X6.847Y-4.2169
X6.847Y-4.3169
X6.847Y-4.4169
X6.847Y-4.5169
X6.847Y-4.6169
X6.847Y-4.7169
X6.847Y-4.8169
X6.847Y-4.9569
X6.847Y-5.0569
X6.847Y-5.1569
X6.847Y-5.2569
X6.847Y-5.3569
X6.847Y-5.4569
X6.847Y-5.5569
X6.847Y-5.6569
X6.847Y-5.7569
X6.914Y-6.1582
X6.923Y-3.406
X7.023Y-3.406
X7.123Y-3.406
T3
X3.842Y-5.303
X3.842Y-5.403
X3.842Y-5.503
X3.842Y-5.603
X3.842Y-5.703
X3.842Y-5.803
X4.6981Y-3.4069
X4.7981Y-3.4069
X4.8981Y-3.4069
X4.9981Y-3.4069
X5.0981Y-3.4069
X5.1981Y-3.4069
X5.339Y-3.4069
X5.439Y-3.4069
X5.539Y-3.4069
X5.639Y-3.4069
X5.739Y-3.4069
X5.839Y-3.4069
T4
X3.8386Y-3.7217
X3.8386Y-3.8217
X3.8386Y-3.9217
X4.472Y-5.2609
X4.472Y-5.3609
X4.472Y-5.4609
X4.472Y-5.5989
X4.472Y-5.6989
X4.472Y-5.7989
X5.978Y-3.4069
X6.078Y-3.4069
X6.178Y-3.4069
X6.847Y-3.6789
X6.847Y-3.7789
X6.847Y-3.8789
T0
M30
