%TF.GenerationSoftware,KiCad,Pcbnew,(6.0.9)*%
%TF.CreationDate,2023-02-05T01:27:43+02:00*%
%TF.ProjectId,Mega pro pins,4d656761-2070-4726-9f20-70696e732e6b,rev?*%
%TF.SameCoordinates,Original*%
%TF.FileFunction,Drillmap*%
%TF.FilePolarity,Positive*%
%FSLAX45Y45*%
G04 Gerber Fmt 4.5, Leading zero omitted, Abs format (unit mm)*
G04 Created by KiCad (PCBNEW (6.0.9)) date 2023-02-05 01:27:43*
%MOMM*%
%LPD*%
G01*
G04 APERTURE LIST*
%ADD10C,0.100000*%
%ADD11C,0.200000*%
%ADD12C,0.320000*%
G04 APERTURE END LIST*
D10*
X18500000Y-16300000D02*
G75*
G03*
X18800000Y-16000000I0J300000D01*
G01*
X6000000Y-16000000D02*
G75*
G03*
X6300000Y-16300000I300000J0D01*
G01*
X6300000Y-7600000D02*
G75*
G03*
X6000000Y-7900000I0J-300000D01*
G01*
X18800000Y-7900000D02*
G75*
G03*
X18500000Y-7600000I-300000J0D01*
G01*
X18800000Y-7900000D02*
X18800000Y-16000000D01*
X18500000Y-16300000D02*
X6300000Y-16300000D01*
X6300000Y-7600000D02*
X18500000Y-7600000D01*
X6000000Y-16000000D02*
X6000000Y-7900000D01*
D11*
D12*
X6240800Y-7807980D02*
X6560800Y-8127980D01*
X6560800Y-7807980D02*
X6240800Y-8127980D01*
X6240800Y-10000000D02*
X6560800Y-10320000D01*
X6560800Y-10000000D02*
X6240800Y-10320000D01*
X6240800Y-12547620D02*
X6560800Y-12867620D01*
X6560800Y-12547620D02*
X6240800Y-12867620D01*
X6240800Y-15590540D02*
X6560800Y-15910540D01*
X6560800Y-15590540D02*
X6240800Y-15910540D01*
X9657100Y-15588000D02*
X9977100Y-15908000D01*
X9977100Y-15588000D02*
X9657100Y-15908000D01*
X10467360Y-7802900D02*
X10787360Y-8122900D01*
X10787360Y-7802900D02*
X10467360Y-8122900D01*
X14566920Y-15585460D02*
X14886920Y-15905460D01*
X14886920Y-15585460D02*
X14566920Y-15905460D01*
X18277860Y-7805440D02*
X18597860Y-8125440D01*
X18597860Y-7805440D02*
X18277860Y-8125440D01*
X18277860Y-9997460D02*
X18597860Y-10317460D01*
X18597860Y-9997460D02*
X18277860Y-10317460D01*
X18277860Y-12545080D02*
X18597860Y-12865080D01*
X18597860Y-12545080D02*
X18277860Y-12865080D01*
X18277860Y-15588000D02*
X18597860Y-15908000D01*
X18597860Y-15588000D02*
X18277860Y-15908000D01*
D11*
X6252619Y-16615476D02*
X6252619Y-16415476D01*
X6300238Y-16415476D01*
X6328809Y-16425000D01*
X6347857Y-16444048D01*
X6357381Y-16463095D01*
X6366905Y-16501190D01*
X6366905Y-16529762D01*
X6357381Y-16567857D01*
X6347857Y-16586905D01*
X6328809Y-16605952D01*
X6300238Y-16615476D01*
X6252619Y-16615476D01*
X6452619Y-16615476D02*
X6452619Y-16482143D01*
X6452619Y-16520238D02*
X6462143Y-16501190D01*
X6471667Y-16491667D01*
X6490714Y-16482143D01*
X6509762Y-16482143D01*
X6576428Y-16615476D02*
X6576428Y-16482143D01*
X6576428Y-16415476D02*
X6566905Y-16425000D01*
X6576428Y-16434524D01*
X6585952Y-16425000D01*
X6576428Y-16415476D01*
X6576428Y-16434524D01*
X6700238Y-16615476D02*
X6681190Y-16605952D01*
X6671667Y-16586905D01*
X6671667Y-16415476D01*
X6805000Y-16615476D02*
X6785952Y-16605952D01*
X6776428Y-16586905D01*
X6776428Y-16415476D01*
X7033571Y-16615476D02*
X7033571Y-16415476D01*
X7100238Y-16558333D01*
X7166905Y-16415476D01*
X7166905Y-16615476D01*
X7347857Y-16615476D02*
X7347857Y-16510714D01*
X7338333Y-16491667D01*
X7319286Y-16482143D01*
X7281190Y-16482143D01*
X7262143Y-16491667D01*
X7347857Y-16605952D02*
X7328809Y-16615476D01*
X7281190Y-16615476D01*
X7262143Y-16605952D01*
X7252619Y-16586905D01*
X7252619Y-16567857D01*
X7262143Y-16548809D01*
X7281190Y-16539286D01*
X7328809Y-16539286D01*
X7347857Y-16529762D01*
X7443095Y-16482143D02*
X7443095Y-16682143D01*
X7443095Y-16491667D02*
X7462143Y-16482143D01*
X7500238Y-16482143D01*
X7519286Y-16491667D01*
X7528809Y-16501190D01*
X7538333Y-16520238D01*
X7538333Y-16577381D01*
X7528809Y-16596428D01*
X7519286Y-16605952D01*
X7500238Y-16615476D01*
X7462143Y-16615476D01*
X7443095Y-16605952D01*
X7624048Y-16596428D02*
X7633571Y-16605952D01*
X7624048Y-16615476D01*
X7614524Y-16605952D01*
X7624048Y-16596428D01*
X7624048Y-16615476D01*
X7624048Y-16491667D02*
X7633571Y-16501190D01*
X7624048Y-16510714D01*
X7614524Y-16501190D01*
X7624048Y-16491667D01*
X7624048Y-16510714D01*
X5795000Y-16845000D02*
X5995000Y-17045000D01*
X5995000Y-16845000D02*
X5795000Y-17045000D01*
X6233571Y-16835476D02*
X6357381Y-16835476D01*
X6290714Y-16911667D01*
X6319286Y-16911667D01*
X6338333Y-16921190D01*
X6347857Y-16930714D01*
X6357381Y-16949762D01*
X6357381Y-16997381D01*
X6347857Y-17016429D01*
X6338333Y-17025952D01*
X6319286Y-17035476D01*
X6262143Y-17035476D01*
X6243095Y-17025952D01*
X6233571Y-17016429D01*
X6443095Y-17016429D02*
X6452619Y-17025952D01*
X6443095Y-17035476D01*
X6433571Y-17025952D01*
X6443095Y-17016429D01*
X6443095Y-17035476D01*
X6528809Y-16854524D02*
X6538333Y-16845000D01*
X6557381Y-16835476D01*
X6605000Y-16835476D01*
X6624048Y-16845000D01*
X6633571Y-16854524D01*
X6643095Y-16873571D01*
X6643095Y-16892619D01*
X6633571Y-16921190D01*
X6519286Y-17035476D01*
X6643095Y-17035476D01*
X6766905Y-16835476D02*
X6785952Y-16835476D01*
X6805000Y-16845000D01*
X6814524Y-16854524D01*
X6824048Y-16873571D01*
X6833571Y-16911667D01*
X6833571Y-16959286D01*
X6824048Y-16997381D01*
X6814524Y-17016429D01*
X6805000Y-17025952D01*
X6785952Y-17035476D01*
X6766905Y-17035476D01*
X6747857Y-17025952D01*
X6738333Y-17016429D01*
X6728809Y-16997381D01*
X6719286Y-16959286D01*
X6719286Y-16911667D01*
X6728809Y-16873571D01*
X6738333Y-16854524D01*
X6747857Y-16845000D01*
X6766905Y-16835476D01*
X6957381Y-16835476D02*
X6976428Y-16835476D01*
X6995476Y-16845000D01*
X7005000Y-16854524D01*
X7014524Y-16873571D01*
X7024048Y-16911667D01*
X7024048Y-16959286D01*
X7014524Y-16997381D01*
X7005000Y-17016429D01*
X6995476Y-17025952D01*
X6976428Y-17035476D01*
X6957381Y-17035476D01*
X6938333Y-17025952D01*
X6928809Y-17016429D01*
X6919286Y-16997381D01*
X6909762Y-16959286D01*
X6909762Y-16911667D01*
X6919286Y-16873571D01*
X6928809Y-16854524D01*
X6938333Y-16845000D01*
X6957381Y-16835476D01*
X7109762Y-17035476D02*
X7109762Y-16902143D01*
X7109762Y-16921190D02*
X7119286Y-16911667D01*
X7138333Y-16902143D01*
X7166905Y-16902143D01*
X7185952Y-16911667D01*
X7195476Y-16930714D01*
X7195476Y-17035476D01*
X7195476Y-16930714D02*
X7205000Y-16911667D01*
X7224048Y-16902143D01*
X7252619Y-16902143D01*
X7271667Y-16911667D01*
X7281190Y-16930714D01*
X7281190Y-17035476D01*
X7376428Y-17035476D02*
X7376428Y-16902143D01*
X7376428Y-16921190D02*
X7385952Y-16911667D01*
X7405000Y-16902143D01*
X7433571Y-16902143D01*
X7452619Y-16911667D01*
X7462143Y-16930714D01*
X7462143Y-17035476D01*
X7462143Y-16930714D02*
X7471667Y-16911667D01*
X7490714Y-16902143D01*
X7519286Y-16902143D01*
X7538333Y-16911667D01*
X7547857Y-16930714D01*
X7547857Y-17035476D01*
X7938333Y-16825952D02*
X7766905Y-17083095D01*
X8195476Y-16835476D02*
X8214524Y-16835476D01*
X8233571Y-16845000D01*
X8243095Y-16854524D01*
X8252619Y-16873571D01*
X8262143Y-16911667D01*
X8262143Y-16959286D01*
X8252619Y-16997381D01*
X8243095Y-17016429D01*
X8233571Y-17025952D01*
X8214524Y-17035476D01*
X8195476Y-17035476D01*
X8176428Y-17025952D01*
X8166905Y-17016429D01*
X8157381Y-16997381D01*
X8147857Y-16959286D01*
X8147857Y-16911667D01*
X8157381Y-16873571D01*
X8166905Y-16854524D01*
X8176428Y-16845000D01*
X8195476Y-16835476D01*
X8347857Y-17016429D02*
X8357381Y-17025952D01*
X8347857Y-17035476D01*
X8338333Y-17025952D01*
X8347857Y-17016429D01*
X8347857Y-17035476D01*
X8547857Y-17035476D02*
X8433571Y-17035476D01*
X8490714Y-17035476D02*
X8490714Y-16835476D01*
X8471667Y-16864048D01*
X8452619Y-16883095D01*
X8433571Y-16892619D01*
X8624048Y-16854524D02*
X8633571Y-16845000D01*
X8652619Y-16835476D01*
X8700238Y-16835476D01*
X8719286Y-16845000D01*
X8728810Y-16854524D01*
X8738333Y-16873571D01*
X8738333Y-16892619D01*
X8728810Y-16921190D01*
X8614524Y-17035476D01*
X8738333Y-17035476D01*
X8909762Y-16835476D02*
X8871667Y-16835476D01*
X8852619Y-16845000D01*
X8843095Y-16854524D01*
X8824048Y-16883095D01*
X8814524Y-16921190D01*
X8814524Y-16997381D01*
X8824048Y-17016429D01*
X8833571Y-17025952D01*
X8852619Y-17035476D01*
X8890714Y-17035476D01*
X8909762Y-17025952D01*
X8919286Y-17016429D01*
X8928810Y-16997381D01*
X8928810Y-16949762D01*
X8919286Y-16930714D01*
X8909762Y-16921190D01*
X8890714Y-16911667D01*
X8852619Y-16911667D01*
X8833571Y-16921190D01*
X8824048Y-16930714D01*
X8814524Y-16949762D01*
X9052619Y-16835476D02*
X9071667Y-16835476D01*
X9090714Y-16845000D01*
X9100238Y-16854524D01*
X9109762Y-16873571D01*
X9119286Y-16911667D01*
X9119286Y-16959286D01*
X9109762Y-16997381D01*
X9100238Y-17016429D01*
X9090714Y-17025952D01*
X9071667Y-17035476D01*
X9052619Y-17035476D01*
X9033571Y-17025952D01*
X9024048Y-17016429D01*
X9014524Y-16997381D01*
X9005000Y-16959286D01*
X9005000Y-16911667D01*
X9014524Y-16873571D01*
X9024048Y-16854524D01*
X9033571Y-16845000D01*
X9052619Y-16835476D01*
X9195476Y-16835476D02*
X9195476Y-16873571D01*
X9271667Y-16835476D02*
X9271667Y-16873571D01*
X9566905Y-17111667D02*
X9557381Y-17102143D01*
X9538333Y-17073571D01*
X9528810Y-17054524D01*
X9519286Y-17025952D01*
X9509762Y-16978333D01*
X9509762Y-16940238D01*
X9519286Y-16892619D01*
X9528810Y-16864048D01*
X9538333Y-16845000D01*
X9557381Y-16816429D01*
X9566905Y-16806905D01*
X9747857Y-17035476D02*
X9633571Y-17035476D01*
X9690714Y-17035476D02*
X9690714Y-16835476D01*
X9671667Y-16864048D01*
X9652619Y-16883095D01*
X9633571Y-16892619D01*
X9938333Y-17035476D02*
X9824048Y-17035476D01*
X9881190Y-17035476D02*
X9881190Y-16835476D01*
X9862143Y-16864048D01*
X9843095Y-16883095D01*
X9824048Y-16892619D01*
X10176429Y-17035476D02*
X10176429Y-16835476D01*
X10262143Y-17035476D02*
X10262143Y-16930714D01*
X10252619Y-16911667D01*
X10233571Y-16902143D01*
X10205000Y-16902143D01*
X10185952Y-16911667D01*
X10176429Y-16921190D01*
X10385952Y-17035476D02*
X10366905Y-17025952D01*
X10357381Y-17016429D01*
X10347857Y-16997381D01*
X10347857Y-16940238D01*
X10357381Y-16921190D01*
X10366905Y-16911667D01*
X10385952Y-16902143D01*
X10414524Y-16902143D01*
X10433571Y-16911667D01*
X10443095Y-16921190D01*
X10452619Y-16940238D01*
X10452619Y-16997381D01*
X10443095Y-17016429D01*
X10433571Y-17025952D01*
X10414524Y-17035476D01*
X10385952Y-17035476D01*
X10566905Y-17035476D02*
X10547857Y-17025952D01*
X10538333Y-17006905D01*
X10538333Y-16835476D01*
X10719286Y-17025952D02*
X10700238Y-17035476D01*
X10662143Y-17035476D01*
X10643095Y-17025952D01*
X10633571Y-17006905D01*
X10633571Y-16930714D01*
X10643095Y-16911667D01*
X10662143Y-16902143D01*
X10700238Y-16902143D01*
X10719286Y-16911667D01*
X10728810Y-16930714D01*
X10728810Y-16949762D01*
X10633571Y-16968810D01*
X10805000Y-17025952D02*
X10824048Y-17035476D01*
X10862143Y-17035476D01*
X10881190Y-17025952D01*
X10890714Y-17006905D01*
X10890714Y-16997381D01*
X10881190Y-16978333D01*
X10862143Y-16968810D01*
X10833571Y-16968810D01*
X10814524Y-16959286D01*
X10805000Y-16940238D01*
X10805000Y-16930714D01*
X10814524Y-16911667D01*
X10833571Y-16902143D01*
X10862143Y-16902143D01*
X10881190Y-16911667D01*
X10957381Y-17111667D02*
X10966905Y-17102143D01*
X10985952Y-17073571D01*
X10995476Y-17054524D01*
X11005000Y-17025952D01*
X11014524Y-16978333D01*
X11014524Y-16940238D01*
X11005000Y-16892619D01*
X10995476Y-16864048D01*
X10985952Y-16845000D01*
X10966905Y-16816429D01*
X10957381Y-16806905D01*
X11319286Y-17111667D02*
X11309762Y-17102143D01*
X11290714Y-17073571D01*
X11281190Y-17054524D01*
X11271667Y-17025952D01*
X11262143Y-16978333D01*
X11262143Y-16940238D01*
X11271667Y-16892619D01*
X11281190Y-16864048D01*
X11290714Y-16845000D01*
X11309762Y-16816429D01*
X11319286Y-16806905D01*
X11395476Y-16902143D02*
X11395476Y-17035476D01*
X11395476Y-16921190D02*
X11405000Y-16911667D01*
X11424048Y-16902143D01*
X11452619Y-16902143D01*
X11471667Y-16911667D01*
X11481190Y-16930714D01*
X11481190Y-17035476D01*
X11605000Y-17035476D02*
X11585952Y-17025952D01*
X11576428Y-17016429D01*
X11566905Y-16997381D01*
X11566905Y-16940238D01*
X11576428Y-16921190D01*
X11585952Y-16911667D01*
X11605000Y-16902143D01*
X11633571Y-16902143D01*
X11652619Y-16911667D01*
X11662143Y-16921190D01*
X11671667Y-16940238D01*
X11671667Y-16997381D01*
X11662143Y-17016429D01*
X11652619Y-17025952D01*
X11633571Y-17035476D01*
X11605000Y-17035476D01*
X11728809Y-16902143D02*
X11805000Y-16902143D01*
X11757381Y-16835476D02*
X11757381Y-17006905D01*
X11766905Y-17025952D01*
X11785952Y-17035476D01*
X11805000Y-17035476D01*
X12024048Y-16902143D02*
X12024048Y-17102143D01*
X12024048Y-16911667D02*
X12043095Y-16902143D01*
X12081190Y-16902143D01*
X12100238Y-16911667D01*
X12109762Y-16921190D01*
X12119286Y-16940238D01*
X12119286Y-16997381D01*
X12109762Y-17016429D01*
X12100238Y-17025952D01*
X12081190Y-17035476D01*
X12043095Y-17035476D01*
X12024048Y-17025952D01*
X12233571Y-17035476D02*
X12214524Y-17025952D01*
X12205000Y-17006905D01*
X12205000Y-16835476D01*
X12395476Y-17035476D02*
X12395476Y-16930714D01*
X12385952Y-16911667D01*
X12366905Y-16902143D01*
X12328809Y-16902143D01*
X12309762Y-16911667D01*
X12395476Y-17025952D02*
X12376428Y-17035476D01*
X12328809Y-17035476D01*
X12309762Y-17025952D01*
X12300238Y-17006905D01*
X12300238Y-16987857D01*
X12309762Y-16968810D01*
X12328809Y-16959286D01*
X12376428Y-16959286D01*
X12395476Y-16949762D01*
X12462143Y-16902143D02*
X12538333Y-16902143D01*
X12490714Y-16835476D02*
X12490714Y-17006905D01*
X12500238Y-17025952D01*
X12519286Y-17035476D01*
X12538333Y-17035476D01*
X12681190Y-17025952D02*
X12662143Y-17035476D01*
X12624048Y-17035476D01*
X12605000Y-17025952D01*
X12595476Y-17006905D01*
X12595476Y-16930714D01*
X12605000Y-16911667D01*
X12624048Y-16902143D01*
X12662143Y-16902143D01*
X12681190Y-16911667D01*
X12690714Y-16930714D01*
X12690714Y-16949762D01*
X12595476Y-16968810D01*
X12862143Y-17035476D02*
X12862143Y-16835476D01*
X12862143Y-17025952D02*
X12843095Y-17035476D01*
X12805000Y-17035476D01*
X12785952Y-17025952D01*
X12776428Y-17016429D01*
X12766905Y-16997381D01*
X12766905Y-16940238D01*
X12776428Y-16921190D01*
X12785952Y-16911667D01*
X12805000Y-16902143D01*
X12843095Y-16902143D01*
X12862143Y-16911667D01*
X12938333Y-17111667D02*
X12947857Y-17102143D01*
X12966905Y-17073571D01*
X12976428Y-17054524D01*
X12985952Y-17025952D01*
X12995476Y-16978333D01*
X12995476Y-16940238D01*
X12985952Y-16892619D01*
X12976428Y-16864048D01*
X12966905Y-16845000D01*
X12947857Y-16816429D01*
X12938333Y-16806905D01*
M02*
