%TF.GenerationSoftware,KiCad,Pcbnew,(6.0.9)*%
%TF.CreationDate,2023-02-05T01:27:45+02:00*%
%TF.ProjectId,Mega pro pins,4d656761-2070-4726-9f20-70696e732e6b,rev?*%
%TF.SameCoordinates,Original*%
%TF.FileFunction,Copper,L1,Top*%
%TF.FilePolarity,Positive*%
%FSLAX46Y46*%
G04 Gerber Fmt 4.6, Leading zero omitted, Abs format (unit mm)*
G04 Created by KiCad (PCBNEW (6.0.9)) date 2023-02-05 01:27:45*
%MOMM*%
%LPD*%
G01*
G04 APERTURE LIST*
%TA.AperFunction,ComponentPad*%
%ADD10R,1.650000X1.650000*%
%TD*%
%TA.AperFunction,ComponentPad*%
%ADD11C,1.650000*%
%TD*%
%TA.AperFunction,ComponentPad*%
%ADD12R,1.920000X1.920000*%
%TD*%
%TA.AperFunction,ComponentPad*%
%ADD13C,1.920000*%
%TD*%
%TA.AperFunction,ComponentPad*%
%ADD14R,2.040000X2.040000*%
%TD*%
%TA.AperFunction,ComponentPad*%
%ADD15C,2.040000*%
%TD*%
%TA.AperFunction,ComponentPad*%
%ADD16R,1.700000X1.700000*%
%TD*%
%TA.AperFunction,ComponentPad*%
%ADD17O,1.700000X1.700000*%
%TD*%
%TA.AperFunction,Conductor*%
%ADD18C,0.200000*%
%TD*%
%TA.AperFunction,Conductor*%
%ADD19C,0.250000*%
%TD*%
G04 APERTURE END LIST*
D10*
%TO.P,J6,1,1*%
%TO.N,N/C*%
X113588800Y-85696400D03*
D11*
%TO.P,J6,2,2*%
X113588800Y-88236400D03*
%TO.P,J6,3,3*%
X113588800Y-90776400D03*
%TO.P,J6,4,4*%
X113588800Y-93316400D03*
%TO.P,J6,5,5*%
X113588800Y-95856400D03*
%TO.P,J6,6,6*%
X113588800Y-98396400D03*
%TO.P,J6,7,7*%
X113588800Y-100936400D03*
%TO.P,J6,8,8*%
X113588800Y-103476400D03*
%TO.P,J6,9,9*%
X113588800Y-106016400D03*
%TD*%
D10*
%TO.P,J9,1,1*%
%TO.N,N/C*%
X97586800Y-125857000D03*
D11*
%TO.P,J9,2,2*%
X97586800Y-123317000D03*
%TO.P,J9,3,3*%
X97586800Y-120777000D03*
%TO.P,J9,4,4*%
X97586800Y-118237000D03*
%TO.P,J9,5,5*%
X97586800Y-115697000D03*
%TO.P,J9,6,6*%
X97586800Y-113157000D03*
%TO.P,J9,7,7*%
X97586800Y-110617000D03*
%TO.P,J9,8,8*%
X97586800Y-108077000D03*
%TO.P,J9,9,9*%
X97586800Y-105537000D03*
%TD*%
D12*
%TO.P,J2,1,1*%
%TO.N,N/C*%
X148310600Y-86534600D03*
D13*
%TO.P,J2,2,2*%
X145770600Y-86534600D03*
%TO.P,J2,3,3*%
X143230600Y-86534600D03*
%TO.P,J2,4,4*%
X140690600Y-86534600D03*
%TO.P,J2,5,5*%
X138150600Y-86534600D03*
%TO.P,J2,6,6*%
X135610600Y-86534600D03*
%TD*%
D14*
%TO.P,J3,1,1*%
%TO.N,N/C*%
X156921300Y-86534600D03*
D15*
%TO.P,J3,2,2*%
X154381300Y-86534600D03*
%TO.P,J3,3,3*%
X151841300Y-86534600D03*
%TD*%
D16*
%TO.P,18,1*%
%TO.N,N/C*%
X90068400Y-108102400D03*
D17*
%TO.P,18,2*%
X90068400Y-110642400D03*
%TO.P,18,3*%
X90068400Y-113182400D03*
%TO.P,18,4*%
X90068400Y-115722400D03*
%TO.P,18,5*%
X90068400Y-118262400D03*
%TO.P,18,6*%
X90068400Y-120802400D03*
%TO.P,18,7*%
X90068400Y-123342400D03*
%TO.P,18,8*%
X90068400Y-125882400D03*
%TD*%
D12*
%TO.P,J1,1,1*%
%TO.N,N/C*%
X132031700Y-86534600D03*
D13*
%TO.P,J1,2,2*%
X129491700Y-86534600D03*
%TO.P,J1,3,3*%
X126951700Y-86534600D03*
%TO.P,J1,4,4*%
X124411700Y-86534600D03*
%TO.P,J1,5,5*%
X121871700Y-86534600D03*
%TO.P,J1,6,6*%
X119331700Y-86534600D03*
%TD*%
D14*
%TO.P,J7,1,1*%
%TO.N,N/C*%
X173913800Y-98523500D03*
D15*
%TO.P,J7,2,2*%
X173913800Y-95983500D03*
%TO.P,J7,3,3*%
X173913800Y-93443500D03*
%TD*%
D10*
%TO.P,J16,1,1*%
%TO.N,N/C*%
X155295600Y-156418500D03*
D11*
%TO.P,J16,2,2*%
X157835600Y-156418500D03*
%TO.P,J16,3,3*%
X160375600Y-156418500D03*
%TO.P,J16,4,4*%
X162915600Y-156418500D03*
%TO.P,J16,5,5*%
X165455600Y-156418500D03*
%TO.P,J16,6,6*%
X167995600Y-156418500D03*
%TO.P,J16,7,7*%
X170535600Y-156418500D03*
%TO.P,J16,8,8*%
X173075600Y-156418500D03*
%TO.P,J16,9,9*%
X175615600Y-156418500D03*
%TD*%
D14*
%TO.P,J5,1,1*%
%TO.N,N/C*%
X97500000Y-99611500D03*
D15*
%TO.P,J5,2,2*%
X97500000Y-97071500D03*
%TO.P,J5,3,3*%
X97500000Y-94531500D03*
%TD*%
D16*
%TO.P,13,1*%
%TO.N,N/C*%
X134950200Y-95377000D03*
D17*
%TO.P,13,2*%
X134950200Y-97917000D03*
%TO.P,13,3*%
X137490200Y-95377000D03*
%TO.P,13,4*%
X137490200Y-97917000D03*
%TO.P,13,5*%
X140030200Y-95377000D03*
%TO.P,13,6*%
X140030200Y-97917000D03*
%TD*%
D12*
%TO.P,J13,1,1*%
%TO.N,N/C*%
X97586800Y-147396200D03*
D13*
%TO.P,J13,2,2*%
X97586800Y-144856200D03*
%TO.P,J13,3,3*%
X97586800Y-142316200D03*
%TO.P,J13,4,4*%
X97586800Y-139776200D03*
%TO.P,J13,5,5*%
X97586800Y-137236200D03*
%TO.P,J13,6,6*%
X97586800Y-134696200D03*
%TD*%
D10*
%TO.P,J10,1,1*%
%TO.N,N/C*%
X113588800Y-109597800D03*
D11*
%TO.P,J10,2,2*%
X113588800Y-112137800D03*
%TO.P,J10,3,3*%
X113588800Y-114677800D03*
%TO.P,J10,4,4*%
X113588800Y-117217800D03*
%TO.P,J10,5,5*%
X113588800Y-119757800D03*
%TO.P,J10,6,6*%
X113588800Y-122297800D03*
%TO.P,J10,7,7*%
X113588800Y-124837800D03*
%TO.P,J10,8,8*%
X113588800Y-127377800D03*
%TO.P,J10,9,9*%
X113588800Y-129917800D03*
%TD*%
D10*
%TO.P,J8,1,1*%
%TO.N,N/C*%
X173913800Y-122348600D03*
D11*
%TO.P,J8,2,2*%
X173913800Y-119808600D03*
%TO.P,J8,3,3*%
X173913800Y-117268600D03*
%TO.P,J8,4,4*%
X173913800Y-114728600D03*
%TO.P,J8,5,5*%
X173913800Y-112188600D03*
%TO.P,J8,6,6*%
X173913800Y-109648600D03*
%TO.P,J8,7,7*%
X173913800Y-107108600D03*
%TO.P,J8,8,8*%
X173913800Y-104568600D03*
%TO.P,J8,9,9*%
X173913800Y-102028600D03*
%TD*%
D14*
%TO.P,J11,1,1*%
%TO.N,N/C*%
X113588800Y-133626100D03*
D15*
%TO.P,J11,2,2*%
X113588800Y-136166100D03*
%TO.P,J11,3,3*%
X113588800Y-138706100D03*
%TD*%
D16*
%TO.P,14,1*%
%TO.N,N/C*%
X165500000Y-95400000D03*
D17*
%TO.P,14,2*%
X162960000Y-95400000D03*
%TO.P,14,3*%
X165500000Y-97940000D03*
%TO.P,14,4*%
X162960000Y-97940000D03*
%TO.P,14,5*%
X165500000Y-100480000D03*
%TO.P,14,6*%
X162960000Y-100480000D03*
%TO.P,14,7*%
X165500000Y-103020000D03*
%TO.P,14,8*%
X162960000Y-103020000D03*
%TO.P,14,9*%
X165500000Y-105560000D03*
%TO.P,14,10*%
X162960000Y-105560000D03*
%TO.P,14,11*%
X165500000Y-108100000D03*
%TO.P,14,12*%
X162960000Y-108100000D03*
%TO.P,14,13*%
X165500000Y-110640000D03*
%TO.P,14,14*%
X162960000Y-110640000D03*
%TO.P,14,15*%
X165500000Y-113180000D03*
%TO.P,14,16*%
X162960000Y-113180000D03*
%TO.P,14,17*%
X165500000Y-115720000D03*
%TO.P,14,18*%
X162960000Y-115720000D03*
%TO.P,14,19*%
X165500000Y-118260000D03*
%TO.P,14,20*%
X162960000Y-118260000D03*
%TO.P,14,21*%
X165500000Y-120800000D03*
%TO.P,14,22*%
X162960000Y-120800000D03*
%TO.P,14,23*%
X165500000Y-123340000D03*
%TO.P,14,24*%
X162960000Y-123340000D03*
%TO.P,14,25*%
X165500000Y-125880000D03*
%TO.P,14,26*%
X162960000Y-125880000D03*
%TO.P,14,27*%
X165500000Y-128420000D03*
%TO.P,14,28*%
X162960000Y-128420000D03*
%TO.P,14,29*%
X165500000Y-130960000D03*
%TO.P,14,30*%
X162960000Y-130960000D03*
%TO.P,14,31*%
X165500000Y-133500000D03*
%TO.P,14,32*%
X162960000Y-133500000D03*
%TO.P,14,33*%
X165500000Y-136040000D03*
%TO.P,14,34*%
X162960000Y-136040000D03*
%TO.P,14,35*%
X165500000Y-138580000D03*
%TO.P,14,36*%
X162960000Y-138580000D03*
%TO.P,14,37*%
X165500000Y-141120000D03*
%TO.P,14,38*%
X162960000Y-141120000D03*
%TO.P,14,39*%
X165500000Y-143660000D03*
%TO.P,14,40*%
X162960000Y-143660000D03*
%TO.P,14,41*%
X165500000Y-146200000D03*
%TO.P,14,42*%
X162960000Y-146200000D03*
%TD*%
D16*
%TO.P,16,1*%
%TO.N,N/C*%
X90063200Y-94600000D03*
D17*
%TO.P,16,2*%
X90063200Y-97140000D03*
%TO.P,16,3*%
X90063200Y-99680000D03*
%TD*%
D10*
%TO.P,J15,1,1*%
%TO.N,N/C*%
X107264200Y-156435400D03*
D11*
%TO.P,J15,2,2*%
X109804200Y-156435400D03*
%TO.P,J15,3,3*%
X112344200Y-156435400D03*
%TO.P,J15,4,4*%
X114884200Y-156435400D03*
%TO.P,J15,5,5*%
X117424200Y-156435400D03*
%TO.P,J15,6,6*%
X119964200Y-156435400D03*
%TO.P,J15,7,7*%
X122504200Y-156435400D03*
%TO.P,J15,8,8*%
X125044200Y-156435400D03*
%TO.P,J15,9,9*%
X127584200Y-156435400D03*
%TD*%
D16*
%TO.P,12,1*%
%TO.N,N/C*%
X132410200Y-95427800D03*
D17*
%TO.P,12,2*%
X129870200Y-95427800D03*
%TO.P,12,3*%
X132410200Y-97967800D03*
%TO.P,12,4*%
X129870200Y-97967800D03*
%TO.P,12,5*%
X132410200Y-100507800D03*
%TO.P,12,6*%
X129870200Y-100507800D03*
%TO.P,12,7*%
X132410200Y-103047800D03*
%TO.P,12,8*%
X129870200Y-103047800D03*
%TO.P,12,9*%
X132410200Y-105587800D03*
%TO.P,12,10*%
X129870200Y-105587800D03*
%TO.P,12,11*%
X132410200Y-108127800D03*
%TO.P,12,12*%
X129870200Y-108127800D03*
%TO.P,12,13*%
X132410200Y-110667800D03*
%TO.P,12,14*%
X129870200Y-110667800D03*
%TO.P,12,15*%
X132410200Y-113207800D03*
%TO.P,12,16*%
X129870200Y-113207800D03*
%TO.P,12,17*%
X132410200Y-115747800D03*
%TO.P,12,18*%
X129870200Y-115747800D03*
%TO.P,12,19*%
X132410200Y-118287800D03*
%TO.P,12,20*%
X129870200Y-118287800D03*
%TO.P,12,21*%
X132410200Y-120827800D03*
%TO.P,12,22*%
X129870200Y-120827800D03*
%TO.P,12,23*%
X132410200Y-123367800D03*
%TO.P,12,24*%
X129870200Y-123367800D03*
%TO.P,12,25*%
X132410200Y-125907800D03*
%TO.P,12,26*%
X129870200Y-125907800D03*
%TO.P,12,27*%
X132410200Y-128447800D03*
%TO.P,12,28*%
X129870200Y-128447800D03*
%TO.P,12,29*%
X132410200Y-130987800D03*
%TO.P,12,30*%
X129870200Y-130987800D03*
%TO.P,12,31*%
X132410200Y-133527800D03*
%TO.P,12,32*%
X129870200Y-133527800D03*
%TD*%
D10*
%TO.P,J12,1,1*%
%TO.N,N/C*%
X173913800Y-146224600D03*
D11*
%TO.P,J12,2,2*%
X173913800Y-143684600D03*
%TO.P,J12,3,3*%
X173913800Y-141144600D03*
%TO.P,J12,4,4*%
X173913800Y-138604600D03*
%TO.P,J12,5,5*%
X173913800Y-136064600D03*
%TO.P,J12,6,6*%
X173913800Y-133524600D03*
%TO.P,J12,7,7*%
X173913800Y-130984600D03*
%TO.P,J12,8,8*%
X173913800Y-128444600D03*
%TO.P,J12,9,9*%
X173913800Y-125904600D03*
%TD*%
D16*
%TO.P,19,1*%
%TO.N,N/C*%
X90068400Y-134747000D03*
D17*
%TO.P,19,2*%
X90068400Y-137287000D03*
%TO.P,19,3*%
X90068400Y-139827000D03*
%TO.P,19,4*%
X90068400Y-142367000D03*
%TO.P,19,5*%
X90068400Y-144907000D03*
%TO.P,19,6*%
X90068400Y-147447000D03*
%TD*%
D14*
%TO.P,J14,1,1*%
%TO.N,N/C*%
X113588800Y-142211400D03*
D15*
%TO.P,J14,2,2*%
X113588800Y-144751400D03*
%TO.P,J14,3,3*%
X113588800Y-147291400D03*
%TD*%
D16*
%TO.P,11,1*%
%TO.N,N/C*%
X147700000Y-95300000D03*
D17*
%TO.P,11,2*%
X147700000Y-97840000D03*
%TO.P,11,3*%
X150240000Y-95300000D03*
%TO.P,11,4*%
X150240000Y-97840000D03*
%TO.P,11,5*%
X152780000Y-95300000D03*
%TO.P,11,6*%
X152780000Y-97840000D03*
%TD*%
D10*
%TO.P,J4,1,1*%
%TO.N,N/C*%
X180924200Y-86512400D03*
D11*
%TO.P,J4,2,2*%
X178384200Y-86512400D03*
%TO.P,J4,3,3*%
X175844200Y-86512400D03*
%TO.P,J4,4,4*%
X173304200Y-86512400D03*
%TO.P,J4,5,5*%
X170764200Y-86512400D03*
%TO.P,J4,6,6*%
X168224200Y-86512400D03*
%TO.P,J4,7,7*%
X165684200Y-86512400D03*
%TO.P,J4,8,8*%
X163144200Y-86512400D03*
%TO.P,J4,9,9*%
X160604200Y-86512400D03*
%TD*%
D18*
%TO.N,*%
X113588800Y-88236400D02*
X117957600Y-88236400D01*
X165430200Y-95427800D02*
X162229800Y-92227400D01*
X166471600Y-96926400D02*
X166471600Y-94205400D01*
D19*
X127987400Y-118287800D02*
X129870200Y-118287800D01*
X152171400Y-89227000D02*
X153924000Y-90979600D01*
X97536000Y-137287000D02*
X97586800Y-137236200D01*
X146964400Y-91081200D02*
X147650200Y-91767000D01*
D18*
X165430200Y-138604600D02*
X165430200Y-138607800D01*
X114985800Y-133423000D02*
X114858800Y-133550000D01*
X127530200Y-120827800D02*
X116713000Y-131645000D01*
X178308000Y-90827200D02*
X178308000Y-86588600D01*
D19*
X90068400Y-120802400D02*
X97561400Y-120802400D01*
X151536400Y-97002600D02*
X151077400Y-97002600D01*
X90063200Y-97140000D02*
X97431500Y-97140000D01*
D18*
X149047200Y-91817800D02*
X147548600Y-90319200D01*
X132410200Y-110667800D02*
X130908400Y-109166000D01*
X139039600Y-93519600D02*
X133302400Y-87782400D01*
X160074100Y-92227400D02*
X154381300Y-86534600D01*
X160578800Y-149001700D02*
X167995600Y-156418500D01*
X115569900Y-147316900D02*
X113588800Y-147316900D01*
X127812800Y-117065400D02*
X114985800Y-129892400D01*
X118922800Y-106803800D02*
X113588800Y-112137800D01*
X132410200Y-97967800D02*
X131137000Y-96694600D01*
X131035400Y-101673000D02*
X127914400Y-101673000D01*
X129336800Y-96694600D02*
X124663200Y-92021000D01*
X120091200Y-134185000D02*
X120091200Y-147901000D01*
X122678800Y-110667800D02*
X113588800Y-119757800D01*
X175615600Y-156413200D02*
X175615600Y-156418500D01*
X126441200Y-114525400D02*
X113588800Y-127377800D01*
D19*
X151536400Y-91843200D02*
X151536400Y-97002600D01*
D18*
X121640600Y-109166000D02*
X113588800Y-117217800D01*
X165430200Y-100507800D02*
X167535200Y-100507800D01*
D19*
X131902200Y-89836600D02*
X136372600Y-94307000D01*
D18*
X129870200Y-91894000D02*
X129870200Y-95402400D01*
X132410200Y-115747800D02*
X131187800Y-114525400D01*
X172720000Y-103222400D02*
X173913800Y-102028600D01*
D19*
X138760200Y-97863000D02*
X138706200Y-97917000D01*
D18*
X163877600Y-109115200D02*
X165379400Y-109115200D01*
D19*
X97536000Y-134747000D02*
X97586800Y-134696200D01*
D18*
X160375600Y-156418500D02*
X160375600Y-153412800D01*
X131724400Y-90497000D02*
X123294100Y-90497000D01*
X167081200Y-98929800D02*
X166649400Y-99361600D01*
D19*
X109804200Y-151101400D02*
X111226600Y-149679000D01*
X117881400Y-142236800D02*
X117881400Y-132000600D01*
D18*
X132410200Y-105587800D02*
X131365600Y-104543200D01*
D19*
X90068400Y-110642400D02*
X97561400Y-110642400D01*
X126768200Y-128447800D02*
X129870200Y-128447800D01*
D18*
X169697400Y-143684600D02*
X173913800Y-143684600D01*
X131060800Y-127098400D02*
X127177800Y-127098400D01*
X175768000Y-89963600D02*
X175666400Y-90065200D01*
D19*
X90068400Y-134747000D02*
X97536000Y-134747000D01*
D18*
X174396400Y-90065200D02*
X170027600Y-94434000D01*
X168122600Y-99920400D02*
X168122600Y-91744800D01*
D19*
X97536000Y-144907000D02*
X97586800Y-144856200D01*
X115544600Y-130730600D02*
X127987400Y-118287800D01*
D18*
X164239600Y-144878400D02*
X161925000Y-144878400D01*
X159486600Y-161772600D02*
X135305800Y-161772600D01*
D19*
X113588800Y-136090000D02*
X115544600Y-134134200D01*
D18*
X122504200Y-151533200D02*
X122504200Y-156435400D01*
X126568200Y-129511400D02*
X121742200Y-134337400D01*
X173228000Y-90497000D02*
X173228000Y-86588600D01*
X129438400Y-91462200D02*
X129870200Y-91894000D01*
X168148000Y-107261000D02*
X168224200Y-107184800D01*
X132410200Y-100507800D02*
X131162400Y-99260000D01*
X134950200Y-93722800D02*
X131724400Y-90497000D01*
D19*
X97561400Y-120802400D02*
X97586800Y-120777000D01*
X114884200Y-156435400D02*
X114884200Y-153768400D01*
X90068400Y-147447000D02*
X97536000Y-147447000D01*
D18*
X117598800Y-105587800D02*
X113588800Y-109597800D01*
X129870200Y-105587800D02*
X117598800Y-105587800D01*
X128016000Y-132280000D02*
X123342400Y-136953600D01*
X116713000Y-131645000D02*
X116713000Y-141170000D01*
X120138800Y-108127800D02*
X113588800Y-114677800D01*
X132178400Y-89201600D02*
X127078700Y-89201600D01*
X132410200Y-113207800D02*
X130908400Y-111706000D01*
X157048200Y-151685600D02*
X157835600Y-152473000D01*
X118745000Y-132254600D02*
X118668800Y-132254600D01*
D19*
X136855200Y-93011600D02*
X137261600Y-93011600D01*
D18*
X167103400Y-107261000D02*
X168148000Y-107261000D01*
X140030200Y-95377000D02*
X139039600Y-94386400D01*
X119100600Y-146173800D02*
X116103400Y-149171000D01*
X158750000Y-150720400D02*
X162915600Y-154886000D01*
D19*
X132130800Y-122069200D02*
X132410200Y-122348600D01*
D18*
X169849800Y-133524600D02*
X165938200Y-129613000D01*
X164233200Y-117090800D02*
X166852600Y-117090800D01*
D19*
X136372600Y-94307000D02*
X136372600Y-96494600D01*
D18*
X116306600Y-85696400D02*
X113588800Y-85696400D01*
D19*
X125044200Y-156435400D02*
X125044200Y-137083800D01*
D18*
X132410200Y-103047800D02*
X131035400Y-101673000D01*
D19*
X143738600Y-89582600D02*
X148158200Y-89582600D01*
D18*
X161213800Y-147096700D02*
X170535600Y-156418500D01*
X132410200Y-118287800D02*
X131187800Y-117065400D01*
D19*
X90068400Y-137287000D02*
X97536000Y-137287000D01*
D18*
X127078700Y-89201600D02*
X124411700Y-86534600D01*
X145846800Y-88312600D02*
X145770600Y-88236400D01*
X168656000Y-110359800D02*
X169672000Y-109343800D01*
X165430200Y-125907800D02*
X173910600Y-125907800D01*
X171323000Y-103679600D02*
X171323000Y-96034300D01*
D19*
X117881400Y-132000600D02*
X127812800Y-122069200D01*
D18*
X165433400Y-138604600D02*
X165430200Y-138607800D01*
X165433400Y-136064600D02*
X165430200Y-136067800D01*
X166954200Y-104492400D02*
X169291000Y-102155600D01*
X170510200Y-109801000D02*
X170510200Y-105381400D01*
X170027600Y-92605200D02*
X168859200Y-93773600D01*
X125218800Y-93316400D02*
X129870200Y-97967800D01*
X127758800Y-115747800D02*
X113588800Y-129917800D01*
X168402000Y-111274200D02*
X170103800Y-109572400D01*
X167535200Y-100507800D02*
X168122600Y-99920400D01*
X145872200Y-88287200D02*
X145846800Y-88312600D01*
X162890200Y-110667800D02*
X164233200Y-112010800D01*
X161213800Y-145589600D02*
X161213800Y-147096700D01*
X129870200Y-95402400D02*
X129895600Y-95427800D01*
X116103400Y-149171000D02*
X109524800Y-149171000D01*
D19*
X97561400Y-113182400D02*
X97586800Y-113157000D01*
D18*
X168503600Y-101495200D02*
X168503600Y-89430200D01*
X180924200Y-90068400D02*
X180924200Y-86512400D01*
X166014400Y-106956200D02*
X163626800Y-106956200D01*
X163144200Y-86763200D02*
X163144200Y-86512400D01*
X130908400Y-109166000D02*
X121640600Y-109166000D01*
X131162400Y-132280000D02*
X128016000Y-132280000D01*
X173761400Y-130832200D02*
X173913800Y-130984600D01*
X130933800Y-129511400D02*
X126568200Y-129511400D01*
X147700000Y-97840000D02*
X149047200Y-96492800D01*
X170154600Y-141144600D02*
X169722800Y-140712800D01*
D19*
X153924000Y-90979600D02*
X153924000Y-96696000D01*
D18*
X113588800Y-93316400D02*
X125218800Y-93316400D01*
X114017400Y-103047800D02*
X113588800Y-103476400D01*
X173913800Y-133524600D02*
X169849800Y-133524600D01*
X173913800Y-110918600D02*
X173913800Y-109648600D01*
X165430200Y-146227800D02*
X175615600Y-156413200D01*
X169240200Y-138249000D02*
X169240200Y-143227400D01*
X140922400Y-97964600D02*
X140030200Y-97964600D01*
X116713000Y-141170000D02*
X115646100Y-142236900D01*
X170027600Y-88315800D02*
X170027600Y-92605200D01*
X172974000Y-107108600D02*
X173913800Y-107108600D01*
X165430200Y-128447800D02*
X167814600Y-130832200D01*
X111429800Y-155521000D02*
X112344200Y-156435400D01*
X129870200Y-110667800D02*
X122678800Y-110667800D01*
D19*
X153924000Y-96696000D02*
X152780000Y-97840000D01*
D18*
X173913800Y-128444600D02*
X167462200Y-128444600D01*
X158800800Y-86534600D02*
X156921300Y-86534600D01*
X166544600Y-118287800D02*
X173913800Y-110918600D01*
X164233200Y-119630800D02*
X166471600Y-119630800D01*
X161464600Y-138607800D02*
X157048200Y-143024200D01*
D19*
X119964200Y-150593400D02*
X122682000Y-147875600D01*
D18*
X158750000Y-143710000D02*
X158750000Y-150720400D01*
X129870200Y-108127800D02*
X120138800Y-108127800D01*
D19*
X132410200Y-122348600D02*
X132410200Y-123367800D01*
X128600200Y-133527800D02*
X129870200Y-133527800D01*
D18*
X170383200Y-102816000D02*
X170383200Y-94459400D01*
X164207800Y-132305400D02*
X165557200Y-132305400D01*
X124663200Y-92021000D02*
X120269000Y-92021000D01*
X170027600Y-94434000D02*
X170027600Y-102536600D01*
X121742200Y-148256600D02*
X117424200Y-152574600D01*
X131086200Y-106803800D02*
X118922800Y-106803800D01*
X157048200Y-143024200D02*
X157048200Y-151685600D01*
X120269000Y-92021000D02*
X118364000Y-90116000D01*
X165433400Y-133524600D02*
X165430200Y-133527800D01*
X168503600Y-89430200D02*
X165684200Y-86610800D01*
X162890200Y-113207800D02*
X164207800Y-114525400D01*
D19*
X137261600Y-93011600D02*
X138760200Y-94510200D01*
D18*
X170383200Y-94459400D02*
X174015400Y-90827200D01*
X172313600Y-111629800D02*
X172313600Y-107769000D01*
D19*
X122682000Y-133981800D02*
X125676000Y-130987800D01*
D18*
X155295600Y-156418500D02*
X155295600Y-143227400D01*
X162229800Y-92227400D02*
X160074100Y-92227400D01*
X137490200Y-94513400D02*
X132178400Y-89201600D01*
X129870200Y-123367800D02*
X127631800Y-123367800D01*
X160578800Y-145056200D02*
X160578800Y-149001700D01*
X157835600Y-152473000D02*
X157835600Y-156418500D01*
D19*
X90068400Y-144907000D02*
X97536000Y-144907000D01*
D18*
X173228000Y-86588600D02*
X173304200Y-86512400D01*
X168579800Y-107261000D02*
X168122600Y-107718200D01*
X165684200Y-86610800D02*
X165684200Y-86512400D01*
X162890200Y-138607800D02*
X161464600Y-138607800D01*
X125218800Y-113207800D02*
X113588800Y-124837800D01*
D19*
X125044200Y-137083800D02*
X128600200Y-133527800D01*
D18*
X163626800Y-106956200D02*
X162890200Y-106219600D01*
D19*
X97561400Y-123342400D02*
X97586800Y-123317000D01*
D18*
X165430200Y-108127800D02*
X167255800Y-109953400D01*
X131365600Y-104543200D02*
X115062000Y-104543200D01*
X165430200Y-143687800D02*
X164239600Y-144878400D01*
X147548600Y-90319200D02*
X141935200Y-90319200D01*
X164182400Y-124660000D02*
X169443400Y-124660000D01*
D19*
X116535200Y-149679000D02*
X119634000Y-146580200D01*
D18*
X149021800Y-88287200D02*
X145872200Y-88287200D01*
D19*
X90068400Y-113182400D02*
X97561400Y-113182400D01*
D18*
X132410200Y-108127800D02*
X131086200Y-106803800D01*
X117652800Y-150339400D02*
X111429800Y-150339400D01*
X145770600Y-88236400D02*
X145770600Y-86534600D01*
X118668800Y-132254600D02*
X118516400Y-132407000D01*
X166649400Y-99361600D02*
X163550600Y-99361600D01*
X132410200Y-95402400D02*
X132410200Y-92198800D01*
X123294100Y-90497000D02*
X119331700Y-86534600D01*
X132410200Y-120827800D02*
X131060800Y-119478400D01*
X132410200Y-133527800D02*
X131162400Y-132280000D01*
X129870200Y-115747800D02*
X127758800Y-115747800D01*
X165709600Y-134718400D02*
X169240200Y-138249000D01*
X159766000Y-143811600D02*
X161036000Y-142541600D01*
X129968600Y-156435400D02*
X127584200Y-156435400D01*
D19*
X138706200Y-97917000D02*
X137490200Y-97917000D01*
D18*
X161312200Y-141147800D02*
X158750000Y-143710000D01*
X118364000Y-90116000D02*
X114249200Y-90116000D01*
X90093800Y-118237000D02*
X90068400Y-118262400D01*
D19*
X115341300Y-144776900D02*
X117881400Y-142236800D01*
D18*
X135305800Y-161772600D02*
X129968600Y-156435400D01*
X172948500Y-95983500D02*
X173913800Y-95983500D01*
X109524800Y-149171000D02*
X107264200Y-151431600D01*
D19*
X121056400Y-147596200D02*
X121056400Y-134159600D01*
D18*
X161947200Y-143687800D02*
X160578800Y-145056200D01*
X165430200Y-115747800D02*
X167332000Y-115747800D01*
X162890200Y-103047800D02*
X164334800Y-104492400D01*
X168300400Y-112010800D02*
X170510200Y-109801000D01*
D19*
X90068400Y-139827000D02*
X97536000Y-139827000D01*
D18*
X168122600Y-91744800D02*
X167868600Y-91490800D01*
X168859200Y-101927000D02*
X167738400Y-103047800D01*
X157632400Y-150669600D02*
X157632400Y-143710000D01*
X162890200Y-100507800D02*
X164258600Y-101876200D01*
X168224200Y-103755800D02*
X169697400Y-102282600D01*
D19*
X122682000Y-147875600D02*
X122682000Y-133981800D01*
D18*
X165433400Y-130984600D02*
X165430200Y-130987800D01*
X179479600Y-91513000D02*
X180924200Y-90068400D01*
X127914400Y-101673000D02*
X127177800Y-100936400D01*
X165430200Y-105587800D02*
X167103400Y-107261000D01*
X162890200Y-133527800D02*
X164080800Y-134718400D01*
X171907200Y-111172600D02*
X171907200Y-106575200D01*
X163322000Y-129613000D02*
X162890200Y-129181200D01*
X165379400Y-109115200D02*
X166624000Y-110359800D01*
X173910600Y-125907800D02*
X173913800Y-125904600D01*
X165430200Y-120827800D02*
X167814600Y-120827800D01*
D19*
X140690600Y-86534600D02*
X143738600Y-89582600D01*
D18*
X173913800Y-136064600D02*
X170507000Y-136064600D01*
D19*
X148158200Y-89582600D02*
X150190200Y-91614600D01*
D18*
X160604200Y-86512400D02*
X161290000Y-86512400D01*
X168017800Y-113207800D02*
X171018200Y-110207400D01*
X132031700Y-86537100D02*
X133022300Y-86537100D01*
X114985800Y-129892400D02*
X114985800Y-133423000D01*
X162915600Y-158343600D02*
X159486600Y-161772600D01*
X118516400Y-144370400D02*
X115569900Y-147316900D01*
X169697400Y-102282600D02*
X169697400Y-94027600D01*
X172313600Y-104314600D02*
X172313600Y-100123700D01*
X151841300Y-86534600D02*
X151942800Y-86534600D01*
X152780000Y-95300000D02*
X152730200Y-95250200D01*
X131137000Y-96694600D02*
X129336800Y-96694600D01*
X164233200Y-112010800D02*
X168300400Y-112010800D01*
X171932600Y-103959000D02*
X171932600Y-96999400D01*
X165938200Y-129613000D02*
X163322000Y-129613000D01*
X168224200Y-86512400D02*
X170027600Y-88315800D01*
X165455600Y-154962200D02*
X159766000Y-149272600D01*
X169138600Y-122043800D02*
X173913800Y-117268600D01*
D19*
X127812800Y-122069200D02*
X132130800Y-122069200D01*
D18*
X171018200Y-105610000D02*
X172313600Y-104314600D01*
X167868600Y-91487600D02*
X163144200Y-86763200D01*
X162890200Y-115747800D02*
X164233200Y-117090800D01*
D19*
X135610600Y-86534600D02*
X140157200Y-91081200D01*
D18*
X132410200Y-92198800D02*
X131191000Y-90979600D01*
X169240200Y-143227400D02*
X169697400Y-143684600D01*
X173355000Y-119808600D02*
X173913800Y-119808600D01*
X127177800Y-127098400D02*
X120091200Y-134185000D01*
X164642800Y-142541600D02*
X165430200Y-141754200D01*
X149047200Y-96492800D02*
X149047200Y-91817800D01*
X127177800Y-100936400D02*
X113588800Y-100936400D01*
X107264200Y-151431600D02*
X107264200Y-156435400D01*
X127533400Y-124634600D02*
X119100600Y-133067400D01*
X170891200Y-103273200D02*
X170891200Y-94586400D01*
X164258600Y-101876200D02*
X168122600Y-101876200D01*
X175666400Y-90065200D02*
X174396400Y-90065200D01*
X170891200Y-94586400D02*
X173964600Y-91513000D01*
X173075600Y-156413200D02*
X173075600Y-156418500D01*
X168224200Y-107184800D02*
X168224200Y-103755800D01*
X134950200Y-95377000D02*
X134950200Y-93722800D01*
X162915600Y-154886000D02*
X162915600Y-156418500D01*
X113588800Y-98396400D02*
X126060200Y-98396400D01*
X131137000Y-124634600D02*
X127533400Y-124634600D01*
X164334800Y-104492400D02*
X166954200Y-104492400D01*
X172720000Y-105025800D02*
X172720000Y-103222400D01*
D19*
X132461000Y-88617400D02*
X136855200Y-93011600D01*
X148310600Y-86534600D02*
X151003000Y-89227000D01*
D18*
X121183400Y-91462200D02*
X129438400Y-91462200D01*
D19*
X97561400Y-125882400D02*
X97586800Y-125857000D01*
D18*
X168122600Y-107718200D02*
X166776400Y-107718200D01*
X168859200Y-93773600D02*
X168859200Y-101927000D01*
X132410200Y-128447800D02*
X131060800Y-127098400D01*
X114249200Y-90116000D02*
X113588800Y-90776400D01*
X166471600Y-119630800D02*
X173913800Y-112188600D01*
X132410200Y-125907800D02*
X131137000Y-124634600D01*
X161925000Y-144878400D02*
X161213800Y-145589600D01*
D19*
X143230600Y-86534600D02*
X145592800Y-88896800D01*
D18*
X165023800Y-139976200D02*
X165430200Y-139569800D01*
D19*
X97561400Y-115722400D02*
X97586800Y-115697000D01*
D18*
X126060200Y-98396400D02*
X128171600Y-100507800D01*
X167462200Y-128444600D02*
X166268400Y-127250800D01*
X116078000Y-131162400D02*
X116078000Y-136140800D01*
X167738400Y-103047800D02*
X165430200Y-103047800D01*
X170507000Y-136064600D02*
X165430200Y-130987800D01*
D19*
X109804200Y-156435400D02*
X109804200Y-151101400D01*
D18*
X123342400Y-136953600D02*
X123342400Y-150695000D01*
X119100600Y-133067400D02*
X119100600Y-146173800D01*
D19*
X115544600Y-134134200D02*
X115544600Y-130730600D01*
D18*
X128171600Y-100507800D02*
X129870200Y-100507800D01*
D19*
X97536000Y-142367000D02*
X97586800Y-142316200D01*
X138760200Y-94510200D02*
X138760200Y-97863000D01*
X150190200Y-95250200D02*
X150240000Y-95300000D01*
D18*
X162890200Y-146227800D02*
X173075600Y-156413200D01*
X169138600Y-104060600D02*
X170383200Y-102816000D01*
X175768000Y-86588600D02*
X175768000Y-89963600D01*
X171627800Y-106118000D02*
X172720000Y-105025800D01*
X131622800Y-87782400D02*
X131619600Y-87779200D01*
X130908400Y-111706000D02*
X124180600Y-111706000D01*
X169697400Y-94027600D02*
X173228000Y-90497000D01*
X165430200Y-136067800D02*
X167157400Y-137795000D01*
X171627800Y-110461400D02*
X171627800Y-106118000D01*
X162890200Y-126869800D02*
X162890200Y-125907800D01*
D19*
X90063200Y-94600000D02*
X97431500Y-94600000D01*
X151077400Y-97002600D02*
X150240000Y-97840000D01*
D18*
X167255800Y-109953400D02*
X168554400Y-109953400D01*
X167814600Y-130832200D02*
X173761400Y-130832200D01*
X133302400Y-87782400D02*
X131622800Y-87782400D01*
X178308000Y-86588600D02*
X178384200Y-86512400D01*
X123342400Y-150695000D02*
X122504200Y-151533200D01*
D19*
X129034500Y-88617400D02*
X132461000Y-88617400D01*
D18*
X170027600Y-102536600D02*
X168579800Y-103984400D01*
X170688000Y-92478200D02*
X170688000Y-86588600D01*
D19*
X90068400Y-108102400D02*
X97561400Y-108102400D01*
D18*
X162890200Y-108124600D02*
X162890200Y-108127800D01*
X117957600Y-88236400D02*
X121183400Y-91462200D01*
X167081200Y-92303600D02*
X167081200Y-98929800D01*
D19*
X97561400Y-110642400D02*
X97586800Y-110617000D01*
D18*
X169291000Y-102155600D02*
X169291000Y-93875200D01*
D19*
X114884200Y-153768400D02*
X121056400Y-147596200D01*
D18*
X167157400Y-137795000D02*
X167157400Y-144649800D01*
X169672000Y-104492400D02*
X170891200Y-103273200D01*
X162890200Y-143687800D02*
X161947200Y-143687800D01*
X168579800Y-103984400D02*
X168579800Y-107261000D01*
X124714000Y-95856400D02*
X113588800Y-95856400D01*
X129870200Y-120827800D02*
X127530200Y-120827800D01*
D19*
X97431500Y-97140000D02*
X97500000Y-97071500D01*
D18*
X162890200Y-130987800D02*
X164207800Y-132305400D01*
X165430200Y-139569800D02*
X165430200Y-138607800D01*
X162890200Y-129181200D02*
X162890200Y-128447800D01*
X166776400Y-107718200D02*
X166014400Y-106956200D01*
X160375600Y-153412800D02*
X157632400Y-150669600D01*
D19*
X119634000Y-133905600D02*
X127631800Y-125907800D01*
X90068400Y-115722400D02*
X97561400Y-115722400D01*
D18*
X131060800Y-119478400D02*
X127762000Y-119478400D01*
X163550600Y-99361600D02*
X162890200Y-98701200D01*
X162890200Y-141147800D02*
X161312200Y-141147800D01*
X161290000Y-86512400D02*
X167081200Y-92303600D01*
D19*
X126951700Y-86534600D02*
X129034500Y-88617400D01*
X97561400Y-108102400D02*
X97586800Y-108077000D01*
X148590000Y-88896800D02*
X151536400Y-91843200D01*
D18*
X168732200Y-146224600D02*
X173913800Y-146224600D01*
X171907200Y-106575200D02*
X173913800Y-104568600D01*
D19*
X113588800Y-144776900D02*
X115341300Y-144776900D01*
D18*
X124180600Y-111706000D02*
X113588800Y-122297800D01*
X133022300Y-86537100D02*
X141300200Y-94815000D01*
X132410200Y-130987800D02*
X130933800Y-129511400D01*
D19*
X147650200Y-95250200D02*
X147700000Y-95300000D01*
D18*
X162915600Y-156418500D02*
X162915600Y-158343600D01*
X165557200Y-132305400D02*
X171856400Y-138604600D01*
X172313600Y-100123700D02*
X173913800Y-98523500D01*
X175844200Y-86512400D02*
X175768000Y-86588600D01*
D19*
X90068400Y-142367000D02*
X97536000Y-142367000D01*
D18*
X161036000Y-142541600D02*
X164642800Y-142541600D01*
X169138600Y-109369200D02*
X169138600Y-104060600D01*
X166624000Y-110359800D02*
X168656000Y-110359800D01*
X165430200Y-97967800D02*
X166471600Y-96926400D01*
X167563800Y-114525400D02*
X171627800Y-110461400D01*
X169672000Y-109343800D02*
X169672000Y-104492400D01*
X114858800Y-133550000D02*
X113588800Y-133550000D01*
D19*
X151003000Y-89227000D02*
X152171400Y-89227000D01*
X125173700Y-89836600D02*
X131902200Y-89836600D01*
D18*
X165430200Y-118287800D02*
X166544600Y-118287800D01*
X169291000Y-93875200D02*
X170688000Y-92478200D01*
X171754800Y-122348600D02*
X173913800Y-122348600D01*
D19*
X121871700Y-86534600D02*
X125173700Y-89836600D01*
D18*
X165430200Y-141754200D02*
X165430200Y-141147800D01*
X166268400Y-127250800D02*
X163271200Y-127250800D01*
X167157400Y-144649800D02*
X168732200Y-146224600D01*
X120091200Y-147901000D02*
X117652800Y-150339400D01*
X161950400Y-136572600D02*
X162385400Y-136572600D01*
X167814600Y-120827800D02*
X173913800Y-114728600D01*
X164207800Y-114525400D02*
X167563800Y-114525400D01*
X139039600Y-94386400D02*
X139039600Y-93519600D01*
X169443400Y-124660000D02*
X171754800Y-122348600D01*
D19*
X111226600Y-149679000D02*
X116535200Y-149679000D01*
X97536000Y-147447000D02*
X97586800Y-147396200D01*
X147650200Y-91767000D02*
X147650200Y-95250200D01*
X121056400Y-134159600D02*
X126768200Y-128447800D01*
D18*
X165430200Y-123367800D02*
X169795800Y-123367800D01*
X165430200Y-110667800D02*
X166036600Y-111274200D01*
X171018200Y-110207400D02*
X171018200Y-105610000D01*
X152730200Y-91995600D02*
X149021800Y-88287200D01*
X165433400Y-128444600D02*
X165430200Y-128447800D01*
X111429800Y-150339400D02*
X111429800Y-155521000D01*
X115646100Y-142236900D02*
X113588800Y-142236900D01*
X152730200Y-95250200D02*
X152730200Y-91995600D01*
D19*
X90068400Y-123342400D02*
X97561400Y-123342400D01*
D18*
X129870200Y-103047800D02*
X114017400Y-103047800D01*
X141300200Y-97586800D02*
X140922400Y-97964600D01*
D19*
X145592800Y-88896800D02*
X148590000Y-88896800D01*
D18*
X157632400Y-143710000D02*
X161366200Y-139976200D01*
X162890200Y-118287800D02*
X164233200Y-119630800D01*
X131619600Y-87779200D02*
X130736300Y-87779200D01*
X170688000Y-86588600D02*
X170764200Y-86512400D01*
X169722800Y-140712800D02*
X169722800Y-137817200D01*
X169795800Y-123367800D02*
X173355000Y-119808600D01*
X141300200Y-94815000D02*
X141300200Y-97586800D01*
D19*
X97431500Y-94600000D02*
X97500000Y-94531500D01*
D18*
X128117600Y-99260000D02*
X124714000Y-95856400D01*
D19*
X90063200Y-99680000D02*
X97431500Y-99680000D01*
D18*
X162385400Y-136572600D02*
X162890200Y-136067800D01*
D19*
X97431500Y-99680000D02*
X97500000Y-99611500D01*
D18*
X171856400Y-138604600D02*
X173913800Y-138604600D01*
X162890200Y-106219600D02*
X162890200Y-105587800D01*
X141935200Y-90319200D02*
X138150600Y-86534600D01*
X170103800Y-104898800D02*
X171323000Y-103679600D01*
X161366200Y-139976200D02*
X165023800Y-139976200D01*
X127631800Y-123367800D02*
X118745000Y-132254600D01*
X164106200Y-122043800D02*
X169138600Y-122043800D01*
X129870200Y-113207800D02*
X125218800Y-113207800D01*
D19*
X119964200Y-156435400D02*
X119964200Y-150593400D01*
D18*
X169392600Y-137487000D02*
X169389400Y-137487000D01*
X131162400Y-99260000D02*
X128117600Y-99260000D01*
X170103800Y-109572400D02*
X170103800Y-104898800D01*
X137490200Y-95377000D02*
X137490200Y-94513400D01*
X164080800Y-134718400D02*
X165709600Y-134718400D01*
D19*
X150190200Y-91614600D02*
X150190200Y-95250200D01*
D18*
X151942800Y-86534600D02*
X160836000Y-95427800D01*
X168554400Y-109953400D02*
X169138600Y-109369200D01*
X121742200Y-134337400D02*
X121742200Y-148256600D01*
X169722800Y-137817200D02*
X169392600Y-137487000D01*
X167332000Y-115747800D02*
X171907200Y-111172600D01*
X132031700Y-86534600D02*
X132031700Y-86537100D01*
X166471600Y-94205400D02*
X158800800Y-86534600D01*
X117424200Y-152574600D02*
X117424200Y-156435400D01*
X159766000Y-149272600D02*
X159766000Y-143811600D01*
D19*
X140157200Y-91081200D02*
X146964400Y-91081200D01*
D18*
X162890200Y-108127800D02*
X163877600Y-109115200D01*
X169389400Y-137487000D02*
X165430200Y-133527800D01*
X115062000Y-104543200D02*
X113588800Y-106016400D01*
X166036600Y-111274200D02*
X168402000Y-111274200D01*
X162890200Y-120827800D02*
X164106200Y-122043800D01*
X118516400Y-132407000D02*
X118516400Y-144370400D01*
D19*
X119634000Y-146580200D02*
X119634000Y-133905600D01*
D18*
X170510200Y-105381400D02*
X171932600Y-103959000D01*
D19*
X97536000Y-139827000D02*
X97586800Y-139776200D01*
D18*
X165430200Y-113207800D02*
X168017800Y-113207800D01*
X97586800Y-118237000D02*
X90093800Y-118237000D01*
X173913800Y-141144600D02*
X170154600Y-141144600D01*
D19*
X125676000Y-130987800D02*
X129870200Y-130987800D01*
D18*
X162890200Y-98701200D02*
X162890200Y-97967800D01*
X131187800Y-117065400D02*
X127812800Y-117065400D01*
X171323000Y-96034300D02*
X173913800Y-93443500D01*
X127762000Y-119478400D02*
X116078000Y-131162400D01*
X174015400Y-90827200D02*
X178308000Y-90827200D01*
X131191000Y-90979600D02*
X121589800Y-90979600D01*
X168122600Y-101876200D02*
X168503600Y-101495200D01*
X165455600Y-156418500D02*
X165455600Y-154962200D01*
D19*
X127631800Y-125907800D02*
X129870200Y-125907800D01*
D18*
X116078000Y-136140800D02*
X113588800Y-138630000D01*
X173964600Y-91513000D02*
X179479600Y-91513000D01*
X160836000Y-95427800D02*
X162890200Y-95427800D01*
D19*
X90068400Y-125882400D02*
X97561400Y-125882400D01*
D18*
X171932600Y-96999400D02*
X172948500Y-95983500D01*
D19*
X136372600Y-96494600D02*
X134950200Y-97917000D01*
D18*
X121589800Y-90979600D02*
X116306600Y-85696400D01*
X130736300Y-87779200D02*
X129491700Y-86534600D01*
X162890200Y-123367800D02*
X164182400Y-124660000D01*
X166852600Y-117090800D02*
X172313600Y-111629800D01*
X155295600Y-143227400D02*
X161950400Y-136572600D01*
X163271200Y-127250800D02*
X162890200Y-126869800D01*
X131187800Y-114525400D02*
X126441200Y-114525400D01*
X172313600Y-107769000D02*
X172974000Y-107108600D01*
%TD*%
M02*
