%TF.GenerationSoftware,KiCad,Pcbnew,(6.0.9)*%
%TF.CreationDate,2023-02-05T01:27:43+02:00*%
%TF.ProjectId,Mega pro pins,4d656761-2070-4726-9f20-70696e732e6b,rev?*%
%TF.SameCoordinates,Original*%
%TF.FileFunction,Drillmap*%
%TF.FilePolarity,Positive*%
%FSLAX45Y45*%
G04 Gerber Fmt 4.5, Leading zero omitted, Abs format (unit mm)*
G04 Created by KiCad (PCBNEW (6.0.9)) date 2023-02-05 01:27:43*
%MOMM*%
%LPD*%
G01*
G04 APERTURE LIST*
%ADD10C,0.100000*%
%ADD11C,0.200000*%
%ADD12C,0.110000*%
%ADD13C,0.128000*%
%ADD14C,0.136000*%
G04 APERTURE END LIST*
D10*
X18500000Y-16300000D02*
G75*
G03*
X18800000Y-16000000I0J300000D01*
G01*
X6000000Y-16000000D02*
G75*
G03*
X6300000Y-16300000I300000J0D01*
G01*
X6300000Y-7600000D02*
G75*
G03*
X6000000Y-7900000I0J-300000D01*
G01*
X18800000Y-7900000D02*
G75*
G03*
X18500000Y-7600000I-300000J0D01*
G01*
X18800000Y-7900000D02*
X18800000Y-16000000D01*
X18500000Y-16300000D02*
X6300000Y-16300000D01*
X6300000Y-7600000D02*
X18500000Y-7600000D01*
X6000000Y-16000000D02*
X6000000Y-7900000D01*
D11*
D10*
X8956320Y-9410000D02*
X9056320Y-9510000D01*
X9056320Y-9410000D02*
X8956320Y-9510000D01*
X8956320Y-9664000D02*
X9056320Y-9764000D01*
X9056320Y-9664000D02*
X8956320Y-9764000D01*
X8956320Y-9918000D02*
X9056320Y-10018000D01*
X9056320Y-9918000D02*
X8956320Y-10018000D01*
X8956840Y-10760240D02*
X9056840Y-10860240D01*
X9056840Y-10760240D02*
X8956840Y-10860240D01*
X8956840Y-11014240D02*
X9056840Y-11114240D01*
X9056840Y-11014240D02*
X8956840Y-11114240D01*
X8956840Y-11268240D02*
X9056840Y-11368240D01*
X9056840Y-11268240D02*
X8956840Y-11368240D01*
X8956840Y-11522240D02*
X9056840Y-11622240D01*
X9056840Y-11522240D02*
X8956840Y-11622240D01*
X8956840Y-11776240D02*
X9056840Y-11876240D01*
X9056840Y-11776240D02*
X8956840Y-11876240D01*
X8956840Y-12030240D02*
X9056840Y-12130240D01*
X9056840Y-12030240D02*
X8956840Y-12130240D01*
X8956840Y-12284240D02*
X9056840Y-12384240D01*
X9056840Y-12284240D02*
X8956840Y-12384240D01*
X8956840Y-12538240D02*
X9056840Y-12638240D01*
X9056840Y-12538240D02*
X8956840Y-12638240D01*
X8956840Y-13424700D02*
X9056840Y-13524700D01*
X9056840Y-13424700D02*
X8956840Y-13524700D01*
X8956840Y-13678700D02*
X9056840Y-13778700D01*
X9056840Y-13678700D02*
X8956840Y-13778700D01*
X8956840Y-13932700D02*
X9056840Y-14032700D01*
X9056840Y-13932700D02*
X8956840Y-14032700D01*
X8956840Y-14186700D02*
X9056840Y-14286700D01*
X9056840Y-14186700D02*
X8956840Y-14286700D01*
X8956840Y-14440700D02*
X9056840Y-14540700D01*
X9056840Y-14440700D02*
X8956840Y-14540700D01*
X8956840Y-14694700D02*
X9056840Y-14794700D01*
X9056840Y-14694700D02*
X8956840Y-14794700D01*
X12937020Y-9492780D02*
X13037020Y-9592780D01*
X13037020Y-9492780D02*
X12937020Y-9592780D01*
X12937020Y-9746780D02*
X13037020Y-9846780D01*
X13037020Y-9746780D02*
X12937020Y-9846780D01*
X12937020Y-10000780D02*
X13037020Y-10100780D01*
X13037020Y-10000780D02*
X12937020Y-10100780D01*
X12937020Y-10254780D02*
X13037020Y-10354780D01*
X13037020Y-10254780D02*
X12937020Y-10354780D01*
X12937020Y-10508780D02*
X13037020Y-10608780D01*
X13037020Y-10508780D02*
X12937020Y-10608780D01*
X12937020Y-10762780D02*
X13037020Y-10862780D01*
X13037020Y-10762780D02*
X12937020Y-10862780D01*
X12937020Y-11016780D02*
X13037020Y-11116780D01*
X13037020Y-11016780D02*
X12937020Y-11116780D01*
X12937020Y-11270780D02*
X13037020Y-11370780D01*
X13037020Y-11270780D02*
X12937020Y-11370780D01*
X12937020Y-11524780D02*
X13037020Y-11624780D01*
X13037020Y-11524780D02*
X12937020Y-11624780D01*
X12937020Y-11778780D02*
X13037020Y-11878780D01*
X13037020Y-11778780D02*
X12937020Y-11878780D01*
X12937020Y-12032780D02*
X13037020Y-12132780D01*
X13037020Y-12032780D02*
X12937020Y-12132780D01*
X12937020Y-12286780D02*
X13037020Y-12386780D01*
X13037020Y-12286780D02*
X12937020Y-12386780D01*
X12937020Y-12540780D02*
X13037020Y-12640780D01*
X13037020Y-12540780D02*
X12937020Y-12640780D01*
X12937020Y-12794780D02*
X13037020Y-12894780D01*
X13037020Y-12794780D02*
X12937020Y-12894780D01*
X12937020Y-13048780D02*
X13037020Y-13148780D01*
X13037020Y-13048780D02*
X12937020Y-13148780D01*
X12937020Y-13302780D02*
X13037020Y-13402780D01*
X13037020Y-13302780D02*
X12937020Y-13402780D01*
X13191020Y-9492780D02*
X13291020Y-9592780D01*
X13291020Y-9492780D02*
X13191020Y-9592780D01*
X13191020Y-9746780D02*
X13291020Y-9846780D01*
X13291020Y-9746780D02*
X13191020Y-9846780D01*
X13191020Y-10000780D02*
X13291020Y-10100780D01*
X13291020Y-10000780D02*
X13191020Y-10100780D01*
X13191020Y-10254780D02*
X13291020Y-10354780D01*
X13291020Y-10254780D02*
X13191020Y-10354780D01*
X13191020Y-10508780D02*
X13291020Y-10608780D01*
X13291020Y-10508780D02*
X13191020Y-10608780D01*
X13191020Y-10762780D02*
X13291020Y-10862780D01*
X13291020Y-10762780D02*
X13191020Y-10862780D01*
X13191020Y-11016780D02*
X13291020Y-11116780D01*
X13291020Y-11016780D02*
X13191020Y-11116780D01*
X13191020Y-11270780D02*
X13291020Y-11370780D01*
X13291020Y-11270780D02*
X13191020Y-11370780D01*
X13191020Y-11524780D02*
X13291020Y-11624780D01*
X13291020Y-11524780D02*
X13191020Y-11624780D01*
X13191020Y-11778780D02*
X13291020Y-11878780D01*
X13291020Y-11778780D02*
X13191020Y-11878780D01*
X13191020Y-12032780D02*
X13291020Y-12132780D01*
X13291020Y-12032780D02*
X13191020Y-12132780D01*
X13191020Y-12286780D02*
X13291020Y-12386780D01*
X13291020Y-12286780D02*
X13191020Y-12386780D01*
X13191020Y-12540780D02*
X13291020Y-12640780D01*
X13291020Y-12540780D02*
X13191020Y-12640780D01*
X13191020Y-12794780D02*
X13291020Y-12894780D01*
X13291020Y-12794780D02*
X13191020Y-12894780D01*
X13191020Y-13048780D02*
X13291020Y-13148780D01*
X13291020Y-13048780D02*
X13191020Y-13148780D01*
X13191020Y-13302780D02*
X13291020Y-13402780D01*
X13291020Y-13302780D02*
X13191020Y-13402780D01*
X13445020Y-9487700D02*
X13545020Y-9587700D01*
X13545020Y-9487700D02*
X13445020Y-9587700D01*
X13445020Y-9741700D02*
X13545020Y-9841700D01*
X13545020Y-9741700D02*
X13445020Y-9841700D01*
X13699020Y-9487700D02*
X13799020Y-9587700D01*
X13799020Y-9487700D02*
X13699020Y-9587700D01*
X13699020Y-9741700D02*
X13799020Y-9841700D01*
X13799020Y-9741700D02*
X13699020Y-9841700D01*
X13953020Y-9487700D02*
X14053020Y-9587700D01*
X14053020Y-9487700D02*
X13953020Y-9587700D01*
X13953020Y-9741700D02*
X14053020Y-9841700D01*
X14053020Y-9741700D02*
X13953020Y-9841700D01*
X14720000Y-9480000D02*
X14820000Y-9580000D01*
X14820000Y-9480000D02*
X14720000Y-9580000D01*
X14720000Y-9734000D02*
X14820000Y-9834000D01*
X14820000Y-9734000D02*
X14720000Y-9834000D01*
X14974000Y-9480000D02*
X15074000Y-9580000D01*
X15074000Y-9480000D02*
X14974000Y-9580000D01*
X14974000Y-9734000D02*
X15074000Y-9834000D01*
X15074000Y-9734000D02*
X14974000Y-9834000D01*
X15228000Y-9480000D02*
X15328000Y-9580000D01*
X15328000Y-9480000D02*
X15228000Y-9580000D01*
X15228000Y-9734000D02*
X15328000Y-9834000D01*
X15328000Y-9734000D02*
X15228000Y-9834000D01*
X16246000Y-9490000D02*
X16346000Y-9590000D01*
X16346000Y-9490000D02*
X16246000Y-9590000D01*
X16246000Y-9744000D02*
X16346000Y-9844000D01*
X16346000Y-9744000D02*
X16246000Y-9844000D01*
X16246000Y-9998000D02*
X16346000Y-10098000D01*
X16346000Y-9998000D02*
X16246000Y-10098000D01*
X16246000Y-10252000D02*
X16346000Y-10352000D01*
X16346000Y-10252000D02*
X16246000Y-10352000D01*
X16246000Y-10506000D02*
X16346000Y-10606000D01*
X16346000Y-10506000D02*
X16246000Y-10606000D01*
X16246000Y-10760000D02*
X16346000Y-10860000D01*
X16346000Y-10760000D02*
X16246000Y-10860000D01*
X16246000Y-11014000D02*
X16346000Y-11114000D01*
X16346000Y-11014000D02*
X16246000Y-11114000D01*
X16246000Y-11268000D02*
X16346000Y-11368000D01*
X16346000Y-11268000D02*
X16246000Y-11368000D01*
X16246000Y-11522000D02*
X16346000Y-11622000D01*
X16346000Y-11522000D02*
X16246000Y-11622000D01*
X16246000Y-11776000D02*
X16346000Y-11876000D01*
X16346000Y-11776000D02*
X16246000Y-11876000D01*
X16246000Y-12030000D02*
X16346000Y-12130000D01*
X16346000Y-12030000D02*
X16246000Y-12130000D01*
X16246000Y-12284000D02*
X16346000Y-12384000D01*
X16346000Y-12284000D02*
X16246000Y-12384000D01*
X16246000Y-12538000D02*
X16346000Y-12638000D01*
X16346000Y-12538000D02*
X16246000Y-12638000D01*
X16246000Y-12792000D02*
X16346000Y-12892000D01*
X16346000Y-12792000D02*
X16246000Y-12892000D01*
X16246000Y-13046000D02*
X16346000Y-13146000D01*
X16346000Y-13046000D02*
X16246000Y-13146000D01*
X16246000Y-13300000D02*
X16346000Y-13400000D01*
X16346000Y-13300000D02*
X16246000Y-13400000D01*
X16246000Y-13554000D02*
X16346000Y-13654000D01*
X16346000Y-13554000D02*
X16246000Y-13654000D01*
X16246000Y-13808000D02*
X16346000Y-13908000D01*
X16346000Y-13808000D02*
X16246000Y-13908000D01*
X16246000Y-14062000D02*
X16346000Y-14162000D01*
X16346000Y-14062000D02*
X16246000Y-14162000D01*
X16246000Y-14316000D02*
X16346000Y-14416000D01*
X16346000Y-14316000D02*
X16246000Y-14416000D01*
X16246000Y-14570000D02*
X16346000Y-14670000D01*
X16346000Y-14570000D02*
X16246000Y-14670000D01*
X16500000Y-9490000D02*
X16600000Y-9590000D01*
X16600000Y-9490000D02*
X16500000Y-9590000D01*
X16500000Y-9744000D02*
X16600000Y-9844000D01*
X16600000Y-9744000D02*
X16500000Y-9844000D01*
X16500000Y-9998000D02*
X16600000Y-10098000D01*
X16600000Y-9998000D02*
X16500000Y-10098000D01*
X16500000Y-10252000D02*
X16600000Y-10352000D01*
X16600000Y-10252000D02*
X16500000Y-10352000D01*
X16500000Y-10506000D02*
X16600000Y-10606000D01*
X16600000Y-10506000D02*
X16500000Y-10606000D01*
X16500000Y-10760000D02*
X16600000Y-10860000D01*
X16600000Y-10760000D02*
X16500000Y-10860000D01*
X16500000Y-11014000D02*
X16600000Y-11114000D01*
X16600000Y-11014000D02*
X16500000Y-11114000D01*
X16500000Y-11268000D02*
X16600000Y-11368000D01*
X16600000Y-11268000D02*
X16500000Y-11368000D01*
X16500000Y-11522000D02*
X16600000Y-11622000D01*
X16600000Y-11522000D02*
X16500000Y-11622000D01*
X16500000Y-11776000D02*
X16600000Y-11876000D01*
X16600000Y-11776000D02*
X16500000Y-11876000D01*
X16500000Y-12030000D02*
X16600000Y-12130000D01*
X16600000Y-12030000D02*
X16500000Y-12130000D01*
X16500000Y-12284000D02*
X16600000Y-12384000D01*
X16600000Y-12284000D02*
X16500000Y-12384000D01*
X16500000Y-12538000D02*
X16600000Y-12638000D01*
X16600000Y-12538000D02*
X16500000Y-12638000D01*
X16500000Y-12792000D02*
X16600000Y-12892000D01*
X16600000Y-12792000D02*
X16500000Y-12892000D01*
X16500000Y-13046000D02*
X16600000Y-13146000D01*
X16600000Y-13046000D02*
X16500000Y-13146000D01*
X16500000Y-13300000D02*
X16600000Y-13400000D01*
X16600000Y-13300000D02*
X16500000Y-13400000D01*
X16500000Y-13554000D02*
X16600000Y-13654000D01*
X16600000Y-13554000D02*
X16500000Y-13654000D01*
X16500000Y-13808000D02*
X16600000Y-13908000D01*
X16600000Y-13808000D02*
X16500000Y-13908000D01*
X16500000Y-14062000D02*
X16600000Y-14162000D01*
X16600000Y-14062000D02*
X16500000Y-14162000D01*
X16500000Y-14316000D02*
X16600000Y-14416000D01*
X16600000Y-14316000D02*
X16500000Y-14416000D01*
X16500000Y-14570000D02*
X16600000Y-14670000D01*
X16600000Y-14570000D02*
X16500000Y-14670000D01*
D12*
X9813680Y-10553700D02*
G75*
G03*
X9813680Y-10553700I-55000J0D01*
G01*
X9813680Y-10807700D02*
G75*
G03*
X9813680Y-10807700I-55000J0D01*
G01*
X9813680Y-11061700D02*
G75*
G03*
X9813680Y-11061700I-55000J0D01*
G01*
X9813680Y-11315700D02*
G75*
G03*
X9813680Y-11315700I-55000J0D01*
G01*
X9813680Y-11569700D02*
G75*
G03*
X9813680Y-11569700I-55000J0D01*
G01*
X9813680Y-11823700D02*
G75*
G03*
X9813680Y-11823700I-55000J0D01*
G01*
X9813680Y-12077700D02*
G75*
G03*
X9813680Y-12077700I-55000J0D01*
G01*
X9813680Y-12331700D02*
G75*
G03*
X9813680Y-12331700I-55000J0D01*
G01*
X9813680Y-12585700D02*
G75*
G03*
X9813680Y-12585700I-55000J0D01*
G01*
X10781420Y-15643540D02*
G75*
G03*
X10781420Y-15643540I-55000J0D01*
G01*
X11035420Y-15643540D02*
G75*
G03*
X11035420Y-15643540I-55000J0D01*
G01*
X11289420Y-15643540D02*
G75*
G03*
X11289420Y-15643540I-55000J0D01*
G01*
X11413880Y-8569640D02*
G75*
G03*
X11413880Y-8569640I-55000J0D01*
G01*
X11413880Y-8823640D02*
G75*
G03*
X11413880Y-8823640I-55000J0D01*
G01*
X11413880Y-9077640D02*
G75*
G03*
X11413880Y-9077640I-55000J0D01*
G01*
X11413880Y-9331640D02*
G75*
G03*
X11413880Y-9331640I-55000J0D01*
G01*
X11413880Y-9585640D02*
G75*
G03*
X11413880Y-9585640I-55000J0D01*
G01*
X11413880Y-9839640D02*
G75*
G03*
X11413880Y-9839640I-55000J0D01*
G01*
X11413880Y-10093640D02*
G75*
G03*
X11413880Y-10093640I-55000J0D01*
G01*
X11413880Y-10347640D02*
G75*
G03*
X11413880Y-10347640I-55000J0D01*
G01*
X11413880Y-10601640D02*
G75*
G03*
X11413880Y-10601640I-55000J0D01*
G01*
X11413880Y-10959780D02*
G75*
G03*
X11413880Y-10959780I-55000J0D01*
G01*
X11413880Y-11213780D02*
G75*
G03*
X11413880Y-11213780I-55000J0D01*
G01*
X11413880Y-11467780D02*
G75*
G03*
X11413880Y-11467780I-55000J0D01*
G01*
X11413880Y-11721780D02*
G75*
G03*
X11413880Y-11721780I-55000J0D01*
G01*
X11413880Y-11975780D02*
G75*
G03*
X11413880Y-11975780I-55000J0D01*
G01*
X11413880Y-12229780D02*
G75*
G03*
X11413880Y-12229780I-55000J0D01*
G01*
X11413880Y-12483780D02*
G75*
G03*
X11413880Y-12483780I-55000J0D01*
G01*
X11413880Y-12737780D02*
G75*
G03*
X11413880Y-12737780I-55000J0D01*
G01*
X11413880Y-12991780D02*
G75*
G03*
X11413880Y-12991780I-55000J0D01*
G01*
X11543420Y-15643540D02*
G75*
G03*
X11543420Y-15643540I-55000J0D01*
G01*
X11797420Y-15643540D02*
G75*
G03*
X11797420Y-15643540I-55000J0D01*
G01*
X12051420Y-15643540D02*
G75*
G03*
X12051420Y-15643540I-55000J0D01*
G01*
X12305420Y-15643540D02*
G75*
G03*
X12305420Y-15643540I-55000J0D01*
G01*
X12559420Y-15643540D02*
G75*
G03*
X12559420Y-15643540I-55000J0D01*
G01*
X12813420Y-15643540D02*
G75*
G03*
X12813420Y-15643540I-55000J0D01*
G01*
X15584560Y-15641850D02*
G75*
G03*
X15584560Y-15641850I-55000J0D01*
G01*
X15838560Y-15641850D02*
G75*
G03*
X15838560Y-15641850I-55000J0D01*
G01*
X16092560Y-15641850D02*
G75*
G03*
X16092560Y-15641850I-55000J0D01*
G01*
X16115420Y-8651240D02*
G75*
G03*
X16115420Y-8651240I-55000J0D01*
G01*
X16346560Y-15641850D02*
G75*
G03*
X16346560Y-15641850I-55000J0D01*
G01*
X16369420Y-8651240D02*
G75*
G03*
X16369420Y-8651240I-55000J0D01*
G01*
X16600560Y-15641850D02*
G75*
G03*
X16600560Y-15641850I-55000J0D01*
G01*
X16623420Y-8651240D02*
G75*
G03*
X16623420Y-8651240I-55000J0D01*
G01*
X16854560Y-15641850D02*
G75*
G03*
X16854560Y-15641850I-55000J0D01*
G01*
X16877420Y-8651240D02*
G75*
G03*
X16877420Y-8651240I-55000J0D01*
G01*
X17108560Y-15641850D02*
G75*
G03*
X17108560Y-15641850I-55000J0D01*
G01*
X17131420Y-8651240D02*
G75*
G03*
X17131420Y-8651240I-55000J0D01*
G01*
X17362560Y-15641850D02*
G75*
G03*
X17362560Y-15641850I-55000J0D01*
G01*
X17385420Y-8651240D02*
G75*
G03*
X17385420Y-8651240I-55000J0D01*
G01*
X17446380Y-10202860D02*
G75*
G03*
X17446380Y-10202860I-55000J0D01*
G01*
X17446380Y-10456860D02*
G75*
G03*
X17446380Y-10456860I-55000J0D01*
G01*
X17446380Y-10710860D02*
G75*
G03*
X17446380Y-10710860I-55000J0D01*
G01*
X17446380Y-10964860D02*
G75*
G03*
X17446380Y-10964860I-55000J0D01*
G01*
X17446380Y-11218860D02*
G75*
G03*
X17446380Y-11218860I-55000J0D01*
G01*
X17446380Y-11472860D02*
G75*
G03*
X17446380Y-11472860I-55000J0D01*
G01*
X17446380Y-11726860D02*
G75*
G03*
X17446380Y-11726860I-55000J0D01*
G01*
X17446380Y-11980860D02*
G75*
G03*
X17446380Y-11980860I-55000J0D01*
G01*
X17446380Y-12234860D02*
G75*
G03*
X17446380Y-12234860I-55000J0D01*
G01*
X17446380Y-12590460D02*
G75*
G03*
X17446380Y-12590460I-55000J0D01*
G01*
X17446380Y-12844460D02*
G75*
G03*
X17446380Y-12844460I-55000J0D01*
G01*
X17446380Y-13098460D02*
G75*
G03*
X17446380Y-13098460I-55000J0D01*
G01*
X17446380Y-13352460D02*
G75*
G03*
X17446380Y-13352460I-55000J0D01*
G01*
X17446380Y-13606460D02*
G75*
G03*
X17446380Y-13606460I-55000J0D01*
G01*
X17446380Y-13860460D02*
G75*
G03*
X17446380Y-13860460I-55000J0D01*
G01*
X17446380Y-14114460D02*
G75*
G03*
X17446380Y-14114460I-55000J0D01*
G01*
X17446380Y-14368460D02*
G75*
G03*
X17446380Y-14368460I-55000J0D01*
G01*
X17446380Y-14622460D02*
G75*
G03*
X17446380Y-14622460I-55000J0D01*
G01*
X17616560Y-15641850D02*
G75*
G03*
X17616560Y-15641850I-55000J0D01*
G01*
X17639420Y-8651240D02*
G75*
G03*
X17639420Y-8651240I-55000J0D01*
G01*
X17893420Y-8651240D02*
G75*
G03*
X17893420Y-8651240I-55000J0D01*
G01*
X18147420Y-8651240D02*
G75*
G03*
X18147420Y-8651240I-55000J0D01*
G01*
D13*
X9758680Y-13405620D02*
X9758680Y-13533620D01*
X9694680Y-13469620D02*
X9822680Y-13469620D01*
X9758680Y-13659620D02*
X9758680Y-13787620D01*
X9694680Y-13723620D02*
X9822680Y-13723620D01*
X9758680Y-13913620D02*
X9758680Y-14041620D01*
X9694680Y-13977620D02*
X9822680Y-13977620D01*
X9758680Y-14167620D02*
X9758680Y-14295620D01*
X9694680Y-14231620D02*
X9822680Y-14231620D01*
X9758680Y-14421620D02*
X9758680Y-14549620D01*
X9694680Y-14485620D02*
X9822680Y-14485620D01*
X9758680Y-14675620D02*
X9758680Y-14803620D01*
X9694680Y-14739620D02*
X9822680Y-14739620D01*
X11933170Y-8589460D02*
X11933170Y-8717460D01*
X11869170Y-8653460D02*
X11997170Y-8653460D01*
X12187170Y-8589460D02*
X12187170Y-8717460D01*
X12123170Y-8653460D02*
X12251170Y-8653460D01*
X12441170Y-8589460D02*
X12441170Y-8717460D01*
X12377170Y-8653460D02*
X12505170Y-8653460D01*
X12695170Y-8589460D02*
X12695170Y-8717460D01*
X12631170Y-8653460D02*
X12759170Y-8653460D01*
X12949170Y-8589460D02*
X12949170Y-8717460D01*
X12885170Y-8653460D02*
X13013170Y-8653460D01*
X13203170Y-8589460D02*
X13203170Y-8717460D01*
X13139170Y-8653460D02*
X13267170Y-8653460D01*
X13561060Y-8589460D02*
X13561060Y-8717460D01*
X13497060Y-8653460D02*
X13625060Y-8653460D01*
X13815060Y-8589460D02*
X13815060Y-8717460D01*
X13751060Y-8653460D02*
X13879060Y-8653460D01*
X14069060Y-8589460D02*
X14069060Y-8717460D01*
X14005060Y-8653460D02*
X14133060Y-8653460D01*
X14323060Y-8589460D02*
X14323060Y-8717460D01*
X14259060Y-8653460D02*
X14387060Y-8653460D01*
X14577060Y-8589460D02*
X14577060Y-8717460D01*
X14513060Y-8653460D02*
X14641060Y-8653460D01*
X14831060Y-8589460D02*
X14831060Y-8717460D01*
X14767060Y-8653460D02*
X14895060Y-8653460D01*
D14*
X9798084Y-9501234D02*
X9798084Y-9405066D01*
X9701916Y-9405066D01*
X9701916Y-9501234D01*
X9798084Y-9501234D01*
X9798084Y-9755234D02*
X9798084Y-9659066D01*
X9701916Y-9659066D01*
X9701916Y-9755234D01*
X9798084Y-9755234D01*
X9798084Y-10009234D02*
X9798084Y-9913066D01*
X9701916Y-9913066D01*
X9701916Y-10009234D01*
X9798084Y-10009234D01*
X11406964Y-13410694D02*
X11406964Y-13314526D01*
X11310796Y-13314526D01*
X11310796Y-13410694D01*
X11406964Y-13410694D01*
X11406964Y-13664694D02*
X11406964Y-13568526D01*
X11310796Y-13568526D01*
X11310796Y-13664694D01*
X11406964Y-13664694D01*
X11406964Y-13918694D02*
X11406964Y-13822526D01*
X11310796Y-13822526D01*
X11310796Y-13918694D01*
X11406964Y-13918694D01*
X11406964Y-14269224D02*
X11406964Y-14173056D01*
X11310796Y-14173056D01*
X11310796Y-14269224D01*
X11406964Y-14269224D01*
X11406964Y-14523224D02*
X11406964Y-14427056D01*
X11310796Y-14427056D01*
X11310796Y-14523224D01*
X11406964Y-14523224D01*
X11406964Y-14777224D02*
X11406964Y-14681056D01*
X11310796Y-14681056D01*
X11310796Y-14777224D01*
X11406964Y-14777224D01*
X15232214Y-8701544D02*
X15232214Y-8605376D01*
X15136046Y-8605376D01*
X15136046Y-8701544D01*
X15232214Y-8701544D01*
X15486214Y-8701544D02*
X15486214Y-8605376D01*
X15390046Y-8605376D01*
X15390046Y-8701544D01*
X15486214Y-8701544D01*
X15740214Y-8701544D02*
X15740214Y-8605376D01*
X15644046Y-8605376D01*
X15644046Y-8701544D01*
X15740214Y-8701544D01*
X17439464Y-9392434D02*
X17439464Y-9296266D01*
X17343296Y-9296266D01*
X17343296Y-9392434D01*
X17439464Y-9392434D01*
X17439464Y-9646434D02*
X17439464Y-9550266D01*
X17343296Y-9550266D01*
X17343296Y-9646434D01*
X17439464Y-9646434D01*
X17439464Y-9900434D02*
X17439464Y-9804266D01*
X17343296Y-9804266D01*
X17343296Y-9900434D01*
X17439464Y-9900434D01*
D11*
X6252619Y-16615476D02*
X6252619Y-16415476D01*
X6300238Y-16415476D01*
X6328809Y-16425000D01*
X6347857Y-16444048D01*
X6357381Y-16463095D01*
X6366905Y-16501190D01*
X6366905Y-16529762D01*
X6357381Y-16567857D01*
X6347857Y-16586905D01*
X6328809Y-16605952D01*
X6300238Y-16615476D01*
X6252619Y-16615476D01*
X6452619Y-16615476D02*
X6452619Y-16482143D01*
X6452619Y-16520238D02*
X6462143Y-16501190D01*
X6471667Y-16491667D01*
X6490714Y-16482143D01*
X6509762Y-16482143D01*
X6576428Y-16615476D02*
X6576428Y-16482143D01*
X6576428Y-16415476D02*
X6566905Y-16425000D01*
X6576428Y-16434524D01*
X6585952Y-16425000D01*
X6576428Y-16415476D01*
X6576428Y-16434524D01*
X6700238Y-16615476D02*
X6681190Y-16605952D01*
X6671667Y-16586905D01*
X6671667Y-16415476D01*
X6805000Y-16615476D02*
X6785952Y-16605952D01*
X6776428Y-16586905D01*
X6776428Y-16415476D01*
X7033571Y-16615476D02*
X7033571Y-16415476D01*
X7100238Y-16558333D01*
X7166905Y-16415476D01*
X7166905Y-16615476D01*
X7347857Y-16615476D02*
X7347857Y-16510714D01*
X7338333Y-16491667D01*
X7319286Y-16482143D01*
X7281190Y-16482143D01*
X7262143Y-16491667D01*
X7347857Y-16605952D02*
X7328809Y-16615476D01*
X7281190Y-16615476D01*
X7262143Y-16605952D01*
X7252619Y-16586905D01*
X7252619Y-16567857D01*
X7262143Y-16548809D01*
X7281190Y-16539286D01*
X7328809Y-16539286D01*
X7347857Y-16529762D01*
X7443095Y-16482143D02*
X7443095Y-16682143D01*
X7443095Y-16491667D02*
X7462143Y-16482143D01*
X7500238Y-16482143D01*
X7519286Y-16491667D01*
X7528809Y-16501190D01*
X7538333Y-16520238D01*
X7538333Y-16577381D01*
X7528809Y-16596428D01*
X7519286Y-16605952D01*
X7500238Y-16615476D01*
X7462143Y-16615476D01*
X7443095Y-16605952D01*
X7624048Y-16596428D02*
X7633571Y-16605952D01*
X7624048Y-16615476D01*
X7614524Y-16605952D01*
X7624048Y-16596428D01*
X7624048Y-16615476D01*
X7624048Y-16491667D02*
X7633571Y-16501190D01*
X7624048Y-16510714D01*
X7614524Y-16501190D01*
X7624048Y-16491667D01*
X7624048Y-16510714D01*
D10*
X5895000Y-16895000D02*
X5995000Y-16995000D01*
X5995000Y-16895000D02*
X5895000Y-16995000D01*
D11*
X6357381Y-17035476D02*
X6243095Y-17035476D01*
X6300238Y-17035476D02*
X6300238Y-16835476D01*
X6281190Y-16864048D01*
X6262143Y-16883095D01*
X6243095Y-16892619D01*
X6443095Y-17016429D02*
X6452619Y-17025952D01*
X6443095Y-17035476D01*
X6433571Y-17025952D01*
X6443095Y-17016429D01*
X6443095Y-17035476D01*
X6576428Y-16835476D02*
X6595476Y-16835476D01*
X6614524Y-16845000D01*
X6624048Y-16854524D01*
X6633571Y-16873571D01*
X6643095Y-16911667D01*
X6643095Y-16959286D01*
X6633571Y-16997381D01*
X6624048Y-17016429D01*
X6614524Y-17025952D01*
X6595476Y-17035476D01*
X6576428Y-17035476D01*
X6557381Y-17025952D01*
X6547857Y-17016429D01*
X6538333Y-16997381D01*
X6528809Y-16959286D01*
X6528809Y-16911667D01*
X6538333Y-16873571D01*
X6547857Y-16854524D01*
X6557381Y-16845000D01*
X6576428Y-16835476D01*
X6766905Y-16835476D02*
X6785952Y-16835476D01*
X6805000Y-16845000D01*
X6814524Y-16854524D01*
X6824048Y-16873571D01*
X6833571Y-16911667D01*
X6833571Y-16959286D01*
X6824048Y-16997381D01*
X6814524Y-17016429D01*
X6805000Y-17025952D01*
X6785952Y-17035476D01*
X6766905Y-17035476D01*
X6747857Y-17025952D01*
X6738333Y-17016429D01*
X6728809Y-16997381D01*
X6719286Y-16959286D01*
X6719286Y-16911667D01*
X6728809Y-16873571D01*
X6738333Y-16854524D01*
X6747857Y-16845000D01*
X6766905Y-16835476D01*
X6957381Y-16835476D02*
X6976428Y-16835476D01*
X6995476Y-16845000D01*
X7005000Y-16854524D01*
X7014524Y-16873571D01*
X7024048Y-16911667D01*
X7024048Y-16959286D01*
X7014524Y-16997381D01*
X7005000Y-17016429D01*
X6995476Y-17025952D01*
X6976428Y-17035476D01*
X6957381Y-17035476D01*
X6938333Y-17025952D01*
X6928809Y-17016429D01*
X6919286Y-16997381D01*
X6909762Y-16959286D01*
X6909762Y-16911667D01*
X6919286Y-16873571D01*
X6928809Y-16854524D01*
X6938333Y-16845000D01*
X6957381Y-16835476D01*
X7109762Y-17035476D02*
X7109762Y-16902143D01*
X7109762Y-16921190D02*
X7119286Y-16911667D01*
X7138333Y-16902143D01*
X7166905Y-16902143D01*
X7185952Y-16911667D01*
X7195476Y-16930714D01*
X7195476Y-17035476D01*
X7195476Y-16930714D02*
X7205000Y-16911667D01*
X7224048Y-16902143D01*
X7252619Y-16902143D01*
X7271667Y-16911667D01*
X7281190Y-16930714D01*
X7281190Y-17035476D01*
X7376428Y-17035476D02*
X7376428Y-16902143D01*
X7376428Y-16921190D02*
X7385952Y-16911667D01*
X7405000Y-16902143D01*
X7433571Y-16902143D01*
X7452619Y-16911667D01*
X7462143Y-16930714D01*
X7462143Y-17035476D01*
X7462143Y-16930714D02*
X7471667Y-16911667D01*
X7490714Y-16902143D01*
X7519286Y-16902143D01*
X7538333Y-16911667D01*
X7547857Y-16930714D01*
X7547857Y-17035476D01*
X7938333Y-16825952D02*
X7766905Y-17083095D01*
X8195476Y-16835476D02*
X8214524Y-16835476D01*
X8233571Y-16845000D01*
X8243095Y-16854524D01*
X8252619Y-16873571D01*
X8262143Y-16911667D01*
X8262143Y-16959286D01*
X8252619Y-16997381D01*
X8243095Y-17016429D01*
X8233571Y-17025952D01*
X8214524Y-17035476D01*
X8195476Y-17035476D01*
X8176428Y-17025952D01*
X8166905Y-17016429D01*
X8157381Y-16997381D01*
X8147857Y-16959286D01*
X8147857Y-16911667D01*
X8157381Y-16873571D01*
X8166905Y-16854524D01*
X8176428Y-16845000D01*
X8195476Y-16835476D01*
X8347857Y-17016429D02*
X8357381Y-17025952D01*
X8347857Y-17035476D01*
X8338333Y-17025952D01*
X8347857Y-17016429D01*
X8347857Y-17035476D01*
X8481190Y-16835476D02*
X8500238Y-16835476D01*
X8519286Y-16845000D01*
X8528810Y-16854524D01*
X8538333Y-16873571D01*
X8547857Y-16911667D01*
X8547857Y-16959286D01*
X8538333Y-16997381D01*
X8528810Y-17016429D01*
X8519286Y-17025952D01*
X8500238Y-17035476D01*
X8481190Y-17035476D01*
X8462143Y-17025952D01*
X8452619Y-17016429D01*
X8443095Y-16997381D01*
X8433571Y-16959286D01*
X8433571Y-16911667D01*
X8443095Y-16873571D01*
X8452619Y-16854524D01*
X8462143Y-16845000D01*
X8481190Y-16835476D01*
X8614524Y-16835476D02*
X8738333Y-16835476D01*
X8671667Y-16911667D01*
X8700238Y-16911667D01*
X8719286Y-16921190D01*
X8728810Y-16930714D01*
X8738333Y-16949762D01*
X8738333Y-16997381D01*
X8728810Y-17016429D01*
X8719286Y-17025952D01*
X8700238Y-17035476D01*
X8643095Y-17035476D01*
X8624048Y-17025952D01*
X8614524Y-17016429D01*
X8833571Y-17035476D02*
X8871667Y-17035476D01*
X8890714Y-17025952D01*
X8900238Y-17016429D01*
X8919286Y-16987857D01*
X8928810Y-16949762D01*
X8928810Y-16873571D01*
X8919286Y-16854524D01*
X8909762Y-16845000D01*
X8890714Y-16835476D01*
X8852619Y-16835476D01*
X8833571Y-16845000D01*
X8824048Y-16854524D01*
X8814524Y-16873571D01*
X8814524Y-16921190D01*
X8824048Y-16940238D01*
X8833571Y-16949762D01*
X8852619Y-16959286D01*
X8890714Y-16959286D01*
X8909762Y-16949762D01*
X8919286Y-16940238D01*
X8928810Y-16921190D01*
X9100238Y-16902143D02*
X9100238Y-17035476D01*
X9052619Y-16825952D02*
X9005000Y-16968810D01*
X9128810Y-16968810D01*
X9195476Y-16835476D02*
X9195476Y-16873571D01*
X9271667Y-16835476D02*
X9271667Y-16873571D01*
X9566905Y-17111667D02*
X9557381Y-17102143D01*
X9538333Y-17073571D01*
X9528810Y-17054524D01*
X9519286Y-17025952D01*
X9509762Y-16978333D01*
X9509762Y-16940238D01*
X9519286Y-16892619D01*
X9528810Y-16864048D01*
X9538333Y-16845000D01*
X9557381Y-16816429D01*
X9566905Y-16806905D01*
X9747857Y-17035476D02*
X9633571Y-17035476D01*
X9690714Y-17035476D02*
X9690714Y-16835476D01*
X9671667Y-16864048D01*
X9652619Y-16883095D01*
X9633571Y-16892619D01*
X9871667Y-16835476D02*
X9890714Y-16835476D01*
X9909762Y-16845000D01*
X9919286Y-16854524D01*
X9928810Y-16873571D01*
X9938333Y-16911667D01*
X9938333Y-16959286D01*
X9928810Y-16997381D01*
X9919286Y-17016429D01*
X9909762Y-17025952D01*
X9890714Y-17035476D01*
X9871667Y-17035476D01*
X9852619Y-17025952D01*
X9843095Y-17016429D01*
X9833571Y-16997381D01*
X9824048Y-16959286D01*
X9824048Y-16911667D01*
X9833571Y-16873571D01*
X9843095Y-16854524D01*
X9852619Y-16845000D01*
X9871667Y-16835476D01*
X10005000Y-16835476D02*
X10128810Y-16835476D01*
X10062143Y-16911667D01*
X10090714Y-16911667D01*
X10109762Y-16921190D01*
X10119286Y-16930714D01*
X10128810Y-16949762D01*
X10128810Y-16997381D01*
X10119286Y-17016429D01*
X10109762Y-17025952D01*
X10090714Y-17035476D01*
X10033571Y-17035476D01*
X10014524Y-17025952D01*
X10005000Y-17016429D01*
X10366905Y-17035476D02*
X10366905Y-16835476D01*
X10452619Y-17035476D02*
X10452619Y-16930714D01*
X10443095Y-16911667D01*
X10424048Y-16902143D01*
X10395476Y-16902143D01*
X10376429Y-16911667D01*
X10366905Y-16921190D01*
X10576429Y-17035476D02*
X10557381Y-17025952D01*
X10547857Y-17016429D01*
X10538333Y-16997381D01*
X10538333Y-16940238D01*
X10547857Y-16921190D01*
X10557381Y-16911667D01*
X10576429Y-16902143D01*
X10605000Y-16902143D01*
X10624048Y-16911667D01*
X10633571Y-16921190D01*
X10643095Y-16940238D01*
X10643095Y-16997381D01*
X10633571Y-17016429D01*
X10624048Y-17025952D01*
X10605000Y-17035476D01*
X10576429Y-17035476D01*
X10757381Y-17035476D02*
X10738333Y-17025952D01*
X10728810Y-17006905D01*
X10728810Y-16835476D01*
X10909762Y-17025952D02*
X10890714Y-17035476D01*
X10852619Y-17035476D01*
X10833571Y-17025952D01*
X10824048Y-17006905D01*
X10824048Y-16930714D01*
X10833571Y-16911667D01*
X10852619Y-16902143D01*
X10890714Y-16902143D01*
X10909762Y-16911667D01*
X10919286Y-16930714D01*
X10919286Y-16949762D01*
X10824048Y-16968810D01*
X10995476Y-17025952D02*
X11014524Y-17035476D01*
X11052619Y-17035476D01*
X11071667Y-17025952D01*
X11081190Y-17006905D01*
X11081190Y-16997381D01*
X11071667Y-16978333D01*
X11052619Y-16968810D01*
X11024048Y-16968810D01*
X11005000Y-16959286D01*
X10995476Y-16940238D01*
X10995476Y-16930714D01*
X11005000Y-16911667D01*
X11024048Y-16902143D01*
X11052619Y-16902143D01*
X11071667Y-16911667D01*
X11147857Y-17111667D02*
X11157381Y-17102143D01*
X11176429Y-17073571D01*
X11185952Y-17054524D01*
X11195476Y-17025952D01*
X11205000Y-16978333D01*
X11205000Y-16940238D01*
X11195476Y-16892619D01*
X11185952Y-16864048D01*
X11176429Y-16845000D01*
X11157381Y-16816429D01*
X11147857Y-16806905D01*
D12*
X5995000Y-17209000D02*
G75*
G03*
X5995000Y-17209000I-55000J0D01*
G01*
D11*
X6357381Y-17299476D02*
X6243095Y-17299476D01*
X6300238Y-17299476D02*
X6300238Y-17099476D01*
X6281190Y-17128048D01*
X6262143Y-17147095D01*
X6243095Y-17156619D01*
X6443095Y-17280429D02*
X6452619Y-17289952D01*
X6443095Y-17299476D01*
X6433571Y-17289952D01*
X6443095Y-17280429D01*
X6443095Y-17299476D01*
X6643095Y-17299476D02*
X6528809Y-17299476D01*
X6585952Y-17299476D02*
X6585952Y-17099476D01*
X6566905Y-17128048D01*
X6547857Y-17147095D01*
X6528809Y-17156619D01*
X6766905Y-17099476D02*
X6785952Y-17099476D01*
X6805000Y-17109000D01*
X6814524Y-17118524D01*
X6824048Y-17137571D01*
X6833571Y-17175667D01*
X6833571Y-17223286D01*
X6824048Y-17261381D01*
X6814524Y-17280429D01*
X6805000Y-17289952D01*
X6785952Y-17299476D01*
X6766905Y-17299476D01*
X6747857Y-17289952D01*
X6738333Y-17280429D01*
X6728809Y-17261381D01*
X6719286Y-17223286D01*
X6719286Y-17175667D01*
X6728809Y-17137571D01*
X6738333Y-17118524D01*
X6747857Y-17109000D01*
X6766905Y-17099476D01*
X6957381Y-17099476D02*
X6976428Y-17099476D01*
X6995476Y-17109000D01*
X7005000Y-17118524D01*
X7014524Y-17137571D01*
X7024048Y-17175667D01*
X7024048Y-17223286D01*
X7014524Y-17261381D01*
X7005000Y-17280429D01*
X6995476Y-17289952D01*
X6976428Y-17299476D01*
X6957381Y-17299476D01*
X6938333Y-17289952D01*
X6928809Y-17280429D01*
X6919286Y-17261381D01*
X6909762Y-17223286D01*
X6909762Y-17175667D01*
X6919286Y-17137571D01*
X6928809Y-17118524D01*
X6938333Y-17109000D01*
X6957381Y-17099476D01*
X7109762Y-17299476D02*
X7109762Y-17166143D01*
X7109762Y-17185190D02*
X7119286Y-17175667D01*
X7138333Y-17166143D01*
X7166905Y-17166143D01*
X7185952Y-17175667D01*
X7195476Y-17194714D01*
X7195476Y-17299476D01*
X7195476Y-17194714D02*
X7205000Y-17175667D01*
X7224048Y-17166143D01*
X7252619Y-17166143D01*
X7271667Y-17175667D01*
X7281190Y-17194714D01*
X7281190Y-17299476D01*
X7376428Y-17299476D02*
X7376428Y-17166143D01*
X7376428Y-17185190D02*
X7385952Y-17175667D01*
X7405000Y-17166143D01*
X7433571Y-17166143D01*
X7452619Y-17175667D01*
X7462143Y-17194714D01*
X7462143Y-17299476D01*
X7462143Y-17194714D02*
X7471667Y-17175667D01*
X7490714Y-17166143D01*
X7519286Y-17166143D01*
X7538333Y-17175667D01*
X7547857Y-17194714D01*
X7547857Y-17299476D01*
X7938333Y-17089952D02*
X7766905Y-17347095D01*
X8195476Y-17099476D02*
X8214524Y-17099476D01*
X8233571Y-17109000D01*
X8243095Y-17118524D01*
X8252619Y-17137571D01*
X8262143Y-17175667D01*
X8262143Y-17223286D01*
X8252619Y-17261381D01*
X8243095Y-17280429D01*
X8233571Y-17289952D01*
X8214524Y-17299476D01*
X8195476Y-17299476D01*
X8176428Y-17289952D01*
X8166905Y-17280429D01*
X8157381Y-17261381D01*
X8147857Y-17223286D01*
X8147857Y-17175667D01*
X8157381Y-17137571D01*
X8166905Y-17118524D01*
X8176428Y-17109000D01*
X8195476Y-17099476D01*
X8347857Y-17280429D02*
X8357381Y-17289952D01*
X8347857Y-17299476D01*
X8338333Y-17289952D01*
X8347857Y-17280429D01*
X8347857Y-17299476D01*
X8481190Y-17099476D02*
X8500238Y-17099476D01*
X8519286Y-17109000D01*
X8528810Y-17118524D01*
X8538333Y-17137571D01*
X8547857Y-17175667D01*
X8547857Y-17223286D01*
X8538333Y-17261381D01*
X8528810Y-17280429D01*
X8519286Y-17289952D01*
X8500238Y-17299476D01*
X8481190Y-17299476D01*
X8462143Y-17289952D01*
X8452619Y-17280429D01*
X8443095Y-17261381D01*
X8433571Y-17223286D01*
X8433571Y-17175667D01*
X8443095Y-17137571D01*
X8452619Y-17118524D01*
X8462143Y-17109000D01*
X8481190Y-17099476D01*
X8719286Y-17166143D02*
X8719286Y-17299476D01*
X8671667Y-17089952D02*
X8624048Y-17232810D01*
X8747857Y-17232810D01*
X8805000Y-17099476D02*
X8928810Y-17099476D01*
X8862143Y-17175667D01*
X8890714Y-17175667D01*
X8909762Y-17185190D01*
X8919286Y-17194714D01*
X8928810Y-17213762D01*
X8928810Y-17261381D01*
X8919286Y-17280429D01*
X8909762Y-17289952D01*
X8890714Y-17299476D01*
X8833571Y-17299476D01*
X8814524Y-17289952D01*
X8805000Y-17280429D01*
X8995476Y-17099476D02*
X9119286Y-17099476D01*
X9052619Y-17175667D01*
X9081190Y-17175667D01*
X9100238Y-17185190D01*
X9109762Y-17194714D01*
X9119286Y-17213762D01*
X9119286Y-17261381D01*
X9109762Y-17280429D01*
X9100238Y-17289952D01*
X9081190Y-17299476D01*
X9024048Y-17299476D01*
X9005000Y-17289952D01*
X8995476Y-17280429D01*
X9195476Y-17099476D02*
X9195476Y-17137571D01*
X9271667Y-17099476D02*
X9271667Y-17137571D01*
X9566905Y-17375667D02*
X9557381Y-17366143D01*
X9538333Y-17337571D01*
X9528810Y-17318524D01*
X9519286Y-17289952D01*
X9509762Y-17242333D01*
X9509762Y-17204238D01*
X9519286Y-17156619D01*
X9528810Y-17128048D01*
X9538333Y-17109000D01*
X9557381Y-17080429D01*
X9566905Y-17070905D01*
X9624048Y-17099476D02*
X9757381Y-17099476D01*
X9671667Y-17299476D01*
X9824048Y-17118524D02*
X9833571Y-17109000D01*
X9852619Y-17099476D01*
X9900238Y-17099476D01*
X9919286Y-17109000D01*
X9928810Y-17118524D01*
X9938333Y-17137571D01*
X9938333Y-17156619D01*
X9928810Y-17185190D01*
X9814524Y-17299476D01*
X9938333Y-17299476D01*
X10176429Y-17299476D02*
X10176429Y-17099476D01*
X10262143Y-17299476D02*
X10262143Y-17194714D01*
X10252619Y-17175667D01*
X10233571Y-17166143D01*
X10205000Y-17166143D01*
X10185952Y-17175667D01*
X10176429Y-17185190D01*
X10385952Y-17299476D02*
X10366905Y-17289952D01*
X10357381Y-17280429D01*
X10347857Y-17261381D01*
X10347857Y-17204238D01*
X10357381Y-17185190D01*
X10366905Y-17175667D01*
X10385952Y-17166143D01*
X10414524Y-17166143D01*
X10433571Y-17175667D01*
X10443095Y-17185190D01*
X10452619Y-17204238D01*
X10452619Y-17261381D01*
X10443095Y-17280429D01*
X10433571Y-17289952D01*
X10414524Y-17299476D01*
X10385952Y-17299476D01*
X10566905Y-17299476D02*
X10547857Y-17289952D01*
X10538333Y-17270905D01*
X10538333Y-17099476D01*
X10719286Y-17289952D02*
X10700238Y-17299476D01*
X10662143Y-17299476D01*
X10643095Y-17289952D01*
X10633571Y-17270905D01*
X10633571Y-17194714D01*
X10643095Y-17175667D01*
X10662143Y-17166143D01*
X10700238Y-17166143D01*
X10719286Y-17175667D01*
X10728810Y-17194714D01*
X10728810Y-17213762D01*
X10633571Y-17232810D01*
X10805000Y-17289952D02*
X10824048Y-17299476D01*
X10862143Y-17299476D01*
X10881190Y-17289952D01*
X10890714Y-17270905D01*
X10890714Y-17261381D01*
X10881190Y-17242333D01*
X10862143Y-17232810D01*
X10833571Y-17232810D01*
X10814524Y-17223286D01*
X10805000Y-17204238D01*
X10805000Y-17194714D01*
X10814524Y-17175667D01*
X10833571Y-17166143D01*
X10862143Y-17166143D01*
X10881190Y-17175667D01*
X10957381Y-17375667D02*
X10966905Y-17366143D01*
X10985952Y-17337571D01*
X10995476Y-17318524D01*
X11005000Y-17289952D01*
X11014524Y-17242333D01*
X11014524Y-17204238D01*
X11005000Y-17156619D01*
X10995476Y-17128048D01*
X10985952Y-17109000D01*
X10966905Y-17080429D01*
X10957381Y-17070905D01*
D13*
X5931000Y-17409000D02*
X5931000Y-17537000D01*
X5867000Y-17473000D02*
X5995000Y-17473000D01*
D11*
X6357381Y-17563476D02*
X6243095Y-17563476D01*
X6300238Y-17563476D02*
X6300238Y-17363476D01*
X6281190Y-17392048D01*
X6262143Y-17411095D01*
X6243095Y-17420619D01*
X6443095Y-17544429D02*
X6452619Y-17553952D01*
X6443095Y-17563476D01*
X6433571Y-17553952D01*
X6443095Y-17544429D01*
X6443095Y-17563476D01*
X6528809Y-17382524D02*
X6538333Y-17373000D01*
X6557381Y-17363476D01*
X6605000Y-17363476D01*
X6624048Y-17373000D01*
X6633571Y-17382524D01*
X6643095Y-17401571D01*
X6643095Y-17420619D01*
X6633571Y-17449190D01*
X6519286Y-17563476D01*
X6643095Y-17563476D01*
X6757381Y-17449190D02*
X6738333Y-17439667D01*
X6728809Y-17430143D01*
X6719286Y-17411095D01*
X6719286Y-17401571D01*
X6728809Y-17382524D01*
X6738333Y-17373000D01*
X6757381Y-17363476D01*
X6795476Y-17363476D01*
X6814524Y-17373000D01*
X6824048Y-17382524D01*
X6833571Y-17401571D01*
X6833571Y-17411095D01*
X6824048Y-17430143D01*
X6814524Y-17439667D01*
X6795476Y-17449190D01*
X6757381Y-17449190D01*
X6738333Y-17458714D01*
X6728809Y-17468238D01*
X6719286Y-17487286D01*
X6719286Y-17525381D01*
X6728809Y-17544429D01*
X6738333Y-17553952D01*
X6757381Y-17563476D01*
X6795476Y-17563476D01*
X6814524Y-17553952D01*
X6824048Y-17544429D01*
X6833571Y-17525381D01*
X6833571Y-17487286D01*
X6824048Y-17468238D01*
X6814524Y-17458714D01*
X6795476Y-17449190D01*
X6957381Y-17363476D02*
X6976428Y-17363476D01*
X6995476Y-17373000D01*
X7005000Y-17382524D01*
X7014524Y-17401571D01*
X7024048Y-17439667D01*
X7024048Y-17487286D01*
X7014524Y-17525381D01*
X7005000Y-17544429D01*
X6995476Y-17553952D01*
X6976428Y-17563476D01*
X6957381Y-17563476D01*
X6938333Y-17553952D01*
X6928809Y-17544429D01*
X6919286Y-17525381D01*
X6909762Y-17487286D01*
X6909762Y-17439667D01*
X6919286Y-17401571D01*
X6928809Y-17382524D01*
X6938333Y-17373000D01*
X6957381Y-17363476D01*
X7109762Y-17563476D02*
X7109762Y-17430143D01*
X7109762Y-17449190D02*
X7119286Y-17439667D01*
X7138333Y-17430143D01*
X7166905Y-17430143D01*
X7185952Y-17439667D01*
X7195476Y-17458714D01*
X7195476Y-17563476D01*
X7195476Y-17458714D02*
X7205000Y-17439667D01*
X7224048Y-17430143D01*
X7252619Y-17430143D01*
X7271667Y-17439667D01*
X7281190Y-17458714D01*
X7281190Y-17563476D01*
X7376428Y-17563476D02*
X7376428Y-17430143D01*
X7376428Y-17449190D02*
X7385952Y-17439667D01*
X7405000Y-17430143D01*
X7433571Y-17430143D01*
X7452619Y-17439667D01*
X7462143Y-17458714D01*
X7462143Y-17563476D01*
X7462143Y-17458714D02*
X7471667Y-17439667D01*
X7490714Y-17430143D01*
X7519286Y-17430143D01*
X7538333Y-17439667D01*
X7547857Y-17458714D01*
X7547857Y-17563476D01*
X7938333Y-17353952D02*
X7766905Y-17611095D01*
X8195476Y-17363476D02*
X8214524Y-17363476D01*
X8233571Y-17373000D01*
X8243095Y-17382524D01*
X8252619Y-17401571D01*
X8262143Y-17439667D01*
X8262143Y-17487286D01*
X8252619Y-17525381D01*
X8243095Y-17544429D01*
X8233571Y-17553952D01*
X8214524Y-17563476D01*
X8195476Y-17563476D01*
X8176428Y-17553952D01*
X8166905Y-17544429D01*
X8157381Y-17525381D01*
X8147857Y-17487286D01*
X8147857Y-17439667D01*
X8157381Y-17401571D01*
X8166905Y-17382524D01*
X8176428Y-17373000D01*
X8195476Y-17363476D01*
X8347857Y-17544429D02*
X8357381Y-17553952D01*
X8347857Y-17563476D01*
X8338333Y-17553952D01*
X8347857Y-17544429D01*
X8347857Y-17563476D01*
X8481190Y-17363476D02*
X8500238Y-17363476D01*
X8519286Y-17373000D01*
X8528810Y-17382524D01*
X8538333Y-17401571D01*
X8547857Y-17439667D01*
X8547857Y-17487286D01*
X8538333Y-17525381D01*
X8528810Y-17544429D01*
X8519286Y-17553952D01*
X8500238Y-17563476D01*
X8481190Y-17563476D01*
X8462143Y-17553952D01*
X8452619Y-17544429D01*
X8443095Y-17525381D01*
X8433571Y-17487286D01*
X8433571Y-17439667D01*
X8443095Y-17401571D01*
X8452619Y-17382524D01*
X8462143Y-17373000D01*
X8481190Y-17363476D01*
X8728810Y-17363476D02*
X8633571Y-17363476D01*
X8624048Y-17458714D01*
X8633571Y-17449190D01*
X8652619Y-17439667D01*
X8700238Y-17439667D01*
X8719286Y-17449190D01*
X8728810Y-17458714D01*
X8738333Y-17477762D01*
X8738333Y-17525381D01*
X8728810Y-17544429D01*
X8719286Y-17553952D01*
X8700238Y-17563476D01*
X8652619Y-17563476D01*
X8633571Y-17553952D01*
X8624048Y-17544429D01*
X8862143Y-17363476D02*
X8881190Y-17363476D01*
X8900238Y-17373000D01*
X8909762Y-17382524D01*
X8919286Y-17401571D01*
X8928810Y-17439667D01*
X8928810Y-17487286D01*
X8919286Y-17525381D01*
X8909762Y-17544429D01*
X8900238Y-17553952D01*
X8881190Y-17563476D01*
X8862143Y-17563476D01*
X8843095Y-17553952D01*
X8833571Y-17544429D01*
X8824048Y-17525381D01*
X8814524Y-17487286D01*
X8814524Y-17439667D01*
X8824048Y-17401571D01*
X8833571Y-17382524D01*
X8843095Y-17373000D01*
X8862143Y-17363476D01*
X9100238Y-17430143D02*
X9100238Y-17563476D01*
X9052619Y-17353952D02*
X9005000Y-17496810D01*
X9128810Y-17496810D01*
X9195476Y-17363476D02*
X9195476Y-17401571D01*
X9271667Y-17363476D02*
X9271667Y-17401571D01*
X9566905Y-17639667D02*
X9557381Y-17630143D01*
X9538333Y-17601571D01*
X9528810Y-17582524D01*
X9519286Y-17553952D01*
X9509762Y-17506333D01*
X9509762Y-17468238D01*
X9519286Y-17420619D01*
X9528810Y-17392048D01*
X9538333Y-17373000D01*
X9557381Y-17344429D01*
X9566905Y-17334905D01*
X9747857Y-17563476D02*
X9633571Y-17563476D01*
X9690714Y-17563476D02*
X9690714Y-17363476D01*
X9671667Y-17392048D01*
X9652619Y-17411095D01*
X9633571Y-17420619D01*
X9862143Y-17449190D02*
X9843095Y-17439667D01*
X9833571Y-17430143D01*
X9824048Y-17411095D01*
X9824048Y-17401571D01*
X9833571Y-17382524D01*
X9843095Y-17373000D01*
X9862143Y-17363476D01*
X9900238Y-17363476D01*
X9919286Y-17373000D01*
X9928810Y-17382524D01*
X9938333Y-17401571D01*
X9938333Y-17411095D01*
X9928810Y-17430143D01*
X9919286Y-17439667D01*
X9900238Y-17449190D01*
X9862143Y-17449190D01*
X9843095Y-17458714D01*
X9833571Y-17468238D01*
X9824048Y-17487286D01*
X9824048Y-17525381D01*
X9833571Y-17544429D01*
X9843095Y-17553952D01*
X9862143Y-17563476D01*
X9900238Y-17563476D01*
X9919286Y-17553952D01*
X9928810Y-17544429D01*
X9938333Y-17525381D01*
X9938333Y-17487286D01*
X9928810Y-17468238D01*
X9919286Y-17458714D01*
X9900238Y-17449190D01*
X10176429Y-17563476D02*
X10176429Y-17363476D01*
X10262143Y-17563476D02*
X10262143Y-17458714D01*
X10252619Y-17439667D01*
X10233571Y-17430143D01*
X10205000Y-17430143D01*
X10185952Y-17439667D01*
X10176429Y-17449190D01*
X10385952Y-17563476D02*
X10366905Y-17553952D01*
X10357381Y-17544429D01*
X10347857Y-17525381D01*
X10347857Y-17468238D01*
X10357381Y-17449190D01*
X10366905Y-17439667D01*
X10385952Y-17430143D01*
X10414524Y-17430143D01*
X10433571Y-17439667D01*
X10443095Y-17449190D01*
X10452619Y-17468238D01*
X10452619Y-17525381D01*
X10443095Y-17544429D01*
X10433571Y-17553952D01*
X10414524Y-17563476D01*
X10385952Y-17563476D01*
X10566905Y-17563476D02*
X10547857Y-17553952D01*
X10538333Y-17534905D01*
X10538333Y-17363476D01*
X10719286Y-17553952D02*
X10700238Y-17563476D01*
X10662143Y-17563476D01*
X10643095Y-17553952D01*
X10633571Y-17534905D01*
X10633571Y-17458714D01*
X10643095Y-17439667D01*
X10662143Y-17430143D01*
X10700238Y-17430143D01*
X10719286Y-17439667D01*
X10728810Y-17458714D01*
X10728810Y-17477762D01*
X10633571Y-17496810D01*
X10805000Y-17553952D02*
X10824048Y-17563476D01*
X10862143Y-17563476D01*
X10881190Y-17553952D01*
X10890714Y-17534905D01*
X10890714Y-17525381D01*
X10881190Y-17506333D01*
X10862143Y-17496810D01*
X10833571Y-17496810D01*
X10814524Y-17487286D01*
X10805000Y-17468238D01*
X10805000Y-17458714D01*
X10814524Y-17439667D01*
X10833571Y-17430143D01*
X10862143Y-17430143D01*
X10881190Y-17439667D01*
X10957381Y-17639667D02*
X10966905Y-17630143D01*
X10985952Y-17601571D01*
X10995476Y-17582524D01*
X11005000Y-17553952D01*
X11014524Y-17506333D01*
X11014524Y-17468238D01*
X11005000Y-17420619D01*
X10995476Y-17392048D01*
X10985952Y-17373000D01*
X10966905Y-17344429D01*
X10957381Y-17334905D01*
D14*
X5975084Y-17785084D02*
X5975084Y-17688916D01*
X5878916Y-17688916D01*
X5878916Y-17785084D01*
X5975084Y-17785084D01*
D11*
X6357381Y-17827476D02*
X6243095Y-17827476D01*
X6300238Y-17827476D02*
X6300238Y-17627476D01*
X6281190Y-17656048D01*
X6262143Y-17675095D01*
X6243095Y-17684619D01*
X6443095Y-17808429D02*
X6452619Y-17817952D01*
X6443095Y-17827476D01*
X6433571Y-17817952D01*
X6443095Y-17808429D01*
X6443095Y-17827476D01*
X6519286Y-17627476D02*
X6643095Y-17627476D01*
X6576428Y-17703667D01*
X6605000Y-17703667D01*
X6624048Y-17713190D01*
X6633571Y-17722714D01*
X6643095Y-17741762D01*
X6643095Y-17789381D01*
X6633571Y-17808429D01*
X6624048Y-17817952D01*
X6605000Y-17827476D01*
X6547857Y-17827476D01*
X6528809Y-17817952D01*
X6519286Y-17808429D01*
X6814524Y-17627476D02*
X6776428Y-17627476D01*
X6757381Y-17637000D01*
X6747857Y-17646524D01*
X6728809Y-17675095D01*
X6719286Y-17713190D01*
X6719286Y-17789381D01*
X6728809Y-17808429D01*
X6738333Y-17817952D01*
X6757381Y-17827476D01*
X6795476Y-17827476D01*
X6814524Y-17817952D01*
X6824048Y-17808429D01*
X6833571Y-17789381D01*
X6833571Y-17741762D01*
X6824048Y-17722714D01*
X6814524Y-17713190D01*
X6795476Y-17703667D01*
X6757381Y-17703667D01*
X6738333Y-17713190D01*
X6728809Y-17722714D01*
X6719286Y-17741762D01*
X6957381Y-17627476D02*
X6976428Y-17627476D01*
X6995476Y-17637000D01*
X7005000Y-17646524D01*
X7014524Y-17665571D01*
X7024048Y-17703667D01*
X7024048Y-17751286D01*
X7014524Y-17789381D01*
X7005000Y-17808429D01*
X6995476Y-17817952D01*
X6976428Y-17827476D01*
X6957381Y-17827476D01*
X6938333Y-17817952D01*
X6928809Y-17808429D01*
X6919286Y-17789381D01*
X6909762Y-17751286D01*
X6909762Y-17703667D01*
X6919286Y-17665571D01*
X6928809Y-17646524D01*
X6938333Y-17637000D01*
X6957381Y-17627476D01*
X7109762Y-17827476D02*
X7109762Y-17694143D01*
X7109762Y-17713190D02*
X7119286Y-17703667D01*
X7138333Y-17694143D01*
X7166905Y-17694143D01*
X7185952Y-17703667D01*
X7195476Y-17722714D01*
X7195476Y-17827476D01*
X7195476Y-17722714D02*
X7205000Y-17703667D01*
X7224048Y-17694143D01*
X7252619Y-17694143D01*
X7271667Y-17703667D01*
X7281190Y-17722714D01*
X7281190Y-17827476D01*
X7376428Y-17827476D02*
X7376428Y-17694143D01*
X7376428Y-17713190D02*
X7385952Y-17703667D01*
X7405000Y-17694143D01*
X7433571Y-17694143D01*
X7452619Y-17703667D01*
X7462143Y-17722714D01*
X7462143Y-17827476D01*
X7462143Y-17722714D02*
X7471667Y-17703667D01*
X7490714Y-17694143D01*
X7519286Y-17694143D01*
X7538333Y-17703667D01*
X7547857Y-17722714D01*
X7547857Y-17827476D01*
X7938333Y-17617952D02*
X7766905Y-17875095D01*
X8195476Y-17627476D02*
X8214524Y-17627476D01*
X8233571Y-17637000D01*
X8243095Y-17646524D01*
X8252619Y-17665571D01*
X8262143Y-17703667D01*
X8262143Y-17751286D01*
X8252619Y-17789381D01*
X8243095Y-17808429D01*
X8233571Y-17817952D01*
X8214524Y-17827476D01*
X8195476Y-17827476D01*
X8176428Y-17817952D01*
X8166905Y-17808429D01*
X8157381Y-17789381D01*
X8147857Y-17751286D01*
X8147857Y-17703667D01*
X8157381Y-17665571D01*
X8166905Y-17646524D01*
X8176428Y-17637000D01*
X8195476Y-17627476D01*
X8347857Y-17808429D02*
X8357381Y-17817952D01*
X8347857Y-17827476D01*
X8338333Y-17817952D01*
X8347857Y-17808429D01*
X8347857Y-17827476D01*
X8481190Y-17627476D02*
X8500238Y-17627476D01*
X8519286Y-17637000D01*
X8528810Y-17646524D01*
X8538333Y-17665571D01*
X8547857Y-17703667D01*
X8547857Y-17751286D01*
X8538333Y-17789381D01*
X8528810Y-17808429D01*
X8519286Y-17817952D01*
X8500238Y-17827476D01*
X8481190Y-17827476D01*
X8462143Y-17817952D01*
X8452619Y-17808429D01*
X8443095Y-17789381D01*
X8433571Y-17751286D01*
X8433571Y-17703667D01*
X8443095Y-17665571D01*
X8452619Y-17646524D01*
X8462143Y-17637000D01*
X8481190Y-17627476D01*
X8728810Y-17627476D02*
X8633571Y-17627476D01*
X8624048Y-17722714D01*
X8633571Y-17713190D01*
X8652619Y-17703667D01*
X8700238Y-17703667D01*
X8719286Y-17713190D01*
X8728810Y-17722714D01*
X8738333Y-17741762D01*
X8738333Y-17789381D01*
X8728810Y-17808429D01*
X8719286Y-17817952D01*
X8700238Y-17827476D01*
X8652619Y-17827476D01*
X8633571Y-17817952D01*
X8624048Y-17808429D01*
X8805000Y-17627476D02*
X8928810Y-17627476D01*
X8862143Y-17703667D01*
X8890714Y-17703667D01*
X8909762Y-17713190D01*
X8919286Y-17722714D01*
X8928810Y-17741762D01*
X8928810Y-17789381D01*
X8919286Y-17808429D01*
X8909762Y-17817952D01*
X8890714Y-17827476D01*
X8833571Y-17827476D01*
X8814524Y-17817952D01*
X8805000Y-17808429D01*
X9109762Y-17627476D02*
X9014524Y-17627476D01*
X9005000Y-17722714D01*
X9014524Y-17713190D01*
X9033571Y-17703667D01*
X9081190Y-17703667D01*
X9100238Y-17713190D01*
X9109762Y-17722714D01*
X9119286Y-17741762D01*
X9119286Y-17789381D01*
X9109762Y-17808429D01*
X9100238Y-17817952D01*
X9081190Y-17827476D01*
X9033571Y-17827476D01*
X9014524Y-17817952D01*
X9005000Y-17808429D01*
X9195476Y-17627476D02*
X9195476Y-17665571D01*
X9271667Y-17627476D02*
X9271667Y-17665571D01*
X9566905Y-17903667D02*
X9557381Y-17894143D01*
X9538333Y-17865571D01*
X9528810Y-17846524D01*
X9519286Y-17817952D01*
X9509762Y-17770333D01*
X9509762Y-17732238D01*
X9519286Y-17684619D01*
X9528810Y-17656048D01*
X9538333Y-17637000D01*
X9557381Y-17608429D01*
X9566905Y-17598905D01*
X9747857Y-17827476D02*
X9633571Y-17827476D01*
X9690714Y-17827476D02*
X9690714Y-17627476D01*
X9671667Y-17656048D01*
X9652619Y-17675095D01*
X9633571Y-17684619D01*
X9928810Y-17627476D02*
X9833571Y-17627476D01*
X9824048Y-17722714D01*
X9833571Y-17713190D01*
X9852619Y-17703667D01*
X9900238Y-17703667D01*
X9919286Y-17713190D01*
X9928810Y-17722714D01*
X9938333Y-17741762D01*
X9938333Y-17789381D01*
X9928810Y-17808429D01*
X9919286Y-17817952D01*
X9900238Y-17827476D01*
X9852619Y-17827476D01*
X9833571Y-17817952D01*
X9824048Y-17808429D01*
X10176429Y-17827476D02*
X10176429Y-17627476D01*
X10262143Y-17827476D02*
X10262143Y-17722714D01*
X10252619Y-17703667D01*
X10233571Y-17694143D01*
X10205000Y-17694143D01*
X10185952Y-17703667D01*
X10176429Y-17713190D01*
X10385952Y-17827476D02*
X10366905Y-17817952D01*
X10357381Y-17808429D01*
X10347857Y-17789381D01*
X10347857Y-17732238D01*
X10357381Y-17713190D01*
X10366905Y-17703667D01*
X10385952Y-17694143D01*
X10414524Y-17694143D01*
X10433571Y-17703667D01*
X10443095Y-17713190D01*
X10452619Y-17732238D01*
X10452619Y-17789381D01*
X10443095Y-17808429D01*
X10433571Y-17817952D01*
X10414524Y-17827476D01*
X10385952Y-17827476D01*
X10566905Y-17827476D02*
X10547857Y-17817952D01*
X10538333Y-17798905D01*
X10538333Y-17627476D01*
X10719286Y-17817952D02*
X10700238Y-17827476D01*
X10662143Y-17827476D01*
X10643095Y-17817952D01*
X10633571Y-17798905D01*
X10633571Y-17722714D01*
X10643095Y-17703667D01*
X10662143Y-17694143D01*
X10700238Y-17694143D01*
X10719286Y-17703667D01*
X10728810Y-17722714D01*
X10728810Y-17741762D01*
X10633571Y-17760810D01*
X10805000Y-17817952D02*
X10824048Y-17827476D01*
X10862143Y-17827476D01*
X10881190Y-17817952D01*
X10890714Y-17798905D01*
X10890714Y-17789381D01*
X10881190Y-17770333D01*
X10862143Y-17760810D01*
X10833571Y-17760810D01*
X10814524Y-17751286D01*
X10805000Y-17732238D01*
X10805000Y-17722714D01*
X10814524Y-17703667D01*
X10833571Y-17694143D01*
X10862143Y-17694143D01*
X10881190Y-17703667D01*
X10957381Y-17903667D02*
X10966905Y-17894143D01*
X10985952Y-17865571D01*
X10995476Y-17846524D01*
X11005000Y-17817952D01*
X11014524Y-17770333D01*
X11014524Y-17732238D01*
X11005000Y-17684619D01*
X10995476Y-17656048D01*
X10985952Y-17637000D01*
X10966905Y-17608429D01*
X10957381Y-17598905D01*
M02*
