%TF.GenerationSoftware,KiCad,Pcbnew,(6.0.9)*%
%TF.CreationDate,2023-02-05T01:33:25+02:00*%
%TF.ProjectId,Power for cam,506f7765-7220-4666-9f72-2063616d2e6b,rev?*%
%TF.SameCoordinates,Original*%
%TF.FileFunction,Soldermask,Bot*%
%TF.FilePolarity,Negative*%
%FSLAX46Y46*%
G04 Gerber Fmt 4.6, Leading zero omitted, Abs format (unit mm)*
G04 Created by KiCad (PCBNEW (6.0.9)) date 2023-02-05 01:33:25*
%MOMM*%
%LPD*%
G01*
G04 APERTURE LIST*
%ADD10C,1.600000*%
%ADD11R,4.000000X2.000000*%
%ADD12O,3.300000X2.000000*%
%ADD13O,2.000000X3.500000*%
%ADD14R,2.000000X4.000000*%
%ADD15O,2.000000X3.300000*%
%ADD16O,3.500000X2.000000*%
%ADD17C,6.000000*%
%ADD18R,6.000000X6.000000*%
%ADD19C,3.200000*%
G04 APERTURE END LIST*
D10*
%TO.C,J9*%
X133457200Y-66637000D03*
D11*
X133457200Y-75637000D03*
D12*
X133457200Y-69637000D03*
D13*
X128957200Y-68637000D03*
X137957200Y-68637000D03*
%TD*%
D10*
%TO.C,J5*%
X170495800Y-66637000D03*
D11*
X170495800Y-75637000D03*
D12*
X170495800Y-69637000D03*
D13*
X165995800Y-68637000D03*
X174995800Y-68637000D03*
%TD*%
D10*
%TO.C,J5*%
X172995800Y-83756800D03*
D14*
X163995800Y-83756800D03*
D15*
X169995800Y-83756800D03*
D16*
X170995800Y-79256800D03*
X170995800Y-88256800D03*
%TD*%
D17*
%TO.C,J1*%
X148336000Y-83845400D03*
D18*
X155536000Y-83845400D03*
%TD*%
D10*
%TO.C,J8*%
X145700000Y-101200000D03*
D11*
X145700000Y-92200000D03*
D12*
X145700000Y-98200000D03*
D13*
X141200000Y-99200000D03*
X150200000Y-99200000D03*
%TD*%
D10*
%TO.C,J6*%
X170484800Y-101252800D03*
D11*
X170484800Y-92252800D03*
D12*
X170484800Y-98252800D03*
D13*
X165984800Y-99252800D03*
X174984800Y-99252800D03*
%TD*%
D10*
%TO.C,J2*%
X145592800Y-66680200D03*
D11*
X145592800Y-75680200D03*
D12*
X145592800Y-69680200D03*
D13*
X141092800Y-68680200D03*
X150092800Y-68680200D03*
%TD*%
D10*
%TO.C,J10*%
X130967600Y-83845400D03*
D14*
X139967600Y-83845400D03*
D15*
X133967600Y-83845400D03*
D16*
X132967600Y-79345400D03*
X132967600Y-88345400D03*
%TD*%
D10*
%TO.C,J7*%
X158140400Y-66680200D03*
D11*
X158140400Y-75680200D03*
D12*
X158140400Y-69680200D03*
D13*
X153640400Y-68680200D03*
X162640400Y-68680200D03*
%TD*%
D10*
%TO.C,J4*%
X158222200Y-101262600D03*
D11*
X158222200Y-92262600D03*
D12*
X158222200Y-98262600D03*
D13*
X162722200Y-99262600D03*
X153722200Y-99262600D03*
%TD*%
D19*
%TO.C,REF\u002A\u002A*%
X124000000Y-106000000D03*
%TD*%
%TO.C,REF\u002A\u002A*%
X180000000Y-106000000D03*
%TD*%
D10*
%TO.C,J3*%
X133530000Y-101190000D03*
D11*
X133530000Y-92190000D03*
D12*
X133530000Y-98190000D03*
D13*
X138030000Y-99190000D03*
X129030000Y-99190000D03*
%TD*%
D19*
%TO.C,REF\u002A\u002A*%
X124000000Y-63000000D03*
%TD*%
%TO.C,REF\u002A\u002A*%
X180000000Y-63000000D03*
%TD*%
M02*
