M48
; DRILL file {KiCad (6.0.9)} date Sun Feb  5 01:33:23 2023
; FORMAT={-:-/ absolute / inch / decimal}
; #@! TF.CreationDate,2023-02-05T01:33:23+02:00
; #@! TF.GenerationSoftware,Kicad,Pcbnew,(6.0.9)
; #@! TF.FileFunction,Plated,1,2,PTH
FMAT,2
INCH
; #@! TA.AperFunction,Plated,PTH,ComponentDrill
T1C0.0394
; #@! TA.AperFunction,Plated,PTH,ComponentDrill
T2C0.1791
%
G90
G05
T2
X5.84Y-3.301
X6.1235Y-3.301
T1
G00X5.0771Y-2.7318
M15
G01X5.0771Y-2.6727
M16
G05
G00X5.0799Y-3.8756
M15
G01X5.0799Y-3.9346
M16
G05
G00X5.2645Y-3.1238
M15
G01X5.2054Y-3.1238
M16
G05
G00X5.2645Y-3.4782
M15
G01X5.2054Y-3.4782
M16
G05
G00X5.2798Y-2.7416
M15
G01X5.2286Y-2.7416
M16
G05
G00X5.2936Y-2.9778
M15
G01X5.2149Y-2.9778
M16
G05
G00X5.2177Y-3.6295
M15
G01X5.2965Y-3.6295
M16
G05
G00X5.2315Y-3.8657
M15
G01X5.2827Y-3.8657
M16
G05
G00X5.2743Y-3.2754
M15
G01X5.2743Y-3.3266
M16
G05
G00X5.4314Y-2.7318
M15
G01X5.4314Y-2.6727
M16
G05
G00X5.4343Y-3.8756
M15
G01X5.4343Y-3.9346
M16
G05
G00X5.5105Y-3.2616
M15
G01X5.5105Y-3.3404
M16
G05
G00X5.5548Y-2.7335
M15
G01X5.5548Y-2.6744
M16
G05
G00X5.5591Y-3.876
M15
G01X5.5591Y-3.935
M16
G05
G00X5.7576Y-2.7433
M15
G01X5.7064Y-2.7433
M16
G05
G00X5.7714Y-2.9795
M15
G01X5.6926Y-2.9795
M16
G05
G00X5.6969Y-3.6299
M15
G01X5.7756Y-3.6299
M16
G05
G00X5.7106Y-3.8661
M15
G01X5.7618Y-3.8661
M16
G05
G00X5.9092Y-2.7335
M15
G01X5.9092Y-2.6744
M16
G05
G00X5.9134Y-3.876
M15
G01X5.9134Y-3.935
M16
G05
G00X6.0488Y-2.7335
M15
G01X6.0488Y-2.6744
M16
G05
G00X6.0521Y-3.8784
M15
G01X6.0521Y-3.9375
M16
G05
G00X6.2516Y-2.7433
M15
G01X6.2004Y-2.7433
M16
G05
G00X6.2654Y-2.9795
M15
G01X6.1866Y-2.9795
M16
G05
G00X6.1899Y-3.6324
M15
G01X6.2686Y-3.6324
M16
G05
G00X6.2036Y-3.8686
M15
G01X6.2548Y-3.8686
M16
G05
G00X6.4032Y-2.7335
M15
G01X6.4032Y-2.6744
M16
G05
G00X6.4064Y-3.8784
M15
G01X6.4064Y-3.9375
M16
G05
G00X6.4565Y-3.3369
M15
G01X6.4565Y-3.2581
M16
G05
G00X6.5348Y-3.8781
M15
G01X6.5348Y-3.9371
M16
G05
G00X6.5353Y-2.7318
M15
G01X6.5353Y-2.6727
M16
G05
G00X6.6927Y-3.3231
M15
G01X6.6927Y-3.2719
M16
G05
G00X6.6726Y-3.632
M15
G01X6.7514Y-3.632
M16
G05
G00X6.6864Y-3.8682
M15
G01X6.7376Y-3.8682
M16
G05
G00X6.738Y-2.7416
M15
G01X6.6868Y-2.7416
M16
G05
G00X6.7518Y-2.9778
M15
G01X6.6731Y-2.9778
M16
G05
G00X6.7026Y-3.1203
M15
G01X6.7616Y-3.1203
M16
G05
G00X6.7026Y-3.4747
M15
G01X6.7616Y-3.4747
M16
G05
G00X6.8892Y-3.8781
M15
G01X6.8892Y-3.9371
M16
G05
G00X6.8896Y-2.7318
M15
G01X6.8896Y-2.6727
M16
G05
T0
M30
