%TF.GenerationSoftware,KiCad,Pcbnew,(6.0.9)*%
%TF.CreationDate,2023-02-05T01:33:25+02:00*%
%TF.ProjectId,Power for cam,506f7765-7220-4666-9f72-2063616d2e6b,rev?*%
%TF.SameCoordinates,Original*%
%TF.FileFunction,Copper,L2,Bot*%
%TF.FilePolarity,Positive*%
%FSLAX46Y46*%
G04 Gerber Fmt 4.6, Leading zero omitted, Abs format (unit mm)*
G04 Created by KiCad (PCBNEW (6.0.9)) date 2023-02-05 01:33:25*
%MOMM*%
%LPD*%
G01*
G04 APERTURE LIST*
%TA.AperFunction,ComponentPad*%
%ADD10R,4.000000X2.000000*%
%TD*%
%TA.AperFunction,ComponentPad*%
%ADD11O,3.300000X2.000000*%
%TD*%
%TA.AperFunction,ComponentPad*%
%ADD12O,2.000000X3.500000*%
%TD*%
%TA.AperFunction,ComponentPad*%
%ADD13R,2.000000X4.000000*%
%TD*%
%TA.AperFunction,ComponentPad*%
%ADD14O,2.000000X3.300000*%
%TD*%
%TA.AperFunction,ComponentPad*%
%ADD15O,3.500000X2.000000*%
%TD*%
%TA.AperFunction,ComponentPad*%
%ADD16C,6.000000*%
%TD*%
%TA.AperFunction,ComponentPad*%
%ADD17R,6.000000X6.000000*%
%TD*%
G04 APERTURE END LIST*
D10*
%TO.P,J9,1*%
%TO.N,/+*%
X133457200Y-75637000D03*
D11*
%TO.P,J9,2*%
%TO.N,/-*%
X133457200Y-69637000D03*
D12*
%TO.P,J9,MP*%
%TO.N,N/C*%
X128957200Y-68637000D03*
X137957200Y-68637000D03*
%TD*%
D10*
%TO.P,J5,1*%
%TO.N,/+*%
X170495800Y-75637000D03*
D11*
%TO.P,J5,2*%
%TO.N,/-*%
X170495800Y-69637000D03*
D12*
%TO.P,J5,MP*%
%TO.N,N/C*%
X165995800Y-68637000D03*
X174995800Y-68637000D03*
%TD*%
D13*
%TO.P,J5,1*%
%TO.N,/+*%
X163995800Y-83756800D03*
D14*
%TO.P,J5,2*%
%TO.N,/-*%
X169995800Y-83756800D03*
D15*
%TO.P,J5,MP*%
%TO.N,N/C*%
X170995800Y-79256800D03*
X170995800Y-88256800D03*
%TD*%
D16*
%TO.P,J1,N,NEG*%
%TO.N,/-*%
X148336000Y-83845400D03*
D17*
%TO.P,J1,P,POS*%
%TO.N,/+*%
X155536000Y-83845400D03*
%TD*%
D10*
%TO.P,J8,1*%
%TO.N,/+*%
X145700000Y-92200000D03*
D11*
%TO.P,J8,2*%
%TO.N,/-*%
X145700000Y-98200000D03*
D12*
%TO.P,J8,MP*%
%TO.N,N/C*%
X141200000Y-99200000D03*
X150200000Y-99200000D03*
%TD*%
D10*
%TO.P,J6,1*%
%TO.N,/+*%
X170484800Y-92252800D03*
D11*
%TO.P,J6,2*%
%TO.N,/-*%
X170484800Y-98252800D03*
D12*
%TO.P,J6,MP*%
%TO.N,N/C*%
X165984800Y-99252800D03*
X174984800Y-99252800D03*
%TD*%
D10*
%TO.P,J2,1*%
%TO.N,/+*%
X145592800Y-75680200D03*
D11*
%TO.P,J2,2*%
%TO.N,/-*%
X145592800Y-69680200D03*
D12*
%TO.P,J2,MP*%
%TO.N,N/C*%
X141092800Y-68680200D03*
X150092800Y-68680200D03*
%TD*%
D13*
%TO.P,J10,1*%
%TO.N,/+*%
X139967600Y-83845400D03*
D14*
%TO.P,J10,2*%
%TO.N,/-*%
X133967600Y-83845400D03*
D15*
%TO.P,J10,MP*%
%TO.N,N/C*%
X132967600Y-79345400D03*
X132967600Y-88345400D03*
%TD*%
D10*
%TO.P,J7,1*%
%TO.N,/+*%
X158140400Y-75680200D03*
D11*
%TO.P,J7,2*%
%TO.N,/-*%
X158140400Y-69680200D03*
D12*
%TO.P,J7,MP*%
%TO.N,N/C*%
X153640400Y-68680200D03*
X162640400Y-68680200D03*
%TD*%
D10*
%TO.P,J4,1*%
%TO.N,/+*%
X158222200Y-92262600D03*
D11*
%TO.P,J4,2*%
%TO.N,/-*%
X158222200Y-98262600D03*
D12*
%TO.P,J4,MP*%
%TO.N,N/C*%
X162722200Y-99262600D03*
X153722200Y-99262600D03*
%TD*%
D10*
%TO.P,J3,1*%
%TO.N,/+*%
X133530000Y-92190000D03*
D11*
%TO.P,J3,2*%
%TO.N,/-*%
X133530000Y-98190000D03*
D12*
%TO.P,J3,MP*%
%TO.N,N/C*%
X138030000Y-99190000D03*
X129030000Y-99190000D03*
%TD*%
%TA.AperFunction,Conductor*%
%TO.N,/-*%
G36*
X176432121Y-63160002D02*
G01*
X176478614Y-63213658D01*
X176490000Y-63266000D01*
X176490000Y-66992286D01*
X176469998Y-67060407D01*
X176416342Y-67106900D01*
X176346068Y-67117004D01*
X176281488Y-67087510D01*
X176257380Y-67059429D01*
X176210328Y-66984712D01*
X176210326Y-66984709D01*
X176207633Y-66980433D01*
X176139197Y-66902807D01*
X176050450Y-66802142D01*
X176050447Y-66802139D01*
X176047102Y-66798345D01*
X176043193Y-66795134D01*
X175863428Y-66647474D01*
X175863425Y-66647472D01*
X175859522Y-66644266D01*
X175649722Y-66522159D01*
X175515525Y-66470646D01*
X175427822Y-66436980D01*
X175427818Y-66436979D01*
X175423098Y-66435167D01*
X175418148Y-66434133D01*
X175418145Y-66434132D01*
X175190431Y-66386560D01*
X175190427Y-66386560D01*
X175185480Y-66385526D01*
X174942983Y-66374514D01*
X174937963Y-66375095D01*
X174937959Y-66375095D01*
X174706871Y-66401833D01*
X174706867Y-66401834D01*
X174701844Y-66402415D01*
X174696980Y-66403791D01*
X174696977Y-66403792D01*
X174608862Y-66428726D01*
X174468268Y-66468510D01*
X174463692Y-66470644D01*
X174463686Y-66470646D01*
X174252846Y-66568962D01*
X174252842Y-66568964D01*
X174248264Y-66571099D01*
X174047493Y-66707544D01*
X173871119Y-66874332D01*
X173868041Y-66878358D01*
X173868040Y-66878359D01*
X173726753Y-67063154D01*
X173726750Y-67063158D01*
X173723680Y-67067174D01*
X173608969Y-67281109D01*
X173529938Y-67510631D01*
X173512778Y-67609978D01*
X173500252Y-67682501D01*
X173488621Y-67749836D01*
X173487300Y-67778925D01*
X173487300Y-69448001D01*
X173487502Y-69450509D01*
X173487502Y-69450514D01*
X173496904Y-69567364D01*
X173501860Y-69628965D01*
X173503066Y-69633873D01*
X173503066Y-69633876D01*
X173512471Y-69672165D01*
X173559763Y-69864706D01*
X173561738Y-69869358D01*
X173561739Y-69869362D01*
X173612143Y-69988106D01*
X173654612Y-70088156D01*
X173702781Y-70164646D01*
X173767940Y-70268116D01*
X173783967Y-70293567D01*
X173787312Y-70297361D01*
X173941150Y-70471858D01*
X173941153Y-70471861D01*
X173944498Y-70475655D01*
X173948406Y-70478865D01*
X173948407Y-70478866D01*
X174055042Y-70566456D01*
X174132078Y-70629734D01*
X174136446Y-70632276D01*
X174332016Y-70746101D01*
X174341878Y-70751841D01*
X174346601Y-70753654D01*
X174563778Y-70837020D01*
X174563782Y-70837021D01*
X174568502Y-70838833D01*
X174573452Y-70839867D01*
X174573455Y-70839868D01*
X174801169Y-70887440D01*
X174801173Y-70887440D01*
X174806120Y-70888474D01*
X175048617Y-70899486D01*
X175053637Y-70898905D01*
X175053641Y-70898905D01*
X175284729Y-70872167D01*
X175284733Y-70872166D01*
X175289756Y-70871585D01*
X175294620Y-70870209D01*
X175294623Y-70870208D01*
X175518469Y-70806866D01*
X175518468Y-70806866D01*
X175523332Y-70805490D01*
X175527908Y-70803356D01*
X175527914Y-70803354D01*
X175738754Y-70705038D01*
X175738758Y-70705036D01*
X175743336Y-70702901D01*
X175944107Y-70566456D01*
X176120481Y-70399668D01*
X176165672Y-70340561D01*
X176263904Y-70212079D01*
X176321169Y-70170111D01*
X176392032Y-70165766D01*
X176453996Y-70200422D01*
X176487386Y-70263077D01*
X176490000Y-70288608D01*
X176490000Y-97625554D01*
X176469998Y-97693675D01*
X176416342Y-97740168D01*
X176346068Y-97750272D01*
X176281488Y-97720778D01*
X176257380Y-97692697D01*
X176199328Y-97600512D01*
X176199326Y-97600509D01*
X176196633Y-97596233D01*
X176108665Y-97496452D01*
X176039450Y-97417942D01*
X176039447Y-97417939D01*
X176036102Y-97414145D01*
X176032193Y-97410934D01*
X175852428Y-97263274D01*
X175852425Y-97263272D01*
X175848522Y-97260066D01*
X175638722Y-97137959D01*
X175530055Y-97096246D01*
X175416822Y-97052780D01*
X175416818Y-97052779D01*
X175412098Y-97050967D01*
X175407148Y-97049933D01*
X175407145Y-97049932D01*
X175179431Y-97002360D01*
X175179427Y-97002360D01*
X175174480Y-97001326D01*
X174931983Y-96990314D01*
X174926963Y-96990895D01*
X174926959Y-96990895D01*
X174695871Y-97017633D01*
X174695867Y-97017634D01*
X174690844Y-97018215D01*
X174685980Y-97019591D01*
X174685977Y-97019592D01*
X174578758Y-97049932D01*
X174457268Y-97084310D01*
X174452692Y-97086444D01*
X174452686Y-97086446D01*
X174241846Y-97184762D01*
X174241842Y-97184764D01*
X174237264Y-97186899D01*
X174233083Y-97189740D01*
X174233082Y-97189741D01*
X174207295Y-97207266D01*
X174036493Y-97323344D01*
X173860119Y-97490132D01*
X173857041Y-97494158D01*
X173857040Y-97494159D01*
X173715753Y-97678954D01*
X173715750Y-97678958D01*
X173712680Y-97682974D01*
X173710290Y-97687432D01*
X173710289Y-97687433D01*
X173707425Y-97692774D01*
X173597969Y-97896909D01*
X173518938Y-98126431D01*
X173516383Y-98141223D01*
X173481717Y-98341925D01*
X173477621Y-98365636D01*
X173477441Y-98369597D01*
X173477441Y-98369598D01*
X173476446Y-98391518D01*
X173476300Y-98394725D01*
X173476300Y-100063801D01*
X173476502Y-100066309D01*
X173476502Y-100066314D01*
X173486760Y-100193802D01*
X173490860Y-100244765D01*
X173492066Y-100249673D01*
X173492066Y-100249676D01*
X173527456Y-100393758D01*
X173548763Y-100480506D01*
X173550738Y-100485158D01*
X173550739Y-100485162D01*
X173595895Y-100591543D01*
X173643612Y-100703956D01*
X173676428Y-100756067D01*
X173759712Y-100888318D01*
X173772967Y-100909367D01*
X173781607Y-100919167D01*
X173930150Y-101087658D01*
X173930153Y-101087661D01*
X173933498Y-101091455D01*
X173937406Y-101094665D01*
X173937407Y-101094666D01*
X174065644Y-101200000D01*
X174121078Y-101245534D01*
X174330878Y-101367641D01*
X174335601Y-101369454D01*
X174552778Y-101452820D01*
X174552782Y-101452821D01*
X174557502Y-101454633D01*
X174562452Y-101455667D01*
X174562455Y-101455668D01*
X174790169Y-101503240D01*
X174790173Y-101503240D01*
X174795120Y-101504274D01*
X175037617Y-101515286D01*
X175042637Y-101514705D01*
X175042641Y-101514705D01*
X175273729Y-101487967D01*
X175273733Y-101487966D01*
X175278756Y-101487385D01*
X175283620Y-101486009D01*
X175283623Y-101486008D01*
X175498631Y-101425167D01*
X175512332Y-101421290D01*
X175516908Y-101419156D01*
X175516914Y-101419154D01*
X175727754Y-101320838D01*
X175727758Y-101320836D01*
X175732336Y-101318701D01*
X175750063Y-101306654D01*
X175821598Y-101258038D01*
X175933107Y-101182256D01*
X176109481Y-101015468D01*
X176138592Y-100977393D01*
X176253847Y-100826646D01*
X176253850Y-100826642D01*
X176256920Y-100822626D01*
X176258472Y-100819732D01*
X176311803Y-100773638D01*
X176382090Y-100763623D01*
X176446633Y-100793199D01*
X176484941Y-100852973D01*
X176490000Y-100888318D01*
X176490000Y-104614000D01*
X176469998Y-104682121D01*
X176416342Y-104728614D01*
X176364000Y-104740000D01*
X127656000Y-104740000D01*
X127587879Y-104719998D01*
X127541386Y-104666342D01*
X127530000Y-104614000D01*
X127530000Y-100825503D01*
X127550002Y-100757382D01*
X127603658Y-100710889D01*
X127673932Y-100700785D01*
X127738512Y-100730279D01*
X127762620Y-100758361D01*
X127815468Y-100842283D01*
X127815472Y-100842288D01*
X127818167Y-100846567D01*
X127821512Y-100850361D01*
X127975350Y-101024858D01*
X127975353Y-101024861D01*
X127978698Y-101028655D01*
X127982606Y-101031865D01*
X127982607Y-101031866D01*
X128161462Y-101178778D01*
X128166278Y-101182734D01*
X128188169Y-101195475D01*
X128309173Y-101265901D01*
X128376078Y-101304841D01*
X128380801Y-101306654D01*
X128597978Y-101390020D01*
X128597982Y-101390021D01*
X128602702Y-101391833D01*
X128607652Y-101392867D01*
X128607655Y-101392868D01*
X128835369Y-101440440D01*
X128835373Y-101440440D01*
X128840320Y-101441474D01*
X129082817Y-101452486D01*
X129087837Y-101451905D01*
X129087841Y-101451905D01*
X129318929Y-101425167D01*
X129318933Y-101425166D01*
X129323956Y-101424585D01*
X129328820Y-101423209D01*
X129328823Y-101423208D01*
X129490560Y-101377441D01*
X129557532Y-101358490D01*
X129562108Y-101356356D01*
X129562114Y-101356354D01*
X129772954Y-101258038D01*
X129772958Y-101258036D01*
X129777536Y-101255901D01*
X129792791Y-101245534D01*
X129871480Y-101192056D01*
X129874505Y-101190000D01*
X132216502Y-101190000D01*
X132236457Y-101418087D01*
X132237881Y-101423400D01*
X132237881Y-101423402D01*
X132265128Y-101525086D01*
X132295716Y-101639243D01*
X132298039Y-101644224D01*
X132298039Y-101644225D01*
X132390151Y-101841762D01*
X132390154Y-101841767D01*
X132392477Y-101846749D01*
X132523802Y-102034300D01*
X132685700Y-102196198D01*
X132690208Y-102199355D01*
X132690211Y-102199357D01*
X132699981Y-102206198D01*
X132873251Y-102327523D01*
X132878233Y-102329846D01*
X132878238Y-102329849D01*
X133028943Y-102400123D01*
X133080757Y-102424284D01*
X133086065Y-102425706D01*
X133086067Y-102425707D01*
X133296598Y-102482119D01*
X133296600Y-102482119D01*
X133301913Y-102483543D01*
X133399938Y-102492119D01*
X133470149Y-102498262D01*
X133470156Y-102498262D01*
X133472873Y-102498500D01*
X133587127Y-102498500D01*
X133589844Y-102498262D01*
X133589851Y-102498262D01*
X133660062Y-102492119D01*
X133758087Y-102483543D01*
X133763400Y-102482119D01*
X133763402Y-102482119D01*
X133973933Y-102425707D01*
X133973935Y-102425706D01*
X133979243Y-102424284D01*
X134031057Y-102400123D01*
X134181762Y-102329849D01*
X134181767Y-102329846D01*
X134186749Y-102327523D01*
X134360019Y-102206198D01*
X134369789Y-102199357D01*
X134369792Y-102199355D01*
X134374300Y-102196198D01*
X134536198Y-102034300D01*
X134667523Y-101846749D01*
X134669846Y-101841767D01*
X134669849Y-101841762D01*
X134761961Y-101644225D01*
X134761961Y-101644224D01*
X134764284Y-101639243D01*
X134794873Y-101525086D01*
X134822119Y-101423402D01*
X134822119Y-101423400D01*
X134823543Y-101418087D01*
X134843498Y-101190000D01*
X134823543Y-100961913D01*
X134796332Y-100860361D01*
X134765707Y-100746067D01*
X134765706Y-100746065D01*
X134764284Y-100740757D01*
X134751693Y-100713756D01*
X134669849Y-100538238D01*
X134669846Y-100538233D01*
X134667523Y-100533251D01*
X134586617Y-100417706D01*
X134539357Y-100350211D01*
X134539355Y-100350208D01*
X134536198Y-100345700D01*
X134374300Y-100183802D01*
X134369792Y-100180645D01*
X134369789Y-100180643D01*
X134276436Y-100115277D01*
X134186749Y-100052477D01*
X134181767Y-100050154D01*
X134181762Y-100050151D01*
X134076358Y-100001001D01*
X136521500Y-100001001D01*
X136521702Y-100003509D01*
X136521702Y-100003514D01*
X136533784Y-100153674D01*
X136536060Y-100181965D01*
X136537266Y-100186873D01*
X136537266Y-100186876D01*
X136570813Y-100323455D01*
X136593963Y-100417706D01*
X136595938Y-100422358D01*
X136595939Y-100422362D01*
X136600184Y-100432362D01*
X136688812Y-100641156D01*
X136734531Y-100713756D01*
X136787945Y-100798575D01*
X136818167Y-100846567D01*
X136821512Y-100850361D01*
X136975350Y-101024858D01*
X136975353Y-101024861D01*
X136978698Y-101028655D01*
X136982606Y-101031865D01*
X136982607Y-101031866D01*
X137161462Y-101178778D01*
X137166278Y-101182734D01*
X137188169Y-101195475D01*
X137309173Y-101265901D01*
X137376078Y-101304841D01*
X137380801Y-101306654D01*
X137597978Y-101390020D01*
X137597982Y-101390021D01*
X137602702Y-101391833D01*
X137607652Y-101392867D01*
X137607655Y-101392868D01*
X137835369Y-101440440D01*
X137835373Y-101440440D01*
X137840320Y-101441474D01*
X138082817Y-101452486D01*
X138087837Y-101451905D01*
X138087841Y-101451905D01*
X138318929Y-101425167D01*
X138318933Y-101425166D01*
X138323956Y-101424585D01*
X138328820Y-101423209D01*
X138328823Y-101423208D01*
X138490560Y-101377441D01*
X138557532Y-101358490D01*
X138562108Y-101356356D01*
X138562114Y-101356354D01*
X138772954Y-101258038D01*
X138772958Y-101258036D01*
X138777536Y-101255901D01*
X138792791Y-101245534D01*
X138871480Y-101192056D01*
X138978307Y-101119456D01*
X139154681Y-100952668D01*
X139177394Y-100922961D01*
X139299047Y-100763846D01*
X139299050Y-100763842D01*
X139302120Y-100759826D01*
X139324526Y-100718040D01*
X139414439Y-100550352D01*
X139416831Y-100545891D01*
X139495862Y-100316369D01*
X139497143Y-100316810D01*
X139530273Y-100261162D01*
X139593808Y-100229478D01*
X139664386Y-100237172D01*
X139719600Y-100281803D01*
X139738356Y-100323454D01*
X139743821Y-100345700D01*
X139762755Y-100422790D01*
X139762756Y-100422792D01*
X139763963Y-100427706D01*
X139765938Y-100432358D01*
X139765939Y-100432362D01*
X139806851Y-100528743D01*
X139858812Y-100651156D01*
X139861510Y-100655440D01*
X139981870Y-100846567D01*
X139988167Y-100856567D01*
X139991512Y-100860361D01*
X140145350Y-101034858D01*
X140145353Y-101034861D01*
X140148698Y-101038655D01*
X140152606Y-101041865D01*
X140152607Y-101041866D01*
X140326987Y-101185102D01*
X140336278Y-101192734D01*
X140358169Y-101205475D01*
X140524529Y-101302299D01*
X140546078Y-101314841D01*
X140550801Y-101316654D01*
X140767978Y-101400020D01*
X140767982Y-101400021D01*
X140772702Y-101401833D01*
X140777652Y-101402867D01*
X140777655Y-101402868D01*
X141005369Y-101450440D01*
X141005373Y-101450440D01*
X141010320Y-101451474D01*
X141252817Y-101462486D01*
X141257837Y-101461905D01*
X141257841Y-101461905D01*
X141488929Y-101435167D01*
X141488933Y-101435166D01*
X141493956Y-101434585D01*
X141498820Y-101433209D01*
X141498823Y-101433208D01*
X141660266Y-101387524D01*
X141727532Y-101368490D01*
X141732108Y-101366356D01*
X141732114Y-101366354D01*
X141942954Y-101268038D01*
X141942958Y-101268036D01*
X141947536Y-101265901D01*
X141960450Y-101257125D01*
X142036449Y-101205475D01*
X142044505Y-101200000D01*
X144386502Y-101200000D01*
X144406457Y-101428087D01*
X144407881Y-101433400D01*
X144407881Y-101433402D01*
X144461614Y-101633933D01*
X144465716Y-101649243D01*
X144468039Y-101654224D01*
X144468039Y-101654225D01*
X144560151Y-101851762D01*
X144560154Y-101851767D01*
X144562477Y-101856749D01*
X144565634Y-101861257D01*
X144689529Y-102038197D01*
X144693802Y-102044300D01*
X144855700Y-102206198D01*
X144860208Y-102209355D01*
X144860211Y-102209357D01*
X144938389Y-102264098D01*
X145043251Y-102337523D01*
X145048233Y-102339846D01*
X145048238Y-102339849D01*
X145232363Y-102425707D01*
X145250757Y-102434284D01*
X145256065Y-102435706D01*
X145256067Y-102435707D01*
X145466598Y-102492119D01*
X145466600Y-102492119D01*
X145471913Y-102493543D01*
X145571480Y-102502254D01*
X145640149Y-102508262D01*
X145640156Y-102508262D01*
X145642873Y-102508500D01*
X145757127Y-102508500D01*
X145759844Y-102508262D01*
X145759851Y-102508262D01*
X145828520Y-102502254D01*
X145928087Y-102493543D01*
X145933400Y-102492119D01*
X145933402Y-102492119D01*
X146143933Y-102435707D01*
X146143935Y-102435706D01*
X146149243Y-102434284D01*
X146167637Y-102425707D01*
X146351762Y-102339849D01*
X146351767Y-102339846D01*
X146356749Y-102337523D01*
X146461611Y-102264098D01*
X146539789Y-102209357D01*
X146539792Y-102209355D01*
X146544300Y-102206198D01*
X146706198Y-102044300D01*
X146710472Y-102038197D01*
X146834366Y-101861257D01*
X146837523Y-101856749D01*
X146839846Y-101851767D01*
X146839849Y-101851762D01*
X146931961Y-101654225D01*
X146931961Y-101654224D01*
X146934284Y-101649243D01*
X146938387Y-101633933D01*
X146992119Y-101433402D01*
X146992119Y-101433400D01*
X146993543Y-101428087D01*
X147013498Y-101200000D01*
X146993543Y-100971913D01*
X146991066Y-100962668D01*
X146935707Y-100756067D01*
X146935706Y-100756065D01*
X146934284Y-100750757D01*
X146917030Y-100713756D01*
X146839849Y-100548238D01*
X146839846Y-100548233D01*
X146837523Y-100543251D01*
X146753190Y-100422811D01*
X146709357Y-100360211D01*
X146709355Y-100360208D01*
X146706198Y-100355700D01*
X146544300Y-100193802D01*
X146539792Y-100190645D01*
X146539789Y-100190643D01*
X146437845Y-100119261D01*
X146356749Y-100062477D01*
X146351767Y-100060154D01*
X146351762Y-100060151D01*
X146246358Y-100011001D01*
X148691500Y-100011001D01*
X148691702Y-100013509D01*
X148691702Y-100013514D01*
X148705651Y-100186876D01*
X148706060Y-100191965D01*
X148707266Y-100196873D01*
X148707266Y-100196876D01*
X148761507Y-100417706D01*
X148763963Y-100427706D01*
X148765938Y-100432358D01*
X148765939Y-100432362D01*
X148806851Y-100528743D01*
X148858812Y-100651156D01*
X148861510Y-100655440D01*
X148981870Y-100846567D01*
X148988167Y-100856567D01*
X148991512Y-100860361D01*
X149145350Y-101034858D01*
X149145353Y-101034861D01*
X149148698Y-101038655D01*
X149152606Y-101041865D01*
X149152607Y-101041866D01*
X149326987Y-101185102D01*
X149336278Y-101192734D01*
X149358169Y-101205475D01*
X149524529Y-101302299D01*
X149546078Y-101314841D01*
X149550801Y-101316654D01*
X149767978Y-101400020D01*
X149767982Y-101400021D01*
X149772702Y-101401833D01*
X149777652Y-101402867D01*
X149777655Y-101402868D01*
X150005369Y-101450440D01*
X150005373Y-101450440D01*
X150010320Y-101451474D01*
X150252817Y-101462486D01*
X150257837Y-101461905D01*
X150257841Y-101461905D01*
X150488929Y-101435167D01*
X150488933Y-101435166D01*
X150493956Y-101434585D01*
X150498820Y-101433209D01*
X150498823Y-101433208D01*
X150660266Y-101387524D01*
X150727532Y-101368490D01*
X150732108Y-101366356D01*
X150732114Y-101366354D01*
X150942954Y-101268038D01*
X150942958Y-101268036D01*
X150947536Y-101265901D01*
X150960450Y-101257125D01*
X151036449Y-101205475D01*
X151148307Y-101129456D01*
X151324681Y-100962668D01*
X151332327Y-100952668D01*
X151469047Y-100773846D01*
X151469050Y-100773842D01*
X151472120Y-100769826D01*
X151475327Y-100763846D01*
X151584439Y-100560352D01*
X151586831Y-100555891D01*
X151665862Y-100326369D01*
X151689077Y-100191965D01*
X151706504Y-100091074D01*
X151706505Y-100091068D01*
X151707179Y-100087164D01*
X151707795Y-100073601D01*
X152213700Y-100073601D01*
X152213902Y-100076109D01*
X152213902Y-100076114D01*
X152227472Y-100244765D01*
X152228260Y-100254565D01*
X152229466Y-100259473D01*
X152229466Y-100259476D01*
X152269580Y-100422790D01*
X152286163Y-100490306D01*
X152288138Y-100494958D01*
X152288139Y-100494962D01*
X152337326Y-100610838D01*
X152381012Y-100713756D01*
X152410024Y-100759826D01*
X152506585Y-100913161D01*
X152510367Y-100919167D01*
X152513712Y-100922961D01*
X152667550Y-101097458D01*
X152667553Y-101097461D01*
X152670898Y-101101255D01*
X152674806Y-101104465D01*
X152674807Y-101104466D01*
X152849642Y-101248076D01*
X152858478Y-101255334D01*
X152871751Y-101263059D01*
X153052899Y-101368490D01*
X153068278Y-101377441D01*
X153073001Y-101379254D01*
X153290178Y-101462620D01*
X153290182Y-101462621D01*
X153294902Y-101464433D01*
X153299852Y-101465467D01*
X153299855Y-101465468D01*
X153527569Y-101513040D01*
X153527573Y-101513040D01*
X153532520Y-101514074D01*
X153775017Y-101525086D01*
X153780037Y-101524505D01*
X153780041Y-101524505D01*
X154011129Y-101497767D01*
X154011133Y-101497766D01*
X154016156Y-101497185D01*
X154021020Y-101495809D01*
X154021023Y-101495808D01*
X154212226Y-101441703D01*
X154249732Y-101431090D01*
X154254308Y-101428956D01*
X154254314Y-101428954D01*
X154465154Y-101330638D01*
X154465158Y-101330636D01*
X154469736Y-101328501D01*
X154566706Y-101262600D01*
X156908702Y-101262600D01*
X156928657Y-101490687D01*
X156930081Y-101496000D01*
X156930081Y-101496002D01*
X156937813Y-101524856D01*
X156987916Y-101711843D01*
X156990239Y-101716824D01*
X156990239Y-101716825D01*
X157082351Y-101914362D01*
X157082354Y-101914367D01*
X157084677Y-101919349D01*
X157087834Y-101923857D01*
X157211869Y-102100997D01*
X157216002Y-102106900D01*
X157377900Y-102268798D01*
X157382408Y-102271955D01*
X157382411Y-102271957D01*
X157457259Y-102324366D01*
X157565451Y-102400123D01*
X157570433Y-102402446D01*
X157570438Y-102402449D01*
X157754992Y-102488507D01*
X157772957Y-102496884D01*
X157778265Y-102498306D01*
X157778267Y-102498307D01*
X157988798Y-102554719D01*
X157988800Y-102554719D01*
X157994113Y-102556143D01*
X158093680Y-102564854D01*
X158162349Y-102570862D01*
X158162356Y-102570862D01*
X158165073Y-102571100D01*
X158279327Y-102571100D01*
X158282044Y-102570862D01*
X158282051Y-102570862D01*
X158350720Y-102564854D01*
X158450287Y-102556143D01*
X158455600Y-102554719D01*
X158455602Y-102554719D01*
X158666133Y-102498307D01*
X158666135Y-102498306D01*
X158671443Y-102496884D01*
X158689408Y-102488507D01*
X158873962Y-102402449D01*
X158873967Y-102402446D01*
X158878949Y-102400123D01*
X158987141Y-102324366D01*
X159061989Y-102271957D01*
X159061992Y-102271955D01*
X159066500Y-102268798D01*
X159228398Y-102106900D01*
X159232532Y-102100997D01*
X159356566Y-101923857D01*
X159359723Y-101919349D01*
X159362046Y-101914367D01*
X159362049Y-101914362D01*
X159454161Y-101716825D01*
X159454161Y-101716824D01*
X159456484Y-101711843D01*
X159506588Y-101524856D01*
X159514319Y-101496002D01*
X159514319Y-101496000D01*
X159515743Y-101490687D01*
X159535698Y-101262600D01*
X159515743Y-101034513D01*
X159514199Y-101028748D01*
X159457907Y-100818667D01*
X159457906Y-100818665D01*
X159456484Y-100813357D01*
X159437963Y-100773638D01*
X159362049Y-100610838D01*
X159362046Y-100610833D01*
X159359723Y-100605851D01*
X159278817Y-100490306D01*
X159231557Y-100422811D01*
X159231555Y-100422808D01*
X159228398Y-100418300D01*
X159066500Y-100256402D01*
X159061992Y-100253245D01*
X159061989Y-100253243D01*
X158952994Y-100176924D01*
X158878949Y-100125077D01*
X158873967Y-100122754D01*
X158873962Y-100122751D01*
X158768558Y-100073601D01*
X161213700Y-100073601D01*
X161213902Y-100076109D01*
X161213902Y-100076114D01*
X161227472Y-100244765D01*
X161228260Y-100254565D01*
X161229466Y-100259473D01*
X161229466Y-100259476D01*
X161269580Y-100422790D01*
X161286163Y-100490306D01*
X161288138Y-100494958D01*
X161288139Y-100494962D01*
X161337326Y-100610838D01*
X161381012Y-100713756D01*
X161410024Y-100759826D01*
X161506585Y-100913161D01*
X161510367Y-100919167D01*
X161513712Y-100922961D01*
X161667550Y-101097458D01*
X161667553Y-101097461D01*
X161670898Y-101101255D01*
X161674806Y-101104465D01*
X161674807Y-101104466D01*
X161849642Y-101248076D01*
X161858478Y-101255334D01*
X161871751Y-101263059D01*
X162052899Y-101368490D01*
X162068278Y-101377441D01*
X162073001Y-101379254D01*
X162290178Y-101462620D01*
X162290182Y-101462621D01*
X162294902Y-101464433D01*
X162299852Y-101465467D01*
X162299855Y-101465468D01*
X162527569Y-101513040D01*
X162527573Y-101513040D01*
X162532520Y-101514074D01*
X162775017Y-101525086D01*
X162780037Y-101524505D01*
X162780041Y-101524505D01*
X163011129Y-101497767D01*
X163011133Y-101497766D01*
X163016156Y-101497185D01*
X163021020Y-101495809D01*
X163021023Y-101495808D01*
X163212226Y-101441703D01*
X163249732Y-101431090D01*
X163254308Y-101428956D01*
X163254314Y-101428954D01*
X163465154Y-101330638D01*
X163465158Y-101330636D01*
X163469736Y-101328501D01*
X163670507Y-101192056D01*
X163846881Y-101025268D01*
X163892082Y-100966148D01*
X163991247Y-100836446D01*
X163991250Y-100836442D01*
X163994320Y-100832426D01*
X164009800Y-100803557D01*
X164106639Y-100622952D01*
X164109031Y-100618491D01*
X164188062Y-100388969D01*
X164211277Y-100254565D01*
X164228704Y-100153674D01*
X164228705Y-100153668D01*
X164229379Y-100149764D01*
X164229559Y-100145802D01*
X164230108Y-100133713D01*
X164253180Y-100066570D01*
X164308890Y-100022559D01*
X164379550Y-100015655D01*
X164442726Y-100048048D01*
X164478360Y-100109454D01*
X164481572Y-100129325D01*
X164486760Y-100193802D01*
X164490860Y-100244765D01*
X164492066Y-100249673D01*
X164492066Y-100249676D01*
X164527456Y-100393758D01*
X164548763Y-100480506D01*
X164550738Y-100485158D01*
X164550739Y-100485162D01*
X164595895Y-100591543D01*
X164643612Y-100703956D01*
X164676428Y-100756067D01*
X164759712Y-100888318D01*
X164772967Y-100909367D01*
X164781607Y-100919167D01*
X164930150Y-101087658D01*
X164930153Y-101087661D01*
X164933498Y-101091455D01*
X164937406Y-101094665D01*
X164937407Y-101094666D01*
X165065644Y-101200000D01*
X165121078Y-101245534D01*
X165330878Y-101367641D01*
X165335601Y-101369454D01*
X165552778Y-101452820D01*
X165552782Y-101452821D01*
X165557502Y-101454633D01*
X165562452Y-101455667D01*
X165562455Y-101455668D01*
X165790169Y-101503240D01*
X165790173Y-101503240D01*
X165795120Y-101504274D01*
X166037617Y-101515286D01*
X166042637Y-101514705D01*
X166042641Y-101514705D01*
X166273729Y-101487967D01*
X166273733Y-101487966D01*
X166278756Y-101487385D01*
X166283620Y-101486009D01*
X166283623Y-101486008D01*
X166498631Y-101425167D01*
X166512332Y-101421290D01*
X166516908Y-101419156D01*
X166516914Y-101419154D01*
X166727754Y-101320838D01*
X166727758Y-101320836D01*
X166732336Y-101318701D01*
X166750063Y-101306654D01*
X166821598Y-101258038D01*
X166829305Y-101252800D01*
X169171302Y-101252800D01*
X169191257Y-101480887D01*
X169192681Y-101486200D01*
X169192681Y-101486202D01*
X169235024Y-101644225D01*
X169250516Y-101702043D01*
X169252839Y-101707024D01*
X169252839Y-101707025D01*
X169344951Y-101904562D01*
X169344954Y-101904567D01*
X169347277Y-101909549D01*
X169354139Y-101919349D01*
X169444360Y-102048197D01*
X169478602Y-102097100D01*
X169640500Y-102258998D01*
X169645008Y-102262155D01*
X169645011Y-102262157D01*
X169659007Y-102271957D01*
X169828051Y-102390323D01*
X169833033Y-102392646D01*
X169833038Y-102392649D01*
X170024909Y-102482119D01*
X170035557Y-102487084D01*
X170040865Y-102488506D01*
X170040867Y-102488507D01*
X170251398Y-102544919D01*
X170251400Y-102544919D01*
X170256713Y-102546343D01*
X170352452Y-102554719D01*
X170424949Y-102561062D01*
X170424956Y-102561062D01*
X170427673Y-102561300D01*
X170541927Y-102561300D01*
X170544644Y-102561062D01*
X170544651Y-102561062D01*
X170617148Y-102554719D01*
X170712887Y-102546343D01*
X170718200Y-102544919D01*
X170718202Y-102544919D01*
X170928733Y-102488507D01*
X170928735Y-102488506D01*
X170934043Y-102487084D01*
X170944691Y-102482119D01*
X171136562Y-102392649D01*
X171136567Y-102392646D01*
X171141549Y-102390323D01*
X171310593Y-102271957D01*
X171324589Y-102262157D01*
X171324592Y-102262155D01*
X171329100Y-102258998D01*
X171490998Y-102097100D01*
X171525241Y-102048197D01*
X171615461Y-101919349D01*
X171622323Y-101909549D01*
X171624646Y-101904567D01*
X171624649Y-101904562D01*
X171716761Y-101707025D01*
X171716761Y-101707024D01*
X171719084Y-101702043D01*
X171734577Y-101644225D01*
X171776919Y-101486202D01*
X171776919Y-101486200D01*
X171778343Y-101480887D01*
X171798298Y-101252800D01*
X171778343Y-101024713D01*
X171762771Y-100966598D01*
X171720507Y-100808867D01*
X171720506Y-100808865D01*
X171719084Y-100803557D01*
X171698009Y-100758361D01*
X171624649Y-100601038D01*
X171624646Y-100601033D01*
X171622323Y-100596051D01*
X171541417Y-100480506D01*
X171494157Y-100413011D01*
X171494155Y-100413008D01*
X171490998Y-100408500D01*
X171329100Y-100246602D01*
X171324592Y-100243445D01*
X171324589Y-100243443D01*
X171185143Y-100145802D01*
X171141549Y-100115277D01*
X171136567Y-100112954D01*
X171136562Y-100112951D01*
X170939025Y-100020839D01*
X170939024Y-100020839D01*
X170934043Y-100018516D01*
X170928735Y-100017094D01*
X170928733Y-100017093D01*
X170718202Y-99960681D01*
X170718200Y-99960681D01*
X170712887Y-99959257D01*
X170613320Y-99950546D01*
X170544651Y-99944538D01*
X170544644Y-99944538D01*
X170541927Y-99944300D01*
X170427673Y-99944300D01*
X170424956Y-99944538D01*
X170424949Y-99944538D01*
X170356280Y-99950546D01*
X170256713Y-99959257D01*
X170251400Y-99960681D01*
X170251398Y-99960681D01*
X170040867Y-100017093D01*
X170040865Y-100017094D01*
X170035557Y-100018516D01*
X170030576Y-100020839D01*
X170030575Y-100020839D01*
X169833038Y-100112951D01*
X169833033Y-100112954D01*
X169828051Y-100115277D01*
X169784457Y-100145802D01*
X169645011Y-100243443D01*
X169645008Y-100243445D01*
X169640500Y-100246602D01*
X169478602Y-100408500D01*
X169475445Y-100413008D01*
X169475443Y-100413011D01*
X169428183Y-100480506D01*
X169347277Y-100596051D01*
X169344954Y-100601033D01*
X169344951Y-100601038D01*
X169271591Y-100758361D01*
X169250516Y-100803557D01*
X169249094Y-100808865D01*
X169249093Y-100808867D01*
X169206829Y-100966598D01*
X169191257Y-101024713D01*
X169171302Y-101252800D01*
X166829305Y-101252800D01*
X166933107Y-101182256D01*
X167109481Y-101015468D01*
X167138592Y-100977393D01*
X167253847Y-100826646D01*
X167253850Y-100826642D01*
X167256920Y-100822626D01*
X167371631Y-100608691D01*
X167450662Y-100379169D01*
X167473877Y-100244765D01*
X167491304Y-100143874D01*
X167491305Y-100143868D01*
X167491979Y-100139964D01*
X167492855Y-100120675D01*
X167493236Y-100112294D01*
X167493236Y-100112275D01*
X167493300Y-100110875D01*
X167493300Y-98441799D01*
X167493098Y-98439286D01*
X167479146Y-98265876D01*
X167479145Y-98265871D01*
X167478740Y-98260835D01*
X167467010Y-98213076D01*
X167422044Y-98030008D01*
X167420837Y-98025094D01*
X167396449Y-97967638D01*
X167341800Y-97838894D01*
X167325988Y-97801644D01*
X167275064Y-97720778D01*
X167199328Y-97600512D01*
X167199326Y-97600509D01*
X167196633Y-97596233D01*
X167108665Y-97496452D01*
X167039450Y-97417942D01*
X167039447Y-97417939D01*
X167036102Y-97414145D01*
X167032193Y-97410934D01*
X166852428Y-97263274D01*
X166852425Y-97263272D01*
X166848522Y-97260066D01*
X166638722Y-97137959D01*
X166530055Y-97096246D01*
X166416822Y-97052780D01*
X166416818Y-97052779D01*
X166412098Y-97050967D01*
X166407148Y-97049933D01*
X166407145Y-97049932D01*
X166179431Y-97002360D01*
X166179427Y-97002360D01*
X166174480Y-97001326D01*
X165931983Y-96990314D01*
X165926963Y-96990895D01*
X165926959Y-96990895D01*
X165695871Y-97017633D01*
X165695867Y-97017634D01*
X165690844Y-97018215D01*
X165685980Y-97019591D01*
X165685977Y-97019592D01*
X165578758Y-97049932D01*
X165457268Y-97084310D01*
X165452692Y-97086444D01*
X165452686Y-97086446D01*
X165241846Y-97184762D01*
X165241842Y-97184764D01*
X165237264Y-97186899D01*
X165233083Y-97189740D01*
X165233082Y-97189741D01*
X165207295Y-97207266D01*
X165036493Y-97323344D01*
X164860119Y-97490132D01*
X164857041Y-97494158D01*
X164857040Y-97494159D01*
X164715753Y-97678954D01*
X164715750Y-97678958D01*
X164712680Y-97682974D01*
X164710290Y-97687432D01*
X164710289Y-97687433D01*
X164707425Y-97692774D01*
X164597969Y-97896909D01*
X164518938Y-98126431D01*
X164516383Y-98141223D01*
X164481717Y-98341925D01*
X164477621Y-98365636D01*
X164477441Y-98369597D01*
X164477441Y-98369598D01*
X164476892Y-98381687D01*
X164453820Y-98448830D01*
X164398110Y-98492841D01*
X164327450Y-98499745D01*
X164264274Y-98467352D01*
X164228640Y-98405946D01*
X164225428Y-98386075D01*
X164216546Y-98275676D01*
X164216545Y-98275671D01*
X164216140Y-98270635D01*
X164180721Y-98126431D01*
X164159444Y-98039808D01*
X164158237Y-98034894D01*
X164129689Y-97967638D01*
X164097772Y-97892448D01*
X164063388Y-97811444D01*
X163991465Y-97697233D01*
X163936728Y-97610312D01*
X163936726Y-97610309D01*
X163934033Y-97606033D01*
X163893833Y-97560434D01*
X163776850Y-97427742D01*
X163776847Y-97427739D01*
X163773502Y-97423945D01*
X163693382Y-97358134D01*
X163589828Y-97273074D01*
X163589825Y-97273072D01*
X163585922Y-97269866D01*
X163376122Y-97147759D01*
X163241925Y-97096246D01*
X163154222Y-97062580D01*
X163154218Y-97062579D01*
X163149498Y-97060767D01*
X163144548Y-97059733D01*
X163144545Y-97059732D01*
X162916831Y-97012160D01*
X162916827Y-97012160D01*
X162911880Y-97011126D01*
X162669383Y-97000114D01*
X162664363Y-97000695D01*
X162664359Y-97000695D01*
X162433271Y-97027433D01*
X162433267Y-97027434D01*
X162428244Y-97028015D01*
X162423380Y-97029391D01*
X162423377Y-97029392D01*
X162347133Y-97050967D01*
X162194668Y-97094110D01*
X162190092Y-97096244D01*
X162190086Y-97096246D01*
X161979246Y-97194562D01*
X161979242Y-97194564D01*
X161974664Y-97196699D01*
X161773893Y-97333144D01*
X161597519Y-97499932D01*
X161594441Y-97503958D01*
X161594440Y-97503959D01*
X161453153Y-97688754D01*
X161453150Y-97688758D01*
X161450080Y-97692774D01*
X161447690Y-97697232D01*
X161447689Y-97697233D01*
X161419250Y-97750272D01*
X161335369Y-97906709D01*
X161256338Y-98136231D01*
X161246511Y-98193124D01*
X161216714Y-98365636D01*
X161215021Y-98375436D01*
X161214841Y-98379397D01*
X161214841Y-98379398D01*
X161214081Y-98396139D01*
X161213700Y-98404525D01*
X161213700Y-100073601D01*
X158768558Y-100073601D01*
X158676425Y-100030639D01*
X158676424Y-100030639D01*
X158671443Y-100028316D01*
X158666135Y-100026894D01*
X158666133Y-100026893D01*
X158455602Y-99970481D01*
X158455600Y-99970481D01*
X158450287Y-99969057D01*
X158350720Y-99960346D01*
X158282051Y-99954338D01*
X158282044Y-99954338D01*
X158279327Y-99954100D01*
X158165073Y-99954100D01*
X158162356Y-99954338D01*
X158162349Y-99954338D01*
X158093680Y-99960346D01*
X157994113Y-99969057D01*
X157988800Y-99970481D01*
X157988798Y-99970481D01*
X157778267Y-100026893D01*
X157778265Y-100026894D01*
X157772957Y-100028316D01*
X157767976Y-100030639D01*
X157767975Y-100030639D01*
X157570438Y-100122751D01*
X157570433Y-100122754D01*
X157565451Y-100125077D01*
X157491406Y-100176924D01*
X157382411Y-100253243D01*
X157382408Y-100253245D01*
X157377900Y-100256402D01*
X157216002Y-100418300D01*
X157212845Y-100422808D01*
X157212843Y-100422811D01*
X157165583Y-100490306D01*
X157084677Y-100605851D01*
X157082354Y-100610833D01*
X157082351Y-100610838D01*
X157006437Y-100773638D01*
X156987916Y-100813357D01*
X156986494Y-100818665D01*
X156986493Y-100818667D01*
X156930202Y-101028748D01*
X156928657Y-101034513D01*
X156908702Y-101262600D01*
X154566706Y-101262600D01*
X154670507Y-101192056D01*
X154846881Y-101025268D01*
X154892082Y-100966148D01*
X154991247Y-100836446D01*
X154991250Y-100836442D01*
X154994320Y-100832426D01*
X155009800Y-100803557D01*
X155106639Y-100622952D01*
X155109031Y-100618491D01*
X155188062Y-100388969D01*
X155211277Y-100254565D01*
X155228704Y-100153674D01*
X155228705Y-100153668D01*
X155229379Y-100149764D01*
X155229559Y-100145802D01*
X155230636Y-100122094D01*
X155230636Y-100122075D01*
X155230700Y-100120675D01*
X155230700Y-98451599D01*
X155229912Y-98441799D01*
X155216546Y-98275676D01*
X155216545Y-98275671D01*
X155216140Y-98270635D01*
X155180721Y-98126431D01*
X155159444Y-98039808D01*
X155158237Y-98034894D01*
X155129689Y-97967638D01*
X155097772Y-97892448D01*
X155063388Y-97811444D01*
X154991465Y-97697233D01*
X154936728Y-97610312D01*
X154936726Y-97610309D01*
X154934033Y-97606033D01*
X154893833Y-97560434D01*
X154776850Y-97427742D01*
X154776847Y-97427739D01*
X154773502Y-97423945D01*
X154693382Y-97358134D01*
X154589828Y-97273074D01*
X154589825Y-97273072D01*
X154585922Y-97269866D01*
X154376122Y-97147759D01*
X154241925Y-97096246D01*
X154154222Y-97062580D01*
X154154218Y-97062579D01*
X154149498Y-97060767D01*
X154144548Y-97059733D01*
X154144545Y-97059732D01*
X153916831Y-97012160D01*
X153916827Y-97012160D01*
X153911880Y-97011126D01*
X153669383Y-97000114D01*
X153664363Y-97000695D01*
X153664359Y-97000695D01*
X153433271Y-97027433D01*
X153433267Y-97027434D01*
X153428244Y-97028015D01*
X153423380Y-97029391D01*
X153423377Y-97029392D01*
X153347133Y-97050967D01*
X153194668Y-97094110D01*
X153190092Y-97096244D01*
X153190086Y-97096246D01*
X152979246Y-97194562D01*
X152979242Y-97194564D01*
X152974664Y-97196699D01*
X152773893Y-97333144D01*
X152597519Y-97499932D01*
X152594441Y-97503958D01*
X152594440Y-97503959D01*
X152453153Y-97688754D01*
X152453150Y-97688758D01*
X152450080Y-97692774D01*
X152447690Y-97697232D01*
X152447689Y-97697233D01*
X152419250Y-97750272D01*
X152335369Y-97906709D01*
X152256338Y-98136231D01*
X152246511Y-98193124D01*
X152216714Y-98365636D01*
X152215021Y-98375436D01*
X152214841Y-98379397D01*
X152214841Y-98379398D01*
X152214081Y-98396139D01*
X152213700Y-98404525D01*
X152213700Y-100073601D01*
X151707795Y-100073601D01*
X151707813Y-100073202D01*
X151708436Y-100059494D01*
X151708436Y-100059475D01*
X151708500Y-100058075D01*
X151708500Y-98388999D01*
X151707728Y-98379398D01*
X151694346Y-98213076D01*
X151694345Y-98213071D01*
X151693940Y-98208035D01*
X151676304Y-98136231D01*
X151637244Y-97977208D01*
X151636037Y-97972294D01*
X151631793Y-97962294D01*
X151565942Y-97807160D01*
X151541188Y-97748844D01*
X151451255Y-97606033D01*
X151414528Y-97547712D01*
X151414526Y-97547709D01*
X151411833Y-97543433D01*
X151361774Y-97486652D01*
X151254650Y-97365142D01*
X151254647Y-97365139D01*
X151251302Y-97361345D01*
X151221204Y-97336622D01*
X151067628Y-97210474D01*
X151067625Y-97210472D01*
X151063722Y-97207266D01*
X150934337Y-97131962D01*
X150858290Y-97087701D01*
X150858288Y-97087700D01*
X150853922Y-97085159D01*
X150719725Y-97033646D01*
X150632022Y-96999980D01*
X150632018Y-96999979D01*
X150627298Y-96998167D01*
X150622348Y-96997133D01*
X150622345Y-96997132D01*
X150394631Y-96949560D01*
X150394627Y-96949560D01*
X150389680Y-96948526D01*
X150147183Y-96937514D01*
X150142163Y-96938095D01*
X150142159Y-96938095D01*
X149911071Y-96964833D01*
X149911067Y-96964834D01*
X149906044Y-96965415D01*
X149901180Y-96966791D01*
X149901177Y-96966792D01*
X149775482Y-97002360D01*
X149672468Y-97031510D01*
X149667892Y-97033644D01*
X149667886Y-97033646D01*
X149457046Y-97131962D01*
X149457042Y-97131964D01*
X149452464Y-97134099D01*
X149251693Y-97270544D01*
X149075319Y-97437332D01*
X149072241Y-97441358D01*
X149072240Y-97441359D01*
X148930953Y-97626154D01*
X148930950Y-97626158D01*
X148927880Y-97630174D01*
X148925490Y-97634632D01*
X148925489Y-97634633D01*
X148871909Y-97734560D01*
X148813169Y-97844109D01*
X148734138Y-98073631D01*
X148733276Y-98078623D01*
X148695224Y-98298926D01*
X148692821Y-98312836D01*
X148692641Y-98316797D01*
X148692641Y-98316798D01*
X148692019Y-98330506D01*
X148691500Y-98341925D01*
X148691500Y-100011001D01*
X146246358Y-100011001D01*
X146154225Y-99968039D01*
X146154224Y-99968039D01*
X146149243Y-99965716D01*
X146143935Y-99964294D01*
X146143933Y-99964293D01*
X145933402Y-99907881D01*
X145933400Y-99907881D01*
X145928087Y-99906457D01*
X145828520Y-99897746D01*
X145759851Y-99891738D01*
X145759844Y-99891738D01*
X145757127Y-99891500D01*
X145642873Y-99891500D01*
X145640156Y-99891738D01*
X145640149Y-99891738D01*
X145571480Y-99897746D01*
X145471913Y-99906457D01*
X145466600Y-99907881D01*
X145466598Y-99907881D01*
X145256067Y-99964293D01*
X145256065Y-99964294D01*
X145250757Y-99965716D01*
X145245776Y-99968039D01*
X145245775Y-99968039D01*
X145048238Y-100060151D01*
X145048233Y-100060154D01*
X145043251Y-100062477D01*
X144962155Y-100119261D01*
X144860211Y-100190643D01*
X144860208Y-100190645D01*
X144855700Y-100193802D01*
X144693802Y-100355700D01*
X144690645Y-100360208D01*
X144690643Y-100360211D01*
X144646810Y-100422811D01*
X144562477Y-100543251D01*
X144560154Y-100548233D01*
X144560151Y-100548238D01*
X144482970Y-100713756D01*
X144465716Y-100750757D01*
X144464294Y-100756065D01*
X144464293Y-100756067D01*
X144408934Y-100962668D01*
X144406457Y-100971913D01*
X144386502Y-101200000D01*
X142044505Y-101200000D01*
X142148307Y-101129456D01*
X142324681Y-100962668D01*
X142332327Y-100952668D01*
X142469047Y-100773846D01*
X142469050Y-100773842D01*
X142472120Y-100769826D01*
X142475327Y-100763846D01*
X142584439Y-100560352D01*
X142586831Y-100555891D01*
X142665862Y-100326369D01*
X142689077Y-100191965D01*
X142706504Y-100091074D01*
X142706505Y-100091068D01*
X142707179Y-100087164D01*
X142707813Y-100073202D01*
X142708436Y-100059494D01*
X142708436Y-100059475D01*
X142708500Y-100058075D01*
X142708500Y-98388999D01*
X142707728Y-98379398D01*
X142694346Y-98213076D01*
X142694345Y-98213071D01*
X142693940Y-98208035D01*
X142676304Y-98136231D01*
X142637244Y-97977208D01*
X142636037Y-97972294D01*
X142631793Y-97962294D01*
X142565942Y-97807160D01*
X142541188Y-97748844D01*
X142451255Y-97606033D01*
X142414528Y-97547712D01*
X142414526Y-97547709D01*
X142411833Y-97543433D01*
X142361774Y-97486652D01*
X142254650Y-97365142D01*
X142254647Y-97365139D01*
X142251302Y-97361345D01*
X142221204Y-97336622D01*
X142067628Y-97210474D01*
X142067625Y-97210472D01*
X142063722Y-97207266D01*
X141934337Y-97131962D01*
X141858290Y-97087701D01*
X141858288Y-97087700D01*
X141853922Y-97085159D01*
X141719725Y-97033646D01*
X141632022Y-96999980D01*
X141632018Y-96999979D01*
X141627298Y-96998167D01*
X141622348Y-96997133D01*
X141622345Y-96997132D01*
X141394631Y-96949560D01*
X141394627Y-96949560D01*
X141389680Y-96948526D01*
X141147183Y-96937514D01*
X141142163Y-96938095D01*
X141142159Y-96938095D01*
X140911071Y-96964833D01*
X140911067Y-96964834D01*
X140906044Y-96965415D01*
X140901180Y-96966791D01*
X140901177Y-96966792D01*
X140775482Y-97002360D01*
X140672468Y-97031510D01*
X140667892Y-97033644D01*
X140667886Y-97033646D01*
X140457046Y-97131962D01*
X140457042Y-97131964D01*
X140452464Y-97134099D01*
X140251693Y-97270544D01*
X140075319Y-97437332D01*
X140072241Y-97441358D01*
X140072240Y-97441359D01*
X139930953Y-97626154D01*
X139930950Y-97626158D01*
X139927880Y-97630174D01*
X139925490Y-97634632D01*
X139925489Y-97634633D01*
X139871909Y-97734560D01*
X139813169Y-97844109D01*
X139734138Y-98073631D01*
X139732857Y-98073190D01*
X139699727Y-98128838D01*
X139636192Y-98160522D01*
X139565614Y-98152828D01*
X139510400Y-98108197D01*
X139491643Y-98066545D01*
X139490928Y-98063631D01*
X139483544Y-98033570D01*
X139467245Y-97967210D01*
X139467243Y-97967204D01*
X139466037Y-97962294D01*
X139371188Y-97738844D01*
X139309906Y-97641530D01*
X139244528Y-97537712D01*
X139244526Y-97537709D01*
X139241833Y-97533433D01*
X139200590Y-97486652D01*
X139084650Y-97355142D01*
X139084647Y-97355139D01*
X139081302Y-97351345D01*
X138982933Y-97270544D01*
X138897628Y-97200474D01*
X138897625Y-97200472D01*
X138893722Y-97197266D01*
X138714119Y-97092734D01*
X138688290Y-97077701D01*
X138688288Y-97077700D01*
X138683922Y-97075159D01*
X138575776Y-97033646D01*
X138462022Y-96989980D01*
X138462018Y-96989979D01*
X138457298Y-96988167D01*
X138452348Y-96987133D01*
X138452345Y-96987132D01*
X138224631Y-96939560D01*
X138224627Y-96939560D01*
X138219680Y-96938526D01*
X137977183Y-96927514D01*
X137972163Y-96928095D01*
X137972159Y-96928095D01*
X137741071Y-96954833D01*
X137741067Y-96954834D01*
X137736044Y-96955415D01*
X137731180Y-96956791D01*
X137731177Y-96956792D01*
X137588618Y-96997132D01*
X137502468Y-97021510D01*
X137497892Y-97023644D01*
X137497886Y-97023646D01*
X137287046Y-97121962D01*
X137287042Y-97121964D01*
X137282464Y-97124099D01*
X137278283Y-97126940D01*
X137278282Y-97126941D01*
X137263568Y-97136941D01*
X137081693Y-97260544D01*
X136905319Y-97427332D01*
X136902241Y-97431358D01*
X136902240Y-97431359D01*
X136760953Y-97616154D01*
X136760950Y-97616158D01*
X136757880Y-97620174D01*
X136755490Y-97624632D01*
X136755489Y-97624633D01*
X136752518Y-97630174D01*
X136643169Y-97834109D01*
X136564138Y-98063631D01*
X136556440Y-98108197D01*
X136530076Y-98260835D01*
X136522821Y-98302836D01*
X136521500Y-98331925D01*
X136521500Y-100001001D01*
X134076358Y-100001001D01*
X133984225Y-99958039D01*
X133984224Y-99958039D01*
X133979243Y-99955716D01*
X133973935Y-99954294D01*
X133973933Y-99954293D01*
X133763402Y-99897881D01*
X133763400Y-99897881D01*
X133758087Y-99896457D01*
X133658520Y-99887746D01*
X133589851Y-99881738D01*
X133589844Y-99881738D01*
X133587127Y-99881500D01*
X133472873Y-99881500D01*
X133470156Y-99881738D01*
X133470149Y-99881738D01*
X133401480Y-99887746D01*
X133301913Y-99896457D01*
X133296600Y-99897881D01*
X133296598Y-99897881D01*
X133086067Y-99954293D01*
X133086065Y-99954294D01*
X133080757Y-99955716D01*
X133075776Y-99958039D01*
X133075775Y-99958039D01*
X132878238Y-100050151D01*
X132878233Y-100050154D01*
X132873251Y-100052477D01*
X132783564Y-100115277D01*
X132690211Y-100180643D01*
X132690208Y-100180645D01*
X132685700Y-100183802D01*
X132523802Y-100345700D01*
X132520645Y-100350208D01*
X132520643Y-100350211D01*
X132473383Y-100417706D01*
X132392477Y-100533251D01*
X132390154Y-100538233D01*
X132390151Y-100538238D01*
X132308307Y-100713756D01*
X132295716Y-100740757D01*
X132294294Y-100746065D01*
X132294293Y-100746067D01*
X132263668Y-100860361D01*
X132236457Y-100961913D01*
X132216502Y-101190000D01*
X129874505Y-101190000D01*
X129978307Y-101119456D01*
X130154681Y-100952668D01*
X130177394Y-100922961D01*
X130299047Y-100763846D01*
X130299050Y-100763842D01*
X130302120Y-100759826D01*
X130324526Y-100718040D01*
X130414439Y-100550352D01*
X130416831Y-100545891D01*
X130495862Y-100316369D01*
X130519077Y-100181965D01*
X130536504Y-100081074D01*
X130536505Y-100081068D01*
X130537179Y-100077164D01*
X130537952Y-100060151D01*
X130538436Y-100049494D01*
X130538436Y-100049475D01*
X130538500Y-100048075D01*
X130538500Y-98378999D01*
X130538298Y-98376486D01*
X130524346Y-98203076D01*
X130524345Y-98203071D01*
X130523940Y-98198035D01*
X130507584Y-98131442D01*
X130467244Y-97967208D01*
X130466037Y-97962294D01*
X130371188Y-97738844D01*
X130309906Y-97641530D01*
X130244528Y-97537712D01*
X130244526Y-97537709D01*
X130241833Y-97533433D01*
X130200590Y-97486652D01*
X130084650Y-97355142D01*
X130084647Y-97355139D01*
X130081302Y-97351345D01*
X129982933Y-97270544D01*
X129897628Y-97200474D01*
X129897625Y-97200472D01*
X129893722Y-97197266D01*
X129714119Y-97092734D01*
X129688290Y-97077701D01*
X129688288Y-97077700D01*
X129683922Y-97075159D01*
X129575776Y-97033646D01*
X129462022Y-96989980D01*
X129462018Y-96989979D01*
X129457298Y-96988167D01*
X129452348Y-96987133D01*
X129452345Y-96987132D01*
X129224631Y-96939560D01*
X129224627Y-96939560D01*
X129219680Y-96938526D01*
X128977183Y-96927514D01*
X128972163Y-96928095D01*
X128972159Y-96928095D01*
X128741071Y-96954833D01*
X128741067Y-96954834D01*
X128736044Y-96955415D01*
X128731180Y-96956791D01*
X128731177Y-96956792D01*
X128588618Y-96997132D01*
X128502468Y-97021510D01*
X128497892Y-97023644D01*
X128497886Y-97023646D01*
X128287046Y-97121962D01*
X128287042Y-97121964D01*
X128282464Y-97124099D01*
X128278283Y-97126940D01*
X128278282Y-97126941D01*
X128263568Y-97136941D01*
X128081693Y-97260544D01*
X127905319Y-97427332D01*
X127902241Y-97431358D01*
X127902240Y-97431359D01*
X127859965Y-97486652D01*
X127757880Y-97620174D01*
X127756640Y-97619226D01*
X127708193Y-97661095D01*
X127637905Y-97671107D01*
X127573363Y-97641530D01*
X127535058Y-97581753D01*
X127530000Y-97546413D01*
X127530000Y-93238134D01*
X131021500Y-93238134D01*
X131028255Y-93300316D01*
X131079385Y-93436705D01*
X131166739Y-93553261D01*
X131283295Y-93640615D01*
X131419684Y-93691745D01*
X131481866Y-93698500D01*
X135578134Y-93698500D01*
X135640316Y-93691745D01*
X135776705Y-93640615D01*
X135893261Y-93553261D01*
X135980615Y-93436705D01*
X136031745Y-93300316D01*
X136037414Y-93248134D01*
X143191500Y-93248134D01*
X143198255Y-93310316D01*
X143249385Y-93446705D01*
X143336739Y-93563261D01*
X143453295Y-93650615D01*
X143589684Y-93701745D01*
X143651866Y-93708500D01*
X147748134Y-93708500D01*
X147810316Y-93701745D01*
X147946705Y-93650615D01*
X148063261Y-93563261D01*
X148150615Y-93446705D01*
X148201588Y-93310734D01*
X155713700Y-93310734D01*
X155720455Y-93372916D01*
X155771585Y-93509305D01*
X155858939Y-93625861D01*
X155975495Y-93713215D01*
X156111884Y-93764345D01*
X156174066Y-93771100D01*
X160270334Y-93771100D01*
X160332516Y-93764345D01*
X160468905Y-93713215D01*
X160585461Y-93625861D01*
X160672815Y-93509305D01*
X160723945Y-93372916D01*
X160730700Y-93310734D01*
X160730700Y-93300934D01*
X167976300Y-93300934D01*
X167983055Y-93363116D01*
X168034185Y-93499505D01*
X168121539Y-93616061D01*
X168238095Y-93703415D01*
X168374484Y-93754545D01*
X168436666Y-93761300D01*
X172532934Y-93761300D01*
X172595116Y-93754545D01*
X172731505Y-93703415D01*
X172848061Y-93616061D01*
X172935415Y-93499505D01*
X172986545Y-93363116D01*
X172993300Y-93300934D01*
X172993300Y-91204666D01*
X172986545Y-91142484D01*
X172935415Y-91006095D01*
X172848061Y-90889539D01*
X172731505Y-90802185D01*
X172595116Y-90751055D01*
X172532934Y-90744300D01*
X168436666Y-90744300D01*
X168374484Y-90751055D01*
X168238095Y-90802185D01*
X168121539Y-90889539D01*
X168034185Y-91006095D01*
X167983055Y-91142484D01*
X167976300Y-91204666D01*
X167976300Y-93300934D01*
X160730700Y-93300934D01*
X160730700Y-91214466D01*
X160723945Y-91152284D01*
X160672815Y-91015895D01*
X160585461Y-90899339D01*
X160468905Y-90811985D01*
X160332516Y-90760855D01*
X160270334Y-90754100D01*
X156174066Y-90754100D01*
X156111884Y-90760855D01*
X155975495Y-90811985D01*
X155858939Y-90899339D01*
X155771585Y-91015895D01*
X155720455Y-91152284D01*
X155713700Y-91214466D01*
X155713700Y-93310734D01*
X148201588Y-93310734D01*
X148201745Y-93310316D01*
X148208500Y-93248134D01*
X148208500Y-91151866D01*
X148201745Y-91089684D01*
X148150615Y-90953295D01*
X148063261Y-90836739D01*
X147946705Y-90749385D01*
X147810316Y-90698255D01*
X147748134Y-90691500D01*
X143651866Y-90691500D01*
X143589684Y-90698255D01*
X143453295Y-90749385D01*
X143336739Y-90836739D01*
X143249385Y-90953295D01*
X143198255Y-91089684D01*
X143191500Y-91151866D01*
X143191500Y-93248134D01*
X136037414Y-93248134D01*
X136038500Y-93238134D01*
X136038500Y-91141866D01*
X136031745Y-91079684D01*
X135980615Y-90943295D01*
X135893261Y-90826739D01*
X135776705Y-90739385D01*
X135640316Y-90688255D01*
X135578134Y-90681500D01*
X131481866Y-90681500D01*
X131419684Y-90688255D01*
X131283295Y-90739385D01*
X131166739Y-90826739D01*
X131079385Y-90943295D01*
X131028255Y-91079684D01*
X131021500Y-91141866D01*
X131021500Y-93238134D01*
X127530000Y-93238134D01*
X127530000Y-88398217D01*
X130705114Y-88398217D01*
X130705695Y-88403237D01*
X130705695Y-88403241D01*
X130723327Y-88555623D01*
X130733015Y-88639356D01*
X130734391Y-88644220D01*
X130734392Y-88644223D01*
X130772663Y-88779469D01*
X130799110Y-88872932D01*
X130801244Y-88877508D01*
X130801246Y-88877514D01*
X130860083Y-89003690D01*
X130901699Y-89092936D01*
X131038144Y-89293707D01*
X131199673Y-89464520D01*
X131200400Y-89465288D01*
X131204932Y-89470081D01*
X131208958Y-89473159D01*
X131208959Y-89473160D01*
X131393754Y-89614447D01*
X131393758Y-89614450D01*
X131397774Y-89617520D01*
X131611709Y-89732231D01*
X131841231Y-89811262D01*
X131940578Y-89828422D01*
X132076526Y-89851904D01*
X132076532Y-89851905D01*
X132080436Y-89852579D01*
X132084397Y-89852759D01*
X132084398Y-89852759D01*
X132108106Y-89853836D01*
X132108125Y-89853836D01*
X132109525Y-89853900D01*
X133778601Y-89853900D01*
X133781109Y-89853698D01*
X133781114Y-89853698D01*
X133954524Y-89839746D01*
X133954529Y-89839745D01*
X133959565Y-89839340D01*
X133964473Y-89838134D01*
X133964476Y-89838134D01*
X134190392Y-89782644D01*
X134195306Y-89781437D01*
X134199958Y-89779462D01*
X134199962Y-89779461D01*
X134337656Y-89721013D01*
X134418756Y-89686588D01*
X134524637Y-89619911D01*
X134619888Y-89559928D01*
X134619891Y-89559926D01*
X134624167Y-89557233D01*
X134724665Y-89468633D01*
X134802458Y-89400050D01*
X134802461Y-89400047D01*
X134806255Y-89396702D01*
X134809466Y-89392793D01*
X134957126Y-89213028D01*
X134957128Y-89213025D01*
X134960334Y-89209122D01*
X135082441Y-88999322D01*
X135132824Y-88868069D01*
X135167620Y-88777422D01*
X135167621Y-88777418D01*
X135169433Y-88772698D01*
X135187943Y-88684098D01*
X135218040Y-88540031D01*
X135218040Y-88540027D01*
X135219074Y-88535080D01*
X135229312Y-88309617D01*
X168733314Y-88309617D01*
X168733895Y-88314637D01*
X168733895Y-88314641D01*
X168758817Y-88530027D01*
X168761215Y-88550756D01*
X168762591Y-88555620D01*
X168762592Y-88555623D01*
X168808276Y-88717066D01*
X168827310Y-88784332D01*
X168829444Y-88788908D01*
X168829446Y-88788914D01*
X168927561Y-88999322D01*
X168929899Y-89004336D01*
X169066344Y-89205107D01*
X169233132Y-89381481D01*
X169237158Y-89384559D01*
X169237159Y-89384560D01*
X169421954Y-89525847D01*
X169421958Y-89525850D01*
X169425974Y-89528920D01*
X169639909Y-89643631D01*
X169869431Y-89722662D01*
X169968778Y-89739822D01*
X170104726Y-89763304D01*
X170104732Y-89763305D01*
X170108636Y-89763979D01*
X170112597Y-89764159D01*
X170112598Y-89764159D01*
X170136306Y-89765236D01*
X170136325Y-89765236D01*
X170137725Y-89765300D01*
X171806801Y-89765300D01*
X171809309Y-89765098D01*
X171809314Y-89765098D01*
X171982724Y-89751146D01*
X171982729Y-89751145D01*
X171987765Y-89750740D01*
X171992673Y-89749534D01*
X171992676Y-89749534D01*
X172218592Y-89694044D01*
X172223506Y-89692837D01*
X172228158Y-89690862D01*
X172228162Y-89690861D01*
X172395309Y-89619911D01*
X172446956Y-89597988D01*
X172552837Y-89531311D01*
X172648088Y-89471328D01*
X172648091Y-89471326D01*
X172652367Y-89468633D01*
X172751222Y-89381481D01*
X172830658Y-89311450D01*
X172830661Y-89311447D01*
X172834455Y-89308102D01*
X172919056Y-89205107D01*
X172985326Y-89124428D01*
X172985328Y-89124425D01*
X172988534Y-89120522D01*
X173110641Y-88910722D01*
X173197633Y-88684098D01*
X173198668Y-88679145D01*
X173246240Y-88451431D01*
X173246240Y-88451427D01*
X173247274Y-88446480D01*
X173258286Y-88203983D01*
X173257705Y-88198959D01*
X173230967Y-87967871D01*
X173230966Y-87967867D01*
X173230385Y-87962844D01*
X173217725Y-87918102D01*
X173165666Y-87734131D01*
X173164290Y-87729268D01*
X173162156Y-87724692D01*
X173162154Y-87724686D01*
X173063838Y-87513846D01*
X173063836Y-87513842D01*
X173061701Y-87509264D01*
X172925256Y-87308493D01*
X172763727Y-87137680D01*
X172761948Y-87135799D01*
X172758468Y-87132119D01*
X172695135Y-87083697D01*
X172569646Y-86987753D01*
X172569642Y-86987750D01*
X172565626Y-86984680D01*
X172525408Y-86963115D01*
X172356152Y-86872361D01*
X172351691Y-86869969D01*
X172122169Y-86790938D01*
X172022822Y-86773778D01*
X171886874Y-86750296D01*
X171886868Y-86750295D01*
X171882964Y-86749621D01*
X171879003Y-86749441D01*
X171879002Y-86749441D01*
X171855294Y-86748364D01*
X171855275Y-86748364D01*
X171853875Y-86748300D01*
X170184799Y-86748300D01*
X170182291Y-86748502D01*
X170182286Y-86748502D01*
X170008876Y-86762454D01*
X170008871Y-86762455D01*
X170003835Y-86762860D01*
X169998927Y-86764066D01*
X169998924Y-86764066D01*
X169882807Y-86792587D01*
X169768094Y-86820763D01*
X169763442Y-86822738D01*
X169763438Y-86822739D01*
X169725375Y-86838896D01*
X169544644Y-86915612D01*
X169540360Y-86918310D01*
X169343512Y-87042272D01*
X169343509Y-87042274D01*
X169339233Y-87044967D01*
X169335439Y-87048312D01*
X169160942Y-87202150D01*
X169160939Y-87202153D01*
X169157145Y-87205498D01*
X169153935Y-87209406D01*
X169153934Y-87209407D01*
X169040796Y-87347145D01*
X169003066Y-87393078D01*
X168880959Y-87602878D01*
X168879146Y-87607601D01*
X168798433Y-87817868D01*
X168793967Y-87829502D01*
X168792933Y-87834452D01*
X168792932Y-87834455D01*
X168746551Y-88056471D01*
X168744326Y-88067120D01*
X168733314Y-88309617D01*
X135229312Y-88309617D01*
X135230086Y-88292583D01*
X135229505Y-88287559D01*
X135202767Y-88056471D01*
X135202766Y-88056467D01*
X135202185Y-88051444D01*
X135163117Y-87913378D01*
X135137466Y-87822731D01*
X135136090Y-87817868D01*
X135133956Y-87813292D01*
X135133954Y-87813286D01*
X135035638Y-87602446D01*
X135035636Y-87602442D01*
X135033501Y-87597864D01*
X134897056Y-87397093D01*
X134730268Y-87220719D01*
X134705106Y-87201481D01*
X134541446Y-87076353D01*
X134541442Y-87076350D01*
X134537426Y-87073280D01*
X134323491Y-86958569D01*
X134134616Y-86893534D01*
X152027500Y-86893534D01*
X152034255Y-86955716D01*
X152085385Y-87092105D01*
X152172739Y-87208661D01*
X152289295Y-87296015D01*
X152425684Y-87347145D01*
X152487866Y-87353900D01*
X158584134Y-87353900D01*
X158646316Y-87347145D01*
X158782705Y-87296015D01*
X158899261Y-87208661D01*
X158986615Y-87092105D01*
X159037745Y-86955716D01*
X159044500Y-86893534D01*
X159044500Y-85804934D01*
X162487300Y-85804934D01*
X162494055Y-85867116D01*
X162545185Y-86003505D01*
X162632539Y-86120061D01*
X162749095Y-86207415D01*
X162885484Y-86258545D01*
X162947666Y-86265300D01*
X165043934Y-86265300D01*
X165106116Y-86258545D01*
X165242505Y-86207415D01*
X165359061Y-86120061D01*
X165446415Y-86003505D01*
X165497545Y-85867116D01*
X165504300Y-85804934D01*
X165504300Y-83756800D01*
X171682302Y-83756800D01*
X171702257Y-83984887D01*
X171703681Y-83990200D01*
X171703681Y-83990202D01*
X171727422Y-84078802D01*
X171761516Y-84206043D01*
X171763839Y-84211024D01*
X171763839Y-84211025D01*
X171855951Y-84408562D01*
X171855954Y-84408567D01*
X171858277Y-84413549D01*
X171989602Y-84601100D01*
X172151500Y-84762998D01*
X172156008Y-84766155D01*
X172156011Y-84766157D01*
X172234189Y-84820898D01*
X172339051Y-84894323D01*
X172344033Y-84896646D01*
X172344038Y-84896649D01*
X172541575Y-84988761D01*
X172546557Y-84991084D01*
X172551865Y-84992506D01*
X172551867Y-84992507D01*
X172762398Y-85048919D01*
X172762400Y-85048919D01*
X172767713Y-85050343D01*
X172867280Y-85059054D01*
X172935949Y-85065062D01*
X172935956Y-85065062D01*
X172938673Y-85065300D01*
X173052927Y-85065300D01*
X173055644Y-85065062D01*
X173055651Y-85065062D01*
X173124320Y-85059054D01*
X173223887Y-85050343D01*
X173229200Y-85048919D01*
X173229202Y-85048919D01*
X173439733Y-84992507D01*
X173439735Y-84992506D01*
X173445043Y-84991084D01*
X173450025Y-84988761D01*
X173647562Y-84896649D01*
X173647567Y-84896646D01*
X173652549Y-84894323D01*
X173757411Y-84820898D01*
X173835589Y-84766157D01*
X173835592Y-84766155D01*
X173840100Y-84762998D01*
X174001998Y-84601100D01*
X174133323Y-84413549D01*
X174135646Y-84408567D01*
X174135649Y-84408562D01*
X174227761Y-84211025D01*
X174227761Y-84211024D01*
X174230084Y-84206043D01*
X174264179Y-84078802D01*
X174287919Y-83990202D01*
X174287919Y-83990200D01*
X174289343Y-83984887D01*
X174309298Y-83756800D01*
X174289343Y-83528713D01*
X174255247Y-83401467D01*
X174231507Y-83312867D01*
X174231506Y-83312865D01*
X174230084Y-83307557D01*
X174174638Y-83188651D01*
X174135649Y-83105038D01*
X174135646Y-83105033D01*
X174133323Y-83100051D01*
X174001998Y-82912500D01*
X173840100Y-82750602D01*
X173835592Y-82747445D01*
X173835589Y-82747443D01*
X173757411Y-82692702D01*
X173652549Y-82619277D01*
X173647567Y-82616954D01*
X173647562Y-82616951D01*
X173450025Y-82524839D01*
X173450024Y-82524839D01*
X173445043Y-82522516D01*
X173439735Y-82521094D01*
X173439733Y-82521093D01*
X173229202Y-82464681D01*
X173229200Y-82464681D01*
X173223887Y-82463257D01*
X173124320Y-82454546D01*
X173055651Y-82448538D01*
X173055644Y-82448538D01*
X173052927Y-82448300D01*
X172938673Y-82448300D01*
X172935956Y-82448538D01*
X172935949Y-82448538D01*
X172867280Y-82454546D01*
X172767713Y-82463257D01*
X172762400Y-82464681D01*
X172762398Y-82464681D01*
X172551867Y-82521093D01*
X172551865Y-82521094D01*
X172546557Y-82522516D01*
X172541576Y-82524839D01*
X172541575Y-82524839D01*
X172344038Y-82616951D01*
X172344033Y-82616954D01*
X172339051Y-82619277D01*
X172234189Y-82692702D01*
X172156011Y-82747443D01*
X172156008Y-82747445D01*
X172151500Y-82750602D01*
X171989602Y-82912500D01*
X171858277Y-83100051D01*
X171855954Y-83105033D01*
X171855951Y-83105038D01*
X171816962Y-83188651D01*
X171761516Y-83307557D01*
X171760094Y-83312865D01*
X171760093Y-83312867D01*
X171736353Y-83401467D01*
X171702257Y-83528713D01*
X171682302Y-83756800D01*
X165504300Y-83756800D01*
X165504300Y-81708666D01*
X165497545Y-81646484D01*
X165446415Y-81510095D01*
X165359061Y-81393539D01*
X165242505Y-81306185D01*
X165106116Y-81255055D01*
X165043934Y-81248300D01*
X162947666Y-81248300D01*
X162885484Y-81255055D01*
X162749095Y-81306185D01*
X162632539Y-81393539D01*
X162545185Y-81510095D01*
X162494055Y-81646484D01*
X162487300Y-81708666D01*
X162487300Y-85804934D01*
X159044500Y-85804934D01*
X159044500Y-80797266D01*
X159037745Y-80735084D01*
X158986615Y-80598695D01*
X158899261Y-80482139D01*
X158782705Y-80394785D01*
X158646316Y-80343655D01*
X158584134Y-80336900D01*
X152487866Y-80336900D01*
X152425684Y-80343655D01*
X152289295Y-80394785D01*
X152172739Y-80482139D01*
X152085385Y-80598695D01*
X152034255Y-80735084D01*
X152027500Y-80797266D01*
X152027500Y-86893534D01*
X134134616Y-86893534D01*
X134093969Y-86879538D01*
X133994622Y-86862378D01*
X133858674Y-86838896D01*
X133858668Y-86838895D01*
X133854764Y-86838221D01*
X133850803Y-86838041D01*
X133850802Y-86838041D01*
X133827094Y-86836964D01*
X133827075Y-86836964D01*
X133825675Y-86836900D01*
X132156599Y-86836900D01*
X132154091Y-86837102D01*
X132154086Y-86837102D01*
X131980676Y-86851054D01*
X131980671Y-86851055D01*
X131975635Y-86851460D01*
X131970727Y-86852666D01*
X131970724Y-86852666D01*
X131744808Y-86908156D01*
X131739894Y-86909363D01*
X131735242Y-86911338D01*
X131735238Y-86911339D01*
X131649201Y-86947860D01*
X131516444Y-87004212D01*
X131512160Y-87006910D01*
X131315312Y-87130872D01*
X131315309Y-87130874D01*
X131311033Y-87133567D01*
X131307239Y-87136912D01*
X131132742Y-87290750D01*
X131132739Y-87290753D01*
X131128945Y-87294098D01*
X131125735Y-87298006D01*
X131125734Y-87298007D01*
X131044055Y-87397446D01*
X130974866Y-87481678D01*
X130852759Y-87691478D01*
X130765767Y-87918102D01*
X130764733Y-87923052D01*
X130764732Y-87923055D01*
X130734636Y-88067120D01*
X130716126Y-88155720D01*
X130705114Y-88398217D01*
X127530000Y-88398217D01*
X127530000Y-85893534D01*
X138459100Y-85893534D01*
X138465855Y-85955716D01*
X138516985Y-86092105D01*
X138604339Y-86208661D01*
X138720895Y-86296015D01*
X138857284Y-86347145D01*
X138919466Y-86353900D01*
X141015734Y-86353900D01*
X141077916Y-86347145D01*
X141214305Y-86296015D01*
X141330861Y-86208661D01*
X141418215Y-86092105D01*
X141469345Y-85955716D01*
X141476100Y-85893534D01*
X141476100Y-81797266D01*
X141469345Y-81735084D01*
X141418215Y-81598695D01*
X141330861Y-81482139D01*
X141214305Y-81394785D01*
X141077916Y-81343655D01*
X141015734Y-81336900D01*
X138919466Y-81336900D01*
X138857284Y-81343655D01*
X138720895Y-81394785D01*
X138604339Y-81482139D01*
X138516985Y-81598695D01*
X138465855Y-81735084D01*
X138459100Y-81797266D01*
X138459100Y-85893534D01*
X127530000Y-85893534D01*
X127530000Y-83845400D01*
X129654102Y-83845400D01*
X129674057Y-84073487D01*
X129675481Y-84078800D01*
X129675481Y-84078802D01*
X129709576Y-84206043D01*
X129733316Y-84294643D01*
X129735639Y-84299624D01*
X129735639Y-84299625D01*
X129827751Y-84497162D01*
X129827754Y-84497167D01*
X129830077Y-84502149D01*
X129961402Y-84689700D01*
X130123300Y-84851598D01*
X130127808Y-84854755D01*
X130127811Y-84854757D01*
X130179809Y-84891166D01*
X130310851Y-84982923D01*
X130315833Y-84985246D01*
X130315838Y-84985249D01*
X130487510Y-85065300D01*
X130518357Y-85079684D01*
X130523665Y-85081106D01*
X130523667Y-85081107D01*
X130734198Y-85137519D01*
X130734200Y-85137519D01*
X130739513Y-85138943D01*
X130839080Y-85147654D01*
X130907749Y-85153662D01*
X130907756Y-85153662D01*
X130910473Y-85153900D01*
X131024727Y-85153900D01*
X131027444Y-85153662D01*
X131027451Y-85153662D01*
X131096120Y-85147654D01*
X131195687Y-85138943D01*
X131201000Y-85137519D01*
X131201002Y-85137519D01*
X131411533Y-85081107D01*
X131411535Y-85081106D01*
X131416843Y-85079684D01*
X131447690Y-85065300D01*
X131619362Y-84985249D01*
X131619367Y-84985246D01*
X131624349Y-84982923D01*
X131755391Y-84891166D01*
X131807389Y-84854757D01*
X131807392Y-84854755D01*
X131811900Y-84851598D01*
X131973798Y-84689700D01*
X132105123Y-84502149D01*
X132107446Y-84497167D01*
X132107449Y-84497162D01*
X132199561Y-84299625D01*
X132199561Y-84299624D01*
X132201884Y-84294643D01*
X132225625Y-84206043D01*
X132259719Y-84078802D01*
X132259719Y-84078800D01*
X132261143Y-84073487D01*
X132281098Y-83845400D01*
X132261143Y-83617313D01*
X132237403Y-83528713D01*
X132203307Y-83401467D01*
X132203306Y-83401465D01*
X132201884Y-83396157D01*
X132199561Y-83391175D01*
X132107449Y-83193638D01*
X132107446Y-83193633D01*
X132105123Y-83188651D01*
X131973798Y-83001100D01*
X131811900Y-82839202D01*
X131807392Y-82836045D01*
X131807389Y-82836043D01*
X131680855Y-82747443D01*
X131624349Y-82707877D01*
X131619367Y-82705554D01*
X131619362Y-82705551D01*
X131421825Y-82613439D01*
X131421824Y-82613439D01*
X131416843Y-82611116D01*
X131411535Y-82609694D01*
X131411533Y-82609693D01*
X131201002Y-82553281D01*
X131201000Y-82553281D01*
X131195687Y-82551857D01*
X131096120Y-82543146D01*
X131027451Y-82537138D01*
X131027444Y-82537138D01*
X131024727Y-82536900D01*
X130910473Y-82536900D01*
X130907756Y-82537138D01*
X130907749Y-82537138D01*
X130839080Y-82543146D01*
X130739513Y-82551857D01*
X130734200Y-82553281D01*
X130734198Y-82553281D01*
X130523667Y-82609693D01*
X130523665Y-82609694D01*
X130518357Y-82611116D01*
X130513376Y-82613439D01*
X130513375Y-82613439D01*
X130315838Y-82705551D01*
X130315833Y-82705554D01*
X130310851Y-82707877D01*
X130254345Y-82747443D01*
X130127811Y-82836043D01*
X130127808Y-82836045D01*
X130123300Y-82839202D01*
X129961402Y-83001100D01*
X129830077Y-83188651D01*
X129827754Y-83193633D01*
X129827751Y-83193638D01*
X129735639Y-83391175D01*
X129733316Y-83396157D01*
X129731894Y-83401465D01*
X129731893Y-83401467D01*
X129697797Y-83528713D01*
X129674057Y-83617313D01*
X129654102Y-83845400D01*
X127530000Y-83845400D01*
X127530000Y-79398217D01*
X130705114Y-79398217D01*
X130705695Y-79403237D01*
X130705695Y-79403241D01*
X130723327Y-79555623D01*
X130733015Y-79639356D01*
X130734391Y-79644220D01*
X130734392Y-79644223D01*
X130772663Y-79779469D01*
X130799110Y-79872932D01*
X130801244Y-79877508D01*
X130801246Y-79877514D01*
X130860083Y-80003690D01*
X130901699Y-80092936D01*
X131038144Y-80293707D01*
X131138822Y-80400171D01*
X131200400Y-80465288D01*
X131204932Y-80470081D01*
X131208958Y-80473159D01*
X131208959Y-80473160D01*
X131393754Y-80614447D01*
X131393758Y-80614450D01*
X131397774Y-80617520D01*
X131611709Y-80732231D01*
X131841231Y-80811262D01*
X131940578Y-80828422D01*
X132076526Y-80851904D01*
X132076532Y-80851905D01*
X132080436Y-80852579D01*
X132084397Y-80852759D01*
X132084398Y-80852759D01*
X132108106Y-80853836D01*
X132108125Y-80853836D01*
X132109525Y-80853900D01*
X133778601Y-80853900D01*
X133781109Y-80853698D01*
X133781114Y-80853698D01*
X133954524Y-80839746D01*
X133954529Y-80839745D01*
X133959565Y-80839340D01*
X133964473Y-80838134D01*
X133964476Y-80838134D01*
X134190392Y-80782644D01*
X134195306Y-80781437D01*
X134199958Y-80779462D01*
X134199962Y-80779461D01*
X134337656Y-80721013D01*
X134418756Y-80686588D01*
X134524637Y-80619911D01*
X134619888Y-80559928D01*
X134619891Y-80559926D01*
X134624167Y-80557233D01*
X134724665Y-80468633D01*
X134802458Y-80400050D01*
X134802461Y-80400047D01*
X134806255Y-80396702D01*
X134810419Y-80391633D01*
X134957126Y-80213028D01*
X134957128Y-80213025D01*
X134960334Y-80209122D01*
X135082441Y-79999322D01*
X135132824Y-79868069D01*
X135167620Y-79777422D01*
X135167621Y-79777418D01*
X135169433Y-79772698D01*
X135187943Y-79684098D01*
X135218040Y-79540031D01*
X135218040Y-79540027D01*
X135219074Y-79535080D01*
X135229312Y-79309617D01*
X168733314Y-79309617D01*
X168733895Y-79314637D01*
X168733895Y-79314641D01*
X168758817Y-79530027D01*
X168761215Y-79550756D01*
X168762591Y-79555620D01*
X168762592Y-79555623D01*
X168808276Y-79717066D01*
X168827310Y-79784332D01*
X168829444Y-79788908D01*
X168829446Y-79788914D01*
X168927561Y-79999322D01*
X168929899Y-80004336D01*
X169066344Y-80205107D01*
X169233132Y-80381481D01*
X169237158Y-80384559D01*
X169237159Y-80384560D01*
X169421954Y-80525847D01*
X169421958Y-80525850D01*
X169425974Y-80528920D01*
X169639909Y-80643631D01*
X169869431Y-80722662D01*
X169968778Y-80739822D01*
X170104726Y-80763304D01*
X170104732Y-80763305D01*
X170108636Y-80763979D01*
X170112597Y-80764159D01*
X170112598Y-80764159D01*
X170136306Y-80765236D01*
X170136325Y-80765236D01*
X170137725Y-80765300D01*
X171806801Y-80765300D01*
X171809309Y-80765098D01*
X171809314Y-80765098D01*
X171982724Y-80751146D01*
X171982729Y-80751145D01*
X171987765Y-80750740D01*
X171992673Y-80749534D01*
X171992676Y-80749534D01*
X172218592Y-80694044D01*
X172223506Y-80692837D01*
X172228158Y-80690862D01*
X172228162Y-80690861D01*
X172395309Y-80619911D01*
X172446956Y-80597988D01*
X172552837Y-80531311D01*
X172648088Y-80471328D01*
X172648091Y-80471326D01*
X172652367Y-80468633D01*
X172697966Y-80428433D01*
X172830658Y-80311450D01*
X172830661Y-80311447D01*
X172834455Y-80308102D01*
X172919056Y-80205107D01*
X172985326Y-80124428D01*
X172985328Y-80124425D01*
X172988534Y-80120522D01*
X173110641Y-79910722D01*
X173197633Y-79684098D01*
X173198668Y-79679145D01*
X173246240Y-79451431D01*
X173246240Y-79451427D01*
X173247274Y-79446480D01*
X173258286Y-79203983D01*
X173257705Y-79198959D01*
X173230967Y-78967871D01*
X173230966Y-78967867D01*
X173230385Y-78962844D01*
X173217725Y-78918102D01*
X173165666Y-78734131D01*
X173164290Y-78729268D01*
X173162156Y-78724692D01*
X173162154Y-78724686D01*
X173063838Y-78513846D01*
X173063836Y-78513842D01*
X173061701Y-78509264D01*
X172925256Y-78308493D01*
X172763727Y-78137680D01*
X172761948Y-78135799D01*
X172758468Y-78132119D01*
X172754441Y-78129040D01*
X172569646Y-77987753D01*
X172569642Y-77987750D01*
X172565626Y-77984680D01*
X172351691Y-77869969D01*
X172122169Y-77790938D01*
X172022822Y-77773778D01*
X171886874Y-77750296D01*
X171886868Y-77750295D01*
X171882964Y-77749621D01*
X171879003Y-77749441D01*
X171879002Y-77749441D01*
X171855294Y-77748364D01*
X171855275Y-77748364D01*
X171853875Y-77748300D01*
X170184799Y-77748300D01*
X170182291Y-77748502D01*
X170182286Y-77748502D01*
X170008876Y-77762454D01*
X170008871Y-77762455D01*
X170003835Y-77762860D01*
X169998927Y-77764066D01*
X169998924Y-77764066D01*
X169882807Y-77792587D01*
X169768094Y-77820763D01*
X169763442Y-77822738D01*
X169763438Y-77822739D01*
X169725375Y-77838896D01*
X169544644Y-77915612D01*
X169540360Y-77918310D01*
X169343512Y-78042272D01*
X169343509Y-78042274D01*
X169339233Y-78044967D01*
X169335439Y-78048312D01*
X169160942Y-78202150D01*
X169160939Y-78202153D01*
X169157145Y-78205498D01*
X169153935Y-78209406D01*
X169153934Y-78209407D01*
X169081158Y-78298007D01*
X169003066Y-78393078D01*
X168880959Y-78602878D01*
X168879146Y-78607601D01*
X168798433Y-78817868D01*
X168793967Y-78829502D01*
X168792933Y-78834452D01*
X168792932Y-78834455D01*
X168746551Y-79056471D01*
X168744326Y-79067120D01*
X168733314Y-79309617D01*
X135229312Y-79309617D01*
X135230086Y-79292583D01*
X135229505Y-79287559D01*
X135202767Y-79056471D01*
X135202766Y-79056467D01*
X135202185Y-79051444D01*
X135163117Y-78913378D01*
X135137466Y-78822731D01*
X135136090Y-78817868D01*
X135133956Y-78813292D01*
X135133954Y-78813286D01*
X135035638Y-78602446D01*
X135035636Y-78602442D01*
X135033501Y-78597864D01*
X134897056Y-78397093D01*
X134730268Y-78220719D01*
X134705981Y-78202150D01*
X134541446Y-78076353D01*
X134541442Y-78076350D01*
X134537426Y-78073280D01*
X134323491Y-77958569D01*
X134093969Y-77879538D01*
X133994622Y-77862378D01*
X133858674Y-77838896D01*
X133858668Y-77838895D01*
X133854764Y-77838221D01*
X133850803Y-77838041D01*
X133850802Y-77838041D01*
X133827094Y-77836964D01*
X133827075Y-77836964D01*
X133825675Y-77836900D01*
X132156599Y-77836900D01*
X132154091Y-77837102D01*
X132154086Y-77837102D01*
X131980676Y-77851054D01*
X131980671Y-77851055D01*
X131975635Y-77851460D01*
X131970727Y-77852666D01*
X131970724Y-77852666D01*
X131854607Y-77881187D01*
X131739894Y-77909363D01*
X131735242Y-77911338D01*
X131735238Y-77911339D01*
X131627852Y-77956922D01*
X131516444Y-78004212D01*
X131512160Y-78006910D01*
X131315312Y-78130872D01*
X131315309Y-78130874D01*
X131311033Y-78133567D01*
X131307239Y-78136912D01*
X131132742Y-78290750D01*
X131132739Y-78290753D01*
X131128945Y-78294098D01*
X131125735Y-78298006D01*
X131125734Y-78298007D01*
X131044055Y-78397446D01*
X130974866Y-78481678D01*
X130852759Y-78691478D01*
X130765767Y-78918102D01*
X130764733Y-78923052D01*
X130764732Y-78923055D01*
X130734636Y-79067120D01*
X130716126Y-79155720D01*
X130705114Y-79398217D01*
X127530000Y-79398217D01*
X127530000Y-76685134D01*
X130948700Y-76685134D01*
X130955455Y-76747316D01*
X131006585Y-76883705D01*
X131093939Y-77000261D01*
X131210495Y-77087615D01*
X131346884Y-77138745D01*
X131409066Y-77145500D01*
X135505334Y-77145500D01*
X135567516Y-77138745D01*
X135703905Y-77087615D01*
X135820461Y-77000261D01*
X135907815Y-76883705D01*
X135958945Y-76747316D01*
X135961007Y-76728334D01*
X143084300Y-76728334D01*
X143091055Y-76790516D01*
X143142185Y-76926905D01*
X143229539Y-77043461D01*
X143346095Y-77130815D01*
X143482484Y-77181945D01*
X143544666Y-77188700D01*
X147640934Y-77188700D01*
X147703116Y-77181945D01*
X147839505Y-77130815D01*
X147956061Y-77043461D01*
X148043415Y-76926905D01*
X148094545Y-76790516D01*
X148101300Y-76728334D01*
X155631900Y-76728334D01*
X155638655Y-76790516D01*
X155689785Y-76926905D01*
X155777139Y-77043461D01*
X155893695Y-77130815D01*
X156030084Y-77181945D01*
X156092266Y-77188700D01*
X160188534Y-77188700D01*
X160250716Y-77181945D01*
X160387105Y-77130815D01*
X160503661Y-77043461D01*
X160591015Y-76926905D01*
X160642145Y-76790516D01*
X160648900Y-76728334D01*
X160648900Y-76685134D01*
X167987300Y-76685134D01*
X167994055Y-76747316D01*
X168045185Y-76883705D01*
X168132539Y-77000261D01*
X168249095Y-77087615D01*
X168385484Y-77138745D01*
X168447666Y-77145500D01*
X172543934Y-77145500D01*
X172606116Y-77138745D01*
X172742505Y-77087615D01*
X172859061Y-77000261D01*
X172946415Y-76883705D01*
X172997545Y-76747316D01*
X173004300Y-76685134D01*
X173004300Y-74588866D01*
X172997545Y-74526684D01*
X172946415Y-74390295D01*
X172859061Y-74273739D01*
X172742505Y-74186385D01*
X172606116Y-74135255D01*
X172543934Y-74128500D01*
X168447666Y-74128500D01*
X168385484Y-74135255D01*
X168249095Y-74186385D01*
X168132539Y-74273739D01*
X168045185Y-74390295D01*
X167994055Y-74526684D01*
X167987300Y-74588866D01*
X167987300Y-76685134D01*
X160648900Y-76685134D01*
X160648900Y-74632066D01*
X160642145Y-74569884D01*
X160591015Y-74433495D01*
X160503661Y-74316939D01*
X160387105Y-74229585D01*
X160250716Y-74178455D01*
X160188534Y-74171700D01*
X156092266Y-74171700D01*
X156030084Y-74178455D01*
X155893695Y-74229585D01*
X155777139Y-74316939D01*
X155689785Y-74433495D01*
X155638655Y-74569884D01*
X155631900Y-74632066D01*
X155631900Y-76728334D01*
X148101300Y-76728334D01*
X148101300Y-74632066D01*
X148094545Y-74569884D01*
X148043415Y-74433495D01*
X147956061Y-74316939D01*
X147839505Y-74229585D01*
X147703116Y-74178455D01*
X147640934Y-74171700D01*
X143544666Y-74171700D01*
X143482484Y-74178455D01*
X143346095Y-74229585D01*
X143229539Y-74316939D01*
X143142185Y-74433495D01*
X143091055Y-74569884D01*
X143084300Y-74632066D01*
X143084300Y-76728334D01*
X135961007Y-76728334D01*
X135965700Y-76685134D01*
X135965700Y-74588866D01*
X135958945Y-74526684D01*
X135907815Y-74390295D01*
X135820461Y-74273739D01*
X135703905Y-74186385D01*
X135567516Y-74135255D01*
X135505334Y-74128500D01*
X131409066Y-74128500D01*
X131346884Y-74135255D01*
X131210495Y-74186385D01*
X131093939Y-74273739D01*
X131006585Y-74390295D01*
X130955455Y-74526684D01*
X130948700Y-74588866D01*
X130948700Y-76685134D01*
X127530000Y-76685134D01*
X127530000Y-70382730D01*
X127550002Y-70314609D01*
X127603658Y-70268116D01*
X127673932Y-70258012D01*
X127738512Y-70287506D01*
X127750514Y-70299405D01*
X127902550Y-70471858D01*
X127902553Y-70471861D01*
X127905898Y-70475655D01*
X127909806Y-70478865D01*
X127909807Y-70478866D01*
X128016442Y-70566456D01*
X128093478Y-70629734D01*
X128097846Y-70632276D01*
X128293416Y-70746101D01*
X128303278Y-70751841D01*
X128308001Y-70753654D01*
X128525178Y-70837020D01*
X128525182Y-70837021D01*
X128529902Y-70838833D01*
X128534852Y-70839867D01*
X128534855Y-70839868D01*
X128762569Y-70887440D01*
X128762573Y-70887440D01*
X128767520Y-70888474D01*
X129010017Y-70899486D01*
X129015037Y-70898905D01*
X129015041Y-70898905D01*
X129246129Y-70872167D01*
X129246133Y-70872166D01*
X129251156Y-70871585D01*
X129256020Y-70870209D01*
X129256023Y-70870208D01*
X129479869Y-70806866D01*
X129479868Y-70806866D01*
X129484732Y-70805490D01*
X129489308Y-70803356D01*
X129489314Y-70803354D01*
X129700154Y-70705038D01*
X129700158Y-70705036D01*
X129704736Y-70702901D01*
X129905507Y-70566456D01*
X130081881Y-70399668D01*
X130127072Y-70340561D01*
X130226247Y-70210846D01*
X130226250Y-70210842D01*
X130229320Y-70206826D01*
X130249007Y-70170111D01*
X130341639Y-69997352D01*
X130344031Y-69992891D01*
X130423062Y-69763369D01*
X130464379Y-69524164D01*
X130465700Y-69495075D01*
X130465700Y-69448001D01*
X136448700Y-69448001D01*
X136448902Y-69450509D01*
X136448902Y-69450514D01*
X136458304Y-69567364D01*
X136463260Y-69628965D01*
X136464466Y-69633873D01*
X136464466Y-69633876D01*
X136473871Y-69672165D01*
X136521163Y-69864706D01*
X136523138Y-69869358D01*
X136523139Y-69869362D01*
X136573543Y-69988106D01*
X136616012Y-70088156D01*
X136664181Y-70164646D01*
X136729340Y-70268116D01*
X136745367Y-70293567D01*
X136748712Y-70297361D01*
X136902550Y-70471858D01*
X136902553Y-70471861D01*
X136905898Y-70475655D01*
X136909806Y-70478865D01*
X136909807Y-70478866D01*
X137016442Y-70566456D01*
X137093478Y-70629734D01*
X137097846Y-70632276D01*
X137293416Y-70746101D01*
X137303278Y-70751841D01*
X137308001Y-70753654D01*
X137525178Y-70837020D01*
X137525182Y-70837021D01*
X137529902Y-70838833D01*
X137534852Y-70839867D01*
X137534855Y-70839868D01*
X137762569Y-70887440D01*
X137762573Y-70887440D01*
X137767520Y-70888474D01*
X138010017Y-70899486D01*
X138015037Y-70898905D01*
X138015041Y-70898905D01*
X138246129Y-70872167D01*
X138246133Y-70872166D01*
X138251156Y-70871585D01*
X138256020Y-70870209D01*
X138256023Y-70870208D01*
X138479869Y-70806866D01*
X138479868Y-70806866D01*
X138484732Y-70805490D01*
X138489308Y-70803356D01*
X138489314Y-70803354D01*
X138700154Y-70705038D01*
X138700158Y-70705036D01*
X138704736Y-70702901D01*
X138905507Y-70566456D01*
X139081881Y-70399668D01*
X139127072Y-70340561D01*
X139226247Y-70210846D01*
X139226250Y-70210842D01*
X139229320Y-70206826D01*
X139249007Y-70170111D01*
X139341639Y-69997352D01*
X139344031Y-69992891D01*
X139374987Y-69902990D01*
X139399363Y-69832196D01*
X139440453Y-69774299D01*
X139506322Y-69747808D01*
X139576057Y-69761133D01*
X139627517Y-69810045D01*
X139640861Y-69843164D01*
X139655555Y-69902990D01*
X139655556Y-69902992D01*
X139656763Y-69907906D01*
X139658738Y-69912558D01*
X139658739Y-69912562D01*
X139709143Y-70031306D01*
X139751612Y-70131356D01*
X139795105Y-70200422D01*
X139857439Y-70299405D01*
X139880967Y-70336767D01*
X139884312Y-70340561D01*
X140038150Y-70515058D01*
X140038153Y-70515061D01*
X140041498Y-70518855D01*
X140045406Y-70522065D01*
X140045407Y-70522066D01*
X140179580Y-70632276D01*
X140229078Y-70672934D01*
X140438878Y-70795041D01*
X140443601Y-70796854D01*
X140660778Y-70880220D01*
X140660782Y-70880221D01*
X140665502Y-70882033D01*
X140670452Y-70883067D01*
X140670455Y-70883068D01*
X140898169Y-70930640D01*
X140898173Y-70930640D01*
X140903120Y-70931674D01*
X141145617Y-70942686D01*
X141150637Y-70942105D01*
X141150641Y-70942105D01*
X141381729Y-70915367D01*
X141381733Y-70915366D01*
X141386756Y-70914785D01*
X141391620Y-70913409D01*
X141391623Y-70913408D01*
X141615469Y-70850066D01*
X141615468Y-70850066D01*
X141620332Y-70848690D01*
X141624908Y-70846556D01*
X141624914Y-70846554D01*
X141835754Y-70748238D01*
X141835758Y-70748236D01*
X141840336Y-70746101D01*
X142041107Y-70609656D01*
X142217481Y-70442868D01*
X142295701Y-70340561D01*
X142361847Y-70254046D01*
X142361850Y-70254042D01*
X142364920Y-70250026D01*
X142391518Y-70200422D01*
X142477239Y-70040552D01*
X142479631Y-70036091D01*
X142558662Y-69806569D01*
X142599979Y-69567364D01*
X142601300Y-69538275D01*
X142601300Y-69491201D01*
X148584300Y-69491201D01*
X148584502Y-69493709D01*
X148584502Y-69493714D01*
X148594979Y-69623924D01*
X148598860Y-69672165D01*
X148600066Y-69677073D01*
X148600066Y-69677076D01*
X148622438Y-69768158D01*
X148656763Y-69907906D01*
X148658738Y-69912558D01*
X148658739Y-69912562D01*
X148709143Y-70031306D01*
X148751612Y-70131356D01*
X148795105Y-70200422D01*
X148857439Y-70299405D01*
X148880967Y-70336767D01*
X148884312Y-70340561D01*
X149038150Y-70515058D01*
X149038153Y-70515061D01*
X149041498Y-70518855D01*
X149045406Y-70522065D01*
X149045407Y-70522066D01*
X149179580Y-70632276D01*
X149229078Y-70672934D01*
X149438878Y-70795041D01*
X149443601Y-70796854D01*
X149660778Y-70880220D01*
X149660782Y-70880221D01*
X149665502Y-70882033D01*
X149670452Y-70883067D01*
X149670455Y-70883068D01*
X149898169Y-70930640D01*
X149898173Y-70930640D01*
X149903120Y-70931674D01*
X150145617Y-70942686D01*
X150150637Y-70942105D01*
X150150641Y-70942105D01*
X150381729Y-70915367D01*
X150381733Y-70915366D01*
X150386756Y-70914785D01*
X150391620Y-70913409D01*
X150391623Y-70913408D01*
X150615469Y-70850066D01*
X150615468Y-70850066D01*
X150620332Y-70848690D01*
X150624908Y-70846556D01*
X150624914Y-70846554D01*
X150835754Y-70748238D01*
X150835758Y-70748236D01*
X150840336Y-70746101D01*
X151041107Y-70609656D01*
X151217481Y-70442868D01*
X151295701Y-70340561D01*
X151361847Y-70254046D01*
X151361850Y-70254042D01*
X151364920Y-70250026D01*
X151391518Y-70200422D01*
X151477239Y-70040552D01*
X151479631Y-70036091D01*
X151558662Y-69806569D01*
X151599979Y-69567364D01*
X151601300Y-69538275D01*
X151601300Y-69491201D01*
X152131900Y-69491201D01*
X152132102Y-69493709D01*
X152132102Y-69493714D01*
X152142579Y-69623924D01*
X152146460Y-69672165D01*
X152147666Y-69677073D01*
X152147666Y-69677076D01*
X152170038Y-69768158D01*
X152204363Y-69907906D01*
X152206338Y-69912558D01*
X152206339Y-69912562D01*
X152256743Y-70031306D01*
X152299212Y-70131356D01*
X152342705Y-70200422D01*
X152405039Y-70299405D01*
X152428567Y-70336767D01*
X152431912Y-70340561D01*
X152585750Y-70515058D01*
X152585753Y-70515061D01*
X152589098Y-70518855D01*
X152593006Y-70522065D01*
X152593007Y-70522066D01*
X152727180Y-70632276D01*
X152776678Y-70672934D01*
X152986478Y-70795041D01*
X152991201Y-70796854D01*
X153208378Y-70880220D01*
X153208382Y-70880221D01*
X153213102Y-70882033D01*
X153218052Y-70883067D01*
X153218055Y-70883068D01*
X153445769Y-70930640D01*
X153445773Y-70930640D01*
X153450720Y-70931674D01*
X153693217Y-70942686D01*
X153698237Y-70942105D01*
X153698241Y-70942105D01*
X153929329Y-70915367D01*
X153929333Y-70915366D01*
X153934356Y-70914785D01*
X153939220Y-70913409D01*
X153939223Y-70913408D01*
X154163069Y-70850066D01*
X154163068Y-70850066D01*
X154167932Y-70848690D01*
X154172508Y-70846556D01*
X154172514Y-70846554D01*
X154383354Y-70748238D01*
X154383358Y-70748236D01*
X154387936Y-70746101D01*
X154588707Y-70609656D01*
X154765081Y-70442868D01*
X154843301Y-70340561D01*
X154909447Y-70254046D01*
X154909450Y-70254042D01*
X154912520Y-70250026D01*
X154939118Y-70200422D01*
X155024839Y-70040552D01*
X155027231Y-70036091D01*
X155106262Y-69806569D01*
X155147579Y-69567364D01*
X155148900Y-69538275D01*
X155148900Y-69491201D01*
X161131900Y-69491201D01*
X161132102Y-69493709D01*
X161132102Y-69493714D01*
X161142579Y-69623924D01*
X161146460Y-69672165D01*
X161147666Y-69677073D01*
X161147666Y-69677076D01*
X161170038Y-69768158D01*
X161204363Y-69907906D01*
X161206338Y-69912558D01*
X161206339Y-69912562D01*
X161256743Y-70031306D01*
X161299212Y-70131356D01*
X161342705Y-70200422D01*
X161405039Y-70299405D01*
X161428567Y-70336767D01*
X161431912Y-70340561D01*
X161585750Y-70515058D01*
X161585753Y-70515061D01*
X161589098Y-70518855D01*
X161593006Y-70522065D01*
X161593007Y-70522066D01*
X161727180Y-70632276D01*
X161776678Y-70672934D01*
X161986478Y-70795041D01*
X161991201Y-70796854D01*
X162208378Y-70880220D01*
X162208382Y-70880221D01*
X162213102Y-70882033D01*
X162218052Y-70883067D01*
X162218055Y-70883068D01*
X162445769Y-70930640D01*
X162445773Y-70930640D01*
X162450720Y-70931674D01*
X162693217Y-70942686D01*
X162698237Y-70942105D01*
X162698241Y-70942105D01*
X162929329Y-70915367D01*
X162929333Y-70915366D01*
X162934356Y-70914785D01*
X162939220Y-70913409D01*
X162939223Y-70913408D01*
X163163069Y-70850066D01*
X163163068Y-70850066D01*
X163167932Y-70848690D01*
X163172508Y-70846556D01*
X163172514Y-70846554D01*
X163383354Y-70748238D01*
X163383358Y-70748236D01*
X163387936Y-70746101D01*
X163588707Y-70609656D01*
X163765081Y-70442868D01*
X163843301Y-70340561D01*
X163909447Y-70254046D01*
X163909450Y-70254042D01*
X163912520Y-70250026D01*
X163939118Y-70200422D01*
X164024839Y-70040552D01*
X164027231Y-70036091D01*
X164106262Y-69806569D01*
X164147579Y-69567364D01*
X164148900Y-69538275D01*
X164148900Y-69448001D01*
X164487300Y-69448001D01*
X164487502Y-69450509D01*
X164487502Y-69450514D01*
X164496904Y-69567364D01*
X164501860Y-69628965D01*
X164503066Y-69633873D01*
X164503066Y-69633876D01*
X164512471Y-69672165D01*
X164559763Y-69864706D01*
X164561738Y-69869358D01*
X164561739Y-69869362D01*
X164612143Y-69988106D01*
X164654612Y-70088156D01*
X164702781Y-70164646D01*
X164767940Y-70268116D01*
X164783967Y-70293567D01*
X164787312Y-70297361D01*
X164941150Y-70471858D01*
X164941153Y-70471861D01*
X164944498Y-70475655D01*
X164948406Y-70478865D01*
X164948407Y-70478866D01*
X165055042Y-70566456D01*
X165132078Y-70629734D01*
X165136446Y-70632276D01*
X165332016Y-70746101D01*
X165341878Y-70751841D01*
X165346601Y-70753654D01*
X165563778Y-70837020D01*
X165563782Y-70837021D01*
X165568502Y-70838833D01*
X165573452Y-70839867D01*
X165573455Y-70839868D01*
X165801169Y-70887440D01*
X165801173Y-70887440D01*
X165806120Y-70888474D01*
X166048617Y-70899486D01*
X166053637Y-70898905D01*
X166053641Y-70898905D01*
X166284729Y-70872167D01*
X166284733Y-70872166D01*
X166289756Y-70871585D01*
X166294620Y-70870209D01*
X166294623Y-70870208D01*
X166518469Y-70806866D01*
X166518468Y-70806866D01*
X166523332Y-70805490D01*
X166527908Y-70803356D01*
X166527914Y-70803354D01*
X166738754Y-70705038D01*
X166738758Y-70705036D01*
X166743336Y-70702901D01*
X166944107Y-70566456D01*
X167120481Y-70399668D01*
X167165672Y-70340561D01*
X167264847Y-70210846D01*
X167264850Y-70210842D01*
X167267920Y-70206826D01*
X167287607Y-70170111D01*
X167380239Y-69997352D01*
X167382631Y-69992891D01*
X167461662Y-69763369D01*
X167502979Y-69524164D01*
X167504300Y-69495075D01*
X167504300Y-67825999D01*
X167501648Y-67793036D01*
X167490146Y-67650076D01*
X167490145Y-67650071D01*
X167489740Y-67645035D01*
X167471161Y-67569392D01*
X167433044Y-67414208D01*
X167431837Y-67409294D01*
X167401129Y-67336949D01*
X167372213Y-67268829D01*
X167336988Y-67185844D01*
X167257380Y-67059429D01*
X167210328Y-66984712D01*
X167210326Y-66984709D01*
X167207633Y-66980433D01*
X167139197Y-66902807D01*
X167050450Y-66802142D01*
X167050447Y-66802139D01*
X167047102Y-66798345D01*
X167043193Y-66795134D01*
X166863428Y-66647474D01*
X166863425Y-66647472D01*
X166859522Y-66644266D01*
X166847038Y-66637000D01*
X169182302Y-66637000D01*
X169202257Y-66865087D01*
X169203681Y-66870400D01*
X169203681Y-66870402D01*
X169244740Y-67023633D01*
X169261516Y-67086243D01*
X169263839Y-67091224D01*
X169263839Y-67091225D01*
X169355951Y-67288762D01*
X169355954Y-67288767D01*
X169358277Y-67293749D01*
X169383026Y-67329094D01*
X169484516Y-67474036D01*
X169489602Y-67481300D01*
X169651500Y-67643198D01*
X169656008Y-67646355D01*
X169656011Y-67646357D01*
X169707630Y-67682501D01*
X169839051Y-67774523D01*
X169844033Y-67776846D01*
X169844038Y-67776849D01*
X169949442Y-67825999D01*
X170046557Y-67871284D01*
X170051865Y-67872706D01*
X170051867Y-67872707D01*
X170262398Y-67929119D01*
X170262400Y-67929119D01*
X170267713Y-67930543D01*
X170367280Y-67939254D01*
X170435949Y-67945262D01*
X170435956Y-67945262D01*
X170438673Y-67945500D01*
X170552927Y-67945500D01*
X170555644Y-67945262D01*
X170555651Y-67945262D01*
X170624320Y-67939254D01*
X170723887Y-67930543D01*
X170729200Y-67929119D01*
X170729202Y-67929119D01*
X170939733Y-67872707D01*
X170939735Y-67872706D01*
X170945043Y-67871284D01*
X171042158Y-67825999D01*
X171147562Y-67776849D01*
X171147567Y-67776846D01*
X171152549Y-67774523D01*
X171283970Y-67682501D01*
X171335589Y-67646357D01*
X171335592Y-67646355D01*
X171340100Y-67643198D01*
X171501998Y-67481300D01*
X171507085Y-67474036D01*
X171608574Y-67329094D01*
X171633323Y-67293749D01*
X171635646Y-67288767D01*
X171635649Y-67288762D01*
X171727761Y-67091225D01*
X171727761Y-67091224D01*
X171730084Y-67086243D01*
X171746861Y-67023633D01*
X171787919Y-66870402D01*
X171787919Y-66870400D01*
X171789343Y-66865087D01*
X171809298Y-66637000D01*
X171789343Y-66408913D01*
X171787446Y-66401833D01*
X171731507Y-66193067D01*
X171731506Y-66193065D01*
X171730084Y-66187757D01*
X171655793Y-66028438D01*
X171635649Y-65985238D01*
X171635646Y-65985233D01*
X171633323Y-65980251D01*
X171532247Y-65835900D01*
X171505157Y-65797211D01*
X171505155Y-65797208D01*
X171501998Y-65792700D01*
X171340100Y-65630802D01*
X171335592Y-65627645D01*
X171335589Y-65627643D01*
X171210923Y-65540351D01*
X171152549Y-65499477D01*
X171147567Y-65497154D01*
X171147562Y-65497151D01*
X170950025Y-65405039D01*
X170950024Y-65405039D01*
X170945043Y-65402716D01*
X170939735Y-65401294D01*
X170939733Y-65401293D01*
X170729202Y-65344881D01*
X170729200Y-65344881D01*
X170723887Y-65343457D01*
X170624320Y-65334746D01*
X170555651Y-65328738D01*
X170555644Y-65328738D01*
X170552927Y-65328500D01*
X170438673Y-65328500D01*
X170435956Y-65328738D01*
X170435949Y-65328738D01*
X170367280Y-65334746D01*
X170267713Y-65343457D01*
X170262400Y-65344881D01*
X170262398Y-65344881D01*
X170051867Y-65401293D01*
X170051865Y-65401294D01*
X170046557Y-65402716D01*
X170041576Y-65405039D01*
X170041575Y-65405039D01*
X169844038Y-65497151D01*
X169844033Y-65497154D01*
X169839051Y-65499477D01*
X169780677Y-65540351D01*
X169656011Y-65627643D01*
X169656008Y-65627645D01*
X169651500Y-65630802D01*
X169489602Y-65792700D01*
X169486445Y-65797208D01*
X169486443Y-65797211D01*
X169459353Y-65835900D01*
X169358277Y-65980251D01*
X169355954Y-65985233D01*
X169355951Y-65985238D01*
X169335807Y-66028438D01*
X169261516Y-66187757D01*
X169260094Y-66193065D01*
X169260093Y-66193067D01*
X169204154Y-66401833D01*
X169202257Y-66408913D01*
X169182302Y-66637000D01*
X166847038Y-66637000D01*
X166649722Y-66522159D01*
X166515525Y-66470646D01*
X166427822Y-66436980D01*
X166427818Y-66436979D01*
X166423098Y-66435167D01*
X166418148Y-66434133D01*
X166418145Y-66434132D01*
X166190431Y-66386560D01*
X166190427Y-66386560D01*
X166185480Y-66385526D01*
X165942983Y-66374514D01*
X165937963Y-66375095D01*
X165937959Y-66375095D01*
X165706871Y-66401833D01*
X165706867Y-66401834D01*
X165701844Y-66402415D01*
X165696980Y-66403791D01*
X165696977Y-66403792D01*
X165608862Y-66428726D01*
X165468268Y-66468510D01*
X165463692Y-66470644D01*
X165463686Y-66470646D01*
X165252846Y-66568962D01*
X165252842Y-66568964D01*
X165248264Y-66571099D01*
X165047493Y-66707544D01*
X164871119Y-66874332D01*
X164868041Y-66878358D01*
X164868040Y-66878359D01*
X164726753Y-67063154D01*
X164726750Y-67063158D01*
X164723680Y-67067174D01*
X164608969Y-67281109D01*
X164529938Y-67510631D01*
X164512778Y-67609978D01*
X164500252Y-67682501D01*
X164488621Y-67749836D01*
X164487300Y-67778925D01*
X164487300Y-69448001D01*
X164148900Y-69448001D01*
X164148900Y-67869199D01*
X164145424Y-67825999D01*
X164134746Y-67693276D01*
X164134745Y-67693271D01*
X164134340Y-67688235D01*
X164124968Y-67650076D01*
X164077644Y-67457408D01*
X164076437Y-67452494D01*
X164060187Y-67414210D01*
X163983565Y-67233702D01*
X163981588Y-67229044D01*
X163888317Y-67080933D01*
X163854928Y-67027912D01*
X163854926Y-67027909D01*
X163852233Y-67023633D01*
X163763771Y-66923292D01*
X163695050Y-66845342D01*
X163695047Y-66845339D01*
X163691702Y-66841545D01*
X163585393Y-66754222D01*
X163508028Y-66690674D01*
X163508025Y-66690672D01*
X163504122Y-66687466D01*
X163374737Y-66612162D01*
X163298690Y-66567901D01*
X163298688Y-66567900D01*
X163294322Y-66565359D01*
X163289599Y-66563546D01*
X163072422Y-66480180D01*
X163072418Y-66480179D01*
X163067698Y-66478367D01*
X163062748Y-66477333D01*
X163062745Y-66477332D01*
X162835031Y-66429760D01*
X162835027Y-66429760D01*
X162830080Y-66428726D01*
X162587583Y-66417714D01*
X162582563Y-66418295D01*
X162582559Y-66418295D01*
X162351471Y-66445033D01*
X162351467Y-66445034D01*
X162346444Y-66445615D01*
X162341580Y-66446991D01*
X162341577Y-66446992D01*
X162234358Y-66477332D01*
X162112868Y-66511710D01*
X162108292Y-66513844D01*
X162108286Y-66513846D01*
X161897446Y-66612162D01*
X161897442Y-66612164D01*
X161892864Y-66614299D01*
X161692093Y-66750744D01*
X161515719Y-66917532D01*
X161512641Y-66921558D01*
X161512640Y-66921559D01*
X161371353Y-67106354D01*
X161371350Y-67106358D01*
X161368280Y-67110374D01*
X161253569Y-67324309D01*
X161174538Y-67553831D01*
X161173676Y-67558823D01*
X161136419Y-67774523D01*
X161133221Y-67793036D01*
X161131900Y-67822125D01*
X161131900Y-69491201D01*
X155148900Y-69491201D01*
X155148900Y-67869199D01*
X155145424Y-67825999D01*
X155134746Y-67693276D01*
X155134745Y-67693271D01*
X155134340Y-67688235D01*
X155124968Y-67650076D01*
X155077644Y-67457408D01*
X155076437Y-67452494D01*
X155060187Y-67414210D01*
X154983565Y-67233702D01*
X154981588Y-67229044D01*
X154888317Y-67080933D01*
X154854928Y-67027912D01*
X154854926Y-67027909D01*
X154852233Y-67023633D01*
X154763771Y-66923292D01*
X154695050Y-66845342D01*
X154695047Y-66845339D01*
X154691702Y-66841545D01*
X154585393Y-66754222D01*
X154508028Y-66690674D01*
X154508025Y-66690672D01*
X154504122Y-66687466D01*
X154491638Y-66680200D01*
X156826902Y-66680200D01*
X156846857Y-66908287D01*
X156848281Y-66913600D01*
X156848281Y-66913602D01*
X156900076Y-67106900D01*
X156906116Y-67129443D01*
X156908439Y-67134424D01*
X156908439Y-67134425D01*
X157000551Y-67331962D01*
X157000554Y-67331967D01*
X157002877Y-67336949D01*
X157056976Y-67414210D01*
X157124491Y-67510631D01*
X157134202Y-67524500D01*
X157296100Y-67686398D01*
X157300608Y-67689555D01*
X157300611Y-67689557D01*
X157378789Y-67744298D01*
X157483651Y-67817723D01*
X157488633Y-67820046D01*
X157488638Y-67820049D01*
X157599444Y-67871718D01*
X157691157Y-67914484D01*
X157696465Y-67915906D01*
X157696467Y-67915907D01*
X157906998Y-67972319D01*
X157907000Y-67972319D01*
X157912313Y-67973743D01*
X158011880Y-67982454D01*
X158080549Y-67988462D01*
X158080556Y-67988462D01*
X158083273Y-67988700D01*
X158197527Y-67988700D01*
X158200244Y-67988462D01*
X158200251Y-67988462D01*
X158268920Y-67982454D01*
X158368487Y-67973743D01*
X158373800Y-67972319D01*
X158373802Y-67972319D01*
X158584333Y-67915907D01*
X158584335Y-67915906D01*
X158589643Y-67914484D01*
X158681356Y-67871718D01*
X158792162Y-67820049D01*
X158792167Y-67820046D01*
X158797149Y-67817723D01*
X158902011Y-67744298D01*
X158980189Y-67689557D01*
X158980192Y-67689555D01*
X158984700Y-67686398D01*
X159146598Y-67524500D01*
X159156310Y-67510631D01*
X159223824Y-67414210D01*
X159277923Y-67336949D01*
X159280246Y-67331967D01*
X159280249Y-67331962D01*
X159372361Y-67134425D01*
X159372361Y-67134424D01*
X159374684Y-67129443D01*
X159380725Y-67106900D01*
X159432519Y-66913602D01*
X159432519Y-66913600D01*
X159433943Y-66908287D01*
X159453898Y-66680200D01*
X159433943Y-66452113D01*
X159429125Y-66434132D01*
X159376107Y-66236267D01*
X159376106Y-66236265D01*
X159374684Y-66230957D01*
X159352217Y-66182775D01*
X159280249Y-66028438D01*
X159280246Y-66028433D01*
X159277923Y-66023451D01*
X159146598Y-65835900D01*
X158984700Y-65674002D01*
X158980192Y-65670845D01*
X158980189Y-65670843D01*
X158902011Y-65616102D01*
X158797149Y-65542677D01*
X158792167Y-65540354D01*
X158792162Y-65540351D01*
X158594625Y-65448239D01*
X158594624Y-65448239D01*
X158589643Y-65445916D01*
X158584335Y-65444494D01*
X158584333Y-65444493D01*
X158373802Y-65388081D01*
X158373800Y-65388081D01*
X158368487Y-65386657D01*
X158268920Y-65377946D01*
X158200251Y-65371938D01*
X158200244Y-65371938D01*
X158197527Y-65371700D01*
X158083273Y-65371700D01*
X158080556Y-65371938D01*
X158080549Y-65371938D01*
X158011880Y-65377946D01*
X157912313Y-65386657D01*
X157907000Y-65388081D01*
X157906998Y-65388081D01*
X157696467Y-65444493D01*
X157696465Y-65444494D01*
X157691157Y-65445916D01*
X157686176Y-65448239D01*
X157686175Y-65448239D01*
X157488638Y-65540351D01*
X157488633Y-65540354D01*
X157483651Y-65542677D01*
X157378789Y-65616102D01*
X157300611Y-65670843D01*
X157300608Y-65670845D01*
X157296100Y-65674002D01*
X157134202Y-65835900D01*
X157002877Y-66023451D01*
X157000554Y-66028433D01*
X157000551Y-66028438D01*
X156928583Y-66182775D01*
X156906116Y-66230957D01*
X156904694Y-66236265D01*
X156904693Y-66236267D01*
X156851675Y-66434132D01*
X156846857Y-66452113D01*
X156826902Y-66680200D01*
X154491638Y-66680200D01*
X154374737Y-66612162D01*
X154298690Y-66567901D01*
X154298688Y-66567900D01*
X154294322Y-66565359D01*
X154289599Y-66563546D01*
X154072422Y-66480180D01*
X154072418Y-66480179D01*
X154067698Y-66478367D01*
X154062748Y-66477333D01*
X154062745Y-66477332D01*
X153835031Y-66429760D01*
X153835027Y-66429760D01*
X153830080Y-66428726D01*
X153587583Y-66417714D01*
X153582563Y-66418295D01*
X153582559Y-66418295D01*
X153351471Y-66445033D01*
X153351467Y-66445034D01*
X153346444Y-66445615D01*
X153341580Y-66446991D01*
X153341577Y-66446992D01*
X153234358Y-66477332D01*
X153112868Y-66511710D01*
X153108292Y-66513844D01*
X153108286Y-66513846D01*
X152897446Y-66612162D01*
X152897442Y-66612164D01*
X152892864Y-66614299D01*
X152692093Y-66750744D01*
X152515719Y-66917532D01*
X152512641Y-66921558D01*
X152512640Y-66921559D01*
X152371353Y-67106354D01*
X152371350Y-67106358D01*
X152368280Y-67110374D01*
X152253569Y-67324309D01*
X152174538Y-67553831D01*
X152173676Y-67558823D01*
X152136419Y-67774523D01*
X152133221Y-67793036D01*
X152131900Y-67822125D01*
X152131900Y-69491201D01*
X151601300Y-69491201D01*
X151601300Y-67869199D01*
X151597824Y-67825999D01*
X151587146Y-67693276D01*
X151587145Y-67693271D01*
X151586740Y-67688235D01*
X151577368Y-67650076D01*
X151530044Y-67457408D01*
X151528837Y-67452494D01*
X151512587Y-67414210D01*
X151435965Y-67233702D01*
X151433988Y-67229044D01*
X151340717Y-67080933D01*
X151307328Y-67027912D01*
X151307326Y-67027909D01*
X151304633Y-67023633D01*
X151216171Y-66923292D01*
X151147450Y-66845342D01*
X151147447Y-66845339D01*
X151144102Y-66841545D01*
X151037793Y-66754222D01*
X150960428Y-66690674D01*
X150960425Y-66690672D01*
X150956522Y-66687466D01*
X150827137Y-66612162D01*
X150751090Y-66567901D01*
X150751088Y-66567900D01*
X150746722Y-66565359D01*
X150741999Y-66563546D01*
X150524822Y-66480180D01*
X150524818Y-66480179D01*
X150520098Y-66478367D01*
X150515148Y-66477333D01*
X150515145Y-66477332D01*
X150287431Y-66429760D01*
X150287427Y-66429760D01*
X150282480Y-66428726D01*
X150039983Y-66417714D01*
X150034963Y-66418295D01*
X150034959Y-66418295D01*
X149803871Y-66445033D01*
X149803867Y-66445034D01*
X149798844Y-66445615D01*
X149793980Y-66446991D01*
X149793977Y-66446992D01*
X149686758Y-66477332D01*
X149565268Y-66511710D01*
X149560692Y-66513844D01*
X149560686Y-66513846D01*
X149349846Y-66612162D01*
X149349842Y-66612164D01*
X149345264Y-66614299D01*
X149144493Y-66750744D01*
X148968119Y-66917532D01*
X148965041Y-66921558D01*
X148965040Y-66921559D01*
X148823753Y-67106354D01*
X148823750Y-67106358D01*
X148820680Y-67110374D01*
X148705969Y-67324309D01*
X148626938Y-67553831D01*
X148626076Y-67558823D01*
X148588819Y-67774523D01*
X148585621Y-67793036D01*
X148584300Y-67822125D01*
X148584300Y-69491201D01*
X142601300Y-69491201D01*
X142601300Y-67869199D01*
X142597824Y-67825999D01*
X142587146Y-67693276D01*
X142587145Y-67693271D01*
X142586740Y-67688235D01*
X142577368Y-67650076D01*
X142530044Y-67457408D01*
X142528837Y-67452494D01*
X142512587Y-67414210D01*
X142435965Y-67233702D01*
X142433988Y-67229044D01*
X142340717Y-67080933D01*
X142307328Y-67027912D01*
X142307326Y-67027909D01*
X142304633Y-67023633D01*
X142216171Y-66923292D01*
X142147450Y-66845342D01*
X142147447Y-66845339D01*
X142144102Y-66841545D01*
X142037793Y-66754222D01*
X141960428Y-66690674D01*
X141960425Y-66690672D01*
X141956522Y-66687466D01*
X141944038Y-66680200D01*
X144279302Y-66680200D01*
X144299257Y-66908287D01*
X144300681Y-66913600D01*
X144300681Y-66913602D01*
X144352476Y-67106900D01*
X144358516Y-67129443D01*
X144360839Y-67134424D01*
X144360839Y-67134425D01*
X144452951Y-67331962D01*
X144452954Y-67331967D01*
X144455277Y-67336949D01*
X144509376Y-67414210D01*
X144576891Y-67510631D01*
X144586602Y-67524500D01*
X144748500Y-67686398D01*
X144753008Y-67689555D01*
X144753011Y-67689557D01*
X144831189Y-67744298D01*
X144936051Y-67817723D01*
X144941033Y-67820046D01*
X144941038Y-67820049D01*
X145051844Y-67871718D01*
X145143557Y-67914484D01*
X145148865Y-67915906D01*
X145148867Y-67915907D01*
X145359398Y-67972319D01*
X145359400Y-67972319D01*
X145364713Y-67973743D01*
X145464280Y-67982454D01*
X145532949Y-67988462D01*
X145532956Y-67988462D01*
X145535673Y-67988700D01*
X145649927Y-67988700D01*
X145652644Y-67988462D01*
X145652651Y-67988462D01*
X145721320Y-67982454D01*
X145820887Y-67973743D01*
X145826200Y-67972319D01*
X145826202Y-67972319D01*
X146036733Y-67915907D01*
X146036735Y-67915906D01*
X146042043Y-67914484D01*
X146133756Y-67871718D01*
X146244562Y-67820049D01*
X146244567Y-67820046D01*
X146249549Y-67817723D01*
X146354411Y-67744298D01*
X146432589Y-67689557D01*
X146432592Y-67689555D01*
X146437100Y-67686398D01*
X146598998Y-67524500D01*
X146608710Y-67510631D01*
X146676224Y-67414210D01*
X146730323Y-67336949D01*
X146732646Y-67331967D01*
X146732649Y-67331962D01*
X146824761Y-67134425D01*
X146824761Y-67134424D01*
X146827084Y-67129443D01*
X146833125Y-67106900D01*
X146884919Y-66913602D01*
X146884919Y-66913600D01*
X146886343Y-66908287D01*
X146906298Y-66680200D01*
X146886343Y-66452113D01*
X146881525Y-66434132D01*
X146828507Y-66236267D01*
X146828506Y-66236265D01*
X146827084Y-66230957D01*
X146804617Y-66182775D01*
X146732649Y-66028438D01*
X146732646Y-66028433D01*
X146730323Y-66023451D01*
X146598998Y-65835900D01*
X146437100Y-65674002D01*
X146432592Y-65670845D01*
X146432589Y-65670843D01*
X146354411Y-65616102D01*
X146249549Y-65542677D01*
X146244567Y-65540354D01*
X146244562Y-65540351D01*
X146047025Y-65448239D01*
X146047024Y-65448239D01*
X146042043Y-65445916D01*
X146036735Y-65444494D01*
X146036733Y-65444493D01*
X145826202Y-65388081D01*
X145826200Y-65388081D01*
X145820887Y-65386657D01*
X145721320Y-65377946D01*
X145652651Y-65371938D01*
X145652644Y-65371938D01*
X145649927Y-65371700D01*
X145535673Y-65371700D01*
X145532956Y-65371938D01*
X145532949Y-65371938D01*
X145464280Y-65377946D01*
X145364713Y-65386657D01*
X145359400Y-65388081D01*
X145359398Y-65388081D01*
X145148867Y-65444493D01*
X145148865Y-65444494D01*
X145143557Y-65445916D01*
X145138576Y-65448239D01*
X145138575Y-65448239D01*
X144941038Y-65540351D01*
X144941033Y-65540354D01*
X144936051Y-65542677D01*
X144831189Y-65616102D01*
X144753011Y-65670843D01*
X144753008Y-65670845D01*
X144748500Y-65674002D01*
X144586602Y-65835900D01*
X144455277Y-66023451D01*
X144452954Y-66028433D01*
X144452951Y-66028438D01*
X144380983Y-66182775D01*
X144358516Y-66230957D01*
X144357094Y-66236265D01*
X144357093Y-66236267D01*
X144304075Y-66434132D01*
X144299257Y-66452113D01*
X144279302Y-66680200D01*
X141944038Y-66680200D01*
X141827137Y-66612162D01*
X141751090Y-66567901D01*
X141751088Y-66567900D01*
X141746722Y-66565359D01*
X141741999Y-66563546D01*
X141524822Y-66480180D01*
X141524818Y-66480179D01*
X141520098Y-66478367D01*
X141515148Y-66477333D01*
X141515145Y-66477332D01*
X141287431Y-66429760D01*
X141287427Y-66429760D01*
X141282480Y-66428726D01*
X141039983Y-66417714D01*
X141034963Y-66418295D01*
X141034959Y-66418295D01*
X140803871Y-66445033D01*
X140803867Y-66445034D01*
X140798844Y-66445615D01*
X140793980Y-66446991D01*
X140793977Y-66446992D01*
X140686758Y-66477332D01*
X140565268Y-66511710D01*
X140560692Y-66513844D01*
X140560686Y-66513846D01*
X140349846Y-66612162D01*
X140349842Y-66612164D01*
X140345264Y-66614299D01*
X140144493Y-66750744D01*
X139968119Y-66917532D01*
X139965041Y-66921558D01*
X139965040Y-66921559D01*
X139823753Y-67106354D01*
X139823750Y-67106358D01*
X139820680Y-67110374D01*
X139705969Y-67324309D01*
X139704323Y-67329090D01*
X139704321Y-67329094D01*
X139650637Y-67485004D01*
X139609547Y-67542901D01*
X139543678Y-67569392D01*
X139473943Y-67556067D01*
X139422483Y-67507155D01*
X139409139Y-67474036D01*
X139394445Y-67414210D01*
X139394443Y-67414204D01*
X139393237Y-67409294D01*
X139362529Y-67336949D01*
X139333613Y-67268829D01*
X139298388Y-67185844D01*
X139218780Y-67059429D01*
X139171728Y-66984712D01*
X139171726Y-66984709D01*
X139169033Y-66980433D01*
X139100597Y-66902807D01*
X139011850Y-66802142D01*
X139011847Y-66802139D01*
X139008502Y-66798345D01*
X139004593Y-66795134D01*
X138824828Y-66647474D01*
X138824825Y-66647472D01*
X138820922Y-66644266D01*
X138611122Y-66522159D01*
X138476925Y-66470646D01*
X138389222Y-66436980D01*
X138389218Y-66436979D01*
X138384498Y-66435167D01*
X138379548Y-66434133D01*
X138379545Y-66434132D01*
X138151831Y-66386560D01*
X138151827Y-66386560D01*
X138146880Y-66385526D01*
X137904383Y-66374514D01*
X137899363Y-66375095D01*
X137899359Y-66375095D01*
X137668271Y-66401833D01*
X137668267Y-66401834D01*
X137663244Y-66402415D01*
X137658380Y-66403791D01*
X137658377Y-66403792D01*
X137570262Y-66428726D01*
X137429668Y-66468510D01*
X137425092Y-66470644D01*
X137425086Y-66470646D01*
X137214246Y-66568962D01*
X137214242Y-66568964D01*
X137209664Y-66571099D01*
X137008893Y-66707544D01*
X136832519Y-66874332D01*
X136829441Y-66878358D01*
X136829440Y-66878359D01*
X136688153Y-67063154D01*
X136688150Y-67063158D01*
X136685080Y-67067174D01*
X136570369Y-67281109D01*
X136491338Y-67510631D01*
X136474178Y-67609978D01*
X136461652Y-67682501D01*
X136450021Y-67749836D01*
X136448700Y-67778925D01*
X136448700Y-69448001D01*
X130465700Y-69448001D01*
X130465700Y-67825999D01*
X130463048Y-67793036D01*
X130451546Y-67650076D01*
X130451545Y-67650071D01*
X130451140Y-67645035D01*
X130432561Y-67569392D01*
X130394444Y-67414208D01*
X130393237Y-67409294D01*
X130362529Y-67336949D01*
X130333613Y-67268829D01*
X130298388Y-67185844D01*
X130218780Y-67059429D01*
X130171728Y-66984712D01*
X130171726Y-66984709D01*
X130169033Y-66980433D01*
X130100597Y-66902807D01*
X130011850Y-66802142D01*
X130011847Y-66802139D01*
X130008502Y-66798345D01*
X130004593Y-66795134D01*
X129824828Y-66647474D01*
X129824825Y-66647472D01*
X129820922Y-66644266D01*
X129808438Y-66637000D01*
X132143702Y-66637000D01*
X132163657Y-66865087D01*
X132165081Y-66870400D01*
X132165081Y-66870402D01*
X132206140Y-67023633D01*
X132222916Y-67086243D01*
X132225239Y-67091224D01*
X132225239Y-67091225D01*
X132317351Y-67288762D01*
X132317354Y-67288767D01*
X132319677Y-67293749D01*
X132344426Y-67329094D01*
X132445916Y-67474036D01*
X132451002Y-67481300D01*
X132612900Y-67643198D01*
X132617408Y-67646355D01*
X132617411Y-67646357D01*
X132669030Y-67682501D01*
X132800451Y-67774523D01*
X132805433Y-67776846D01*
X132805438Y-67776849D01*
X132910842Y-67825999D01*
X133007957Y-67871284D01*
X133013265Y-67872706D01*
X133013267Y-67872707D01*
X133223798Y-67929119D01*
X133223800Y-67929119D01*
X133229113Y-67930543D01*
X133328680Y-67939254D01*
X133397349Y-67945262D01*
X133397356Y-67945262D01*
X133400073Y-67945500D01*
X133514327Y-67945500D01*
X133517044Y-67945262D01*
X133517051Y-67945262D01*
X133585720Y-67939254D01*
X133685287Y-67930543D01*
X133690600Y-67929119D01*
X133690602Y-67929119D01*
X133901133Y-67872707D01*
X133901135Y-67872706D01*
X133906443Y-67871284D01*
X134003558Y-67825999D01*
X134108962Y-67776849D01*
X134108967Y-67776846D01*
X134113949Y-67774523D01*
X134245370Y-67682501D01*
X134296989Y-67646357D01*
X134296992Y-67646355D01*
X134301500Y-67643198D01*
X134463398Y-67481300D01*
X134468485Y-67474036D01*
X134569974Y-67329094D01*
X134594723Y-67293749D01*
X134597046Y-67288767D01*
X134597049Y-67288762D01*
X134689161Y-67091225D01*
X134689161Y-67091224D01*
X134691484Y-67086243D01*
X134708261Y-67023633D01*
X134749319Y-66870402D01*
X134749319Y-66870400D01*
X134750743Y-66865087D01*
X134770698Y-66637000D01*
X134750743Y-66408913D01*
X134748846Y-66401833D01*
X134692907Y-66193067D01*
X134692906Y-66193065D01*
X134691484Y-66187757D01*
X134617193Y-66028438D01*
X134597049Y-65985238D01*
X134597046Y-65985233D01*
X134594723Y-65980251D01*
X134493647Y-65835900D01*
X134466557Y-65797211D01*
X134466555Y-65797208D01*
X134463398Y-65792700D01*
X134301500Y-65630802D01*
X134296992Y-65627645D01*
X134296989Y-65627643D01*
X134172323Y-65540351D01*
X134113949Y-65499477D01*
X134108967Y-65497154D01*
X134108962Y-65497151D01*
X133911425Y-65405039D01*
X133911424Y-65405039D01*
X133906443Y-65402716D01*
X133901135Y-65401294D01*
X133901133Y-65401293D01*
X133690602Y-65344881D01*
X133690600Y-65344881D01*
X133685287Y-65343457D01*
X133585720Y-65334746D01*
X133517051Y-65328738D01*
X133517044Y-65328738D01*
X133514327Y-65328500D01*
X133400073Y-65328500D01*
X133397356Y-65328738D01*
X133397349Y-65328738D01*
X133328680Y-65334746D01*
X133229113Y-65343457D01*
X133223800Y-65344881D01*
X133223798Y-65344881D01*
X133013267Y-65401293D01*
X133013265Y-65401294D01*
X133007957Y-65402716D01*
X133002976Y-65405039D01*
X133002975Y-65405039D01*
X132805438Y-65497151D01*
X132805433Y-65497154D01*
X132800451Y-65499477D01*
X132742077Y-65540351D01*
X132617411Y-65627643D01*
X132617408Y-65627645D01*
X132612900Y-65630802D01*
X132451002Y-65792700D01*
X132447845Y-65797208D01*
X132447843Y-65797211D01*
X132420753Y-65835900D01*
X132319677Y-65980251D01*
X132317354Y-65985233D01*
X132317351Y-65985238D01*
X132297207Y-66028438D01*
X132222916Y-66187757D01*
X132221494Y-66193065D01*
X132221493Y-66193067D01*
X132165554Y-66401833D01*
X132163657Y-66408913D01*
X132143702Y-66637000D01*
X129808438Y-66637000D01*
X129611122Y-66522159D01*
X129476925Y-66470646D01*
X129389222Y-66436980D01*
X129389218Y-66436979D01*
X129384498Y-66435167D01*
X129379548Y-66434133D01*
X129379545Y-66434132D01*
X129151831Y-66386560D01*
X129151827Y-66386560D01*
X129146880Y-66385526D01*
X128904383Y-66374514D01*
X128899363Y-66375095D01*
X128899359Y-66375095D01*
X128668271Y-66401833D01*
X128668267Y-66401834D01*
X128663244Y-66402415D01*
X128658380Y-66403791D01*
X128658377Y-66403792D01*
X128570262Y-66428726D01*
X128429668Y-66468510D01*
X128425092Y-66470644D01*
X128425086Y-66470646D01*
X128214246Y-66568962D01*
X128214242Y-66568964D01*
X128209664Y-66571099D01*
X128008893Y-66707544D01*
X127832519Y-66874332D01*
X127829441Y-66878358D01*
X127829440Y-66878359D01*
X127756096Y-66974289D01*
X127698831Y-67016257D01*
X127627968Y-67020602D01*
X127566004Y-66985946D01*
X127532614Y-66923292D01*
X127530000Y-66897760D01*
X127530000Y-63266000D01*
X127550002Y-63197879D01*
X127603658Y-63151386D01*
X127656000Y-63140000D01*
X176364000Y-63140000D01*
X176432121Y-63160002D01*
G37*
%TD.AperFunction*%
%TD*%
M02*
