%TF.GenerationSoftware,KiCad,Pcbnew,(6.0.9)*%
%TF.CreationDate,2023-02-05T01:33:25+02:00*%
%TF.ProjectId,Power for cam,506f7765-7220-4666-9f72-2063616d2e6b,rev?*%
%TF.SameCoordinates,Original*%
%TF.FileFunction,Legend,Top*%
%TF.FilePolarity,Positive*%
%FSLAX46Y46*%
G04 Gerber Fmt 4.6, Leading zero omitted, Abs format (unit mm)*
G04 Created by KiCad (PCBNEW (6.0.9)) date 2023-02-05 01:33:25*
%MOMM*%
%LPD*%
G01*
G04 APERTURE LIST*
%ADD10C,0.150000*%
%ADD11C,0.300000*%
%ADD12C,0.120000*%
%ADD13C,0.127000*%
G04 APERTURE END LIST*
D10*
X143738095Y-60452380D02*
X143928571Y-60452380D01*
X144023809Y-60500000D01*
X144119047Y-60595238D01*
X144166666Y-60785714D01*
X144166666Y-61119047D01*
X144119047Y-61309523D01*
X144023809Y-61404761D01*
X143928571Y-61452380D01*
X143738095Y-61452380D01*
X143642857Y-61404761D01*
X143547619Y-61309523D01*
X143500000Y-61119047D01*
X143500000Y-60785714D01*
X143547619Y-60595238D01*
X143642857Y-60500000D01*
X143738095Y-60452380D01*
X147642857Y-61452380D02*
X147642857Y-60452380D01*
X151738095Y-61452380D02*
X151404761Y-60976190D01*
X151166666Y-61452380D02*
X151166666Y-60452380D01*
X151547619Y-60452380D01*
X151642857Y-60500000D01*
X151690476Y-60547619D01*
X151738095Y-60642857D01*
X151738095Y-60785714D01*
X151690476Y-60880952D01*
X151642857Y-60928571D01*
X151547619Y-60976190D01*
X151166666Y-60976190D01*
X155404761Y-60452380D02*
X155595238Y-60452380D01*
X155690476Y-60500000D01*
X155785714Y-60595238D01*
X155833333Y-60785714D01*
X155833333Y-61119047D01*
X155785714Y-61309523D01*
X155690476Y-61404761D01*
X155595238Y-61452380D01*
X155404761Y-61452380D01*
X155309523Y-61404761D01*
X155214285Y-61309523D01*
X155166666Y-61119047D01*
X155166666Y-60785714D01*
X155214285Y-60595238D01*
X155309523Y-60500000D01*
X155404761Y-60452380D01*
X159928571Y-60452380D02*
X160261904Y-61452380D01*
X160595238Y-60452380D01*
D11*
X155563971Y-89426542D02*
X156706828Y-89426542D01*
X156135400Y-89997971D02*
X156135400Y-88855114D01*
X149645628Y-89136057D02*
X148502771Y-89136057D01*
D12*
%TO.C,J9*%
X138567200Y-70687000D02*
X138567200Y-76747000D01*
X128347200Y-63527000D02*
X138567200Y-63527000D01*
X134457200Y-76937000D02*
X132457200Y-76937000D01*
X128347200Y-66587000D02*
X128347200Y-63527000D01*
X138567200Y-76747000D02*
X135757200Y-76747000D01*
X138567200Y-63527000D02*
X138567200Y-66587000D01*
X131157200Y-76747000D02*
X128347200Y-76747000D01*
X128347200Y-76747000D02*
X128347200Y-70687000D01*
%TO.C,J5*%
X175605800Y-70687000D02*
X175605800Y-76747000D01*
X165385800Y-63527000D02*
X175605800Y-63527000D01*
X171495800Y-76937000D02*
X169495800Y-76937000D01*
X168195800Y-76747000D02*
X165385800Y-76747000D01*
X165385800Y-66587000D02*
X165385800Y-63527000D01*
X175605800Y-63527000D02*
X175605800Y-66587000D01*
X175605800Y-76747000D02*
X172795800Y-76747000D01*
X165385800Y-76747000D02*
X165385800Y-70687000D01*
X162885800Y-78646800D02*
X168945800Y-78646800D01*
X162885800Y-81456800D02*
X162885800Y-78646800D01*
X168945800Y-88866800D02*
X162885800Y-88866800D01*
X162885800Y-88866800D02*
X162885800Y-86056800D01*
X176105800Y-78646800D02*
X176105800Y-88866800D01*
X162695800Y-84756800D02*
X162695800Y-82756800D01*
X176105800Y-88866800D02*
X173045800Y-88866800D01*
X173045800Y-78646800D02*
X176105800Y-78646800D01*
D13*
%TO.C,J1*%
X143436000Y-83845400D02*
X142436000Y-83845400D01*
X160936000Y-84345400D02*
X160936000Y-83345400D01*
X159686000Y-87895400D02*
X146986000Y-87895400D01*
X159686000Y-79795400D02*
X159686000Y-87895400D01*
X144186000Y-85445400D02*
X144186000Y-82245400D01*
X144186000Y-82245400D02*
X146986000Y-79795400D01*
X146986000Y-79795400D02*
X159686000Y-79795400D01*
X161436000Y-83845400D02*
X160436000Y-83845400D01*
X146986000Y-87895400D02*
X144186000Y-85445400D01*
D12*
%TO.C,J8*%
X140590000Y-104310000D02*
X140590000Y-101250000D01*
X150810000Y-101250000D02*
X150810000Y-104310000D01*
X148000000Y-91090000D02*
X150810000Y-91090000D01*
X144700000Y-90900000D02*
X146700000Y-90900000D01*
X150810000Y-104310000D02*
X140590000Y-104310000D01*
X140590000Y-91090000D02*
X143400000Y-91090000D01*
X150810000Y-91090000D02*
X150810000Y-97150000D01*
X140590000Y-97150000D02*
X140590000Y-91090000D01*
%TO.C,J6*%
X165374800Y-104362800D02*
X165374800Y-101302800D01*
X165374800Y-97202800D02*
X165374800Y-91142800D01*
X175594800Y-101302800D02*
X175594800Y-104362800D01*
X172784800Y-91142800D02*
X175594800Y-91142800D01*
X175594800Y-91142800D02*
X175594800Y-97202800D01*
X169484800Y-90952800D02*
X171484800Y-90952800D01*
X165374800Y-91142800D02*
X168184800Y-91142800D01*
X175594800Y-104362800D02*
X165374800Y-104362800D01*
%TO.C,J2*%
X150702800Y-70730200D02*
X150702800Y-76790200D01*
X140482800Y-76790200D02*
X140482800Y-70730200D01*
X140482800Y-63570200D02*
X150702800Y-63570200D01*
X143292800Y-76790200D02*
X140482800Y-76790200D01*
X140482800Y-66630200D02*
X140482800Y-63570200D01*
X150702800Y-63570200D02*
X150702800Y-66630200D01*
X146592800Y-76980200D02*
X144592800Y-76980200D01*
X150702800Y-76790200D02*
X147892800Y-76790200D01*
%TO.C,J10*%
X141077600Y-86145400D02*
X141077600Y-88955400D01*
X141267600Y-82845400D02*
X141267600Y-84845400D01*
X141077600Y-78735400D02*
X141077600Y-81545400D01*
X130917600Y-88955400D02*
X127857600Y-88955400D01*
X141077600Y-88955400D02*
X135017600Y-88955400D01*
X127857600Y-78735400D02*
X130917600Y-78735400D01*
X135017600Y-78735400D02*
X141077600Y-78735400D01*
X127857600Y-88955400D02*
X127857600Y-78735400D01*
%TO.C,J7*%
X159140400Y-76980200D02*
X157140400Y-76980200D01*
X153030400Y-76790200D02*
X153030400Y-70730200D01*
X153030400Y-66630200D02*
X153030400Y-63570200D01*
X155840400Y-76790200D02*
X153030400Y-76790200D01*
X163250400Y-70730200D02*
X163250400Y-76790200D01*
X163250400Y-76790200D02*
X160440400Y-76790200D01*
X153030400Y-63570200D02*
X163250400Y-63570200D01*
X163250400Y-63570200D02*
X163250400Y-66630200D01*
%TO.C,J4*%
X153112200Y-104372600D02*
X153112200Y-101312600D01*
X153112200Y-97212600D02*
X153112200Y-91152600D01*
X157222200Y-90962600D02*
X159222200Y-90962600D01*
X163332200Y-104372600D02*
X153112200Y-104372600D01*
X163332200Y-101312600D02*
X163332200Y-104372600D01*
X163332200Y-91152600D02*
X163332200Y-97212600D01*
X160522200Y-91152600D02*
X163332200Y-91152600D01*
X153112200Y-91152600D02*
X155922200Y-91152600D01*
%TO.C,J3*%
X128420000Y-91080000D02*
X131230000Y-91080000D01*
X138640000Y-104300000D02*
X128420000Y-104300000D01*
X135830000Y-91080000D02*
X138640000Y-91080000D01*
X138640000Y-91080000D02*
X138640000Y-97140000D01*
X128420000Y-97140000D02*
X128420000Y-91080000D01*
X128420000Y-104300000D02*
X128420000Y-101240000D01*
X138640000Y-101240000D02*
X138640000Y-104300000D01*
X132530000Y-90890000D02*
X134530000Y-90890000D01*
%TD*%
M02*
